<svg xmlns="http://www.w3.org/2000/svg" viewBox="0 0 1600 900" preserveAspectRatio="xMidYMid slice">
  <defs>
    <linearGradient id="g" x1="0" y1="0" x2="1" y2="1">
      <stop offset="0%" stop-color="#0D4F8B"/>
      <stop offset="55%" stop-color="#08365E"/>
      <stop offset="100%" stop-color="#02101D"/>
    </linearGradient>
    <pattern id="grid" width="80" height="80" patternUnits="userSpaceOnUse">
      <path d="M80 0 L0 0 0 80" fill="none" stroke="#00A0E0" stroke-width="0.6" opacity="0.18"/>
    </pattern>
  </defs>
  <rect width="1600" height="900" fill="url(#g)"/>
  <rect width="1600" height="900" fill="url(#grid)"/>
  <!-- Suggested truck silhouettes -->
  <g opacity="0.18" fill="#00A0E0">
    <rect x="180" y="610" width="240" height="120" rx="8"/>
    <rect x="180" y="540" width="120" height="70" rx="6"/>
    <circle cx="230" cy="750" r="22"/>
    <circle cx="370" cy="750" r="22"/>
    <rect x="500" y="600" width="280" height="130" rx="8"/>
    <rect x="500" y="525" width="130" height="75" rx="6"/>
    <circle cx="555" cy="750" r="22"/>
    <circle cx="730" cy="750" r="22"/>
    <rect x="850" y="615" width="250" height="115" rx="8"/>
    <rect x="850" y="545" width="125" height="70" rx="6"/>
    <circle cx="905" cy="750" r="22"/>
    <circle cx="1060" cy="750" r="22"/>
    <rect x="1170" y="600" width="270" height="130" rx="8"/>
    <rect x="1170" y="530" width="130" height="70" rx="6"/>
    <circle cx="1225" cy="750" r="22"/>
    <circle cx="1400" cy="750" r="22"/>
  </g>
</svg>
