<svg xmlns="http://www.w3.org/2000/svg" viewBox="0 0 1600 600">
  <defs>
    <linearGradient id="bg" x1="0" y1="0" x2="0" y2="1">
      <stop offset="0%" stop-color="#EAF2FA"/>
      <stop offset="100%" stop-color="#CDDDF0"/>
    </linearGradient>
    <pattern id="dots" width="24" height="24" patternUnits="userSpaceOnUse">
      <circle cx="2" cy="2" r="1.4" fill="#0D4F8B" opacity="0.18"/>
    </pattern>
  </defs>
  <rect width="1600" height="600" fill="url(#bg)"/>
  <rect width="1600" height="600" fill="url(#dots)"/>
  <!-- Stylised UAE outline -->
  <path d="M250 380 L320 320 L420 280 L560 250 L720 240 L860 250 L1010 280 L1140 320 L1230 360 L1290 400 L1340 440 L1380 470 L1340 510 L1240 530 L1100 540 L920 540 L760 530 L600 510 L460 480 L360 440 Z"
        fill="#99BAE0" stroke="#0D4F8B" stroke-width="2.5" opacity="0.85"/>
  <!-- Coastline detail -->
  <path d="M250 380 L320 320 L420 280 L560 250 L720 240" fill="none" stroke="#00A0E0" stroke-width="3"/>
  <text x="800" y="100" font-family="Inter, sans-serif" font-size="28" font-weight="700" fill="#0D4F8B" text-anchor="middle" letter-spacing="3">UNITED ARAB EMIRATES</text>
</svg>
