<svg id="Layer_1" height="512" viewBox="0 0 80 80" width="512" xmlns="http://www.w3.org/2000/svg" data-name="Layer 1"><path d="m66.9 37.414h-53.8a1 1 0 0 1 -.979-1.206l5.3-25.164a1 1 0 0 1 .978-.794h43.201a1 1 0 0 1 .978.794l5.3 25.164a1 1 0 0 1 -.979 1.206zm-52.564-2h51.33l-4.881-23.164h-41.57z"/><path d="m58.532 31.237h-37.064a1 1 0 0 1 -.962-1.275l3.654-12.809a1 1 0 0 1 .961-.726h29.757a1 1 0 0 1 .962.726l3.654 12.809a1 1 0 0 1 -.962 1.275zm-35.739-2h34.414l-3.083-10.81h-28.248z"/><path d="m71.982 59.775h-63.964a1 1 0 0 1 -1-1v-18.254a5.112 5.112 0 0 1 5.106-5.107h55.752a5.112 5.112 0 0 1 5.106 5.107v18.254a1 1 0 0 1 -1 1zm-62.964-2h61.964v-17.254a3.11 3.11 0 0 0 -3.106-3.107h-55.752a3.11 3.11 0 0 0 -3.106 3.107z"/><path d="m61.6 53.9a6.3 6.3 0 1 1 6.3-6.3 6.31 6.31 0 0 1 -6.3 6.3zm0-10.6a4.3 4.3 0 1 0 4.3 4.3 4.309 4.309 0 0 0 -4.3-4.308z"/><path d="m18.4 53.9a6.3 6.3 0 1 1 6.3-6.3 6.309 6.309 0 0 1 -6.3 6.3zm0-10.6a4.3 4.3 0 1 0 4.3 4.3 4.308 4.308 0 0 0 -4.3-4.308z"/><path d="m52.255 45.406h-24.311a1 1 0 1 1 0-2h24.311a1 1 0 0 1 0 2z"/><path d="m52.255 51.783h-24.311a1 1 0 0 1 0-2h24.311a1 1 0 1 1 0 2z"/><path d="m65.556 69.75h-10.013a2.757 2.757 0 0 1 -2.754-2.75v-8.225a1 1 0 0 1 1-1h13.522a1 1 0 0 1 1 1v8.225a2.758 2.758 0 0 1 -2.755 2.75zm-10.767-9.975v7.225a.755.755 0 0 0 .754.754h10.013a.755.755 0 0 0 .755-.754v-7.225z"/><path d="m24.457 69.75h-10.013a2.758 2.758 0 0 1 -2.755-2.75v-8.225a1 1 0 0 1 1-1h13.522a1 1 0 0 1 1 1v8.225a2.757 2.757 0 0 1 -2.754 2.75zm-10.768-9.975v7.225a.755.755 0 0 0 .755.754h10.013a.755.755 0 0 0 .754-.754v-7.225z"/></svg>