<svg id="Layer_1" height="512" viewBox="0 0 80 80" width="512" xmlns="http://www.w3.org/2000/svg" data-name="Layer 1"><path d="m48.741 73h-17.482a1 1 0 0 1 -.963-.728l-2.156-7.63a1 1 0 0 1 .96-1.272h21.8a1 1 0 0 1 .962 1.272l-2.162 7.63a1 1 0 0 1 -.959.728zm-16.726-2h15.97l1.591-5.63h-19.152z"/><path d="m55.369 65.37h-30.738a1.591 1.591 0 0 1 -1.589-1.589v-55.192a1.591 1.591 0 0 1 1.589-1.589h30.738a1.591 1.591 0 0 1 1.589 1.589v55.192a1.591 1.591 0 0 1 -1.589 1.589zm-30.327-2h29.916v-54.37h-29.916z"/><path d="m40 26.39a7.053 7.053 0 1 1 7.053-7.053 7.061 7.061 0 0 1 -7.053 7.053zm0-12.1a5.053 5.053 0 1 0 5.053 5.052 5.059 5.059 0 0 0 -5.053-5.057z"/><path d="m40 43.237a7.053 7.053 0 1 1 7.053-7.052 7.06 7.06 0 0 1 -7.053 7.052zm0-12.1a5.053 5.053 0 1 0 5.053 5.053 5.059 5.059 0 0 0 -5.053-5.058z"/><path d="m40 60.084a7.053 7.053 0 1 1 7.053-7.052 7.06 7.06 0 0 1 -7.053 7.052zm0-12.105a5.053 5.053 0 1 0 5.053 5.053 5.059 5.059 0 0 0 -5.053-5.053z"/><path d="m60.11 26.215h-4.152a1 1 0 0 1 -1-1v-13.361a1 1 0 0 1 1-1h12.642a1 1 0 0 1 1 .942 11.41 11.41 0 0 1 -8.49 11.188v2.231a1 1 0 0 1 -1 1zm-3.152-2h2.152v-1.994a1 1 0 0 1 .76-.971c6.369-1.577 7.511-6.345 7.7-8.4h-10.612z"/><path d="m60.11 43.653h-4.152a1 1 0 0 1 -1-1v-13.36a1 1 0 0 1 1-1h12.642a1 1 0 0 1 1 .941 11.41 11.41 0 0 1 -8.49 11.188v2.231a1 1 0 0 1 -1 1zm-3.152-2h2.152v-1.994a1 1 0 0 1 .76-.971c6.369-1.577 7.511-6.345 7.7-8.4h-10.612z"/><path d="m60.11 61.092h-4.152a1 1 0 0 1 -1-1v-13.361a1 1 0 0 1 1-1h12.642a1 1 0 0 1 1 .941 11.409 11.409 0 0 1 -8.49 11.188v2.232a1 1 0 0 1 -1 1zm-3.152-2h2.152v-1.992a1 1 0 0 1 .76-.971c6.369-1.577 7.511-6.344 7.7-8.395h-10.612z"/><path d="m24.042 26.215h-4.152a1 1 0 0 1 -1-1v-2.231a11.41 11.41 0 0 1 -8.49-11.184 1 1 0 0 1 1-.942h12.642a1 1 0 0 1 1 1v13.357a1 1 0 0 1 -1 1zm-3.152-2h2.152v-11.361h-10.616c.192 2.048 1.333 6.818 7.7 8.4a1 1 0 0 1 .76.971z"/><path d="m24.042 43.653h-4.152a1 1 0 0 1 -1-1v-2.231a11.41 11.41 0 0 1 -8.49-11.188 1 1 0 0 1 1-.941h12.642a1 1 0 0 1 1 1v13.36a1 1 0 0 1 -1 1zm-3.152-2h2.152v-11.36h-10.616c.192 2.048 1.333 6.817 7.7 8.4a1 1 0 0 1 .76.971z"/><path d="m24.042 61.092h-4.152a1 1 0 0 1 -1-1v-2.232a11.409 11.409 0 0 1 -8.49-11.188 1 1 0 0 1 1-.941h12.642a1 1 0 0 1 1 1v13.361a1 1 0 0 1 -1 1zm-3.152-2h2.152v-11.361h-10.616c.192 2.048 1.333 6.818 7.7 8.395a1 1 0 0 1 .76.971z"/></svg>