<svg id="Layer_1" height="512" viewBox="0 0 80 80" width="512" xmlns="http://www.w3.org/2000/svg" data-name="Layer 1"><path d="m63.208 65.521h-46.416a3.433 3.433 0 0 1 -3.425-3.434v-51.653a3.433 3.433 0 0 1 3.425-3.434h46.416a3.433 3.433 0 0 1 3.425 3.434v51.653a3.433 3.433 0 0 1 -3.425 3.434zm-46.416-56.521a1.431 1.431 0 0 0 -1.425 1.434v51.653a1.431 1.431 0 0 0 1.425 1.434h46.416a1.431 1.431 0 0 0 1.425-1.434v-51.653a1.431 1.431 0 0 0 -1.425-1.434z"/><path d="m60.092 73h-6.712a2.413 2.413 0 0 1 -2.18-2.637v-5.842a1 1 0 0 1 1-1h9.064a1 1 0 0 1 1 1v5.842a2.413 2.413 0 0 1 -2.172 2.637zm-6.892-7.479v4.842a.825.825 0 0 0 .226.647l6.666-.01a1.16 1.16 0 0 0 .176-.637v-4.842z"/><path d="m26.62 73h-6.712a2.413 2.413 0 0 1 -2.176-2.637v-5.842a1 1 0 0 1 1-1h9.068a1 1 0 0 1 1 1v5.842a2.413 2.413 0 0 1 -2.18 2.637zm-6.888-7.479v4.842a.825.825 0 0 0 .226.647l6.662-.01a1.16 1.16 0 0 0 .176-.637v-4.842z"/><path d="m65.633 18.838h-51.266a1 1 0 1 1 0-2h51.266a1 1 0 0 1 0 2z"/><path d="m65.633 50.557h-51.266a1 1 0 0 1 0-2h51.266a1 1 0 0 1 0 2z"/><path d="m54.144 61.545a4.506 4.506 0 1 1 4.494-4.506 4.506 4.506 0 0 1 -4.494 4.506zm0-7.012a2.506 2.506 0 1 0 2.494 2.506 2.5 2.5 0 0 0 -2.494-2.506z"/><path d="m25.856 61.545a4.506 4.506 0 1 1 4.494-4.506 4.506 4.506 0 0 1 -4.494 4.506zm0-7.012a2.506 2.506 0 1 0 2.494 2.506 2.5 2.5 0 0 0 -2.494-2.506z"/><path d="m40 50.557a1 1 0 0 1 -1-1v-31.719a1 1 0 0 1 2 0v31.719a1 1 0 0 1 -1 1z"/><path d="m34.147 50.557h-13.5a1 1 0 0 1 -1-1v-5.013a3.048 3.048 0 0 1 3.044-3.044h9.409a3.048 3.048 0 0 1 3.044 3.044v5.013a1 1 0 0 1 -.997 1zm-12.5-2h11.5v-4.013a1.046 1.046 0 0 0 -1.047-1.044h-9.409a1.045 1.045 0 0 0 -1.044 1.044z"/><path d="m27.4 40.463a5 5 0 1 1 5-5 5.006 5.006 0 0 1 -5 5zm0-8a3 3 0 1 0 3 3 3 3 0 0 0 -3-3z"/><path d="m47.958 13.919h-15.916a1 1 0 0 1 0-2h15.916a1 1 0 0 1 0 2z"/><path d="m70.584 31.088h-4.951a1 1 0 0 1 -1-1v-9.25a1 1 0 0 1 1-1h4.951a1 1 0 0 1 1 1v9.25a1 1 0 0 1 -1 1zm-3.951-2h2.951v-7.25h-2.951z"/><path d="m14.367 31.088h-4.951a1 1 0 0 1 -1-1v-9.25a1 1 0 0 1 1-1h4.951a1 1 0 0 1 1 1v9.25a1 1 0 0 1 -1 1zm-3.951-2h2.951v-7.25h-2.951z"/></svg>