<svg id="Layer_1" height="512" viewBox="0 0 80 80" width="512" xmlns="http://www.w3.org/2000/svg" data-name="Layer 1"><path d="m70.1 68.287h-60.2a2.9 2.9 0 0 1 -2.9-2.9v-44.651a2.9 2.9 0 0 1 2.9-2.9h60.2a2.9 2.9 0 0 1 2.9 2.9v44.653a2.9 2.9 0 0 1 -2.9 2.898zm-60.2-48.449a.9.9 0 0 0 -.9.9v44.651a.9.9 0 0 0 .9.9h60.2a.9.9 0 0 0 .9-.9v-44.653a.9.9 0 0 0 -.9-.9z"/><path d="m63.125 19.838h-8.75a1 1 0 0 1 -1-1v-6.125a1 1 0 0 1 1-1h8.75a1 1 0 0 1 1 1v6.125a1 1 0 0 1 -1 1zm-7.75-2h6.75v-4.125h-6.75z"/><path d="m25.625 19.838h-8.75a1 1 0 0 1 -1-1v-6.125a1 1 0 0 1 1-1h8.75a1 1 0 0 1 1 1v6.125a1 1 0 0 1 -1 1zm-7.75-2h6.75v-4.125h-6.75z"/><path d="m71.921 31.088h-63.921a1 1 0 0 1 0-2h63.921a1 1 0 0 1 0 2z"/><path d="m59.367 27.525a1 1 0 0 1 -1-1v-4.5a1 1 0 0 1 2 0v4.5a1 1 0 0 1 -1 1z"/><path d="m61.617 25.275h-4.5a1 1 0 0 1 0-2h4.5a1 1 0 0 1 0 2z"/><path d="m23.471 25.275h-5.166a1 1 0 0 1 0-2h5.166a1 1 0 0 1 0 2z"/><path d="m38.937 60.281a1 1 0 0 1 -1-1.056l.378-6.694h-4.753a1 1 0 0 1 -.948-1.316l3.813-11.438a1 1 0 0 1 .948-.683h6.562a1 1 0 0 1 .92 1.392l-2.687 6.3h4.267a1 1 0 0 1 .838 1.547l-7.5 11.5a1 1 0 0 1 -.838.448zm-3.987-9.75h4.425a1 1 0 0 1 1 1.056l-.228 4.013 4.445-6.815h-3.936a1 1 0 0 1 -.92-1.392l2.688-6.3h-4.324z"/></svg>