<svg id="Layer_1" height="512" viewBox="0 0 80 80" width="512" xmlns="http://www.w3.org/2000/svg" data-name="Layer 1"><path d="m63.218 40.37q-.071 0-.141 0l-18.5-.732a3.6 3.6 0 0 1 -3.464-3.6v-.11a3.6 3.6 0 0 1 3.772-3.6l18.5.843a3.606 3.606 0 0 1 -.167 7.209zm-18.5-6.056a1.607 1.607 0 0 0 -1.6 1.607v.11a1.6 1.6 0 0 0 1.544 1.606l18.5.732a1.6 1.6 0 0 0 1.205-.475 1.582 1.582 0 0 0 .463-1.21 1.6 1.6 0 0 0 -1.531-1.525l-18.5-.843z"/><path d="m65.354 46.735h-.018a1 1 0 0 1 -.982-1.018c.061-3.2-2.863-5.585-2.892-5.609a1 1 0 0 1 1.244-1.565c.152.12 3.727 3.005 3.648 7.211a1 1 0 0 1 -1 .981z"/><path d="m71.993 55.894h-18.442a1 1 0 0 1 -.931-.634l-1.694-4.3a4.861 4.861 0 0 1 .573-4.692c2.164-2.745 7.332-2.509 7.913-2.472 4.851.046 8.536 1.373 10.9 3.94a10.369 10.369 0 0 1 2.676 7.231 1 1 0 0 1 -.995.927zm-17.762-2h16.726a8.412 8.412 0 0 0 -2.134-4.827c-1.979-2.13-5.17-3.233-9.482-3.275-1.341-.076-4.985.076-6.274 1.714a2.917 2.917 0 0 0 -.255 2.793z"/><path d="m36.79 50.77c-3.544 0-7.33-.791-9.27-3.7-.418-.549-3.3-4.828.476-13.809l3.392-7.892a1 1 0 0 1 .819-.6 1.015 1.015 0 0 1 .922.425l2.933 4.237a1 1 0 0 1 -1.645 1.138l-1.9-2.752-2.676 6.226c-3.444 8.2-.764 11.77-.735 11.805a1.019 1.019 0 0 1 .065.089c2.77 4.2 11.854 2.726 15.119 1.8a1.905 1.905 0 0 0 1.42-1.312c.632-2.246-2.354-6.485-3.45-7.792a1 1 0 0 1 1.533-1.285c.5.6 4.872 5.956 3.843 9.619a3.938 3.938 0 0 1 -2.754 2.679 32.882 32.882 0 0 1 -8.092 1.124z"/><path d="m19.533 45.778a.988.988 0 0 1 -.414-.09 1 1 0 0 1 -.5-1.325l6.6-14.471h-1.833a1 1 0 0 1 -1-1.077l.456-6a1.015 1.015 0 0 1 1.026-.924l4.49.13a1.006 1.006 0 0 1 .538.177l2.408 1.657v-5.2a1 1 0 0 1 .552-.894l3.259-1.63a1 1 0 1 1 .895 1.789l-2.706 1.353v6.485a1 1 0 0 1 -1.568.823l-3.731-2.569-3.241-.094-.3 3.968h2.309a1 1 0 0 1 .911 1.415l-7.24 15.892a1 1 0 0 1 -.911.585z"/><path d="m26.377 55.894a1 1 0 0 1 -.295-.045l-18.377-5.67a1 1 0 0 1 -.533-1.516c.047-.07 4.879-7.028 13.238-4.5a.935.935 0 0 1 .128.048c.285.131 6.98 3.291 6.839 10.7a1 1 0 0 1 -1 .982zm-16.642-7.181 15.57 4.8c-.626-4.869-5-7.194-5.547-7.463a9.717 9.717 0 0 0 -10.023 2.663z"/><path d="m52.983 54.452h-26.636a1 1 0 0 1 0-2h26.636a1 1 0 1 1 0 2z"/><path d="m63.365 63.969a7.734 7.734 0 0 1 -7.725-7.726 7.358 7.358 0 0 1 .164-1.555 1 1 0 0 1 1.955.42 5.44 5.44 0 0 0 -.119 1.135 5.726 5.726 0 1 0 11.451 0 5.358 5.358 0 0 0 -.119-1.133 1 1 0 1 1 1.955-.423 7.43 7.43 0 0 1 .164 1.556 7.735 7.735 0 0 1 -7.726 7.726z"/><path d="m16.352 63.8a7.987 7.987 0 0 1 -5.1-14.142 1 1 0 0 1 1.28 1.542 5.989 5.989 0 1 0 9.811 4.61 5.516 5.516 0 0 0 -.238-1.63 1 1 0 0 1 1.913-.588 7.566 7.566 0 0 1 .325 2.218 8 8 0 0 1 -7.991 7.99z"/><path d="m30.963 29.892h-4.189a1 1 0 0 1 0-2h4.189a1 1 0 0 1 0 2z"/></svg>