<svg id="Layer_1" height="512" viewBox="0 0 80 80" width="512" xmlns="http://www.w3.org/2000/svg" data-name="Layer 1"><path d="m21.007 31.012a1 1 0 0 1 -.707-.293l-13.007-13.007a1 1 0 0 1 0-1.414l9-9a1 1 0 0 1 1.414 0l13.012 13.002a1 1 0 0 1 0 1.414l-9.005 9.005a1 1 0 0 1 -.707.293zm-11.593-14.007 11.593 11.595 7.593-7.593-11.595-11.593z"/><path d="m25.609 37.866a1.029 1.029 0 0 1 -.213-.023l-9.396-2.058a1 1 0 0 1 -.5-1.685l18.6-18.6a1 1 0 0 1 1.685.5l2.058 9.4a1 1 0 0 1 -.27.92l-11.257 11.253a1 1 0 0 1 -.707.293zm-7.4-3.643 7.078 1.549 10.485-10.483-1.549-7.078z"/><path d="m34.956 45.185a2.651 2.651 0 0 1 -1.887-.782l-7.5-7.5a1 1 0 0 1 0-1.414l9.919-9.919a1 1 0 0 1 1.414 0l7.5 7.5a2.665 2.665 0 0 1 0 3.772l-7.56 7.558a2.651 2.651 0 0 1 -1.886.785zm-7.264-8.985 6.792 6.792a.686.686 0 0 0 .944 0l7.561-7.561a.665.665 0 0 0 0-.943l-6.789-6.796z"/><path d="m35.045 39.839a2.667 2.667 0 0 1 -1.886-.778l-4.871-4.873a1 1 0 0 1 0-1.415l4.485-4.485a1 1 0 0 1 1.414 0l4.873 4.871a2.673 2.673 0 0 1 0 3.772l-2.13 2.129a2.664 2.664 0 0 1 -1.885.779zm-4.636-6.359 4.164 4.166a.669.669 0 0 0 .944 0l2.129-2.128a.67.67 0 0 0 0-.944l-4.166-4.165z"/><path d="m62.657 73a1 1 0 0 1 -.707-.293l-8.25-8.252a1 1 0 0 1 0-1.414l9.341-9.341a1 1 0 0 1 1.414 0l8.252 8.251a1 1 0 0 1 0 1.414l-9.343 9.343a1 1 0 0 1 -.707.292zm-6.837-9.252 6.837 6.838 7.929-7.929-6.838-6.837z"/><path d="m50.955 68.2a.993.993 0 0 1 -.707-.293l-12-12a1 1 0 0 1 0-1.414l16.245-16.244a1 1 0 0 1 1.414 0l12 12a1 1 0 0 1 0 1.414l-16.245 16.243a.993.993 0 0 1 -.707.294zm-10.585-13 10.585 10.585 14.83-14.83-10.585-10.585z"/><path d="m50.48 62.211a1 1 0 0 1 -.707-.293l-5.536-5.536a1 1 0 0 1 0-1.414l10.731-10.731a1 1 0 0 1 1.414 0l5.536 5.536a1 1 0 0 1 0 1.415l-10.731 10.73a1 1 0 0 1 -.707.293zm-4.122-6.536 4.122 4.125 9.32-9.32-4.122-4.122z"/></svg>