<svg id="Layer_1" height="512" viewBox="0 0 80 80" width="512" xmlns="http://www.w3.org/2000/svg" data-name="Layer 1"><path d="m71.763 53.312h-9.07a1 1 0 0 1 0-2h8.165c1.039-11.624-4.022-13.1-4.6-13.231h-40.8c-.727.239-1.51.454-2.39.654l-8.254 1.852a5.969 5.969 0 0 0 -4.189 2.457c-1.857 2.617-1.691 6.571-1.515 8.268h8.2a1 1 0 0 1 0 2h-9.077a1 1 0 0 1 -.983-.82c-.049-.263-1.156-6.511 1.736-10.6a7.915 7.915 0 0 1 5.451-3.27l8.188-1.839a24.039 24.039 0 0 0 2.348-.651.994.994 0 0 1 .32-.053h41.06a1.011 1.011 0 0 1 .145.011c.324.047 7.927 1.332 6.259 16.33a1 1 0 0 1 -.994.892z"/><path d="m51.773 53.312h-23.54a1 1 0 0 1 0-2h23.54a1 1 0 1 1 0 2z"/><path d="m25.294 38.082a1 1 0 0 1 -.892-1.448l6.9-13.752a3.288 3.288 0 0 1 2.83-1.654h22.668c7.082 0 10.2 14.046 10.532 15.651a1 1 0 1 1 -1.958.406c-.814-3.914-3.939-14.057-8.582-14.057h-22.657a1.259 1.259 0 0 0 -1.077.613l-6.869 13.689a1 1 0 0 1 -.895.552z"/><path d="m45.824 38.082a1 1 0 0 1 -1-1v-14.854a1 1 0 1 1 2 0v14.854a1 1 0 0 1 -1 1z"/><path d="m22.767 58.772a6.463 6.463 0 1 1 6.463-6.462 6.471 6.471 0 0 1 -6.463 6.462zm0-10.926a4.463 4.463 0 1 0 4.463 4.464 4.469 4.469 0 0 0 -4.463-4.464z"/><path d="m57.233 58.772a6.463 6.463 0 1 1 6.467-6.462 6.47 6.47 0 0 1 -6.467 6.462zm0-10.926a4.463 4.463 0 1 0 4.467 4.464 4.469 4.469 0 0 0 -4.467-4.464z"/><path d="m39.7 43.231h-4.689a1 1 0 0 1 0-2h4.689a1 1 0 0 1 0 2z"/><path d="m12.443 48.291h-4.33a1 1 0 1 1 0-2h3.33v-1.93h-2.18a1 1 0 1 1 0-2h3.18a1 1 0 0 1 1 1v3.93a1 1 0 0 1 -1 1z"/></svg>