<svg id="Layer_1" height="512" viewBox="0 0 80 80" width="512" xmlns="http://www.w3.org/2000/svg" data-name="Layer 1"><path d="m65.1 72.968h-50.2a1 1 0 0 1 -1-1v-4.088a1 1 0 0 1 1-1h2.784v-19.48h-2.784a1 1 0 0 1 -1-1v-4.087a1 1 0 0 1 1-1h50.2a1 1 0 0 1 1 1v4.087a1 1 0 0 1 -1 1h-2.781v19.48h2.781a1 1 0 0 1 1 1v4.088a1 1 0 0 1 -1 1zm-49.206-2h48.206v-2.088h-2.781a1 1 0 0 1 -1-1v-21.48a1 1 0 0 1 1-1h2.781v-2.087h-48.2v2.087h2.784a1 1 0 0 1 1 1v21.48a1 1 0 0 1 -1 1h-2.784z"/><path d="m53.147 66a1 1 0 0 1 -1-1v-15.714a1 1 0 0 1 2 0v15.714a1 1 0 0 1 -1 1z"/><path d="m44.382 66a1 1 0 0 1 -1-1v-15.714a1 1 0 0 1 2 0v15.714a1 1 0 0 1 -1 1z"/><path d="m35.618 66a1 1 0 0 1 -1-1v-15.714a1 1 0 0 1 2 0v15.714a1 1 0 0 1 -1 1z"/><path d="m26.853 66a1 1 0 0 1 -1-1v-15.714a1 1 0 0 1 2 0v15.714a1 1 0 0 1 -1 1z"/><path d="m59.35 43.313h-6.21a1 1 0 0 1 -1-1v-3.481a1 1 0 0 1 1-1h6.21a1 1 0 0 1 1 1v3.481a1 1 0 0 1 -1 1zm-5.21-2h4.21v-1.481h-4.21z"/><path d="m26.86 43.313h-6.21a1 1 0 0 1 -1-1v-3.481a1 1 0 0 1 1-1h6.21a1 1 0 0 1 1 1v3.481a1 1 0 0 1 -1 1zm-5.21-2h4.21v-1.481h-4.21z"/><path d="m42.56 16.525h-5.12a1 1 0 0 1 -.846-.466l-1.823-2.893a1 1 0 0 1 -.152-.6l.318-4.6a1 1 0 0 1 1-.931h8.13a1 1 0 0 1 1 .931l.319 4.6a1 1 0 0 1 -.152.6l-1.823 2.893a1 1 0 0 1 -.851.466zm-4.568-2h4.016l1.355-2.149-.231-3.344h-6.264l-.231 3.344z"/><path d="m40 18.815a1 1 0 0 1 -1-1v-2.29a1 1 0 1 1 2 0v2.29a1 1 0 0 1 -1 1z"/><path d="m40 23.79a3.491 3.491 0 0 1 -3.488-3.49 1 1 0 1 1 2 0 1.488 1.488 0 1 0 1.488-1.485 1 1 0 0 1 0-2 3.488 3.488 0 1 1 0 6.975z"/><path d="m23.759 39.836a1 1 0 0 1 -.751-1.659l14.61-16.671a1 1 0 0 1 1.5 1.318l-14.606 16.671a1 1 0 0 1 -.753.341z"/><path d="m56.25 39.836a.994.994 0 0 1 -.752-.341l-14.62-16.671a1 1 0 1 1 1.5-1.318l14.622 16.671a1 1 0 0 1 -.751 1.659z"/></svg>