<svg id="Layer_1" height="512" viewBox="0 0 80 80" width="512" xmlns="http://www.w3.org/2000/svg" data-name="Layer 1"><path d="m19.009 73.063a1 1 0 0 1 -.9-1.437l6.791-13.936a1 1 0 0 1 1.8.875l-6.791 13.935a1 1 0 0 1 -.9.563z"/><path d="m60.991 73.063a1 1 0 0 1 -.9-.562l-6.784-13.936a1 1 0 1 1 1.8-.875l6.785 13.936a1 1 0 0 1 -.9 1.437z"/><path d="m56.728 64.294h-33.456a1 1 0 0 1 0-2h33.456a1 1 0 0 1 0 2z"/><path d="m59.241 69.461h-38.477a1 1 0 1 1 0-2h38.477a1 1 0 0 1 0 2z"/><path d="m62.383 59.128h-44.766a3.348 3.348 0 0 1 -3.34-3.348v-45.5a3.347 3.347 0 0 1 3.34-3.346h44.766a3.347 3.347 0 0 1 3.34 3.346v45.5a3.348 3.348 0 0 1 -3.34 3.348zm-44.766-50.191a1.345 1.345 0 0 0 -1.34 1.346v45.5a1.346 1.346 0 0 0 1.34 1.348h44.766a1.346 1.346 0 0 0 1.34-1.348v-45.5a1.345 1.345 0 0 0 -1.34-1.346z"/><path d="m58.66 38.813h-37.32a1 1 0 0 1 -1-1v-20.813a1 1 0 0 1 1-1h37.32a1 1 0 0 1 1 1v20.813a1 1 0 0 1 -1 1zm-36.32-2h35.32v-18.813h-35.32z"/><path d="m46.306 12.751h-12.612a1 1 0 0 1 -1-1v-3.814a1 1 0 0 1 1-1h12.612a1 1 0 0 1 1 1v3.814a1 1 0 0 1 -1 1zm-11.612-2h10.612v-1.814h-10.612z"/><path d="m52.334 52.6a4.11 4.11 0 1 1 4.11-4.11 4.115 4.115 0 0 1 -4.11 4.11zm0-6.22a2.11 2.11 0 1 0 2.11 2.11 2.112 2.112 0 0 0 -2.11-2.114z"/><path d="m27.666 52.6a4.11 4.11 0 1 1 4.11-4.11 4.115 4.115 0 0 1 -4.11 4.11zm0-6.22a2.11 2.11 0 1 0 2.11 2.11 2.112 2.112 0 0 0 -2.11-2.114z"/><path d="m44.531 53.611h-9.062a1 1 0 0 1 0-2h9.062a1 1 0 0 1 0 2z"/><path d="m44.531 49.486h-9.062a1 1 0 0 1 0-2h9.062a1 1 0 0 1 0 2z"/><path d="m44.531 45.361h-9.062a1 1 0 0 1 0-2h9.062a1 1 0 0 1 0 2z"/></svg>