<svg id="Layer_1" height="512" viewBox="0 0 80 80" width="512" xmlns="http://www.w3.org/2000/svg" data-name="Layer 1"><path d="m47.477 57.757h-16.5a1 1 0 0 1 0-2h16.5a1 1 0 0 1 0 2z"/><path d="m71.882 57.756h-9.1a1 1 0 1 1 0-2h8.1v-11.379h-36.468a1 1 0 0 1 0-2h37.468a1 1 0 0 1 1 1v13.379a1 1 0 0 1 -1 1z"/><path d="m15.672 57.756h-7.672a1 1 0 0 1 -1-1v-11.737a5.208 5.208 0 0 1 5.209-5.21h3.237v-13.495a5.012 5.012 0 0 1 5.007-5h13.961a1 1 0 0 1 0 2h-13.958a3.009 3.009 0 0 0 -3.007 3v14.495a1 1 0 0 1 -1 1h-4.239a3.208 3.208 0 0 0 -3.21 3.21v10.737h6.669a1 1 0 0 1 0 2z"/><path d="m34.414 44.377a1 1 0 0 1 -1-1v-18.288a1 1 0 0 1 2 0v18.288a1 1 0 0 1 -1 1z"/><path d="m72 44.374h-37.588a1 1 0 0 1 -1-1v-27.784a1 1 0 0 1 1-1h37.588a1 1 0 0 1 1 1v27.784a1 1 0 0 1 -1 1zm-36.587-2h35.587v-25.784h-35.588z"/><path d="m55.134 65.41a8.654 8.654 0 1 1 8.654-8.653 8.663 8.663 0 0 1 -8.654 8.653zm0-15.307a6.654 6.654 0 1 0 6.654 6.654 6.662 6.662 0 0 0 -6.654-6.657z"/><path d="m55.134 61.073a4.317 4.317 0 1 1 4.317-4.316 4.322 4.322 0 0 1 -4.317 4.316zm0-6.634a2.317 2.317 0 1 0 2.317 2.318 2.32 2.32 0 0 0 -2.317-2.318z"/><path d="m23.322 61.073a4.317 4.317 0 1 1 4.317-4.316 4.321 4.321 0 0 1 -4.317 4.316zm0-6.634a2.317 2.317 0 1 0 2.317 2.318 2.321 2.321 0 0 0 -2.317-2.318z"/><path d="m23.322 65.41a8.654 8.654 0 1 1 8.654-8.653 8.663 8.663 0 0 1 -8.654 8.653zm0-15.307a6.654 6.654 0 1 0 6.654 6.654 6.662 6.662 0 0 0 -6.654-6.657z"/><path d="m24.553 44.377h-2.361a1 1 0 0 1 0-2h2.361a1 1 0 1 1 0 2z"/><path d="m30.242 35.007h-9.69a1 1 0 0 1 -1-1v-5.365a3.336 3.336 0 0 1 3.332-3.333h7.358a1 1 0 0 1 1 1v7.7a1 1 0 0 1 -1 .998zm-8.69-2h7.69v-5.7h-6.358a1.333 1.333 0 0 0 -1.332 1.333z"/><path d="m34.414 41.809h-17.967a1 1 0 0 1 0-2h17.967a1 1 0 0 1 0 2z"/></svg>