<svg id="Layer_1" height="512" viewBox="0 0 80 80" width="512" xmlns="http://www.w3.org/2000/svg" data-name="Layer 1"><path d="m40 72.938a32.938 32.938 0 1 1 32.938-32.938 32.975 32.975 0 0 1 -32.938 32.938zm0-63.876a30.938 30.938 0 1 0 30.938 30.938 30.972 30.972 0 0 0 -30.938-30.938z"/><path d="m40 66.938a26.938 26.938 0 1 1 26.938-26.938 26.968 26.968 0 0 1 -26.938 26.938zm0-51.876a24.938 24.938 0 1 0 24.938 24.938 24.966 24.966 0 0 0 -24.938-24.938z"/><path d="m40 18.112a1 1 0 0 1 -1-1v-3.05a1 1 0 1 1 2 0v3.05a1 1 0 0 1 -1 1z"/><path d="m40 18.112a1 1 0 0 1 -1-1v-3.05a1 1 0 1 1 2 0v3.05a1 1 0 0 1 -1 1z"/><path d="m40 18.112a1 1 0 0 1 -1-1v-3.05a1 1 0 1 1 2 0v3.05a1 1 0 0 1 -1 1z"/><path d="m40 18.112a1 1 0 0 1 -1-1v-3.05a1 1 0 1 1 2 0v3.05a1 1 0 0 1 -1 1z"/><path d="m40 18.112a1 1 0 0 1 -1-1v-3.05a1 1 0 1 1 2 0v3.05a1 1 0 0 1 -1 1z"/><path d="m40 18.112a1 1 0 0 1 -1-1v-3.05a1 1 0 1 1 2 0v3.05a1 1 0 0 1 -1 1z"/><path d="m32.927 19.232a1 1 0 0 1 -.951-.691l-.943-2.9a1 1 0 0 1 1.9-.618l.942 2.9a1 1 0 0 1 -.951 1.308z"/><path d="m26.548 22.483a1 1 0 0 1 -.81-.412l-1.793-2.471a1 1 0 0 1 1.617-1.175l1.793 2.475a1 1 0 0 1 -.807 1.587z"/><path d="m21.482 27.548a.992.992 0 0 1 -.586-.192l-2.468-1.793a1 1 0 1 1 1.172-1.617l2.467 1.793a1 1 0 0 1 -.589 1.809z"/><path d="m18.232 33.928a1 1 0 0 1 -.308-.049l-2.9-.942a1 1 0 0 1 .618-1.9l2.9.943a1 1 0 0 1 -.309 1.951z"/><path d="m17.112 41h-3.05a1 1 0 1 1 0-2h3.05a1 1 0 1 1 0 2z"/><path d="m15.332 49.016a1 1 0 0 1 -.309-1.952l2.9-.942a1 1 0 1 1 .617 1.9l-2.9.943a1.007 1.007 0 0 1 -.308.051z"/><path d="m64.669 49.016a1.018 1.018 0 0 1 -.31-.049l-2.9-.944a1 1 0 1 1 .619-1.9l2.9.943a1 1 0 0 1 -.31 1.952z"/><path d="m65.938 41h-3.049a1 1 0 0 1 0-2h3.049a1 1 0 0 1 0 2z"/><path d="m61.769 33.927a1 1 0 0 1 -.309-1.951l2.9-.943a1 1 0 0 1 .618 1.9l-2.9.942a1 1 0 0 1 -.309.052z"/><path d="m58.518 27.547a1 1 0 0 1 -.589-1.809l2.471-1.793a1 1 0 1 1 1.176 1.617l-2.476 1.793a.992.992 0 0 1 -.582.192z"/><path d="m53.452 22.483a1 1 0 0 1 -.807-1.587l1.792-2.468a1 1 0 1 1 1.618 1.172l-1.793 2.467a1 1 0 0 1 -.81.416z"/><path d="m47.072 19.232a1 1 0 0 1 -.951-1.308l.942-2.9a1 1 0 0 1 1.9.618l-.943 2.9a1 1 0 0 1 -.948.69z"/><path d="m51.313 56.918h-22.626a1 1 0 0 1 -1-1v-6.66a1 1 0 0 1 1-1h22.626a1 1 0 0 1 1 1v6.66a1 1 0 0 1 -1 1zm-21.626-2h20.626v-4.66h-20.626z"/><path d="m40.467 45.7a4.549 4.549 0 0 1 -4.223-2.856 4.387 4.387 0 0 1 -.244-.854.637.637 0 0 1 -.026-.113l-2.759-16.226a1 1 0 0 1 1.815-.725l9.176 13.663c.019.028.036.057.052.086a4.426 4.426 0 0 1 .421.8 4.542 4.542 0 0 1 -4.212 6.225zm-2.539-4.273a1.064 1.064 0 0 1 .029.127 2.421 2.421 0 0 0 .145.548 2.541 2.541 0 1 0 4.719-1.887 2.506 2.506 0 0 0 -.273-.5c-.022-.031-.041-.064-.06-.1l-6.52-9.71z"/></svg>