<svg id="Layer_1" height="512" viewBox="0 0 80 80" width="512" xmlns="http://www.w3.org/2000/svg" data-name="Layer 1"><path d="m59.467 73h-38.934a3.912 3.912 0 0 1 -3.907-3.908v-46.207a3.911 3.911 0 0 1 3.907-3.907h24.545a3.88 3.88 0 0 1 2.762 1.143l14.389 14.379a3.932 3.932 0 0 1 1.145 2.764v31.828a3.912 3.912 0 0 1 -3.907 3.908zm-38.934-52.022a1.909 1.909 0 0 0 -1.907 1.907v46.207a1.909 1.909 0 0 0 1.907 1.908h38.934a1.909 1.909 0 0 0 1.907-1.908v-31.827a1.924 1.924 0 0 0 -.559-1.35l-14.389-14.38a1.9 1.9 0 0 0 -1.348-.557z"/><path d="m33.1 20.978h-8.988a1 1 0 0 1 -1-1v-4a1 1 0 0 1 1-1h8.988a1 1 0 0 1 1 1v4a1 1 0 0 1 -1 1zm-7.988-2h6.988v-2h-6.988z"/><path d="m37.3 16.974h-17.386a1.708 1.708 0 0 1 -1.706-1.707v-6.56a1.708 1.708 0 0 1 1.706-1.707h17.386a1.708 1.708 0 0 1 1.7 1.707v6.56a1.708 1.708 0 0 1 -1.7 1.707zm-17.09-2h16.79v-5.974h-16.8z"/><path d="m32.117 16.974a1 1 0 0 1 -1-1v-7.974a1 1 0 0 1 2 0v7.974a1 1 0 0 1 -1 1z"/><path d="m25.1 16.974a1 1 0 0 1 -1-1v-7.974a1 1 0 0 1 2 0v7.974a1 1 0 0 1 -1 1z"/><path d="m53.007 41.794a4.141 4.141 0 0 1 -2.946-1.221l-9.841-9.84a4.167 4.167 0 1 1 5.893-5.892l9.841 9.841a4.167 4.167 0 0 1 -2.947 7.112zm-11.372-12.475 9.84 9.84a2.219 2.219 0 0 0 3.065 0 2.169 2.169 0 0 0 0-3.063l-9.84-9.841a2.221 2.221 0 0 0 -3.065 0 2.169 2.169 0 0 0 0 3.064z"/><path d="m39.481 60.539a5.171 5.171 0 0 1 -5.04-5.282c0-2.54 3.5-7.921 4.208-8.974a1.038 1.038 0 0 1 1.663 0c.7 1.053 4.209 6.434 4.209 8.974a5.171 5.171 0 0 1 -5.04 5.282zm0-11.848c-1.41 2.283-3.04 5.323-3.04 6.566a3.049 3.049 0 1 0 6.08 0c0-1.244-1.629-4.284-3.04-6.566z"/><path d="m39.481 65.063a11.875 11.875 0 1 1 11.875-11.875 11.888 11.888 0 0 1 -11.875 11.875zm0-21.75a9.875 9.875 0 1 0 9.875 9.875 9.886 9.886 0 0 0 -9.875-9.875z"/></svg>