<svg id="Layer_1" height="512" viewBox="0 0 80 80" width="512" xmlns="http://www.w3.org/2000/svg" data-name="Layer 1"><path d="m43.785 61.946h-7.57a1 1 0 0 1 -1-1v-4.067a1 1 0 0 1 1-1h7.57a1 1 0 0 1 1 1v4.067a1 1 0 0 1 -1 1zm-6.57-2h5.57v-2.067h-5.57z"/><path d="m45.809 73h-11.618a3.107 3.107 0 0 1 -3.1-3.1v-8.95a1 1 0 0 1 1-1h15.821a1 1 0 0 1 1 1v8.95a3.107 3.107 0 0 1 -3.103 3.1zm-12.721-11.054v7.954a1.1 1.1 0 0 0 1.1 1.1h11.621a1.1 1.1 0 0 0 1.1-1.1v-7.95z"/><path d="m50.274 57.884h-20.548a1 1 0 0 1 -.895-.553l-8.751-17.478a22.508 22.508 0 0 1 35.086-27.04 22.748 22.748 0 0 1 4.754 27.04l-8.751 17.478a1 1 0 0 1 -.895.553zm-19.931-2h19.314l8.474-16.926a20.508 20.508 0 0 0 -31.957-24.658 20.742 20.742 0 0 0 -4.3 24.66z"/><path d="m32.931 34.5a1 1 0 0 1 -1-1 6.038 6.038 0 0 0 -12.054-.519.979.979 0 0 1 -1.079.914 1 1 0 0 1 -.913-1.08 8.038 8.038 0 0 1 16.046.685 1 1 0 0 1 -1 1z"/><path d="m36.045 57.884a1 1 0 0 1 -.99-.868l-3.112-23.386a.974.974 0 0 1 -.008-.132 8.044 8.044 0 1 1 16.087 0 1 1 0 0 1 -2 0 6.044 6.044 0 0 0 -12.087-.063l3.1 23.317a1 1 0 0 1 -.992 1.132z"/><path d="m43.952 57.879a.972.972 0 0 1 -.131-.009 1 1 0 0 1 -.861-1.121l3.059-23.318a8.04 8.04 0 0 1 16.067-.395 1 1 0 0 1 -.943 1.053.987.987 0 0 1 -1.053-.943 6.041 6.041 0 0 0 -12.071.352.936.936 0 0 1 -.009.13l-3.068 23.381a1 1 0 0 1 -.99.87z"/><path d="m47.023 34.5a1 1 0 0 1 -.961-1.278c.052-.182 5.117-18.232-6.526-24.334a1 1 0 0 1 .928-1.772c13.094 6.864 7.753 25.858 7.518 26.662a1 1 0 0 1 -.959.722z"/><path d="m32.977 34.5a1 1 0 0 1 -.959-.722c-.235-.8-5.576-19.8 7.518-26.662a1 1 0 0 1 .928 1.772c-11.643 6.1-6.578 24.152-6.526 24.334a1 1 0 0 1 -.961 1.278z"/><path d="m47.912 65.759h-15.824a1 1 0 0 1 0-2h15.824a1 1 0 0 1 0 2z"/></svg>