<svg id="Layer_1" height="512" viewBox="0 0 80 80" width="512" xmlns="http://www.w3.org/2000/svg" data-name="Layer 1"><path d="m65.884 64.292h-51.853a3.5 3.5 0 0 1 -3.54-3.44v-12.452a3.49 3.49 0 0 1 3.54-3.43h3.82a1 1 0 0 1 0 2h-3.82a1.49 1.49 0 0 0 -1.54 1.43v12.45a1.494 1.494 0 0 0 1.54 1.44h51.853a1.489 1.489 0 0 0 1.53-1.44v-12.45a1.484 1.484 0 0 0 -1.53-1.43h-3.523a1 1 0 0 1 0-2h3.523a3.485 3.485 0 0 1 3.53 3.43v12.45a3.489 3.489 0 0 1 -3.53 3.442z"/><path d="m61.127 71.769h-7.027a2.434 2.434 0 0 1 -2.23-2.638v-5.842a1 1 0 0 1 1-1h9.483a1 1 0 0 1 1 1v5.842a2.434 2.434 0 0 1 -2.226 2.638zm-7.253-7.48v4.842a.764.764 0 0 0 .247.64h7.006a.821.821 0 0 0 .23-.638v-4.844z"/><path d="m26.105 71.769h-7.022a2.434 2.434 0 0 1 -2.23-2.638v-5.842a1 1 0 0 1 1-1h9.483a1 1 0 0 1 1 1v5.842a2.434 2.434 0 0 1 -2.231 2.638zm-7.252-7.48v4.842a.761.761 0 0 0 .247.64h7a.82.82 0 0 0 .231-.638v-4.844z"/><path d="m62.36 46.972a1 1 0 0 1 -.983-.821l-4.73-25.851a2.186 2.186 0 0 0 -1.647-1.627 61.047 61.047 0 0 0 -29.787 0 2.19 2.19 0 0 0 -1.65 1.645l-4.728 25.833a1 1 0 0 1 -1.968-.359l4.73-25.85a4.206 4.206 0 0 1 3.132-3.21 63.009 63.009 0 0 1 30.753 0 4.2 4.2 0 0 1 3.129 3.195l4.734 25.866a1 1 0 0 1 -.8 1.163.939.939 0 0 1 -.185.016z"/><path d="m40.106 42.768a82.12 82.12 0 0 1 -21.233-2.821 1 1 0 1 1 .516-1.931 79.382 79.382 0 0 0 41.434 0 1 1 0 1 1 .516 1.931 82.126 82.126 0 0 1 -21.233 2.821z"/><path d="m60.508 58.068h-6.93a1 1 0 0 1 -1-1v-5.661a1 1 0 0 1 1-1h6.93a1 1 0 0 1 1 1v5.661a1 1 0 0 1 -1 1zm-5.93-2h4.93v-3.661h-4.93z"/><path d="m26.764 58.068h-6.931a1 1 0 0 1 -1-1v-5.661a1 1 0 0 1 1-1h6.931a1 1 0 0 1 1 1v5.661a1 1 0 0 1 -1 1zm-5.931-2h4.931v-3.661h-4.931z"/><path d="m47.342 59.613h-14.342a1 1 0 0 1 -1-1v-8.75a1 1 0 0 1 1-1h14.342a1 1 0 0 1 1 1v8.75a1 1 0 0 1 -1 1zm-13.342-2h12.342v-6.75h-12.342z"/><path d="m42.567 59.613a1 1 0 0 1 -1-1v-8.75a1 1 0 0 1 2 0v8.75a1 1 0 0 1 -1 1z"/><path d="m37.775 59.613a1 1 0 0 1 -1-1v-8.75a1 1 0 0 1 2 0v8.75a1 1 0 0 1 -1 1z"/><path d="m65.881 22.072a1 1 0 0 1 -1-1v-8.551a2.293 2.293 0 0 0 -2.29-2.29h-44.84a2.293 2.293 0 0 0 -2.29 2.29v8.551a1 1 0 0 1 -2 0v-8.551a4.3 4.3 0 0 1 4.29-4.29h44.84a4.3 4.3 0 0 1 4.29 4.29v8.551a1 1 0 0 1 -1 1z"/><path d="m14.461 46.972a1 1 0 0 1 -1-1v-15.491a1 1 0 0 1 2 0v15.491a1 1 0 0 1 -1 1z"/><path d="m65.881 46.972a1 1 0 0 1 -1-1v-15.491a1 1 0 1 1 2 0v15.491a1 1 0 0 1 -1 1z"/><path d="m68.509 31.485h-5.25a1 1 0 0 1 -1-1v-9.417a1 1 0 0 1 1-1h5.25a1 1 0 0 1 1 1v9.417a1 1 0 0 1 -1 1zm-4.25-2h3.25v-7.417h-3.25z"/><path d="m17.086 31.485h-5.25a1 1 0 0 1 -1-1v-9.417a1 1 0 0 1 1-1h5.25a1 1 0 0 1 1 1v9.417a1 1 0 0 1 -1 1zm-4.25-2h3.25v-7.417h-3.25z"/><path d="m26.976 34.789a1 1 0 0 1 -.707-1.707l11.137-11.137a1 1 0 0 1 1.414 1.414l-11.137 11.141a1 1 0 0 1 -.707.289z"/><path d="m26.008 29.8a1 1 0 0 1 -.707-1.707l7.116-7.115a1 1 0 0 1 1.414 1.414l-7.116 7.115a1 1 0 0 1 -.707.293z"/></svg>