<svg id="Layer_1" height="512" viewBox="0 0 80 80" width="512" xmlns="http://www.w3.org/2000/svg" data-name="Layer 1"><path d="m13.007 43.549a.934.934 0 0 1 -.138-.01 1 1 0 0 1 -.853-1.127l3.237-23.54a1 1 0 1 1 1.98.274l-3.233 23.54a1 1 0 0 1 -.993.863z"/><path d="m42.592 41.431a1 1 0 0 1 -.97-.758l-5.529-22.151a1 1 0 0 1 1.941-.484l5.529 22.15a1 1 0 0 1 -.728 1.213 1.017 1.017 0 0 1 -.243.03z"/><path d="m40.009 31.582h-13.073a1 1 0 0 1 -1-1v-11.573a1 1 0 0 1 2 0v10.573h12.073a1 1 0 0 1 0 2z"/><path d="m21.893 68.216a14.934 14.934 0 1 1 14.933-14.934 14.951 14.951 0 0 1 -14.933 14.934zm0-27.868a12.934 12.934 0 1 0 12.933 12.934 12.949 12.949 0 0 0 -12.933-12.934z"/><path d="m21.893 62.261a8.979 8.979 0 1 1 8.978-8.979 8.989 8.989 0 0 1 -8.978 8.979zm0-15.958a6.979 6.979 0 1 0 6.978 6.979 6.987 6.987 0 0 0 -6.978-6.982z"/><path d="m49.773 61.844h-16.173a1.006 1.006 0 0 1 -1.007-1 .991.991 0 0 1 .991-1h16.189a1 1 0 0 1 0 2z"/><path d="m67.747 61.844h-6.11a1 1 0 0 1 0-2h6.11a1.287 1.287 0 0 0 1.273-1.122l2.011-15.843a1.282 1.282 0 0 0 -1.272-1.444h-42.441a1.014 1.014 0 0 1 -1.016-1 .985.985 0 0 1 .983-1h42.474a3.283 3.283 0 0 1 3.257 3.7l-2.016 15.84a3.291 3.291 0 0 1 -3.253 2.869z"/><path d="m55.7 68.551a6.981 6.981 0 1 1 6.981-6.981 6.989 6.989 0 0 1 -6.981 6.981zm0-11.962a4.981 4.981 0 1 0 4.981 4.981 4.986 4.986 0 0 0 -4.981-4.981z"/><path d="m65.088 46.3h-7.262a1 1 0 1 1 0-2h7.262a1 1 0 0 1 0 2z"/><path d="m65.088 50.677h-7.262a1 1 0 0 1 0-2h7.262a1 1 0 0 1 0 2z"/><path d="m45.408 19.28h-32.719a1 1 0 0 1 -1-1v-5.831a1 1 0 0 1 1-1h32.719a1 1 0 0 1 1 1v5.831a1 1 0 0 1 -1 1zm-31.719-2h30.719v-3.831h-30.719z"/><path d="m63.012 41.431h-5.583a1 1 0 0 1 -1-1v-9.275a1 1 0 0 1 1-1h5.583a1 1 0 0 1 1 1v9.275a1 1 0 0 1 -1 1zm-4.583-2h3.583v-7.275h-3.583z"/><path d="m60.221 32.156a1 1 0 0 1 -1-1v-5.169l-3.187-3.187a1 1 0 0 1 1.414-1.414l3.48 3.479a1 1 0 0 1 .293.707v5.583a1 1 0 0 1 -1 1.001z"/></svg>