<svg id="Layer_1" height="512" viewBox="0 0 80 80" width="512" xmlns="http://www.w3.org/2000/svg" data-name="Layer 1"><path d="m72 53.333h-10.578a1 1 0 0 1 0-2h9.578v-25.75h-58.191l-3.809 12.271v13.479h7.941a1 1 0 1 1 0 2h-8.941a1 1 0 0 1 -1-1v-14.633a1.026 1.026 0 0 1 .045-.3l4.071-13.12a1 1 0 0 1 .955-.7h59.929a1 1 0 0 1 1 1v27.75a1 1 0 0 1 -1 1.003z"/><path d="m52.262 53.333h-26.17a1 1 0 0 1 0-2h26.17a1 1 0 0 1 0 2z"/><path d="m72 30.284h-61.291a1 1 0 1 1 0-2h61.291a1 1 0 0 1 0 2z"/><path d="m72 40.679h-52.4a1 1 0 0 1 0-2h52.4a1 1 0 0 1 0 2z"/><path d="m61.835 40.679a1 1 0 0 1 -1-1v-10.4a1 1 0 0 1 2 0v10.4a1 1 0 0 1 -1 1z"/><path d="m51.267 40.679a1 1 0 0 1 -1-1v-10.4a1 1 0 0 1 2 0v10.4a1 1 0 0 1 -1 1z"/><path d="m40.7 40.679a1 1 0 0 1 -1-1v-10.4a1 1 0 1 1 2 0v10.4a1 1 0 0 1 -1 1z"/><path d="m30.128 40.679a1 1 0 0 1 -1-1v-10.4a1 1 0 0 1 2 0v10.4a1 1 0 0 1 -1 1z"/><path d="m15.16 45.209h-7.16a1 1 0 0 1 0-2h6.738l3.822-3.936v-9.989a1 1 0 0 1 2 0v10.4a1 1 0 0 1 -.283.7l-4.4 4.53a.994.994 0 0 1 -.717.295z"/><path d="m56.841 56.417a5.937 5.937 0 1 1 5.937-5.937 5.943 5.943 0 0 1 -5.937 5.937zm0-9.873a3.937 3.937 0 1 0 3.937 3.936 3.941 3.941 0 0 0 -3.937-3.936z"/><path d="m56.841 53.334a2.854 2.854 0 1 1 2.859-2.854 2.857 2.857 0 0 1 -2.859 2.854zm0-3.707a.854.854 0 1 0 .854.853.854.854 0 0 0 -.854-.853z"/><path d="m21.52 56.417a5.937 5.937 0 1 1 5.936-5.937 5.944 5.944 0 0 1 -5.936 5.937zm0-9.873a3.937 3.937 0 1 0 3.936 3.936 3.942 3.942 0 0 0 -3.936-3.936z"/><path d="m21.52 53.334a2.854 2.854 0 1 1 2.854-2.854 2.857 2.857 0 0 1 -2.854 2.854zm0-3.707a.854.854 0 1 0 .854.853.855.855 0 0 0 -.854-.853z"/></svg>