<svg id="Layer_1" height="512" viewBox="0 0 80 80" width="512" xmlns="http://www.w3.org/2000/svg" data-name="Layer 1"><path d="m59.12 64.391h-43.049a1 1 0 0 1 -1-1v-53.946a2.448 2.448 0 0 1 2.445-2.445h40.159a2.448 2.448 0 0 1 2.445 2.445v53.946a1 1 0 0 1 -1 1zm-42.049-2h41.049v-52.946a.446.446 0 0 0 -.445-.445h-40.159a.446.446 0 0 0 -.445.445z"/><path d="m65.2 73h-55.212a1 1 0 0 1 -.933-1.361l3.334-8.61a1 1 0 0 1 .932-.638h48.549a1 1 0 0 1 .933.638l3.333 8.61a1 1 0 0 1 -.936 1.361zm-53.753-2h52.3l-2.559-6.609h-47.182z"/><path d="m53.471 34.682h-31.75a1 1 0 0 1 -1-1v-18.833a1 1 0 0 1 1-1h31.75a1 1 0 0 1 1 1v18.833a1 1 0 0 1 -1 1zm-30.75-2h29.75v-16.833h-29.75z"/><path d="m37.6 58.364a9.682 9.682 0 1 1 9.682-9.682 9.693 9.693 0 0 1 -9.682 9.682zm0-17.364a7.682 7.682 0 1 0 7.682 7.682 7.691 7.691 0 0 0 -7.682-7.682z"/><path d="m37.6 54.411a3.96 3.96 0 0 1 -3.956-3.956c0-1.819 2.583-6.168 3.1-7.02a1 1 0 0 1 .855-.482 1 1 0 0 1 .855.482c.517.852 3.1 5.2 3.1 7.02a3.959 3.959 0 0 1 -3.954 3.956zm0-8.463a16.245 16.245 0 0 0 -1.956 4.507 1.956 1.956 0 1 0 3.911 0 16.265 16.265 0 0 0 -1.955-4.507z"/><path d="m70.012 58.364h-5.875a1 1 0 0 1 -1-1v-7.682h-4.017a1 1 0 1 1 0-2h5.017a1 1 0 0 1 1 1v7.682h3.875v-33.059l-6.832-6.832a1 1 0 1 1 1.414-1.414l7.125 7.125a1 1 0 0 1 .293.707v34.473a1 1 0 0 1 -1 1z"/><path d="m70.012 28.391h-4.187a1 1 0 0 1 -1-1v-8.691a1 1 0 0 1 2 0v7.688h3.187a1 1 0 0 1 0 2z"/></svg>