<svg id="Layer_1" height="512" viewBox="0 0 80 80" width="512" xmlns="http://www.w3.org/2000/svg" data-name="Layer 1"><path d="m47.969 56h-16.169a1 1 0 0 1 0-2h16.17a1 1 0 0 1 0 2z"/><path d="m55.473 63.5a8.5 8.5 0 1 1 8.5-8.5 8.51 8.51 0 0 1 -8.5 8.5zm0-15a6.5 6.5 0 1 0 6.5 6.5 6.508 6.508 0 0 0 -6.5-6.5z"/><path d="m55.473 59.249a4.25 4.25 0 1 1 4.25-4.249 4.255 4.255 0 0 1 -4.25 4.249zm0-6.5a2.25 2.25 0 1 0 2.25 2.251 2.253 2.253 0 0 0 -2.25-2.251z"/><path d="m24.3 59.249a4.25 4.25 0 1 1 4.251-4.249 4.255 4.255 0 0 1 -4.251 4.249zm0-6.5a2.25 2.25 0 1 0 2.251 2.251 2.253 2.253 0 0 0 -2.251-2.251z"/><path d="m24.3 63.5a8.5 8.5 0 1 1 8.5-8.5 8.51 8.51 0 0 1 -8.5 8.5zm0-15a6.5 6.5 0 1 0 6.5 6.5 6.508 6.508 0 0 0 -6.5-6.5z"/><path d="m62.964 56a1 1 0 0 1 0-2l8.036-.009v-9.6l-36.1.009a1 1 0 0 1 0-2l37.1-.01a1 1 0 0 1 1 1v11.6a1 1 0 0 1 -1 1l-9.035.01z"/><path d="m72 44.4h-37.1a1 1 0 0 1 -1-1v-25.9a1 1 0 0 1 1-1h37.1a1 1 0 0 1 1 1v25.9a1 1 0 0 1 -1 1zm-36.1-2h35.1v-23.9h-35.1z"/><path d="m25.507 44.4h-2.313a1 1 0 1 1 0-2h2.313a1 1 0 0 1 0 2z"/><path d="m34.9 56h-3.1a1 1 0 0 1 0-2h2.1v-29.93h-15.126l-4.543 13.921a1 1 0 0 1 -.458.567l-4.773 2.72v12.722h7.8a1 1 0 1 1 0 2h-8.8a1 1 0 0 1 -1-1v-14.3a1 1 0 0 1 .5-.869l4.941-2.815 4.659-14.256a1 1 0 0 1 .95-.69h16.85a1 1 0 0 1 1 1v31.93a1 1 0 0 1 -1 1z"/><path d="m27.551 38.609h-14.269a1 1 0 0 1 0-2h13.269v-13.538a1 1 0 0 1 2 0v14.538a1 1 0 0 1 -1 1z"/></svg>