<svg id="Layer_1" height="512" viewBox="0 0 80 80" width="512" xmlns="http://www.w3.org/2000/svg" data-name="Layer 1"><path d="m63.208 65.521h-46.416a3.433 3.433 0 0 1 -3.425-3.434v-51.653a3.433 3.433 0 0 1 3.425-3.434h46.416a3.433 3.433 0 0 1 3.425 3.434v51.653a3.433 3.433 0 0 1 -3.425 3.434zm-46.416-56.521a1.431 1.431 0 0 0 -1.425 1.434v51.653a1.431 1.431 0 0 0 1.425 1.434h46.416a1.431 1.431 0 0 0 1.425-1.434v-51.653a1.431 1.431 0 0 0 -1.425-1.434z"/><path d="m60.092 73h-6.712a2.413 2.413 0 0 1 -2.18-2.637v-5.842a1 1 0 0 1 1-1h9.064a1 1 0 0 1 1 1v5.842a2.413 2.413 0 0 1 -2.172 2.637zm-6.892-7.479v4.842a.825.825 0 0 0 .226.647l6.666-.01a1.16 1.16 0 0 0 .176-.637v-4.842z"/><path d="m26.62 73h-6.712a2.413 2.413 0 0 1 -2.176-2.637v-5.842a1 1 0 0 1 1-1h9.068a1 1 0 0 1 1 1v5.842a2.413 2.413 0 0 1 -2.18 2.637zm-6.888-7.479v4.842a.825.825 0 0 0 .226.647l6.662-.01a1.16 1.16 0 0 0 .176-.637v-4.842z"/><path d="m65.633 18.162h-51.266a1 1 0 0 1 0-2h51.266a1 1 0 0 1 0 2z"/><path d="m65.633 50.557h-51.266a1 1 0 0 1 0-2h51.266a1 1 0 0 1 0 2z"/><path d="m54.144 61.545a4.506 4.506 0 1 1 4.494-4.506 4.506 4.506 0 0 1 -4.494 4.506zm0-7.012a2.506 2.506 0 1 0 2.494 2.506 2.5 2.5 0 0 0 -2.494-2.506z"/><path d="m25.856 61.545a4.506 4.506 0 1 1 4.494-4.506 4.506 4.506 0 0 1 -4.494 4.506zm0-7.012a2.506 2.506 0 1 0 2.494 2.506 2.5 2.5 0 0 0 -2.494-2.506z"/><path d="m8 29.521a1 1 0 0 1 -1-1v-5.421a3.71 3.71 0 0 1 3.7-3.711h3.665a1 1 0 0 1 0 2h-3.665a1.708 1.708 0 0 0 -1.7 1.711v5.422a1 1 0 0 1 -1 .999z"/><path d="m72 29.521a1 1 0 0 1 -1-1v-5.421a1.708 1.708 0 0 0 -1.7-1.711h-3.667a1 1 0 0 1 0-2h3.667a3.71 3.71 0 0 1 3.7 3.711v5.422a1 1 0 0 1 -1 .999z"/><path d="m40 50.557a1 1 0 0 1 -1-1v-32.4a1 1 0 0 1 2 0v32.4a1 1 0 0 1 -1 1z"/><path d="m20.107 34.146a1 1 0 0 1 -.707-1.708l10.077-10.076a1 1 0 0 1 1.414 1.414l-10.077 10.077a1 1 0 0 1 -.707.293z"/><path d="m19.276 28.9a1 1 0 0 1 -.707-1.707l5.657-5.657a1 1 0 0 1 1.414 1.414l-5.657 5.65a1 1 0 0 1 -.707.3z"/><path d="m44.719 55.741h-9.438a1 1 0 1 1 0-2h9.438a1 1 0 1 1 0 2z"/><path d="m44.719 60.337h-9.438a1 1 0 1 1 0-2h9.438a1 1 0 1 1 0 2z"/></svg>