<svg id="Layer_1" height="512" viewBox="0 0 80 80" width="512" xmlns="http://www.w3.org/2000/svg" data-name="Layer 1"><path d="m60.354 31.076h-8.338a1 1 0 0 1 0-2h8.338a3.211 3.211 0 1 0 0-6.422h-51.354v7.422a1 1 0 0 1 -2 0v-8.422a1 1 0 0 1 1-1h52.354a5.211 5.211 0 0 1 0 10.422z"/><path d="m16.007 53.458h-8.007a1 1 0 0 1 -1-1v-30.8a1 1 0 0 1 1-1h44.016a1 1 0 0 1 0 2h-43.016v28.8h7.007a1 1 0 1 1 0 2z"/><path d="m52.016 53.458h-24.237a1 1 0 1 1 0-2h23.237v-21.382a1 1 0 0 1 2 0v22.382a1 1 0 0 1 -1 1z"/><path d="m69.122 41.2h-17.106a1 1 0 0 1 0-2h14.565l-9.012-8.391a1 1 0 0 1 1.364-1.463l10.867 10.122a1 1 0 0 1 -.682 1.731z"/><path d="m52.553 53.458h-.537a1 1 0 1 1 0-2h.537a1 1 0 0 1 0 2z"/><path d="m69.787 53.458h-5.461a1 1 0 1 1 0-2h5.461a1.213 1.213 0 1 0 0-2.425h-.665a1 1 0 0 1 -1-1v-7.833a1 1 0 0 1 2 0v6.852a3.212 3.212 0 0 1 -.335 6.407z"/><path d="m48.02 48.713h-8.528a1 1 0 0 1 -1-1v-17.026a1 1 0 0 1 1-1h8.528a1 1 0 0 1 1 1v17.026a1 1 0 0 1 -1 1zm-7.528-2h6.528v-15.026h-6.528z"/><path d="m34.963 41.2h-8.526a1 1 0 0 1 -1-1v-9.513a1 1 0 0 1 1-1h8.526a1 1 0 0 1 1 1v9.513a1 1 0 0 1 -1 1zm-7.526-2h6.526v-7.513h-6.526z"/><path d="m22.387 41.2h-8.528a1 1 0 0 1 -1-1v-9.513a1 1 0 0 1 1-1h8.528a1 1 0 0 1 1 1v9.513a1 1 0 0 1 -1 1zm-7.528-2h6.528v-7.513h-6.528z"/><path d="m58.438 59.346a6.888 6.888 0 1 1 6.888-6.888 6.9 6.9 0 0 1 -6.888 6.888zm0-11.776a4.888 4.888 0 1 0 4.888 4.888 4.893 4.893 0 0 0 -4.888-4.888z"/><path d="m58.438 55.646a3.188 3.188 0 1 1 3.188-3.188 3.191 3.191 0 0 1 -3.188 3.188zm0-4.375a1.188 1.188 0 1 0 1.188 1.187 1.188 1.188 0 0 0 -1.188-1.187z"/><path d="m21.891 59.346a6.888 6.888 0 1 1 6.887-6.888 6.9 6.9 0 0 1 -6.887 6.888zm0-11.776a4.888 4.888 0 1 0 4.887 4.888 4.893 4.893 0 0 0 -4.887-4.888z"/><path d="m21.891 55.646a3.188 3.188 0 1 1 3.187-3.188 3.191 3.191 0 0 1 -3.187 3.188zm0-4.375a1.188 1.188 0 1 0 1.187 1.187 1.188 1.188 0 0 0 -1.187-1.187z"/></svg>