<svg id="Layer_1" height="512" viewBox="0 0 80 80" width="512" xmlns="http://www.w3.org/2000/svg" data-name="Layer 1"><path d="m65.167 61.755h-50.334a1 1 0 0 1 -.935-.645l-6.833-17.947a1 1 0 0 1 .935-1.355h64a1 1 0 0 1 .935 1.355l-6.835 17.947a1 1 0 0 1 -.933.645zm-49.645-2h48.956l6.071-15.947h-61.098z"/><path d="m55.375 56.411a4.63 4.63 0 1 1 4.63-4.63 4.635 4.635 0 0 1 -4.63 4.63zm0-7.26a2.63 2.63 0 1 0 2.63 2.63 2.633 2.633 0 0 0 -2.63-2.63z"/><path d="m40 56.411a4.63 4.63 0 1 1 4.63-4.63 4.635 4.635 0 0 1 -4.63 4.63zm0-7.26a2.63 2.63 0 1 0 2.63 2.63 2.633 2.633 0 0 0 -2.63-2.63z"/><path d="m24.625 56.411a4.63 4.63 0 1 1 4.63-4.63 4.635 4.635 0 0 1 -4.63 4.63zm0-7.26a2.63 2.63 0 1 0 2.63 2.63 2.633 2.633 0 0 0 -2.63-2.63z"/><path d="m69.25 43.808h-21.75a1 1 0 0 1 -1-1v-7.642a1 1 0 0 1 1-1h21.75a1 1 0 0 1 1 1v7.642a1 1 0 0 1 -1 1zm-20.75-2h19.75v-5.642h-19.75z"/><path d="m62.658 28.205h-8.566a1 1 0 0 1 -1-1v-7.96a1 1 0 0 1 1-1h8.566a1 1 0 0 1 1 1v7.96a1 1 0 0 1 -1 1zm-7.566-2h6.566v-5.96h-6.566z"/><path d="m66.94 36.166h-8.565a1 1 0 0 1 -1-1v-7.961a1 1 0 0 1 1-1h8.565a1 1 0 0 1 1 1v7.961a1 1 0 0 1 -1 1zm-7.565-2h6.565v-5.961h-6.565z"/><path d="m58.375 36.166h-8.565a1 1 0 0 1 -1-1v-7.961a1 1 0 0 1 1-1h8.565a1 1 0 0 1 1 1v7.961a1 1 0 0 1 -1 1zm-7.565-2h6.565v-5.961h-6.565z"/><path d="m31.333 43.808h-10.1a1 1 0 0 1 -1-1v-9.392a1 1 0 0 1 1-1h10.1a1 1 0 0 1 1 1v9.392a1 1 0 0 1 -1 1zm-9.1-2h8.1v-7.392h-8.1z"/><path d="m21.229 43.808h-10.1a1 1 0 0 1 -1-1v-9.392a1 1 0 0 1 1-1h10.1a1 1 0 0 1 1 1v9.392a1 1 0 0 1 -1 1zm-9.1-2h8.1v-7.392h-8.1z"/></svg>