<svg id="Layer_1" height="512" viewBox="0 0 80 80" width="512" xmlns="http://www.w3.org/2000/svg" data-name="Layer 1"><path d="m66.9 40.691h-53.8a1 1 0 0 1 -.98-1.194l4.323-21.767a.487.487 0 0 1 .012-.052 6.117 6.117 0 0 1 5.931-4.607h35.237a6.12 6.12 0 0 1 5.931 4.606l4.329 21.823a1 1 0 0 1 -.981 1.194zm-52.579-2h51.364l-4.085-20.572a4.109 4.109 0 0 0 -3.981-3.048h-35.233a4.12 4.12 0 0 0 -3.986 3.076z"/><path d="m65.561 66.929h-10.014a2.757 2.757 0 0 1 -2.754-2.754v-6.411a1 1 0 0 1 1-1h13.522a1 1 0 0 1 1 1v6.411a2.757 2.757 0 0 1 -2.754 2.754zm-10.768-8.165v5.411a.755.755 0 0 0 .754.754h10.014a.755.755 0 0 0 .754-.754v-5.411z"/><path d="m24.461 66.929h-10.013a2.758 2.758 0 0 1 -2.755-2.754v-6.411a1 1 0 0 1 1-1h13.523a1 1 0 0 1 1 1v6.411a2.758 2.758 0 0 1 -2.755 2.754zm-10.768-8.165v5.411a.755.755 0 0 0 .755.754h10.013a.755.755 0 0 0 .755-.754v-5.411z"/><path d="m51.2 46.707h-22.387a1 1 0 1 1 0-2h22.387a1 1 0 0 1 0 2z"/><path d="m51.2 52.747h-22.387a1 1 0 0 1 0-2h22.387a1 1 0 1 1 0 2z"/><path d="m71.987 58.764h-63.966a1 1 0 0 1 -1-1v-13.964a5.113 5.113 0 0 1 5.108-5.108h55.751a5.113 5.113 0 0 1 5.107 5.108v13.964a1 1 0 0 1 -1 1zm-62.966-2h61.966v-12.964a3.11 3.11 0 0 0 -3.107-3.11h-55.751a3.111 3.111 0 0 0 -3.108 3.11z"/><path d="m71.979 53.165h-10.458a1 1 0 0 1 -1-1c0-4.343 3.234-7.875 7.208-7.875h4.271a1 1 0 0 1 0 2h-4.271a5.444 5.444 0 0 0 -5.129 4.875h9.383a1 1 0 0 1 0 2z"/><path d="m18.488 53.165h-10.458a1 1 0 1 1 0-2h9.383a5.444 5.444 0 0 0 -5.134-4.875h-4.266a1 1 0 1 1 0-2h4.266c3.975 0 7.209 3.532 7.209 7.875a1 1 0 0 1 -1 1z"/><path d="m69.429 37.077h-3.25a1 1 0 0 1 0-2h3.25a1.56 1.56 0 0 0 0-3.12h-4.26a1 1 0 0 1 0-2h4.26a3.56 3.56 0 1 1 0 7.12z"/><path d="m13.814 37.077h-3.25a3.56 3.56 0 0 1 0-7.12h4.26a1 1 0 0 1 0 2h-4.26a1.56 1.56 0 0 0 0 3.12h3.25a1 1 0 0 1 0 2z"/></svg>