<svg id="Layer_1" height="512" viewBox="0 0 80 80" width="512" xmlns="http://www.w3.org/2000/svg" data-name="Layer 1"><path d="m71.012 58.136h-4.781a1 1 0 0 1 0-2h4.781l-.012-25.385h-53.059v25.385h4.891a1 1 0 0 1 0 2h-4.891a2 2 0 0 1 -2-2v-26.385a1 1 0 0 1 1-1h55.059a1 1 0 0 1 1 1v26.4a1.993 1.993 0 0 1 -1.988 1.985z"/><path d="m52.712 58.136h-16.36a1 1 0 0 1 0-2h16.36a1 1 0 0 1 0 2z"/><path d="m16.941 48.859h-4.612a1 1 0 0 1 -1-1v-4.023a1 1 0 0 1 1-1h4.612a1 1 0 0 1 1 1v4.023a1 1 0 0 1 -1 1zm-3.612-2h2.612v-2.023h-2.612z"/><path d="m12.329 51.651h-4.329a1 1 0 0 1 -1-1v-9.607a1 1 0 0 1 1-1h4.331a1 1 0 0 1 1 1v9.607a1 1 0 0 1 -1.002 1zm-3.329-2h2.331v-7.607h-2.331z"/><path d="m72 48.859h-55.059a1 1 0 1 1 0-2h55.059a1 1 0 0 1 0 2z"/><path d="m59.471 66.676a7.95 7.95 0 1 1 7.95-7.95 7.96 7.96 0 0 1 -7.95 7.95zm0-13.9a5.95 5.95 0 1 0 5.95 5.95 5.957 5.957 0 0 0 -5.95-5.95z"/><path d="m59.472 62.784a4.058 4.058 0 1 1 4.057-4.058 4.062 4.062 0 0 1 -4.057 4.058zm0-6.116a2.058 2.058 0 1 0 2.057 2.058 2.061 2.061 0 0 0 -2.057-2.058z"/><path d="m29.593 66.676a7.95 7.95 0 1 1 7.95-7.95 7.959 7.959 0 0 1 -7.95 7.95zm0-13.9a5.95 5.95 0 1 0 5.95 5.95 5.956 5.956 0 0 0 -5.95-5.95z"/><path d="m29.594 62.784a4.058 4.058 0 1 1 4.057-4.058 4.062 4.062 0 0 1 -4.057 4.058zm0-6.116a2.058 2.058 0 1 0 2.057 2.058 2.061 2.061 0 0 0 -2.057-2.058z"/><path d="m64.814 30.751a1 1 0 0 1 -.856-.482l-7.858-12.98a4.054 4.054 0 0 0 -3.39-1.961 4.16 4.16 0 0 0 -3.476 1.807l-8.81 13.172a1 1 0 0 1 -1.664-1.107l8.81-13.172a6.071 6.071 0 0 1 10.239.231l7.86 12.979a1 1 0 0 1 -.855 1.518z"/><path d="m21.146 30.747a1 1 0 0 1 -.831-1.556l8.813-13.171a6.069 6.069 0 0 1 10.238.232l4.634 7.657a1 1 0 0 1 -1.711 1.035l-4.636-7.657a4.071 4.071 0 0 0 -6.865-.156l-8.81 13.169a1 1 0 0 1 -.832.447z"/></svg>