<svg id="Layer_1" height="512" viewBox="0 0 80 80" width="512" xmlns="http://www.w3.org/2000/svg" data-name="Layer 1"><path d="m71.168 71.244h-62.336a1.834 1.834 0 0 1 -1.832-1.832v-50.112a1.834 1.834 0 0 1 1.832-1.832h62.336a1.834 1.834 0 0 1 1.832 1.832v50.112a1.834 1.834 0 0 1 -1.832 1.832zm-62.168-2h62v-49.78h-62z"/><path d="m71.921 32.879h-63.921a1 1 0 1 1 0-2h63.921a1 1 0 0 1 0 2z"/><path d="m67.356 19.464h-9.688a1 1 0 0 1 -1-1v-4.121a1 1 0 0 1 1-1h9.688a1 1 0 0 1 1 1v4.121a1 1 0 0 1 -1 1zm-8.688-2h7.688v-2.121h-7.688z"/><path d="m65.387 15.343h-5.75a1 1 0 0 1 -1-1v-4.587a1 1 0 0 1 1-1h5.75a1 1 0 0 1 1 1v4.587a1 1 0 0 1 -1 1zm-4.75-2h3.75v-2.587h-3.75z"/><path d="m22.332 19.464h-9.688a1 1 0 0 1 -1-1v-4.121a1 1 0 0 1 1-1h9.688a1 1 0 0 1 1 1v4.121a1 1 0 0 1 -1 1zm-8.688-2h7.688v-2.121h-7.688z"/><path d="m20.363 15.343h-5.75a1 1 0 0 1 -1-1v-4.587a1 1 0 0 1 1-1h5.75a1 1 0 0 1 1 1v4.587a1 1 0 0 1 -1 1zm-4.75-2h3.75v-2.587h-3.75z"/><path d="m51.125 19.464h-22.25a1 1 0 0 1 -1-1v-4.419a1 1 0 0 1 1-1h22.25a1 1 0 0 1 1 1v4.419a1 1 0 0 1 -1 1zm-21.25-2h20.25v-2.419h-20.25z"/><path d="m57.463 29.051a1 1 0 0 1 -1-1v-5.178a1 1 0 1 1 2 0v5.178a1 1 0 0 1 -1 1z"/><path d="m60.052 26.462h-5.177a1 1 0 0 1 0-2h5.177a1 1 0 0 1 0 2z"/><path d="m25.146 26.462h-5.2a1 1 0 0 1 0-2h5.2a1 1 0 0 1 0 2z"/></svg>