<svg id="Layer_1" height="512" viewBox="0 0 80 80" width="512" xmlns="http://www.w3.org/2000/svg" data-name="Layer 1"><path d="m48.54 53.492h-20.347a1 1 0 0 1 0-2h20.347a1 1 0 0 1 0 2z"/><path d="m13.333 53.555a6.563 6.563 0 0 1 -4.477-1.467 5.043 5.043 0 0 1 -1.656-3.405c-1.016-8.77 2.1-23.259 2.229-23.871a5.242 5.242 0 0 1 5.078-4.064l41.714.095c2.508-.092 3.514 1.143 3.757 1.511l10.74 14.11c1.965 1.73 1.918 4.655 1.854 5.533a12.41 12.41 0 0 1 -.037 6.471 5.615 5.615 0 0 1 -4.732 5.02h-7.862a1 1 0 0 1 0-2h7.71c.393-.054 2.478-.483 2.917-3.387a.828.828 0 0 1 .029-.129 10.436 10.436 0 0 0 .022-5.507 1 1 0 0 1 -.057-.465c0-.025.32-2.788-1.219-4.076a.983.983 0 0 1 -.155-.161l-10.83-14.232a1.04 1.04 0 0 1 -.077-.118s-.472-.608-2.028-.571l-41.734-.094a3.309 3.309 0 0 0 -3.136 2.481c-.033.154-3.176 14.786-2.192 23.318a3.032 3.032 0 0 0 1.015 2.064 5.5 5.5 0 0 0 4.215.886l2.373-.005a1 1 0 1 1 0 2h-2.273a11.664 11.664 0 0 1 -1.188.063z"/><path d="m60.371 36.76h-14.059a2.565 2.565 0 0 1 -2.562-2.56v-6.6a2.731 2.731 0 0 1 2.721-2.734h8.693a2.474 2.474 0 0 1 1.957.953l5.16 6.585a2.054 2.054 0 0 1 .435 1.259v.756a2.348 2.348 0 0 1 -2.345 2.341zm-13.9-9.9a.728.728 0 0 0 -.721.734v6.6a.562.562 0 0 0 .562.562h14.059a.345.345 0 0 0 .345-.345v-.756a.036.036 0 0 0 -.01-.025l-5.158-6.58a.494.494 0 0 0 -.384-.188z"/><path d="m39.087 36.585h-7.938a2.055 2.055 0 0 1 -2.049-2.053v-7.617a2.055 2.055 0 0 1 2.052-2.053h7.938a2.055 2.055 0 0 1 2.053 2.053v7.617a2.055 2.055 0 0 1 -2.056 2.053zm-7.938-9.723-.052.053v7.617l7.99.053.053-7.67z"/><path d="m24.435 36.585h-7.935a2.055 2.055 0 0 1 -2.052-2.052v-7.611a2.055 2.055 0 0 1 2.052-2.052h7.932a2.055 2.055 0 0 1 2.051 2.052v7.611a2.055 2.055 0 0 1 -2.048 2.052zm-7.935-9.715-.052.052v7.611l7.984.052.051-7.663z"/><path d="m71.514 49.472h-4.643a2.642 2.642 0 0 1 -2.639-2.639v-2.815a2.642 2.642 0 0 1 2.639-2.639h4.765a1 1 0 0 1 0 2h-4.765a.64.64 0 0 0 -.639.639v2.815a.64.64 0 0 0 .639.639h4.643a1 1 0 0 1 0 2z"/><path d="m48.9 40.1h-3.356a1 1 0 0 1 0-2h3.356a1 1 0 0 1 0 2z"/><path d="m54.245 55.853a3.3 3.3 0 1 1 3.3-3.3 3.3 3.3 0 0 1 -3.3 3.3zm0-4.6a1.3 1.3 0 1 0 1.3 1.3 1.3 1.3 0 0 0 -1.3-1.302z"/><path d="m22.5 55.853a3.3 3.3 0 1 1 3.3-3.3 3.3 3.3 0 0 1 -3.3 3.3zm0-4.6a1.3 1.3 0 1 0 1.3 1.3 1.3 1.3 0 0 0 -1.3-1.302z"/><path d="m54.245 59.252a6.7 6.7 0 1 1 6.7-6.7 6.708 6.708 0 0 1 -6.7 6.7zm0-11.4a4.7 4.7 0 1 0 4.7 4.7 4.707 4.707 0 0 0 -4.7-4.701z"/><path d="m22.5 59.252a6.7 6.7 0 1 1 6.7-6.7 6.708 6.708 0 0 1 -6.7 6.7zm0-11.4a4.7 4.7 0 1 0 4.7 4.7 4.707 4.707 0 0 0 -4.7-4.701z"/></svg>