<svg id="Layer_1" height="512" viewBox="0 0 80 80" width="512" xmlns="http://www.w3.org/2000/svg" data-name="Layer 1"><path d="m63.482 40.243h-50.3a1 1 0 0 1 -1-1v-8.59a1 1 0 0 1 1-1h48.818a1 1 0 0 1 .985.83l1.485 8.59a1 1 0 0 1 -.985 1.17zm-49.3-2h48.112l-1.139-6.59h-46.978z"/><path d="m54.1 40.155a1 1 0 0 1 -1-1v-8.5a1 1 0 0 1 2 0v8.5a1 1 0 0 1 -1 1z"/><path d="m45.641 40.155a1 1 0 0 1 -1-1v-8.5a1 1 0 0 1 2 0v8.5a1 1 0 0 1 -1 1z"/><path d="m37.182 40.155a1 1 0 0 1 -1-1v-8.5a1 1 0 0 1 2 0v8.5a1 1 0 0 1 -1 1z"/><path d="m28.723 40.155a1 1 0 0 1 -1-1v-8.5a1 1 0 0 1 2 0v8.5a1 1 0 0 1 -1 1z"/><path d="m20.264 40.155a1 1 0 0 1 -1-1v-8.5a1 1 0 0 1 2 0v8.5a1 1 0 0 1 -1 1z"/><path d="m67.528 52.771h-10.31v-2h10.31a.921.921 0 0 0 .92-.92v-10.451a2.258 2.258 0 0 0 -.072-.518l-2.6-10.359a1.052 1.052 0 0 0 -1.02-.8h-55.756v23.05h6.529v2h-6.611a1.922 1.922 0 0 1 -1.918-1.922v-23.21a1.922 1.922 0 0 1 1.919-1.92h55.84a3.052 3.052 0 0 1 2.961 2.317l2.6 10.369a4.251 4.251 0 0 1 .129.993v10.451a2.923 2.923 0 0 1 -2.921 2.92z"/><path d="m24.999 50.771h21.72v2h-21.72z"/><path d="m51.963 58.111a6.254 6.254 0 1 1 6.255-6.255 6.261 6.261 0 0 1 -6.255 6.255zm0-10.508a4.254 4.254 0 1 0 4.255 4.253 4.259 4.259 0 0 0 -4.255-4.256z"/><path d="m51.963 54.986a3.129 3.129 0 1 1 3.129-3.13 3.133 3.133 0 0 1 -3.129 3.13zm0-4.258a1.129 1.129 0 1 0 1.129 1.128 1.13 1.13 0 0 0 -1.129-1.128z"/><path d="m20.264 54.986a3.129 3.129 0 1 1 3.13-3.13 3.133 3.133 0 0 1 -3.13 3.13zm0-4.258a1.129 1.129 0 1 0 1.13 1.128 1.13 1.13 0 0 0 -1.13-1.128z"/><path d="m20.264 57.591a5.734 5.734 0 1 1 5.736-5.735 5.74 5.74 0 0 1 -5.736 5.735zm0-9.468a3.734 3.734 0 1 0 3.736 3.733 3.738 3.738 0 0 0 -3.736-3.733z"/><path d="m72 34.276a1 1 0 0 1 -.949-.687l-1.024-3.107a.127.127 0 0 0 -.12-.086h-2.874a1 1 0 0 1 0-2h2.875a2.122 2.122 0 0 1 2.02 1.46l1.023 3.108a1 1 0 0 1 -.951 1.312z"/><path d="m49.936 27.719h-30.983a1 1 0 0 1 -.946-1.324l1.122-3.277c.011-.031.023-.062.037-.092a1.953 1.953 0 0 1 1.772-1.137h27.012a1.953 1.953 0 0 1 1.772 1.137l1.16 3.369a1 1 0 0 1 -.946 1.324zm-29.583-2h28.183l-.627-1.83h-26.93z"/></svg>