<svg id="Layer_1" height="512" viewBox="0 0 80 80" width="512" xmlns="http://www.w3.org/2000/svg" data-name="Layer 1"><path d="m54.921 63.727h-29.842a1.574 1.574 0 0 1 -1.571-1.573v-53.583a1.573 1.573 0 0 1 1.571-1.571h29.842a1.573 1.573 0 0 1 1.571 1.571v53.583a1.574 1.574 0 0 1 -1.571 1.573zm-29.413-2h28.984v-52.727h-28.984z"/><path d="m40 26.746a6.392 6.392 0 1 1 6.393-6.392 6.4 6.4 0 0 1 -6.393 6.392zm0-10.784a4.392 4.392 0 1 0 4.393 4.392 4.4 4.4 0 0 0 -4.393-4.392z"/><path d="m40 41.756a6.393 6.393 0 1 1 6.393-6.393 6.4 6.4 0 0 1 -6.393 6.393zm0-10.785a4.393 4.393 0 1 0 4.393 4.392 4.4 4.4 0 0 0 -4.393-4.392z"/><path d="m40 56.765a6.393 6.393 0 1 1 6.393-6.393 6.4 6.4 0 0 1 -6.393 6.393zm0-10.786a4.393 4.393 0 1 0 4.393 4.393 4.4 4.4 0 0 0 -4.393-4.393z"/><path d="m56.907 26.036q-.714 0-1.5-.068a1 1 0 0 1 -.914-1v-13.301a1 1 0 0 1 1-1h5.553a2.977 2.977 0 0 1 3.033 2.06 6.505 6.505 0 0 1 -.416 3.467l-2.22 7.726a2.848 2.848 0 0 1 -2.228 1.9 11.276 11.276 0 0 1 -2.308.216zm-.415-2.007a9.969 9.969 0 0 0 2.31-.166.919.919 0 0 0 .719-.5l2.236-7.78a4.644 4.644 0 0 0 .369-2.428c-.046-.205-.48-.493-1.081-.493h-4.553z"/><path d="m56.911 43.048c-.476 0-.979-.023-1.505-.069a1 1 0 0 1 -.914-1v-13.3a1 1 0 0 1 1-1h5.553a2.977 2.977 0 0 1 3.033 2.06 6.51 6.51 0 0 1 -.416 3.468l-2.22 7.725a2.845 2.845 0 0 1 -2.229 1.9 11.191 11.191 0 0 1 -2.302.216zm-.419-2.007a9.889 9.889 0 0 0 2.309-.166.917.917 0 0 0 .72-.495l2.236-7.78a4.642 4.642 0 0 0 .369-2.427c-.046-.206-.48-.5-1.081-.5h-4.553z"/><path d="m56.911 60.06q-.716 0-1.506-.069a1 1 0 0 1 -.913-1v-13.301a1 1 0 0 1 1-1h5.553a2.978 2.978 0 0 1 3.033 2.061 6.509 6.509 0 0 1 -.416 3.468l-2.22 7.724a2.849 2.849 0 0 1 -2.228 1.9 11.31 11.31 0 0 1 -2.303.217zm-.419-2.007a10.224 10.224 0 0 0 2.31-.165.922.922 0 0 0 .719-.5l2.236-7.78a4.652 4.652 0 0 0 .369-2.427c-.046-.206-.48-.5-1.081-.5h-4.553z"/><path d="m23.093 26.036a11.249 11.249 0 0 1 -2.3-.216 2.848 2.848 0 0 1 -2.23-1.9l-2.237-7.778a6.417 6.417 0 0 1 -.4-3.412 2.978 2.978 0 0 1 3.034-2.062h5.553a1 1 0 0 1 1 1v13.304a1 1 0 0 1 -.914 1q-.791.065-1.506.064zm-4.138-13.369c-.6 0-1.035.288-1.082.5a4.53 4.53 0 0 0 .354 2.372l2.252 7.833a.918.918 0 0 0 .721.5 9.839 9.839 0 0 0 2.308.166v-11.371z"/><path d="m23.089 43.048a11.191 11.191 0 0 1 -2.3-.216 2.844 2.844 0 0 1 -2.229-1.9l-2.237-7.778a6.419 6.419 0 0 1 -.4-3.413 2.978 2.978 0 0 1 3.034-2.061h5.553a1 1 0 0 1 1 1v13.3a1 1 0 0 1 -.914 1c-.528.045-1.031.068-1.507.068zm-4.134-13.365c-.6 0-1.035.289-1.082.5a4.531 4.531 0 0 0 .354 2.372l2.252 7.832a.915.915 0 0 0 .72.5 9.884 9.884 0 0 0 2.309.166v-11.374z"/><path d="m23.088 60.06a11.279 11.279 0 0 1 -2.3-.215 2.848 2.848 0 0 1 -2.23-1.9l-2.237-7.777a6.416 6.416 0 0 1 -.4-3.412 2.98 2.98 0 0 1 3.034-2.063h5.553a1 1 0 0 1 1 1v13.307a1 1 0 0 1 -.913 1q-.795.06-1.507.06zm-4.133-13.36c-.6 0-1.035.289-1.082.5a4.543 4.543 0 0 0 .354 2.372l2.252 7.832a.921.921 0 0 0 .721.5 10.08 10.08 0 0 0 2.308.165v-11.379z"/><path d="m44.255 73h-8.51a1 1 0 0 1 -1-1v-9.273a1 1 0 0 1 1-1h8.51a1 1 0 0 1 1 1v9.273a1 1 0 0 1 -1 1zm-7.51-2h6.51v-7.273h-6.51z"/></svg>