<svg id="Layer_1" height="512" viewBox="0 0 80 80" width="512" xmlns="http://www.w3.org/2000/svg" data-name="Layer 1"><path d="m61.976 59.064h-43.952a3.371 3.371 0 0 1 -3.3-3.434v-45.2a3.371 3.371 0 0 1 3.3-3.43h43.952a3.371 3.371 0 0 1 3.3 3.434v45.2a3.371 3.371 0 0 1 -3.3 3.43zm-43.952-50.064a1.371 1.371 0 0 0 -1.3 1.434v45.2a1.371 1.371 0 0 0 1.3 1.434h43.952a1.371 1.371 0 0 0 1.3-1.434v-45.2a1.371 1.371 0 0 0 -1.3-1.434z"/><path d="m54.144 53.319a4.506 4.506 0 1 1 4.5-4.506 4.506 4.506 0 0 1 -4.5 4.506zm0-7.012a2.506 2.506 0 1 0 2.5 2.506 2.5 2.5 0 0 0 -2.5-2.506z"/><path d="m25.856 53.319a4.506 4.506 0 1 1 4.495-4.506 4.506 4.506 0 0 1 -4.495 4.506zm0-7.012a2.506 2.506 0 1 0 2.495 2.506 2.5 2.5 0 0 0 -2.495-2.506z"/><path d="m58.23 35.23h-36.46a1 1 0 0 1 -1-1v-16.492a1 1 0 0 1 1-1h36.46a1 1 0 0 1 1 1v16.492a1 1 0 0 1 -1 1zm-35.46-2h34.46v-14.492h-34.46z"/><path d="m46.084 13.084h-12.168a1 1 0 0 1 -1-1v-4.084a1 1 0 0 1 1-1h12.168a1 1 0 0 1 1 1v4.084a1 1 0 0 1 -1 1zm-11.168-2h10.168v-2.084h-10.168z"/><path d="m44.719 47.532h-9.438a1 1 0 1 1 0-2h9.438a1 1 0 1 1 0 2z"/><path d="m44.719 52.094h-9.438a1 1 0 0 1 0-2h9.438a1 1 0 0 1 0 2z"/><path d="m55.563 73a1 1 0 0 1 -.94-.661l-4.792-13.275h-19.662l-4.792 13.275a1 1 0 0 1 -1.881-.678l5.03-13.936a1 1 0 0 1 .941-.661h21.066a1 1 0 0 1 .941.661l5.026 13.936a1 1 0 0 1 -.6 1.279.987.987 0 0 1 -.337.06z"/><path d="m18.146 73a1 1 0 0 1 -.917-1.4l6.076-13.936a1 1 0 0 1 .917-.6h31.556a1 1 0 0 1 .919.6l5.952 13.856a1 1 0 1 1 -1.837.789l-5.693-13.25h-30.242l-5.814 13.341a1 1 0 0 1 -.917.6z"/><path d="m52.4 64.23h-24.8a1 1 0 0 1 0-2h24.8a1 1 0 0 1 0 2z"/><path d="m54.267 69.4h-28.531a1 1 0 0 1 0-2h28.531a1 1 0 1 1 0 2z"/></svg>