<svg id="Layer_1" height="512" viewBox="0 0 80 80" width="512" xmlns="http://www.w3.org/2000/svg" data-name="Layer 1"><path d="m70.254 73a1 1 0 0 1 -.984-.831l-10.979-64a1 1 0 1 1 1.971-.338l10.978 64a1 1 0 0 1 -.816 1.155.983.983 0 0 1 -.17.014z"/><path d="m9.746 73a.983.983 0 0 1 -.17-.014 1 1 0 0 1 -.816-1.155l10.978-64a1 1 0 1 1 1.971.338l-10.979 64a1 1 0 0 1 -.984.831z"/><path d="m40 14.721a1 1 0 0 1 -1-1v-5.721a1 1 0 0 1 2 0v5.721a1 1 0 0 1 -1 1z"/><path d="m40 26.377a1 1 0 0 1 -1-1v-5.721a1 1 0 0 1 2 0v5.721a1 1 0 0 1 -1 1z"/><path d="m40 38.033a1 1 0 0 1 -1-1v-5.721a1 1 0 1 1 2 0v5.721a1 1 0 0 1 -1 1z"/><path d="m40 49.688a1 1 0 0 1 -1-1v-5.721a1 1 0 0 1 2 0v5.721a1 1 0 0 1 -1 1z"/><path d="m40 61.344a1 1 0 0 1 -1-1v-5.721a1 1 0 1 1 2 0v5.721a1 1 0 0 1 -1 1z"/><path d="m40 73a1 1 0 0 1 -1-1v-5.721a1 1 0 0 1 2 0v5.721a1 1 0 0 1 -1 1z"/></svg>