<svg id="Layer_1" height="512" viewBox="0 0 80 80" width="512" xmlns="http://www.w3.org/2000/svg" data-name="Layer 1"><path d="m61.062 73h-53.062a1 1 0 0 1 -1-1v-64a1 1 0 0 1 1-1h53.062a1 1 0 0 1 1 1v64a1 1 0 0 1 -1 1zm-52.062-2h51.062v-62h-51.062z"/><path d="m56.3 73h-43.539a1 1 0 0 1 -1-1v-57.862a1 1 0 0 1 1-1h43.539a1 1 0 0 1 1 1v57.862a1 1 0 0 1 -1 1zm-42.539-2h41.539v-55.862h-41.539z"/><path d="m34.531 73a1 1 0 0 1 -1-1v-57.862a1 1 0 1 1 2 0v57.862a1 1 0 0 1 -1 1z"/><path d="m72 37.319a1 1 0 0 1 -.851-.472l-2.588-4.171-2.587 4.171a1 1 0 0 1 -1.7-1.055l3.438-5.54a1.04 1.04 0 0 1 1.7 0l3.438 5.54a1 1 0 0 1 -.85 1.527z"/><path d="m68.562 50.22a1 1 0 0 1 -.849-.472l-3.438-5.54a1 1 0 0 1 1.7-1.055l2.587 4.171 2.588-4.171a1 1 0 0 1 1.7 1.055l-3.438 5.54a1 1 0 0 1 -.85.472z"/></svg>