<svg id="Layer_1" height="512" viewBox="0 0 80 80" width="512" xmlns="http://www.w3.org/2000/svg" data-name="Layer 1"><path d="m42.705 54.73a9.655 9.655 0 0 1 -6.842-2.8l-7.633-7.636a9.7 9.7 0 0 1 -1.311-12.069 126.113 126.113 0 0 1 18.515-22.67 8.4 8.4 0 0 1 11.366-.446 134.73 134.73 0 0 1 14.191 14.191 8.4 8.4 0 0 1 -.455 11.375 145.758 145.758 0 0 1 -22.47 18.469 9.819 9.819 0 0 1 -5.361 1.586zm8.67-45.624a6.4 6.4 0 0 0 -4.535 1.872l-.016.015a124.057 124.057 0 0 0 -18.224 22.319 7.691 7.691 0 0 0 1.046 9.568l7.632 7.633a7.678 7.678 0 0 0 9.7.954 143.8 143.8 0 0 0 22.149-18.212 6.394 6.394 0 0 0 .349-8.651 132.833 132.833 0 0 0 -13.976-13.979 6.3 6.3 0 0 0 -4.125-1.519z"/><path d="m45.436 44.394a2.928 2.928 0 0 1 -2.073-.856l-6.71-6.71a2.955 2.955 0 0 1 -.4-3.669 109.781 109.781 0 0 1 11.051-14.5 2.457 2.457 0 0 1 1.779-.807 2.494 2.494 0 0 1 1.836.735l10.581 10.578a2.5 2.5 0 0 1 -.111 3.639c-4.83 4.268-9.929 8.578-14.5 11.2a2.9 2.9 0 0 1 -1.453.39zm3.347-24.386a108.025 108.025 0 0 0 -10.846 14.235.945.945 0 0 0 .13 1.171l6.71 6.71a.928.928 0 0 0 1.115.149c4.415-2.536 9.42-6.77 14.17-10.967a.5.5 0 0 0 .022-.727l-10.576-10.579a.527.527 0 0 0 -.376-.15.483.483 0 0 0 -.349.156z"/><path d="m54.235 38.582a1 1 0 0 1 -.707-.293l-11.692-11.689a1 1 0 0 1 1.414-1.414l11.692 11.689a1 1 0 0 1 -.707 1.707z"/><path d="m8 72.9a1 1 0 0 1 -.993-1.12l.854-7.068a1.011 1.011 0 0 1 .286-.587l20.667-20.666a1 1 0 1 1 1.415 1.415l-20.422 20.426-.661 5.469 5.512-.623 20.419-20.423a1 1 0 0 1 1.414 1.414l-20.666 20.663a1 1 0 0 1 -.595.286l-7.117.805a1.051 1.051 0 0 1 -.113.009z"/><path d="m8 72.9a1 1 0 0 1 -.707-1.707l15.886-15.885a1 1 0 0 1 1.414 1.414l-15.885 15.885a1 1 0 0 1 -.708.293z"/></svg>