<svg id="Layer_1" height="512" viewBox="0 0 80 80" width="512" xmlns="http://www.w3.org/2000/svg" data-name="Layer 1"><path d="m44.742 13.909h-9.484a1 1 0 0 1 -.936-.647l-1.853-4.909a1 1 0 0 1 .931-1.353h13.2a1 1 0 0 1 .935 1.353l-1.853 4.909a1 1 0 0 1 -.94.647zm-8.793-2h8.1l1.1-2.909h-10.3z"/><path d="m40 22.669a3.851 3.851 0 0 1 -3.85-3.85 1 1 0 1 1 2 0 1.837 1.837 0 0 0 .551 1.317 1.931 1.931 0 0 0 1.326.533 1.886 1.886 0 0 0 1.823-1.823 1.839 1.839 0 0 0 -.723-1.494 5.223 5.223 0 0 1 -2.127-4.127v-.316a1 1 0 1 1 2 0v.316a3.244 3.244 0 0 0 1.347 2.542 3.826 3.826 0 0 1 1.5 3.107 3.877 3.877 0 0 1 -3.8 3.8z"/><path d="m66.559 73h-53.118a1 1 0 0 1 -1-1v-28.831a1 1 0 0 1 1-1h53.118a1 1 0 0 1 1 1v28.831a1 1 0 0 1 -1 1zm-52.118-2h51.118v-26.831h-51.118z"/><path d="m56.176 66.195a1 1 0 0 1 -1-1v-15.221a1 1 0 0 1 2 0v15.221a1 1 0 0 1 -1 1z"/><path d="m45.392 66.195a1 1 0 0 1 -1-1v-15.221a1 1 0 0 1 2 0v15.221a1 1 0 0 1 -1 1z"/><path d="m34.608 66.195a1 1 0 0 1 -1-1v-15.221a1 1 0 0 1 2 0v15.221a1 1 0 0 1 -1 1z"/><path d="m23.824 66.195a1 1 0 0 1 -1-1v-15.221a1 1 0 0 1 2 0v15.221a1 1 0 0 1 -1 1z"/><path d="m61.337 44.169h-7.271a1 1 0 0 1 -1-1v-1.146a4.636 4.636 0 0 1 9.271 0v1.146a1 1 0 0 1 -1 1zm-6.271-2h5.271v-.146a2.636 2.636 0 0 0 -5.271 0z"/><path d="m25.934 44.169h-7.271a1 1 0 0 1 -1-1v-1.146a4.636 4.636 0 0 1 9.271 0v1.146a1 1 0 0 1 -1 1zm-6.271-2h5.271v-.146a2.636 2.636 0 0 0 -5.271 0z"/><path d="m22.293 39.384a1 1 0 0 1 -.733-1.68l16.02-17.27a1 1 0 0 1 1.467 1.36l-16.021 17.27a.994.994 0 0 1 -.733.32z"/><path d="m57.7 39.384a1 1 0 0 1 -.733-.32l-16.017-17.28a1 1 0 1 1 1.467-1.359l16.02 17.28a1 1 0 0 1 -.734 1.679z"/></svg>