<svg id="Layer_1" height="512" viewBox="0 0 80 80" width="512" xmlns="http://www.w3.org/2000/svg" data-name="Layer 1"><path d="m72.005 55.32h-6.54a1 1 0 0 1 0-2h5.54v-31.909a2.513 2.513 0 0 0 -2.505-2.511h-48.125a2.886 2.886 0 0 0 -2.267 1.1l-7.557 9.605a7.252 7.252 0 0 0 -1.546 4.465v19.25h5.54a1 1 0 0 1 0 2h-6.54a1 1 0 0 1 -1-1v-20.25a9.26 9.26 0 0 1 1.974-5.7l7.56-9.61a4.88 4.88 0 0 1 3.836-1.86h48.125a4.516 4.516 0 0 1 4.51 4.511v32.909a1 1 0 0 1 -1.005 1z"/><path d="m57.691 63.1a8.779 8.779 0 1 1 8.779-8.78 8.789 8.789 0 0 1 -8.779 8.78zm0-15.558a6.779 6.779 0 1 0 6.779 6.778 6.786 6.786 0 0 0 -6.779-6.778z"/><path d="m57.691 59.32a5 5 0 1 1 5-5 5.006 5.006 0 0 1 -5 5zm0-8a3 3 0 1 0 3 3 3 3 0 0 0 -3-3z"/><path d="m22.319 63.1a8.779 8.779 0 1 1 8.78-8.78 8.79 8.79 0 0 1 -8.78 8.78zm0-15.558a6.779 6.779 0 1 0 6.781 6.778 6.786 6.786 0 0 0 -6.781-6.778z"/><path d="m22.319 59.32a5 5 0 1 1 5-5 5.006 5.006 0 0 1 -5 5zm0-8a3 3 0 1 0 3 3 3 3 0 0 0 -3-3z"/><path d="m49.915 55.32h-19.815a1 1 0 1 1 0-2h19.82a1 1 0 0 1 0 2z"/><path d="m72 34.982h-64a1 1 0 1 1 0-2h64a1 1 0 0 1 0 2z"/><path d="m60.242 34.982a1 1 0 0 1 -1-1v-16.082a1 1 0 0 1 2 0v16.082a1 1 0 0 1 -1 1z"/><path d="m46.367 34.982a1 1 0 0 1 -1-1v-16.082a1 1 0 0 1 2 0v16.082a1 1 0 0 1 -1 1z"/><path d="m32.492 34.982a1 1 0 0 1 -1-1v-16.082a1 1 0 0 1 2 0v16.082a1 1 0 0 1 -1 1z"/><path d="m72.005 42.82h-64a1 1 0 0 1 0-2h64a1 1 0 0 1 0 2z"/></svg>