<svg id="Layer_1" height="512" viewBox="0 0 80 80" width="512" xmlns="http://www.w3.org/2000/svg" data-name="Layer 1"><path d="m40 73a33 33 0 1 1 33-33 33.038 33.038 0 0 1 -33 33zm0-64a31 31 0 1 0 31 31 31.036 31.036 0 0 0 -31-31z"/><path d="m40 67a27 27 0 1 1 27-27 27.031 27.031 0 0 1 -27 27zm0-52a25 25 0 1 0 25 25 25.028 25.028 0 0 0 -25-25z"/><path d="m64.717 32.959h-49.44a1 1 0 1 1 0-2h49.44a1 1 0 0 1 0 2z"/><path d="m44.6 66.584a1 1 0 0 1 -1-1v-6.971a16.913 16.913 0 0 1 16.891-16.894h5.366a1 1 0 0 1 0 2h-5.366a14.91 14.91 0 0 0 -14.891 14.894v6.967a1 1 0 0 1 -1 1.004z"/><path d="m35.4 66.584a1 1 0 0 1 -1-1v-6.979a14.91 14.91 0 0 0 -14.889-14.893h-5.374a1 1 0 0 1 0-2h5.374a16.913 16.913 0 0 1 16.889 16.893v6.975a1 1 0 0 1 -1 1.004z"/><path d="m39.848 46.548c-4.154 0-7.408-2.252-7.408-5.126s3.254-5.122 7.408-5.122 7.406 2.251 7.406 5.124-3.254 5.124-7.406 5.124zm0-8.25c-2.931 0-5.408 1.431-5.408 3.124s2.477 3.126 5.408 3.126 5.406-1.431 5.406-3.126-2.476-3.122-5.406-3.122z"/></svg>