<svg id="Layer_1" height="512" viewBox="0 0 80 80" width="512" xmlns="http://www.w3.org/2000/svg" data-name="Layer 1"><path d="m72 31.126h-23.1a1 1 0 0 1 -1-1v-22.126a1 1 0 0 1 2 0v21.126h22.1a1 1 0 0 1 0 2z"/><path d="m48.9 73a1 1 0 0 1 -1-1v-22.126a1 1 0 0 1 1-1h23.1a1 1 0 0 1 0 2h-22.1v21.126a1 1 0 0 1 -1 1z"/><path d="m31.1 73a1 1 0 0 1 -1-1v-21.126h-22.1a1 1 0 0 1 0-2h23.1a1 1 0 0 1 1 1v22.126a1 1 0 0 1 -1 1z"/><path d="m31.1 31.126h-23.1a1 1 0 0 1 0-2h22.1v-21.126a1 1 0 0 1 2 0v22.126a1 1 0 0 1 -1 1z"/><path d="m40 12.794a1 1 0 0 1 -1-1v-3.794a1 1 0 0 1 2 0v3.794a1 1 0 0 1 -1 1z"/><path d="m40 21.419a1 1 0 0 1 -1-1v-3.794a1 1 0 0 1 2 0v3.794a1 1 0 0 1 -1 1z"/><path d="m40 30.044a1 1 0 0 1 -1-1v-3.794a1 1 0 0 1 2 0v3.794a1 1 0 0 1 -1 1z"/><path d="m40 55.209a1 1 0 0 1 -1-1v-3.794a1 1 0 1 1 2 0v3.794a1 1 0 0 1 -1 1z"/><path d="m40 63.834a1 1 0 0 1 -1-1v-3.794a1 1 0 1 1 2 0v3.794a1 1 0 0 1 -1 1z"/><path d="m40 72.459a1 1 0 0 1 -1-1v-3.794a1 1 0 0 1 2 0v3.794a1 1 0 0 1 -1 1z"/><path d="m71.729 40.729h-3.793a1 1 0 0 1 0-2h3.793a1 1 0 0 1 0 2z"/><path d="m63.1 40.729h-3.789a1 1 0 1 1 0-2h3.789a1 1 0 0 1 0 2z"/><path d="m54.479 40.729h-3.793a1 1 0 1 1 0-2h3.793a1 1 0 0 1 0 2z"/><path d="m29.315 40.729h-3.794a1 1 0 0 1 0-2h3.794a1 1 0 0 1 0 2z"/><path d="m20.69 40.729h-3.79a1 1 0 0 1 0-2h3.79a1 1 0 0 1 0 2z"/><path d="m12.065 40.729h-3.794a1 1 0 0 1 0-2h3.794a1 1 0 0 1 0 2z"/></svg>