<svg id="Layer_1" height="512" viewBox="0 0 80 80" width="512" xmlns="http://www.w3.org/2000/svg" data-name="Layer 1"><path d="m44.136 73h-8.346a1 1 0 0 1 -1-1v-17.706a1 1 0 0 1 1-1h8.346a1 1 0 0 1 1 1v17.706a1 1 0 0 1 -1 1zm-7.346-2h6.346v-15.706h-6.346z"/><path d="m52.585 55.294h-25.244a1.485 1.485 0 0 1 -1.484-1.483v-45.328a1.485 1.485 0 0 1 1.484-1.483h25.244a1.485 1.485 0 0 1 1.483 1.483v45.328a1.484 1.484 0 0 1 -1.483 1.483zm-24.728-2h24.211v-44.294h-24.211z"/><path d="m39.963 24.012a5.562 5.562 0 1 1 5.561-5.561 5.568 5.568 0 0 1 -5.561 5.561zm0-9.123a3.562 3.562 0 1 0 3.561 3.562 3.566 3.566 0 0 0 -3.561-3.562z"/><path d="m39.963 36.708a5.562 5.562 0 1 1 5.561-5.561 5.568 5.568 0 0 1 -5.561 5.561zm0-9.123a3.562 3.562 0 1 0 3.561 3.562 3.566 3.566 0 0 0 -3.561-3.562z"/><path d="m39.963 49.405a5.562 5.562 0 1 1 5.561-5.561 5.568 5.568 0 0 1 -5.561 5.561zm0-9.123a3.562 3.562 0 1 0 3.561 3.562 3.566 3.566 0 0 0 -3.561-3.562z"/><path d="m53.143 23.877a1 1 0 0 1 -1-1v-11.1a1 1 0 0 1 1-1h9.313a1 1 0 0 1 1 1 12.368 12.368 0 0 1 -2.7 7.756 21.978 21.978 0 0 1 -1.856 2.021 8.293 8.293 0 0 1 -5.757 2.323zm1-11.1v9.023a6.328 6.328 0 0 0 3.369-1.687 19.671 19.671 0 0 0 1.688-1.837 10.283 10.283 0 0 0 2.208-5.5z"/><path d="m53.143 37.836a1 1 0 0 1 -1-1v-11.1a1 1 0 0 1 1-1h9.313a1 1 0 0 1 1 1 12.37 12.37 0 0 1 -2.7 7.756 21.969 21.969 0 0 1 -1.862 2.02 8.29 8.29 0 0 1 -5.751 2.324zm1-11.1v9.02a6.322 6.322 0 0 0 3.369-1.688 19.662 19.662 0 0 0 1.688-1.833 10.286 10.286 0 0 0 2.208-5.5z"/><path d="m53.143 51.794a1 1 0 0 1 -1-1v-11.1a1 1 0 0 1 1-1h9.313a1 1 0 0 1 1 1 12.368 12.368 0 0 1 -2.7 7.756 21.978 21.978 0 0 1 -1.856 2.021 8.293 8.293 0 0 1 -5.757 2.323zm1-11.1v9.02a6.328 6.328 0 0 0 3.369-1.687 19.671 19.671 0 0 0 1.688-1.834 10.283 10.283 0 0 0 2.208-5.5z"/><path d="m26.857 23.877a8.289 8.289 0 0 1 -5.752-2.323 21.851 21.851 0 0 1 -1.863-2.021 12.368 12.368 0 0 1 -2.7-7.756 1 1 0 0 1 1-1h9.313a1 1 0 0 1 1 1v11.1a1 1 0 0 1 -.998 1zm-8.266-11.1a10.283 10.283 0 0 0 2.208 5.5 19.548 19.548 0 0 0 1.69 1.834 6.321 6.321 0 0 0 3.368 1.689v-9.02z"/><path d="m26.857 37.836a8.289 8.289 0 0 1 -5.752-2.323 21.98 21.98 0 0 1 -1.863-2.021 12.37 12.37 0 0 1 -2.7-7.756 1 1 0 0 1 1-1h9.313a1 1 0 0 1 1 1v11.1a1 1 0 0 1 -.998 1zm-8.266-11.1a10.286 10.286 0 0 0 2.208 5.5 19.674 19.674 0 0 0 1.69 1.834 6.321 6.321 0 0 0 3.368 1.687v-9.02z"/><path d="m26.857 51.794a8.289 8.289 0 0 1 -5.752-2.323 21.851 21.851 0 0 1 -1.863-2.021 12.368 12.368 0 0 1 -2.7-7.756 1 1 0 0 1 1-1h9.313a1 1 0 0 1 1 1v11.1a1 1 0 0 1 -.998 1zm-8.266-11.1a10.283 10.283 0 0 0 2.208 5.5 19.548 19.548 0 0 0 1.69 1.834 6.321 6.321 0 0 0 3.368 1.687v-9.02z"/></svg>