<svg id="Layer_1" height="512" viewBox="0 0 80 80" width="512" xmlns="http://www.w3.org/2000/svg" data-name="Layer 1"><path d="m72 18.522h-64a1 1 0 0 1 -1-1v-9.522a1 1 0 0 1 1-1h64a1 1 0 0 1 1 1v9.522a1 1 0 0 1 -1 1zm-63-2h62v-7.522h-62z"/><path d="m68.333 73h-6.041a1 1 0 0 1 -1-1v-54.478a1 1 0 0 1 1-1h6.041a1 1 0 0 1 1 1v54.478a1 1 0 0 1 -1 1zm-5.041-2h4.041v-52.478h-4.041z"/><path d="m17.708 73h-6.041a1 1 0 0 1 -1-1v-54.478a1 1 0 0 1 1-1h6.041a1 1 0 0 1 1 1v54.478a1 1 0 0 1 -1 1zm-5.041-2h4.041v-52.478h-4.041z"/><path d="m62.292 26.191h-44.584a1 1 0 0 1 0-2h44.584a1 1 0 0 1 0 2z"/><path d="m62.292 33.025h-44.584a1 1 0 0 1 0-2h44.584a1 1 0 0 1 0 2z"/><path d="m54.675 56.251h-29.35a1 1 0 0 1 -.964-1.264l3.457-12.633a2.173 2.173 0 0 1 2.1-1.583h20.163a2.174 2.174 0 0 1 2.1 1.583l3.457 12.633a1 1 0 0 1 -.964 1.264zm-28.039-2h26.728l-3.111-11.369a.173.173 0 0 0 -.172-.111h-20.162a.173.173 0 0 0 -.172.111z"/><path d="m57.187 68.269h-34.375a1 1 0 0 1 -1-1v-9.811a3.211 3.211 0 0 1 3.208-3.207h29.96a3.21 3.21 0 0 1 3.207 3.207v9.811a1 1 0 0 1 -1 1zm-33.375-2h32.375v-8.811a1.208 1.208 0 0 0 -1.207-1.207h-29.96a1.209 1.209 0 0 0 -1.208 1.207z"/><path d="m49.726 64.685a3.425 3.425 0 1 1 3.424-3.425 3.43 3.43 0 0 1 -3.424 3.425zm0-4.85a1.425 1.425 0 1 0 1.424 1.425 1.427 1.427 0 0 0 -1.424-1.425z"/><path d="m30.274 64.685a3.425 3.425 0 1 1 3.426-3.425 3.429 3.429 0 0 1 -3.426 3.425zm0-4.85a1.425 1.425 0 1 0 1.426 1.425 1.426 1.426 0 0 0 -1.426-1.425z"/><path d="m53.734 73h-5.381a1.946 1.946 0 0 1 -1.943-1.943v-3.788a1 1 0 0 1 1-1h7.267a1 1 0 0 1 1 1v3.788a1.946 1.946 0 0 1 -1.943 1.943zm-5.324-4.731v2.788l5.324-.057-.042-2.731z"/><path d="m31.647 73h-5.381a1.946 1.946 0 0 1 -1.943-1.943v-3.788a1 1 0 0 1 1-1h7.267a1 1 0 0 1 1 1v3.788a1.946 1.946 0 0 1 -1.943 1.943zm-5.324-4.731v2.788l5.324-.057-.042-2.731z"/><path d="m42.473 56.251a1 1 0 0 1 -.7-1.716l5.583-5.441a1 1 0 1 1 1.4 1.432l-5.582 5.442a1 1 0 0 1 -.701.283z"/><path d="m31.944 56.251a1 1 0 0 1 -.7-1.716l5.582-5.441a1 1 0 0 1 1.4 1.432l-5.583 5.442a1 1 0 0 1 -.699.283z"/></svg>