<svg id="Layer_1" height="512" viewBox="0 0 80 80" width="512" xmlns="http://www.w3.org/2000/svg" data-name="Layer 1"><path d="m46.918 53.619h-14.572a1 1 0 1 1 0-2h13.572v-28.769h-36.918v28.769h12.3a1 1 0 0 1 0 2h-13.3a1 1 0 0 1 -1-1v-30.769a1 1 0 0 1 1-1h38.918a1 1 0 0 1 1 1v30.769a1 1 0 0 1 -1 1z"/><path d="m72 53.619h-8.936a1 1 0 1 1 0-2h7.936v-9.593l-7.789-1.447a1 1 0 0 1 -.778-.707l-2.333-8.086h-13.182a1 1 0 0 1 0-2h13.937a1 1 0 0 1 .961.723l2.368 8.216 8 1.486a1 1 0 0 1 .816.989v11.419a1 1 0 0 1 -1 1z"/><path d="m52 53.619h-5.082a1 1 0 0 1 0-2h5.082a1 1 0 1 1 0 2z"/><path d="m57.526 59.15a6.527 6.527 0 1 1 6.527-6.527 6.534 6.534 0 0 1 -6.527 6.527zm0-11.054a4.527 4.527 0 1 0 4.527 4.527 4.531 4.531 0 0 0 -4.527-4.523z"/><path d="m57.526 56.135a3.512 3.512 0 1 1 3.513-3.512 3.516 3.516 0 0 1 -3.513 3.512zm0-5.024a1.512 1.512 0 1 0 1.513 1.512 1.513 1.513 0 0 0 -1.513-1.512z"/><path d="m26.817 59.15a6.527 6.527 0 1 1 6.528-6.527 6.534 6.534 0 0 1 -6.528 6.527zm0-11.054a4.527 4.527 0 1 0 4.528 4.527 4.531 4.531 0 0 0 -4.528-4.523z"/><path d="m26.817 56.135a3.512 3.512 0 1 1 3.513-3.512 3.516 3.516 0 0 1 -3.513 3.512zm0-5.024a1.512 1.512 0 1 0 1.513 1.512 1.513 1.513 0 0 0 -1.513-1.512z"/><path d="m50.664 40.625a1 1 0 0 1 -1-.958l-.238-5.792a1 1 0 0 1 1-1.041l7.49.026a1 1 0 0 1 .97.772l1.3 5.528a1 1 0 0 1 -.946 1.227l-8.547.238zm.8-5.788.155 3.762 6.335-.177-.836-3.565z"/><path d="m72 49.216h-4.083a1 1 0 0 1 -1-1v-3.4a1 1 0 0 1 1-1h4.083a1 1 0 0 1 1 1v3.4a1 1 0 0 1 -1 1zm-3.083-2h2.083v-1.4h-2.083z"/><path d="m35.984 41.525a1 1 0 0 1 -1-1v-9.739a1 1 0 0 1 2 0v9.739a1 1 0 0 1 -1 1z"/><path d="m26.817 41.525a1 1 0 0 1 -1-1v-9.739a1 1 0 0 1 2 0v9.739a1 1 0 0 1 -1 1z"/><path d="m17.651 41.525a1 1 0 0 1 -1-1v-9.739a1 1 0 0 1 2 0v9.739a1 1 0 0 1 -1 1z"/></svg>