<svg id="Layer_1" height="512" viewBox="0 0 80 80" width="512" xmlns="http://www.w3.org/2000/svg" data-name="Layer 1"><path d="m69.856 72.906h-59.712a3.053 3.053 0 0 1 -3.05-3.05v-59.712a3.053 3.053 0 0 1 3.05-3.05h59.712a3.053 3.053 0 0 1 3.05 3.05v59.712a3.053 3.053 0 0 1 -3.05 3.05zm-59.712-63.812a1.051 1.051 0 0 0 -1.05 1.05v59.712a1.051 1.051 0 0 0 1.05 1.05h59.712a1.051 1.051 0 0 0 1.05-1.05v-59.712a1.051 1.051 0 0 0 -1.05-1.05z"/><path d="m51.842 41.119a1 1 0 0 1 -1-1v-15.312a1 1 0 0 1 2 0v15.312a1 1 0 0 1 -1 1z"/><path d="m45.064 39.091a1 1 0 0 1 -1-1v-16.266a1 1 0 1 1 2 0v16.266a1 1 0 0 1 -1 1z"/><path d="m51.842 39.091a1 1 0 0 1 -1-1v-13.284a1 1 0 0 1 2 0v13.284a1 1 0 0 1 -1 1z"/><path d="m38.287 36.728a1 1 0 0 1 -1-1v-15.259a1 1 0 0 1 2 0v15.259a1 1 0 0 1 -1 1z"/><path d="m45.064 36.728a1 1 0 0 1 -1-1v-13.9a1 1 0 1 1 2 0v13.9a1 1 0 0 1 -1 1z"/><path d="m38.287 36.728a1 1 0 0 1 -1-1v-15.259a1 1 0 0 1 2 0v15.259a1 1 0 0 1 -1 1z"/><path d="m46.562 65.888h-6.752a12.411 12.411 0 0 1 -10.223-5.31 58.516 58.516 0 0 1 -5.587-10.75 58.915 58.915 0 0 0 -2.656-5.655l-.11-.209a4.255 4.255 0 0 1 -.382-2.982 4.035 4.035 0 0 1 3.964-3.359 4.255 4.255 0 0 1 2.984 1.247l3.065 3.12v-21.521a4.21 4.21 0 0 1 6.625-3.439 4.217 4.217 0 0 1 4.01-2.918h.357a4.214 4.214 0 0 1 4.209 4.14 4.2 4.2 0 0 1 2.211-.626h.358a4.213 4.213 0 0 1 4.165 3.634 4.237 4.237 0 0 1 3.183-.549 4.311 4.311 0 0 1 3.275 4.242v26.906a16.309 16.309 0 0 1 -1.5 7.03c-.11.231-.226.463-.351.694a12.211 12.211 0 0 1 -10.845 6.305zm-21.744-26.265c-.72 0-1.655.316-2.019 1.828a2.255 2.255 0 0 0 .201 1.579l.106.2a60.678 60.678 0 0 1 2.741 5.835 56.47 56.47 0 0 0 5.38 10.374 10.411 10.411 0 0 0 8.579 4.449h6.752a10.215 10.215 0 0 0 9.088-5.251c.109-.2.21-.405.306-.605a14.319 14.319 0 0 0 1.306-6.173v-26.906a2.3 2.3 0 0 0 -1.707-2.289 2.214 2.214 0 0 0 -2.07.59 2.191 2.191 0 0 0 -.643 1.553 1 1 0 1 1 -2 0v-2.982a2.206 2.206 0 0 0 -2.21-2.2h-.358a2.206 2.206 0 0 0 -2.21 2.2 1 1 0 0 1 -2 0v-3.5a2.213 2.213 0 0 0 -2.21-2.21h-.35a2.213 2.213 0 0 0 -2.21 2.21v2.147a1 1 0 0 1 -2 0 2.21 2.21 0 0 0 -4.42 0v23.964a1 1 0 0 1 -1.714.7l-4.771-4.858a2.24 2.24 0 0 0 -1.567-.655z"/></svg>