<svg id="Layer_1" height="512" viewBox="0 0 80 80" width="512" xmlns="http://www.w3.org/2000/svg" data-name="Layer 1"><path d="m48.191 54.811h-16.17a1 1 0 0 1 0-2h16.17a1 1 0 0 1 0 2z"/><path d="m72.009 54.811h-8.818a1 1 0 0 1 0-2h7.818v-9.118h-61.909v9.118h7.919a1 1 0 0 1 0 2h-8.919a1 1 0 0 1 -1-1v-11.118a1 1 0 0 1 1-1h63.909a1 1 0 0 1 1 1v11.118a1 1 0 0 1 -1 1z"/><path d="m71.991 43.689h-24.333a1 1 0 0 1 -1-1v-24a1 1 0 0 1 1-1h14.583a1 1 0 0 1 .692.278l9.75 9.326a1 1 0 0 1 .308.723v14.673a1 1 0 0 1 -1 1zm-23.333-2h22.333v-13.246l-9.151-8.754h-13.182z"/><path d="m47.658 43.689h-39.667a1 1 0 0 1 -1-1v-11.623a1 1 0 0 1 1-1h39.667a1 1 0 0 1 1 1v11.623a1 1 0 0 1 -1 1zm-38.667-2h37.667v-9.623h-37.667z"/><path d="m24.518 62.311a8.5 8.5 0 1 1 8.5-8.5 8.51 8.51 0 0 1 -8.5 8.5zm0-15a6.5 6.5 0 1 0 6.5 6.5 6.508 6.508 0 0 0 -6.5-6.5z"/><path d="m24.518 58.061a4.25 4.25 0 1 1 4.25-4.25 4.255 4.255 0 0 1 -4.25 4.25zm0-6.5a2.25 2.25 0 1 0 2.25 2.25 2.252 2.252 0 0 0 -2.25-2.25z"/><path d="m55.69 58.061a4.25 4.25 0 1 1 4.25-4.25 4.255 4.255 0 0 1 -4.25 4.25zm0-6.5a2.25 2.25 0 1 0 2.25 2.25 2.253 2.253 0 0 0 -2.25-2.25z"/><path d="m55.69 62.311a8.5 8.5 0 1 1 8.5-8.5 8.51 8.51 0 0 1 -8.5 8.5zm0-15a6.5 6.5 0 1 0 6.5 6.5 6.508 6.508 0 0 0 -6.5-6.5z"/><path d="m71.991 33.189h-15.25a1 1 0 0 1 -1-1v-13.5a1 1 0 0 1 2 0v12.5h14.25a1 1 0 0 1 0 2z"/></svg>