<svg id="Layer_1" height="512" viewBox="0 0 80 80" width="512" xmlns="http://www.w3.org/2000/svg" data-name="Layer 1"><path d="m41.3 60.494a1 1 0 0 1 -.707-.293l-22.993-22.991a36.354 36.354 0 0 1 -10.443-29.149 1 1 0 0 1 .9-.9 36.352 36.352 0 0 1 29.153 10.439l22.99 22.988a1 1 0 0 1 0 1.412l-18.2 18.2a1 1 0 0 1 -.7.294zm-22.289-24.694 22.289 22.28 16.78-16.78-22.28-22.289a34.31 34.31 0 0 0 -26.718-9.929 34.329 34.329 0 0 0 9.929 26.718z"/><path d="m56.778 39.579a1 1 0 0 1 -.622-1.783c.442-.352.867-.7 1.287-1.052 2.945-2.441 5.746-4.763 11.99-4.9-13.433-12.004-24.633-5.667-25.122-5.38a1 1 0 0 1 -1.019-1.72c.139-.081 14.039-8.053 29.418 7.458a1 1 0 0 1 -.775 1.7c-7.359-.485-10.07 1.772-13.216 4.38-.429.356-.865.717-1.319 1.078a1 1 0 0 1 -.622.219z"/><path d="m32.906 73a1 1 0 0 1 -.7-.29c-15.512-15.38-7.54-29.28-7.458-29.418a1 1 0 1 1 1.719 1.02c-.3.514-6.609 11.7 5.382 25.121.136-6.244 2.458-9.045 4.9-11.99.348-.42.7-.845 1.052-1.287a1 1 0 1 1 1.561 1.244c-.361.454-.722.89-1.078 1.319-2.608 3.146-4.86 5.864-4.38 13.216a1 1 0 0 1 -.584.975.987.987 0 0 1 -.414.09z"/><path d="m13.633 31.7a1 1 0 0 1 -.707-1.707l17.062-17.065a1 1 0 0 1 1.412 1.414l-17.06 17.058a1 1 0 0 1 -.707.3z"/><path d="m31.721 38.67a6.95 6.95 0 1 1 4.919-2.034 6.934 6.934 0 0 1 -4.919 2.034zm0-11.906a4.951 4.951 0 1 0 3.5 1.449 4.944 4.944 0 0 0 -3.5-1.449z"/><path d="m36.229 46.136a1 1 0 0 1 -.707-1.707l8.911-8.91a1 1 0 0 1 1.414 1.414l-8.911 8.91a1 1 0 0 1 -.707.293z"/><path d="m40.6 50.505a1 1 0 0 1 -.707-1.707l8.91-8.91a1 1 0 0 1 1.413 1.412l-8.91 8.91a1 1 0 0 1 -.706.295z"/><path d="m67.828 67.81a1 1 0 0 1 -.707-.293l-6.181-6.182a1 1 0 0 1 1.414-1.414l6.181 6.179a1 1 0 0 1 -.707 1.707z"/><path d="m65.365 54.506a1 1 0 0 1 -.707-.293l-6.181-6.18a1 1 0 0 1 1.414-1.414l6.181 6.18a1 1 0 0 1 -.707 1.707z"/><path d="m54.525 65.347a1 1 0 0 1 -.707-.293l-6.181-6.181a1 1 0 1 1 1.414-1.414l6.181 6.181a1 1 0 0 1 -.707 1.707z"/></svg>