<?xml version="1.0" encoding="UTF-8"?>
<svg xmlns="http://www.w3.org/2000/svg" id="Layer_1" data-name="Layer 1" viewBox="0 0 80 80" width="512" height="512"><path d="M40,73A33,33,0,0,1,40,7a32.634,32.634,0,0,1,7.2.8,1,1,0,0,1-.442,1.95A30.644,30.644,0,0,0,40,9,30.988,30.988,0,1,0,66.864,24.521a1,1,0,0,1,1.732-1A33.008,33.008,0,0,1,40,73Z"/><path d="M40,73c-5.768,0-10.807-8.236-12.837-20.983A76.012,76.012,0,0,1,26.24,40a75.789,75.789,0,0,1,.923-12.009C29.182,15.24,34.221,7,40,7a1,1,0,0,1,0,2c-4.668,0-9.034,7.759-10.862,19.306A73.752,73.752,0,0,0,28.24,40a74.055,74.055,0,0,0,.9,11.7C30.976,63.245,35.342,71,40,71s9.029-7.748,10.87-19.281a1,1,0,0,1,1.99.131,1.326,1.326,0,0,1-.012.167C50.817,64.764,45.774,73,40,73Z"/><path d="M52.67,37.035a1,1,0,0,1-1-.995v-.01a1,1,0,1,1,1,1Z"/><path d="M40,53.77a75.77,75.77,0,0,1-12.009-.923C15.24,50.827,7,45.784,7,40s8.24-10.816,20.993-12.838a72.369,72.369,0,0,1,8.567-.841,1,1,0,0,1,.081,2,70.572,70.572,0,0,0-8.331.818C16.759,30.968,9,35.333,9,40s7.759,9.042,19.307,10.872A73.712,73.712,0,0,0,40,51.77a74.036,74.036,0,0,0,11.7-.9l.058-.008C63.269,49.023,71,44.659,71,40a1,1,0,0,1,2,0c0,5.775-8.232,10.818-20.973,12.847a.331.331,0,0,1-.055.007A75.943,75.943,0,0,1,40,53.77Z"/><path d="M40,73a1,1,0,0,1-1-1V34.8a1,1,0,0,1,2,0V72A1,1,0,0,1,40,73Z"/><path d="M40,14.34a1,1,0,0,1-1-1V8a1,1,0,0,1,2,0v5.34A1,1,0,0,1,40,14.34Z"/><path d="M40,41H8a1,1,0,0,1,0-2H40a1,1,0,0,1,0,2Z"/><path d="M51.865,52.861a1,1,0,0,1-.771-.363C50.437,51.7,35,32.877,35,23.862a16.861,16.861,0,1,1,33.722,0c0,9.015-15.432,27.839-16.089,28.636A1,1,0,0,1,51.865,52.861Zm0-43.86A14.878,14.878,0,0,0,37,23.862c0,7.224,11.71,22.442,14.861,26.405C55.016,46.3,66.726,31.083,66.726,23.862A14.878,14.878,0,0,0,51.865,9Z"/><path d="M51.865,37.066c-6.8,0-12.336-5.808-12.336-12.946s5.534-12.946,12.336-12.946S64.2,16.981,64.2,24.12,58.667,37.066,51.865,37.066Zm0-23.892c-5.7,0-10.336,4.91-10.336,10.946s4.637,10.946,10.336,10.946S62.2,30.156,62.2,24.12,57.564,13.174,51.865,13.174Z"/><path d="M47.581,29.509a1,1,0,0,1-.73-.317l-3.358-3.587a1,1,0,0,1,.31-1.59l.964-.447a1,1,0,0,1,.9.029l1.432.777,1.924-.894-1.927-2.337a1,1,0,0,1,.351-1.544l1.677-.776a1,1,0,0,1,.929.048l3.914,2.317,3.02-1.4a2.48,2.48,0,1,1,2.085,4.5h0L48,29.417A1,1,0,0,1,47.581,29.509Zm-.518-3.016.753.8,10.413-4.822a.481.481,0,0,0-.4-.872l-3.5,1.62a1,1,0,0,1-.931-.047l-3.914-2.318-.023.011,1.925,2.336a1,1,0,0,1-.35,1.543L47.482,26.4A1.008,1.008,0,0,1,47.063,26.493Zm11.586-3.11h0Z"/><path d="M50.614,24.842a1,1,0,1,1,.41-.089l0,0A.993.993,0,0,1,50.614,24.842Z"/></svg>
