<svg id="Layer_1" height="512" viewBox="0 0 80 80" width="512" xmlns="http://www.w3.org/2000/svg" data-name="Layer 1"><path d="m63.614 67.442h-4.574a1 1 0 0 1 0-2h4.574a.747.747 0 0 0 .738-.623l6.462-37.877h-61.628l6.461 37.877a.748.748 0 0 0 .739.623h3.983a1 1 0 0 1 0 2h-3.983a2.741 2.741 0 0 1 -2.71-2.288l-6.661-39.044a1 1 0 0 1 .985-1.168h64a1 1 0 0 1 .985 1.168l-6.662 39.045a2.739 2.739 0 0 1 -2.709 2.287z"/><path d="m47.212 67.445h-15.012a1 1 0 0 1 0-2h15.012a1 1 0 0 1 0 2z"/><path d="m53.127 73.361a6.916 6.916 0 1 1 6.916-6.916 6.924 6.924 0 0 1 -6.916 6.916zm0-11.831a4.916 4.916 0 1 0 4.916 4.915 4.921 4.921 0 0 0 -4.916-4.915z"/><path d="m53.127 70.028a3.583 3.583 0 1 1 3.583-3.583 3.586 3.586 0 0 1 -3.583 3.583zm0-5.166a1.583 1.583 0 1 0 1.583 1.583 1.584 1.584 0 0 0 -1.583-1.583z"/><path d="m26.284 73.361a6.916 6.916 0 1 1 6.916-6.916 6.924 6.924 0 0 1 -6.916 6.916zm0-11.831a4.916 4.916 0 1 0 4.916 4.915 4.921 4.921 0 0 0 -4.916-4.915z"/><path d="m26.284 70.028a3.583 3.583 0 1 1 3.583-3.583 3.586 3.586 0 0 1 -3.583 3.583zm0-5.166a1.583 1.583 0 1 0 1.583 1.583 1.584 1.584 0 0 0 -1.583-1.583z"/><path d="m57.375 50.279h-34.75a1 1 0 0 1 -1-1v-16a1 1 0 0 1 1-1h34.75a1 1 0 0 1 1 1v16a1 1 0 0 1 -1 1zm-33.75-2h32.75v-14h-32.75z"/><path d="m52.42 42.279h-23a1 1 0 0 1 0-2h23a1 1 0 0 1 0 2z"/><path d="m64.949 26.939a1 1 0 0 1 -.986-.842 9.992 9.992 0 0 0 -9.923-8.438 10.144 10.144 0 0 0 -1.675.147 1 1 0 0 1 -1.15-.818 10.047 10.047 0 0 0 -19.5-1.275 1 1 0 0 1 -1.445.579 10.04 10.04 0 0 0 -14.95 8.767 7.631 7.631 0 0 0 .034.776 1 1 0 1 1 -1.988.208 9.388 9.388 0 0 1 -.046-.984 12.04 12.04 0 0 1 16.88-11.034 12.049 12.049 0 0 1 22.785 1.684c.36-.033.712-.05 1.054-.05a11.982 11.982 0 0 1 11.9 10.122 1 1 0 0 1 -.83 1.145.936.936 0 0 1 -.16.013z"/></svg>