<svg id="Layer_1" height="512" viewBox="0 0 80 80" width="512" xmlns="http://www.w3.org/2000/svg" data-name="Layer 1"><path d="m70.26 57.461h-6.29a1 1 0 0 1 0-2h6.29a.741.741 0 0 0 .74-.74v-36.85a.741.741 0 0 0 -.74-.74h-51.3a.741.741 0 0 0 -.74.74v36.85a.741.741 0 0 0 .74.74h30.18a1 1 0 0 1 0 2h-30.18a2.743 2.743 0 0 1 -2.74-2.74v-36.85a2.743 2.743 0 0 1 2.74-2.74h51.3a2.743 2.743 0 0 1 2.74 2.74v36.85a2.743 2.743 0 0 1 -2.74 2.74z"/><path d="m62.97 32.476h-36.72a1 1 0 0 1 -1-1v-7.02a1 1 0 0 1 1-1h36.72a1 1 0 0 1 1 1v7.02a1 1 0 0 1 -1 1zm-35.72-2h34.72v-5.02h-34.72z"/><path d="m42.583 47.279h-16.333a1 1 0 0 1 -1-1v-9.979a1 1 0 0 1 1-1h16.333a1 1 0 0 1 1 1v9.98a1 1 0 0 1 -1 .999zm-15.333-2h14.333v-7.979h-14.333z"/><path d="m17.22 46.5h-4.708a1 1 0 0 1 -1-1v-4a1 1 0 0 1 1-1h4.708a1 1 0 0 1 1 1v4a1 1 0 0 1 -1 1zm-3.708-2h2.708v-2h-2.708z"/><path d="m12.512 50.043h-4.512a1 1 0 0 1 -1-1v-11.091a1 1 0 0 1 1-1h4.512a1 1 0 0 1 1 1v11.091a1 1 0 0 1 -1 1zm-3.512-2h2.512v-9.091h-2.512z"/><path d="m56.553 64.869a8.413 8.413 0 1 1 8.413-8.413 8.422 8.422 0 0 1 -8.413 8.413zm0-14.826a6.413 6.413 0 1 0 6.413 6.413 6.42 6.42 0 0 0 -6.413-6.413z"/></svg>