<svg id="Layer_1" height="512" viewBox="0 0 80 80" width="512" xmlns="http://www.w3.org/2000/svg" data-name="Layer 1"><path d="m65.067 68.577h-50.134a1 1 0 0 1 -.948-.682l-6.933-20.707a1 1 0 0 1 .948-1.317h64a1 1 0 0 1 .948 1.317l-6.933 20.712a1 1 0 0 1 -.948.677zm-49.414-2h48.694l6.264-18.706h-61.222z"/><path d="m54.917 62.849a5.625 5.625 0 1 1 5.625-5.625 5.631 5.631 0 0 1 -5.625 5.625zm0-9.25a3.625 3.625 0 1 0 3.625 3.625 3.628 3.628 0 0 0 -3.625-3.624z"/><path d="m40 62.849a5.625 5.625 0 1 1 5.625-5.625 5.631 5.631 0 0 1 -5.625 5.625zm0-9.25a3.625 3.625 0 1 0 3.625 3.625 3.629 3.629 0 0 0 -3.625-3.624z"/><path d="m25.083 62.849a5.625 5.625 0 1 1 5.625-5.625 5.632 5.632 0 0 1 -5.625 5.625zm0-9.25a3.625 3.625 0 1 0 3.625 3.625 3.629 3.629 0 0 0 -3.625-3.624z"/><path d="m45.583 47.871h-30.708a1 1 0 0 1 -1-1v-14.587a1 1 0 0 1 1-1h30.708a1 1 0 0 1 1 1v14.587a1 1 0 0 1 -1 1zm-29.708-2h28.708v-12.587h-28.708z"/><path d="m36.692 44.019a4.442 4.442 0 1 1 4.441-4.442 4.447 4.447 0 0 1 -4.441 4.442zm0-6.883a2.442 2.442 0 1 0 2.441 2.441 2.445 2.445 0 0 0 -2.441-2.441z"/><path d="m23.767 44.019a4.442 4.442 0 1 1 4.441-4.442 4.447 4.447 0 0 1 -4.441 4.442zm0-6.883a2.442 2.442 0 1 0 2.441 2.441 2.444 2.444 0 0 0 -2.441-2.441z"/><path d="m25.167 33.284h-6.167a1 1 0 0 1 -1-1v-19.861a1 1 0 0 1 1-1h6.167a1 1 0 0 1 1 1v19.861a1 1 0 0 1 -1 1zm-5.167-2h4.167v-17.861h-4.167z"/><path d="m37.583 33.284h-6.166a1 1 0 0 1 -1-1v-11.375a1 1 0 0 1 1-1h6.166a1 1 0 0 1 1 1v11.375a1 1 0 0 1 -1 1zm-5.166-2h4.166v-9.375h-4.166z"/></svg>