<svg id="Layer_1" height="512" viewBox="0 0 80 80" width="512" xmlns="http://www.w3.org/2000/svg" data-name="Layer 1"><path d="m40.1 46.323a43.983 43.983 0 0 1 -18.266-4.117 1 1 0 0 1 -.576-1.064l.821-5.329a18.234 18.234 0 0 1 36.042 0l.821 5.329a1 1 0 0 1 -.576 1.064 43.983 43.983 0 0 1 -18.266 4.117zm-16.746-5.632a40.53 40.53 0 0 0 33.5 0l-.706-4.573a16.233 16.233 0 0 0 -32.088 0z"/><path d="m29.252 35.229a.968.968 0 0 1 -.252-.029 1 1 0 0 1 -.715-1.22 11.216 11.216 0 0 1 8.546-8.17 1 1 0 1 1 .418 1.956 9.221 9.221 0 0 0 -7.028 6.72 1 1 0 0 1 -.969.743z"/><path d="m39.992 54.022c-15.471 0-31.916-3.8-31.916-10.836 0-3.934 5.464-7.309 14.99-9.261a1 1 0 0 1 .4 1.959c-8.136 1.667-13.393 4.533-13.393 7.3 0 4.179 12.286 8.836 29.916 8.836s29.932-4.657 29.932-8.836c0-2.731-5.177-5.58-13.19-7.258a1 1 0 1 1 .411-1.957c9.392 1.967 14.779 5.326 14.779 9.215.003 7.04-16.449 10.838-31.929 10.838z"/><path d="m62.648 60.133h-3.148a1 1 0 0 1 -.912-.591l-3.388-7.55a1 1 0 1 1 1.824-.819l3.122 6.96h2.5a1 1 0 0 1 0 2z"/><path d="m20.485 60.133h-3.148a1 1 0 1 1 0-2h2.5l3.122-6.96a1 1 0 1 1 1.824.819l-3.383 7.55a1 1 0 0 1 -.915.591z"/><path d="m51.277 26.462a1 1 0 0 1 -.856-1.515l5.236-8.723a1 1 0 0 1 1.715 1.029l-5.236 8.724a1 1 0 0 1 -.859.485z"/><path d="m58.9 18.4a5.622 5.622 0 0 1 -2.9-.8 5.7 5.7 0 0 1 5.865-9.77 5.7 5.7 0 0 1 -2.965 10.57zm.053-9.381a3.671 3.671 0 1 0 1.879.521 3.637 3.637 0 0 0 -1.876-.519z"/><path d="m28.929 26.462a1 1 0 0 1 -.859-.485l-5.236-8.724a1 1 0 0 1 1.715-1.029l5.236 8.723a1 1 0 0 1 -.856 1.515z"/><path d="m21.3 18.4a5.669 5.669 0 1 1 2.9-.8 5.634 5.634 0 0 1 -2.9.8zm-.05-9.379a3.636 3.636 0 0 0 -1.878.521 3.686 3.686 0 1 0 1.878-.521z"/><path d="m27.6 68.907a1 1 0 0 1 -.953-1.3l4.83-15.18a1 1 0 0 1 1.906.606l-4.83 15.18a1 1 0 0 1 -.953.694z"/><path d="m52.4 68.907a1 1 0 0 1 -.953-.7l-4.83-15.18a1 1 0 0 1 1.906-.606l4.83 15.18a1 1 0 0 1 -.953 1.3z"/><path d="m40 72.98c-6.454 0-13.4-1.494-13.4-4.773s6.947-4.775 13.4-4.775 13.4 1.494 13.4 4.775-6.946 4.773-13.4 4.773zm0-7.548c-7.522 0-11.4 1.945-11.4 2.775s3.877 2.773 11.4 2.773 11.4-1.944 11.4-2.773-3.878-2.775-11.4-2.775z"/></svg>