<svg id="Layer_1" height="512" viewBox="0 0 80 80" width="512" xmlns="http://www.w3.org/2000/svg" data-name="Layer 1"><path d="m65.966 56.908h-34.152a4.361 4.361 0 0 1 -4.171-3.141l-10.1-35.132-9.625-.77a1 1 0 1 1 .16-1.993l10.322.828a1 1 0 0 1 .88.72l10.289 35.8a2.354 2.354 0 0 0 2.25 1.694h34.147a1 1 0 0 1 0 2z"/><path d="m27.483 50.6a1 1 0 0 1 -.033-2l36.808-1.245 6.432-24.73-50.528 2.337a1 1 0 1 1 -.092-2l51.884-2.4a1.038 1.038 0 0 1 .822.37 1 1 0 0 1 .192.881l-6.962 26.766a1 1 0 0 1 -.934.748l-37.553 1.273z"/><path d="m57.643 63.818a4.455 4.455 0 1 1 4.457-4.455 4.461 4.461 0 0 1 -4.457 4.455zm0-6.91a2.455 2.455 0 1 0 2.457 2.455 2.459 2.459 0 0 0 -2.457-2.455z"/><path d="m36.983 64.131a4.612 4.612 0 1 1 4.617-4.611 4.617 4.617 0 0 1 -4.617 4.611zm0-7.223a2.612 2.612 0 1 0 2.617 2.612 2.615 2.615 0 0 0 -2.617-2.612z"/><path d="m57.36 49.591a.983.983 0 0 1 -.233-.028 1 1 0 0 1 -.74-1.2l6.359-26.651a1 1 0 0 1 1.945.464l-6.359 26.647a1 1 0 0 1 -.972.768z"/><path d="m49.81 49.851h-.081a1 1 0 0 1 -.917-1.077l2.088-26.362a1 1 0 1 1 1.994.158l-2.09 26.36a1 1 0 0 1 -.994.921z"/><path d="m42.328 50.1a1 1 0 0 1 -1-.921l-2.07-26.07a1 1 0 1 1 1.994-.158l2.07 26.069a1 1 0 0 1 -.918 1.077c-.022.003-.05.003-.076.003z"/><path d="m34.937 50.351a1 1 0 0 1 -.971-.768l-6.15-25.791a1 1 0 0 1 1.946-.463l6.149 25.79a1 1 0 0 1 -.74 1.2.985.985 0 0 1 -.234.032z"/><path d="m22.4 32.911a1 1 0 0 1 -.033-2l47.34-1.64a1 1 0 0 1 .068 2l-47.341 1.639z"/><path d="m25 41.951a1 1 0 0 1 -.034-2l42.34-1.47a.984.984 0 0 1 1.034.965 1 1 0 0 1 -.964 1.034l-42.34 1.47z"/></svg>