<svg id="Layer_1" height="512" viewBox="0 0 80 80" width="512" xmlns="http://www.w3.org/2000/svg" data-name="Layer 1"><path d="m61.3 59.064h-42.6a3.141 3.141 0 0 1 -3.226-3.041v-35.223a1 1 0 0 1 .293-.707l4.729-4.729a1 1 0 0 1 .707-.293h37.597a1 1 0 0 1 .707.293l4.729 4.736a1 1 0 0 1 .293.707v35.22a3.141 3.141 0 0 1 -3.229 3.037zm-43.829-37.847v34.806a1.146 1.146 0 0 0 1.229 1.041h42.6a1.146 1.146 0 0 0 1.226-1.041v-34.806l-4.143-4.143h-36.769z"/><path d="m51.863 54.246a3.941 3.941 0 1 1 3.931-3.941 3.94 3.94 0 0 1 -3.931 3.941zm0-5.881a1.941 1.941 0 1 0 1.931 1.94 1.937 1.937 0 0 0 -1.931-1.94z"/><path d="m28.137 54.246a3.941 3.941 0 1 1 3.93-3.941 3.941 3.941 0 0 1 -3.93 3.941zm0-5.881a1.941 1.941 0 1 0 1.93 1.94 1.937 1.937 0 0 0 -1.93-1.94z"/><path d="m57.2 39.074h-34.4a1 1 0 0 1 -1-1v-16.083a1 1 0 0 1 1-1h34.4a1 1 0 0 1 1 1v16.083a1 1 0 0 1 -1 1zm-33.391-2h32.391v-14.083h-32.4z"/><path d="m43.958 49.392h-7.916a1 1 0 0 1 0-2h7.916a1 1 0 0 1 0 2z"/><path d="m43.958 53.218h-7.916a1 1 0 0 1 0-2h7.916a1 1 0 0 1 0 2z"/><path d="m22.3 73a1 1 0 0 1 -.943-1.334l4.935-13.936a1 1 0 0 1 .942-.666h25.631a1 1 0 0 1 .945.67l4.835 13.856a1 1 0 0 1 -1.889.659l-4.6-13.185h-24.215l-4.7 13.27a1 1 0 0 1 -.941.666z"/><path d="m54.668 64.23h-29.263a1 1 0 1 1 0-2h29.263a1 1 0 0 1 0 2z"/><path d="m56.471 69.4h-32.895a1 1 0 0 1 0-2h32.895a1 1 0 0 1 0 2z"/><path d="m47.478 17.074h-14.878a1 1 0 0 1 -1-1v-8.074a1 1 0 0 1 1-1h14.878a1 1 0 0 1 1 1v8.074a1 1 0 0 1 -1 1zm-13.877-2h12.877v-6.074h-12.878z"/><path d="m52.445 9h-26.582a1 1 0 0 1 0-2h26.582a1 1 0 0 1 0 2z"/><path d="m27.987 33.532a1 1 0 0 1 -.707-1.707l5.355-5.354a1 1 0 0 1 1.414 1.414l-5.355 5.354a.993.993 0 0 1 -.707.293z"/><path d="m26.547 30.261a1 1 0 0 1 -.707-1.707l3.523-3.524a1 1 0 0 1 1.414 1.414l-3.523 3.524a1 1 0 0 1 -.707.293z"/></svg>