<svg id="Layer_1" height="512" viewBox="0 0 80 80" width="512" xmlns="http://www.w3.org/2000/svg" data-name="Layer 1"><path d="m72 51.266h-9.82a1 1 0 0 1 -1-1 3.845 3.845 0 1 0 -7.69 0 1 1 0 0 1 -1 1h-25.48a1 1 0 0 1 -1-1 3.845 3.845 0 1 0 -7.69 0 1 1 0 0 1 -1 1h-8.87a1.451 1.451 0 0 1 -1.45-1.45v-7.41a1.451 1.451 0 0 1 1.45-1.45h.2v-4.11a2.608 2.608 0 0 1 2.6-2.61h46.38a1.086 1.086 0 0 1 .171.014l2.47.431c.989.175 2.01.3 3 .428l1.215.156a9.732 9.732 0 0 1 8.514 9.941v5.06a1 1 0 0 1 -1 1zm-8.905-2h7.905v-4.06a7.732 7.732 0 0 0 -6.783-7.959l-1.2-.154c-1.012-.127-2.059-.259-3.094-.442l-2.382-.415h-46.291a.606.606 0 0 0 -.6.61v4.5a1.612 1.612 0 0 1 -1.61 1.61h-.04v6.31h7.405a5.845 5.845 0 0 1 11.519 0h23.652a5.845 5.845 0 0 1 11.519 0z"/><path d="m17.1 36.236a1 1 0 0 1 -.84-1.541l5.01-7.78c1.472-2.693 6.469-3.127 10.4-3 1.217.037 2.463.03 3.665.024h.522c8.193 0 11.212 2.386 11.338 2.488l11.026 8.006a1 1 0 1 1 -1.176 1.618l-11.07-8.04c-.062-.047-2.8-2.13-10.319-2.071h-.31c-1.221.006-2.486.013-3.738-.025-4.552-.138-7.856.635-8.618 2.027l-5.046 7.841a1 1 0 0 1 -.844.453z"/><path d="m57.34 56.106a5.845 5.845 0 1 1 5.84-5.84 5.852 5.852 0 0 1 -5.84 5.84zm0-9.69a3.845 3.845 0 1 0 3.84 3.85 3.854 3.854 0 0 0 -3.84-3.85z"/><path d="m22.17 56.106a5.845 5.845 0 1 1 5.84-5.84 5.852 5.852 0 0 1 -5.84 5.84zm0-9.69a3.845 3.845 0 1 0 3.84 3.85 3.854 3.854 0 0 0 -3.84-3.85z"/><path d="m34.216 36.236a1 1 0 0 1 -1-1v-10.3a1 1 0 0 1 2 0v10.3a1 1 0 0 1 -1 1z"/><path d="m44.175 41h-4.175a1 1 0 0 1 0-2h4.175a1 1 0 0 1 0 2z"/></svg>