<svg id="Layer_1" height="512" viewBox="0 0 80 80" width="512" xmlns="http://www.w3.org/2000/svg" data-name="Layer 1"><path d="m37.671 53.771h-29.671a1 1 0 0 1 -1-1.036c.006-.17.762-17 14.655-21.54a20.65 20.65 0 0 1 6.477-.928h13.7a3.779 3.779 0 0 1 3.762 3.7l.193 11.674a8.127 8.127 0 0 1 -8.116 8.13zm-28.582-2h28.582a6.121 6.121 0 0 0 6.114-6.115l-.193-11.656a1.771 1.771 0 0 0 -1.762-1.733h-13.7a18.674 18.674 0 0 0 -5.856.83c-10.667 3.488-12.785 15.124-13.185 18.674z"/><path d="m35.725 61.938h-19.4a1 1 0 0 1 -1-1v-8.167a1 1 0 0 1 1-1h19.4a1 1 0 0 1 1 1v8.167a1 1 0 0 1 -1 1zm-18.4-2h17.4v-6.167h-17.4z"/><path d="m41.787 61.938h-25.46a14.646 14.646 0 0 1 -9-3.447 1 1 0 0 1 1.341-1.491 12.805 12.805 0 0 0 7.659 2.935h25.46a1 1 0 0 1 0 2z"/><path d="m26.393 48.187h-17.453a1 1 0 1 1 0-2h16.747l3.289-9.25h-13.545a1 1 0 1 1 0-2h14.962a1 1 0 0 1 .942 1.335l-4 11.25a1 1 0 0 1 -.942.665z"/><path d="m36.887 32.267h-7.333a1 1 0 0 1 -1-1v-.288a4.667 4.667 0 1 1 9.333 0v.288a1 1 0 0 1 -1 1zm-6.237-2h5.14a2.667 2.667 0 0 0 -5.14 0z"/><path d="m33.221 28.312a1 1 0 0 1 -1-1v-8.25a1 1 0 0 1 2 0v8.25a1 1 0 0 1 -1 1z"/><path d="m19.6 48.187a1 1 0 0 1 -1-1v-10.919a1 1 0 0 1 2 0v10.919a1 1 0 0 1 -1 1z"/><path d="m47.261 20.062h-28.081a1 1 0 0 1 0-2h28.081a1 1 0 0 1 0 2z"/><path d="m44.784 47.173a1 1 0 0 1 -.178-1.984l24.07-4.359a2.908 2.908 0 0 0 2.324-2.846v-11.3h-4.03l-2.734 8.936a1 1 0 0 1 -.956.707h-18.426a1 1 0 0 1 0-2h17.686l2.733-8.937a1 1 0 0 1 .956-.708h5.771a1 1 0 0 1 1 1v12.3a4.915 4.915 0 0 1 -3.951 4.81l-24.085 4.365a1.012 1.012 0 0 1 -.18.016z"/></svg>