<svg id="Layer_1" height="512" viewBox="0 0 80 80" width="512" xmlns="http://www.w3.org/2000/svg" data-name="Layer 1"><path d="m58.159 73h-36.318a1 1 0 0 1 -.927-.625l-9.988-24.739a1 1 0 0 1 .411-1.231l28.147-16.957a1 1 0 0 1 1.032 0l28.147 16.957a1 1 0 0 1 .411 1.231l-9.988 24.739a1 1 0 0 1 -.927.625zm-35.643-2h34.968l9.416-23.322-26.9-16.206-26.9 16.206z"/><path d="m40 73a1 1 0 0 1 -1-1v-41.7a1 1 0 0 1 2 0v41.7a1 1 0 0 1 -1 1z"/><path d="m62.615 44.93a1 1 0 0 1 -.986-.844l-4.159-26.3a60.479 60.479 0 0 0 -34.935 0l-4.164 26.3a1 1 0 1 1 -1.975-.312l4.262-26.918a1 1 0 0 1 .7-.8 62.522 62.522 0 0 1 37.3 0 1 1 0 0 1 .7.8l4.242 26.918a1 1 0 0 1 -.831 1.144 1.061 1.061 0 0 1 -.154.012z"/><path d="m52.355 22.932a.994.994 0 0 1 -.349-.063c-12.231-4.557-23.818-.055-23.933-.009a1 1 0 1 1 -.741-1.86 38.027 38.027 0 0 1 25.368 0 1 1 0 0 1 -.349 1.937z"/><path d="m52.355 29.231a.994.994 0 0 1 -.349-.063c-12.231-4.556-23.818-.054-23.933-.008a1 1 0 0 1 -.741-1.858 38.027 38.027 0 0 1 25.368-.008 1 1 0 0 1 -.349 1.937z"/><path d="m40.029 15.2a1 1 0 0 1 -1-1v-6.2a1 1 0 0 1 2 0v6.2a1 1 0 0 1 -1 1z"/><path d="m45.347 9h-10.636a1 1 0 0 1 0-2h10.636a1 1 0 0 1 0 2z"/></svg>