<svg id="Layer_1" height="512" viewBox="0 0 80 80" width="512" xmlns="http://www.w3.org/2000/svg" data-name="Layer 1"><path d="m61.732 63.034h-43.464a1 1 0 0 1 -.965-1.262l14.672-54.034a1 1 0 0 1 .964-.738h14.122a1 1 0 0 1 .964.738l14.675 54.034a1 1 0 0 1 -.965 1.262zm-42.157-2h40.85l-14.125-52.034h-12.6z"/><path d="m67.147 73h-54.294a1 1 0 0 1 -1-1v-9.966a1 1 0 0 1 1-1h54.294a1 1 0 0 1 1 1v9.966a1 1 0 0 1 -1 1zm-53.294-2h52.294v-7.966h-52.294z"/><path d="m49.847 19.265h-19.7a1 1 0 0 1 0-2h19.7a1 1 0 0 1 0 2z"/><path d="m52.877 30.435h-25.76a1 1 0 0 1 0-2h25.76a1 1 0 0 1 0 2z"/><path d="m55.917 41.605h-31.83a1 1 0 1 1 0-2h31.83a1 1 0 0 1 0 2z"/><path d="m58.947 52.765h-37.89a1 1 0 0 1 0-2h37.89a1 1 0 0 1 0 2z"/></svg>