<svg id="Layer_1" height="512" viewBox="0 0 80 80" width="512" xmlns="http://www.w3.org/2000/svg" data-name="Layer 1"><path d="m65.167 61.761h-50.334a1 1 0 0 1 -.934-.644l-6.834-17.948a1 1 0 0 1 .935-1.356h64a1 1 0 0 1 .935 1.356l-6.835 17.948a1 1 0 0 1 -.933.644zm-49.644-2h48.954l6.072-15.948h-61.098z"/><path d="m55.375 56.417a4.63 4.63 0 1 1 4.63-4.629 4.635 4.635 0 0 1 -4.63 4.629zm0-7.26a2.63 2.63 0 1 0 2.63 2.631 2.633 2.633 0 0 0 -2.63-2.631z"/><path d="m40 56.417a4.63 4.63 0 1 1 4.63-4.629 4.635 4.635 0 0 1 -4.63 4.629zm0-7.26a2.63 2.63 0 1 0 2.63 2.631 2.633 2.633 0 0 0 -2.63-2.631z"/><path d="m24.625 56.417a4.63 4.63 0 1 1 4.63-4.629 4.635 4.635 0 0 1 -4.63 4.629zm0-7.26a2.63 2.63 0 1 0 2.63 2.631 2.633 2.633 0 0 0 -2.63-2.631z"/><path d="m67.921 43.813h-10.121a1 1 0 0 1 -1-1v-6.087a1 1 0 0 1 1-1h10.121a1 1 0 0 1 1 1v6.087a1 1 0 0 1 -1 1zm-9.125-2h8.125v-4.087h-8.121z"/><path d="m57.8 43.813h-10.129a1 1 0 0 1 -1-1v-6.087a1 1 0 0 1 1-1h10.129a1 1 0 0 1 1 1v6.087a1 1 0 0 1 -1 1zm-9.125-2h8.125v-4.087h-8.129z"/><path d="m47.671 43.813h-10.125a1 1 0 0 1 -1-1v-6.087a1 1 0 0 1 1-1h10.125a1 1 0 0 1 1 1v6.087a1 1 0 0 1 -1 1zm-9.125-2h8.125v-4.087h-8.125z"/><path d="m67.921 37.726h-10.121a1 1 0 0 1 -1-1v-6.087a1 1 0 0 1 1-1h10.121a1 1 0 0 1 1 1v6.087a1 1 0 0 1 -1 1zm-9.125-2h8.125v-4.087h-8.121z"/><path d="m57.8 37.726h-10.129a1 1 0 0 1 -1-1v-6.087a1 1 0 0 1 1-1h10.129a1 1 0 0 1 1 1v6.087a1 1 0 0 1 -1 1zm-9.125-2h8.125v-4.087h-8.129z"/><path d="m47.671 37.726h-10.125a1 1 0 0 1 -1-1v-6.087a1 1 0 0 1 1-1h10.125a1 1 0 0 1 1 1v6.087a1 1 0 0 1 -1 1zm-9.125-2h8.125v-4.087h-8.125z"/><path d="m57.8 31.639h-10.129a1 1 0 0 1 -1-1v-6.088a1 1 0 0 1 1-1h10.129a1 1 0 0 1 1 1v6.088a1 1 0 0 1 -1 1zm-9.125-2h8.125v-4.088h-8.129z"/><path d="m47.671 31.639h-10.125a1 1 0 0 1 -1-1v-6.088a1 1 0 0 1 1-1h10.125a1 1 0 0 1 1 1v6.088a1 1 0 0 1 -1 1zm-9.125-2h8.125v-4.088h-8.125z"/><path d="m28.255 43.813h-15.043a1 1 0 0 1 -1-1v-17.262a1 1 0 0 1 1-1h15.043a1 1 0 0 1 1 1v17.262a1 1 0 0 1 -1 1zm-14.043-2h13.043v-15.262h-13.043z"/><path d="m27.765 26.551h-14.687a4.156 4.156 0 1 1 0-8.312h14.687a4.156 4.156 0 0 1 0 8.312zm-14.687-6.312a2.156 2.156 0 1 0 0 4.312h14.687a2.156 2.156 0 0 0 0-4.312z"/><path d="m24.476 33.12h-7.484a1 1 0 1 1 0-2h7.484a1 1 0 1 1 0 2z"/><path d="m24.476 37.245h-7.484a1 1 0 1 1 0-2h7.484a1 1 0 0 1 0 2z"/></svg>