<svg id="Layer_1" height="512" viewBox="0 0 80 80" width="512" xmlns="http://www.w3.org/2000/svg" data-name="Layer 1"><path d="m48.2 56.321h-16.169a1 1 0 0 1 0-2h16.169a1 1 0 0 1 0 2z"/><path d="m24.527 63.821a8.5 8.5 0 1 1 8.5-8.5 8.51 8.51 0 0 1 -8.5 8.5zm0-15a6.5 6.5 0 1 0 6.5 6.5 6.508 6.508 0 0 0 -6.5-6.5z"/><path d="m24.527 59.571a4.25 4.25 0 1 1 4.25-4.25 4.255 4.255 0 0 1 -4.25 4.25zm0-6.5a2.25 2.25 0 1 0 2.25 2.25 2.253 2.253 0 0 0 -2.25-2.25z"/><path d="m55.7 59.571a4.25 4.25 0 1 1 4.25-4.25 4.254 4.254 0 0 1 -4.25 4.25zm0-6.5a2.25 2.25 0 1 0 2.25 2.25 2.253 2.253 0 0 0 -2.25-2.25z"/><path d="m55.7 63.821a8.5 8.5 0 1 1 8.5-8.5 8.51 8.51 0 0 1 -8.5 8.5zm0-15a6.5 6.5 0 1 0 6.5 6.5 6.508 6.508 0 0 0 -6.5-6.5z"/><path d="m17.036 56.32-9.036-.008a1 1 0 0 1 -1-1v-10.846a1 1 0 0 1 1-1l37.1.008a1 1 0 0 1 0 2l-36.1-.008v8.847l8.039.007a1 1 0 0 1 0 2z"/><path d="m56.806 44.72h-2.313a1 1 0 1 1 0-2h2.313a1 1 0 0 1 0 2z"/><path d="m72 56.319h-8.8a1 1 0 0 1 0-2h7.8v-12.719l-4.775-2.722a1 1 0 0 1 -.458-.567l-.09-.283-4.413-11.513h-15.164v27.8h2.1a1 1 0 1 1 0 2h-3.1a1 1 0 0 1 -1-1v-29.8a1 1 0 0 1 1-1h16.851a1 1 0 0 1 .934.642l4.667 12.175 4.948 2.819a1 1 0 0 1 .5.869v14.3a1 1 0 0 1 -1 .999z"/><path d="m66.722 39.01-14.274-.01a1 1 0 0 1 -1-1v-12.484a1 1 0 0 1 2 0v11.484l13.274.01a1 1 0 0 1 0 2z"/><path d="m72 50.89h-3.825a1 1 0 0 1 -1-1v-5.75a1 1 0 0 1 1-1h3.825a1 1 0 0 1 1 1v5.75a1 1 0 0 1 -1 1zm-2.827-2h1.827v-3.75h-1.825z"/><path d="m45.1 45.471h-37.1a1 1 0 0 1 -1-1v-27.292a1 1 0 0 1 1-1h37.1a1 1 0 0 1 1 1v27.292a1 1 0 0 1 -1 1zm-36.1-2h35.1v-25.292h-35.1z"/><path d="m34.247 32.283h-18.5a1 1 0 0 1 0-2h18.5a1 1 0 0 1 0 2z"/><path d="m29.627 36.9a1 1 0 0 1 -.707-1.7l3.913-3.913-3.913-3.917a1 1 0 0 1 1.414-1.414l4.62 4.62a1 1 0 0 1 0 1.414l-4.62 4.62a.993.993 0 0 1 -.707.29z"/></svg>