<svg id="Layer_1" height="512" viewBox="0 0 80 80" width="512" xmlns="http://www.w3.org/2000/svg" data-name="Layer 1"><path d="m66.9 41.123h-53.8a1 1 0 0 1 -.969-1.247l4.32-16.906a6.118 6.118 0 0 1 5.931-4.607h35.236a6.118 6.118 0 0 1 5.931 4.607l4.318 16.906a1 1 0 0 1 -.969 1.247zm-52.509-2h51.22l-4-15.659a4.119 4.119 0 0 0 -3.993-3.1h-35.236a4.119 4.119 0 0 0 -3.993 3.1z"/><path d="m71.982 60.488h-63.964a1 1 0 0 1 -1-1v-15.259a5.112 5.112 0 0 1 5.106-5.106h55.752a5.112 5.112 0 0 1 5.106 5.106v15.259a1 1 0 0 1 -1 1zm-62.964-2h61.964v-14.259a3.11 3.11 0 0 0 -3.106-3.106h-55.752a3.11 3.11 0 0 0 -3.106 3.106z"/><path d="m60.182 55.761a5.955 5.955 0 1 1 5.955-5.955 5.963 5.963 0 0 1 -5.955 5.955zm0-9.91a3.955 3.955 0 1 0 3.955 3.955 3.959 3.959 0 0 0 -3.955-3.955z"/><path d="m19.818 55.761a5.955 5.955 0 1 1 5.956-5.955 5.963 5.963 0 0 1 -5.956 5.955zm0-9.91a3.955 3.955 0 1 0 3.956 3.955 3.96 3.96 0 0 0 -3.956-3.955z"/><path d="m65.556 69.291h-10.013a2.757 2.757 0 0 1 -2.754-2.754v-7.049a1 1 0 0 1 1-1h13.522a1 1 0 0 1 1 1v7.049a2.757 2.757 0 0 1 -2.755 2.754zm-10.767-8.8v6.049a.755.755 0 0 0 .754.754h10.013a.755.755 0 0 0 .755-.754v-6.052z"/><path d="m24.457 69.291h-10.013a2.757 2.757 0 0 1 -2.755-2.754v-7.049a1 1 0 0 1 1-1h13.522a1 1 0 0 1 1 1v7.049a2.757 2.757 0 0 1 -2.754 2.754zm-10.768-8.8v6.049a.755.755 0 0 0 .755.754h10.013a.755.755 0 0 0 .754-.754v-6.052z"/><path d="m45.158 20.363h-10.316a1 1 0 0 1 -.975-1.219l1.525-6.787a2.1 2.1 0 0 1 2.061-1.648h5.094a2.1 2.1 0 0 1 2.06 1.649l1.526 6.786a1 1 0 0 1 -.975 1.219zm-9.066-2h7.816l-1.252-5.563a.11.11 0 0 0 -.109-.088h-5.094a.112.112 0 0 0 -.11.088z"/><path d="m22.017 33.184a1 1 0 0 1 -.707-1.707l7.531-7.532a1 1 0 1 1 1.414 1.414l-7.531 7.532a1 1 0 0 1 -.707.293z"/><path d="m20.788 28.952a1 1 0 0 1 -.707-1.707l4.528-4.528a1 1 0 1 1 1.414 1.414l-4.523 4.528a1 1 0 0 1 -.712.293z"/><path d="m44.525 50.806h-9.05a1 1 0 0 1 0-2h9.05a1 1 0 0 1 0 2z"/><path d="m40 55.331a1 1 0 0 1 -1-1v-9.051a1 1 0 0 1 2 0v9.051a1 1 0 0 1 -1 1z"/></svg>