<svg id="Layer_1" height="512" viewBox="0 0 80 80" width="512" xmlns="http://www.w3.org/2000/svg" data-name="Layer 1"><path d="m47.967 58.438h-16.167a1 1 0 1 1 0-2h16.17a1 1 0 0 1 0 2z"/><path d="m71.882 58.437h-8.92a1 1 0 0 1 0-2h7.92v-11.11h-38.549a1 1 0 0 1 0-2h39.549a1 1 0 0 1 1 1v13.11a1 1 0 0 1 -1 1z"/><path d="m16.8 58.437h-8.8a1 1 0 0 1 -1-1v-13.11a1 1 0 0 1 2 0v12.11h7.8a1 1 0 0 1 0 2z"/><path d="m32.333 45.327a1 1 0 0 1 -1-1v-18.26h-13.189l-7.7 7.371a4.673 4.673 0 0 0 -1.444 3.362v7.528a1 1 0 0 1 -2 0v-7.528a6.683 6.683 0 0 1 2.056-4.807l7.993-7.647a1 1 0 0 1 .692-.278h14.59a1 1 0 0 1 1 1v19.26a1 1 0 0 1 -.998.999z"/><path d="m72 45.324h-39.669a1 1 0 0 1 -1-1v-29.262a1 1 0 0 1 1-1h39.669a1 1 0 0 1 1 1v29.262a1 1 0 0 1 -1 1zm-38.667-2h37.667v-27.262h-37.669z"/><path d="m55.471 65.938a8.5 8.5 0 1 1 8.5-8.5 8.51 8.51 0 0 1 -8.5 8.5zm0-15a6.5 6.5 0 1 0 6.5 6.5 6.508 6.508 0 0 0 -6.5-6.5z"/><path d="m55.471 61.688a4.25 4.25 0 1 1 4.25-4.25 4.255 4.255 0 0 1 -4.25 4.25zm0-6.5a2.25 2.25 0 1 0 2.25 2.25 2.252 2.252 0 0 0 -2.25-2.25z"/><path d="m24.3 61.688a4.25 4.25 0 1 1 4.25-4.25 4.255 4.255 0 0 1 -4.25 4.25zm0-6.5a2.25 2.25 0 1 0 2.25 2.25 2.253 2.253 0 0 0 -2.25-2.25z"/><path d="m24.3 65.938a8.5 8.5 0 1 1 8.5-8.5 8.51 8.51 0 0 1 -8.5 8.5zm0-15a6.5 6.5 0 1 0 6.5 6.5 6.508 6.508 0 0 0 -6.5-6.5z"/><path d="m28.192 40.881h-13.625a1 1 0 0 1 -1-1v-4.868a1 1 0 0 1 .308-.722l5.545-5.319a1 1 0 0 1 .692-.279h8.08a1 1 0 0 1 1 1v10.188a1 1 0 0 1 -1 1zm-12.625-2h11.625v-8.188h-6.677l-4.948 4.746z"/><path d="m25.505 45.327h-2.313a1 1 0 0 1 0-2h2.313a1 1 0 0 1 0 2z"/><path d="m65.359 24.256h-26.39a1 1 0 0 1 0-2h26.39a1 1 0 0 1 0 2z"/><path d="m65.359 30.693h-26.39a1 1 0 0 1 0-2h26.39a1 1 0 0 1 0 2z"/><path d="m65.359 37.131h-26.39a1 1 0 1 1 0-2h26.39a1 1 0 0 1 0 2z"/></svg>