<svg id="Layer_1" height="512" viewBox="0 0 80 80" width="512" xmlns="http://www.w3.org/2000/svg" data-name="Layer 1"><path d="m59.209 61.777h-51.209a1 1 0 0 1 -1-1v-6.684a1 1 0 0 1 1-1h44.077v-43.852a1 1 0 0 1 1-1h6.132a1 1 0 0 1 1 1v51.536a1 1 0 0 1 -1 1zm-50.209-2h49.209v-49.536h-4.132v43.852a1 1 0 0 1 -1 1h-44.077z"/><path d="m68.568 17.105h-9.359a1 1 0 0 1 -1-1v-6.864a1 1 0 0 1 1-1h9.359a4.432 4.432 0 1 1 0 8.864zm-8.359-2h8.359a2.432 2.432 0 1 0 0-4.864h-8.359z"/><path d="m46.239 48.844h-30.033a2.173 2.173 0 0 1 -2.171-2.17v-21.543a2.174 2.174 0 0 1 2.171-2.171h30.033a2.173 2.173 0 0 1 2.17 2.171v21.543a2.173 2.173 0 0 1 -2.17 2.17zm-30.033-23.884a.171.171 0 0 0 -.171.171v21.543a.17.17 0 0 0 .171.17h30.033a.17.17 0 0 0 .17-.17v-21.543a.171.171 0 0 0 -.17-.171z"/><path d="m39.613 48.844a1 1 0 0 1 -1-1v-23.884a1 1 0 0 1 2 0v23.884a1 1 0 0 1 -1 1z"/><path d="m22.831 48.844a1 1 0 0 1 -1-1v-23.884a1 1 0 0 1 2 0v23.884a1 1 0 0 1 -1 1z"/><path d="m36.043 24.96h-9.643a1 1 0 0 1 -1-1v-3.491a1.874 1.874 0 0 1 1.874-1.869h7.9a1.875 1.875 0 0 1 1.873 1.872v3.488a1 1 0 0 1 -1.004 1zm-8.641-2h7.641v-2.36h-7.643z"/><path d="m41.785 52.112h-4.2a1 1 0 0 1 -1-1v-3.268a1 1 0 0 1 1-1h4.2a1 1 0 0 1 1 1v3.268a1 1 0 0 1 -1 1zm-3.2-2h2.2v-1.268h-2.2z"/><path d="m24.864 52.112h-4.205a1 1 0 0 1 -1-1v-3.268a1 1 0 0 1 1-1h4.205a1 1 0 0 1 1 1v3.268a1 1 0 0 1 -1 1zm-3.205-2h2.205v-1.268h-2.205z"/><path d="m49.485 71.759a5.991 5.991 0 1 1 5.991-5.99 6 6 0 0 1 -5.991 5.99zm0-9.982a3.991 3.991 0 1 0 3.991 3.992 4 4 0 0 0 -3.991-3.992z"/><path d="m17.122 71.759a5.991 5.991 0 1 1 5.991-5.99 6 6 0 0 1 -5.991 5.99zm0-9.982a3.991 3.991 0 1 0 3.991 3.992 4 4 0 0 0 -3.991-3.992z"/></svg>