<svg id="Layer_1" height="512" viewBox="0 0 80 80" width="512" xmlns="http://www.w3.org/2000/svg" data-name="Layer 1"><path d="m61.719 61.34a11.281 11.281 0 1 1 11.281-11.281 11.294 11.294 0 0 1 -11.281 11.281zm0-20.562a9.281 9.281 0 1 0 9.281 9.281 9.292 9.292 0 0 0 -9.281-9.281z"/><path d="m18.281 61.34a11.281 11.281 0 1 1 11.281-11.281 11.294 11.294 0 0 1 -11.281 11.281zm0-20.562a9.281 9.281 0 1 0 9.281 9.281 9.291 9.291 0 0 0 -9.281-9.281z"/><path d="m61.718 51.059a1 1 0 0 1 -.978-.795l-5.993-28.623a1 1 0 0 1 .765-1.182l8.1-1.775a1 1 0 1 1 .428 1.953l-7.133 1.563 5.793 27.654a1 1 0 0 1 -.773 1.183.983.983 0 0 1 -.209.022z"/><path d="m33.628 50.571h-15.344a1 1 0 0 1 -.746-1.666l14.238-15.943a1 1 0 0 1 .746-.334h25.76a1 1 0 0 1 .626 1.78l-15.37 12.334a1 1 0 0 1 -1.252-1.56l13.152-10.554h-22.468l-12.452 13.943h13.11a1 1 0 0 1 0 2z"/><path d="m39.132 56.512a6.522 6.522 0 1 1 6.521-6.523 6.53 6.53 0 0 1 -6.521 6.523zm0-11.044a4.522 4.522 0 1 0 4.521 4.521 4.527 4.527 0 0 0 -4.521-4.521z"/><path d="m41.518 61.118h-2.387a1 1 0 0 1 -1-1v-10.543a1 1 0 0 1 2 0v9.543h1.387a1 1 0 0 1 0 2z"/><path d="m36.073 46.4a1 1 0 0 1 -.945-.674l-5.91-17.19a1 1 0 1 1 1.89-.65l5.911 17.189a1 1 0 0 1 -.946 1.325z"/><path d="m37.355 29.207h-10.6a1 1 0 0 1 -.762-.353l-1.887-2.22a1 1 0 0 1 1.524-1.3l1.588 1.868h10.137a1 1 0 0 1 0 2z"/></svg>