<svg id="Layer_1" height="512" viewBox="0 0 80 80" width="512" xmlns="http://www.w3.org/2000/svg" data-name="Layer 1"><path d="m54.53 73h-29.06a1 1 0 0 1 -.95-.688l-7.992-24.33a1 1 0 0 1 .355-1.116l22.522-16.678a1 1 0 0 1 1.19 0l22.522 16.678a1 1 0 0 1 .355 1.116l-7.992 24.33a1 1 0 0 1 -.95.688zm-28.336-2h27.612l7.541-22.956-21.347-15.808-21.347 15.808z"/><path d="m40 73a1 1 0 0 1 -1-1v-41.008a1 1 0 0 1 2 0v41.008a1 1 0 0 1 -1 1z"/><path d="m55.828 43.712a1 1 0 0 1 -1-1v-17.441h-4.88a1 1 0 1 1 0-2h5.88a1 1 0 0 1 1 1v18.441a1 1 0 0 1 -1 1z"/><path d="m24.175 43.712a1 1 0 0 1 -1-1v-18.441a1 1 0 0 1 1-1h5.881a1 1 0 0 1 0 2h-4.881v17.441a1 1 0 0 1 -1 1z"/><path d="m50.441 25.276h-20.879a1 1 0 0 1 -1-1v-11.248a1 1 0 0 1 1-1h20.879a1 1 0 0 1 1 1v11.248a1 1 0 0 1 -1 1zm-19.879-2h18.879v-9.248h-18.879z"/><path d="m40 14.028a1 1 0 0 1 -1-1v-5.028a1 1 0 0 1 2 0v5.028a1 1 0 0 1 -1 1z"/></svg>