<?xml version="1.0" encoding="UTF-8"?>
<svg xmlns="http://www.w3.org/2000/svg" id="Layer_1" data-name="Layer 1" viewBox="0 0 80 80" width="512" height="512"><path d="M29.333,73a1.036,1.036,0,0,1-.2-.02L7.8,68.639a1,1,0,0,1-.8-.98V26.447a1,1,0,0,1,1.2-.979l21.333,4.339a1,1,0,0,1,.8.979V72a1,1,0,0,1-1,1ZM9,66.842l19.333,3.932V31.6L9,27.671Z"/><path d="M72,73a.961.961,0,0,1-.2-.021l-21.33-4.339a1,1,0,0,1-.8-.98V51.242a1,1,0,0,1,2,0v15.6L71,70.778V31.6l-6.319-1.287a1,1,0,1,1,.4-1.959L72.2,29.8a1,1,0,0,1,.8.979V72a1,1,0,0,1-1,1Z"/><path d="M40.94,29.427a1,1,0,0,1-1-1v-.01a1,1,0,1,1,1,1Z"/><path d="M29.331,73a1,1,0,0,1-1-1V30.782a1,1,0,0,1,.8-.98l7.12-1.441a1,1,0,0,1,.4,1.961L30.331,31.6V70.778L49.67,66.845v-15.6a1,1,0,0,1,2,0v16.42a1,1,0,0,1-.8.98L29.53,72.981A.961.961,0,0,1,29.331,73Z"/><path d="M50.666,52.238a1,1,0,0,1-.771-.364c-.648-.785-15.866-19.346-15.866-28.239a16.637,16.637,0,0,1,33.274,0c0,8.893-15.218,27.454-15.866,28.239A1,1,0,0,1,50.666,52.238Zm0-43.24A14.653,14.653,0,0,0,36.029,23.635c0,7.106,11.515,22.08,14.637,26.009C53.788,45.715,65.3,30.741,65.3,23.635A14.653,14.653,0,0,0,50.666,9Z"/><path d="M50.666,36.229c-6.374,0-11.56-5.441-11.56-12.128s5.186-12.128,11.56-12.128,11.56,5.44,11.56,12.128S57.04,36.229,50.666,36.229Zm0-22.256c-5.271,0-9.56,4.543-9.56,10.128s4.289,10.128,9.56,10.128,9.56-4.543,9.56-10.128S55.937,13.973,50.666,13.973Z"/></svg>
