<svg id="Layer_1" height="512" viewBox="0 0 80 80" width="512" xmlns="http://www.w3.org/2000/svg" data-name="Layer 1"><path d="m33.437 40.63h-22.616a1 1 0 0 1 -1-1v-23.7a1 1 0 0 1 1-1h22.616a1 1 0 0 1 1 1v23.7a1 1 0 0 1 -1 1zm-21.616-2h20.616v-21.7h-20.616z"/><path d="m35.516 16.931h-26.706a1.725 1.725 0 0 1 -1.724-1.723v-3.4a1.725 1.725 0 0 1 1.724-1.719h26.706a1.724 1.724 0 0 1 1.722 1.723v3.4a1.725 1.725 0 0 1 -1.722 1.719zm-26.43-2h26.152v-2.842h-26.152z"/><path d="m14.342 63.422h-6.342a1 1 0 0 1 -1-1v-22.792a1 1 0 0 1 1-1h52.611a12.392 12.392 0 0 1 1.529 24.689 1 1 0 1 1 -.242-1.986 10.392 10.392 0 0 0 -1.287-20.7h-51.611v20.789h5.342a1 1 0 0 1 0 2z"/><path d="m28.438 30.034h-12.476a1.9 1.9 0 0 1 -1.9-1.9v-7.134a1.9 1.9 0 0 1 1.9-1.9h12.476a1.9 1.9 0 0 1 1.9 1.9v7.136a1.9 1.9 0 0 1 -1.9 1.898zm-12.373-2h12.27v-6.934h-12.27z"/><path d="m55.484 55.84a1 1 0 0 1 -1-1v-20.847h-10.9v5.637a1 1 0 1 1 -2 0v-6.637a1 1 0 0 1 1-1h12.9a1 1 0 0 1 1 1v21.847a1 1 0 0 1 -1 1z"/><path d="m55.526 69.911a7.494 7.494 0 1 1 7.495-7.494 7.5 7.5 0 0 1 -7.495 7.494zm0-12.988a5.494 5.494 0 1 0 5.495 5.494 5.5 5.5 0 0 0 -5.495-5.494z"/><path d="m55.7 65.961a3.37 3.37 0 1 1 3.37-3.369 3.373 3.373 0 0 1 -3.37 3.369zm0-4.739a1.37 1.37 0 1 0 1.37 1.37 1.371 1.371 0 0 0 -1.37-1.37z"/><path d="m37.905 69.911a7.494 7.494 0 1 1 7.495-7.494 7.5 7.5 0 0 1 -7.495 7.494zm0-12.988a5.494 5.494 0 1 0 5.495 5.494 5.5 5.5 0 0 0 -5.495-5.494z"/><path d="m38.08 65.961a3.37 3.37 0 1 1 3.369-3.369 3.374 3.374 0 0 1 -3.369 3.369zm0-4.739a1.37 1.37 0 1 0 1.369 1.37 1.371 1.371 0 0 0 -1.369-1.37z"/><path d="m20.835 69.911a7.494 7.494 0 1 1 7.495-7.494 7.5 7.5 0 0 1 -7.495 7.494zm0-12.988a5.494 5.494 0 1 0 5.495 5.494 5.5 5.5 0 0 0 -5.495-5.494z"/><path d="m21.01 65.961a3.37 3.37 0 1 1 3.369-3.369 3.374 3.374 0 0 1 -3.369 3.369zm0-4.739a1.37 1.37 0 1 0 1.369 1.37 1.371 1.371 0 0 0 -1.369-1.37z"/><path d="m57.648 33.993h-17.261a1 1 0 0 1 -1-1v-3.5a1 1 0 0 1 1-1h17.261a1 1 0 0 1 1 1v3.5a1 1 0 0 1 -1 1zm-16.261-2h15.261v-1.5h-15.261z"/><path d="m49.032 63.417h-4.632a1 1 0 0 1 0-2h4.633a1 1 0 0 1 0 2z"/><path d="m31.411 63.417h-4.081a1 1 0 0 1 0-2h4.081a1 1 0 0 1 0 2z"/><path d="m30.331 52.8a1 1 0 0 1 -1-1v-7.587a1 1 0 0 1 2 0v7.587a1 1 0 0 1 -1 1z"/><path d="m24.622 52.8a1 1 0 0 1 -1-1v-7.587a1 1 0 0 1 2 0v7.587a1 1 0 0 1 -1 1z"/><path d="m18.914 52.8a1 1 0 0 1 -1-1v-7.587a1 1 0 0 1 2 0v7.587a1 1 0 0 1 -1 1z"/></svg>