<svg id="Layer_1" viewBox="3.986 12.267 71.95 55.388" xmlns="http://www.w3.org/2000/svg" data-name="Layer 1"><path d="m71 56.175h-4.77a1 1 0 0 1 0-2h4.77v-36.9l-53.06.01v36.9l4.89-.01a1 1 0 1 1 0 2h-4.89a2 2 0 0 1 -2-1.99v-36.91a2 2 0 0 1 2-1.99h53.06a2 2 0 0 1 2 1.99v36.91a2 2 0 0 1 -2 1.99z"/><path d="m52.712 56.175h-16.36a1 1 0 1 1 0-2h16.36a1 1 0 0 1 0 2z"/><path d="m16.941 46.9h-4.612a1 1 0 0 1 -1-1v-4.024a1 1 0 0 1 1-1h4.612a1 1 0 0 1 1 1v4.024a1 1 0 0 1 -1 1zm-3.612-2h2.612v-2.024h-2.612z"/><path d="m12.329 49.691h-4.329a1 1 0 0 1 -1-1v-9.607a1 1 0 0 1 1-1h4.331a1 1 0 0 1 1 1v9.607a1 1 0 0 1 -1.002 1zm-3.329-2h2.331v-7.607h-2.331z"/><path d="m72 46.9h-55.059a1 1 0 0 1 0-2h55.059a1 1 0 0 1 0 2z"/><path d="m59.471 64.715a7.95 7.95 0 1 1 7.949-7.949 7.959 7.959 0 0 1 -7.949 7.949zm0-13.9a5.95 5.95 0 1 0 5.949 5.951 5.957 5.957 0 0 0 -5.949-5.951z"/><path d="m59.471 60.823a4.058 4.058 0 1 1 4.058-4.057 4.062 4.062 0 0 1 -4.058 4.057zm0-6.116a2.058 2.058 0 1 0 2.058 2.059 2.061 2.061 0 0 0 -2.058-2.059z"/><path d="m29.593 64.715a7.95 7.95 0 1 1 7.95-7.949 7.959 7.959 0 0 1 -7.95 7.949zm0-13.9a5.95 5.95 0 1 0 5.95 5.951 5.956 5.956 0 0 0 -5.95-5.951z"/><path d="m29.593 60.823a4.058 4.058 0 1 1 4.058-4.057 4.062 4.062 0 0 1 -4.058 4.057zm0-6.116a2.058 2.058 0 1 0 2.058 2.059 2.061 2.061 0 0 0 -2.058-2.059z"/><path d="m63.289 30.447h-23.3a1 1 0 0 1 -1-1v-7.747a1 1 0 0 1 1-1h23.3a1 1 0 0 1 1 1v7.75a1 1 0 0 1 -1 .997zm-22.3-2h21.3v-5.747h-21.3z"/><path d="m33.4 41.2h-7.75a1 1 0 0 1 -1-1v-15.5a1 1 0 0 1 1-1h7.75a1 1 0 0 1 1 1v15.5a1 1 0 0 1 -1 1zm-6.75-2h5.75v-13.5h-5.75z"/></svg>