<svg id="Layer_1" height="512" viewBox="0 0 80 80" width="512" xmlns="http://www.w3.org/2000/svg" data-name="Layer 1"><path d="m45.051 43.938a1 1 0 0 1 -1-1v-16.3a1 1 0 1 1 2 0v16.3a1 1 0 0 1 -1 1z"/><path d="m45.051 43.938h-37.051a1 1 0 0 1 -1-1v-8.149a1 1 0 0 1 1-1h37.051a1 1 0 0 1 1 1v8.149a1 1 0 0 1 -1 1zm-36.051-2h35.051v-6.149h-35.051z"/><path d="m21.329 60.023a7.3 7.3 0 1 1 7.3-7.3 7.314 7.314 0 0 1 -7.3 7.3zm0-12.609a5.3 5.3 0 1 0 5.3 5.305 5.311 5.311 0 0 0 -5.3-5.305z"/><path d="m21.329 56.055a3.336 3.336 0 1 1 3.335-3.336 3.339 3.339 0 0 1 -3.335 3.336zm0-4.672a1.336 1.336 0 1 0 1.335 1.336 1.338 1.338 0 0 0 -1.335-1.336z"/><path d="m58.926 60.455a7.3 7.3 0 1 1 7.3-7.3 7.312 7.312 0 0 1 -7.3 7.3zm0-12.609a5.3 5.3 0 1 0 5.3 5.3 5.31 5.31 0 0 0 -5.3-5.3z"/><path d="m58.926 56.486a3.336 3.336 0 1 1 3.336-3.336 3.339 3.339 0 0 1 -3.336 3.336zm0-4.672a1.336 1.336 0 1 0 1.336 1.336 1.337 1.337 0 0 0 -1.336-1.336z"/><path d="m72 43.938h-26.949a1 1 0 0 1 -1-1v-22.393a1 1 0 0 1 1-1h21.3a1 1 0 0 1 .911.589l5.648 12.513a.992.992 0 0 1 .089.412v9.879a1 1 0 0 1 -.999 1zm-25.948-2h24.948v-8.665l-5.293-11.728h-19.656z"/><path d="m53.541 50.89h-26.58a1 1 0 0 1 0-2h26.58a1 1 0 0 1 0 2z"/><path d="m72 50.89h-7.68a1 1 0 0 1 0-2h6.68v-4.951h-62v4.951h6.69a1 1 0 1 1 0 2h-7.69a1 1 0 0 1 -1-1v-6.951a1 1 0 0 1 1-1h64a1 1 0 0 1 1 1v6.951a1 1 0 0 1 -1 1z"/><path d="m66.941 33.571h-9.884a1 1 0 0 1 -1-1v-8.062a1 1 0 0 1 1-1h6.679a1 1 0 0 1 .93.631l3.2 8.062a1 1 0 0 1 -.93 1.369zm-8.884-2h7.411l-2.41-6.062h-5z"/><path d="m53.348 33.571h-4.125a1 1 0 0 1 -1-1v-8.062a1 1 0 0 1 1-1h4.125a1 1 0 0 1 1 1v8.062a1 1 0 0 1 -1 1zm-3.125-2h2.125v-6.062h-2.125z"/><path d="m58.14 37.154h-2.708a1 1 0 0 1 0-2h2.708a1 1 0 0 1 0 2z"/></svg>