<?xml version="1.0" encoding="iso-8859-1"?>
<!-- Generator: Adobe Illustrator 19.0.0, SVG Export Plug-In . SVG Version: 6.00 Build 0)  -->
<svg version="1.1" id="Capa_1" xmlns="http://www.w3.org/2000/svg" xmlns:xlink="http://www.w3.org/1999/xlink" x="0px" y="0px"
	 viewBox="0 0 463 463" style="enable-background:new 0 0 463 463;" xml:space="preserve">
<g>
	<path d="M47.5,345c-7.995,0-14.5,6.505-14.5,14.5S39.505,374,47.5,374S62,367.495,62,359.5S55.495,345,47.5,345z"/>
	<path d="M271.5,345c-7.995,0-14.5,6.505-14.5,14.5s6.505,14.5,14.5,14.5s14.5-6.505,14.5-14.5S279.495,345,271.5,345z"/>
	<path d="M455.5,352H367V239.5c0-8.547-6.953-15.5-15.5-15.5H335V71.5c0-8.547-6.953-15.5-15.5-15.5h-40c-4.142,0-7.5,3.358-7.5,7.5
		s3.358,7.5,7.5,7.5h8.5v185h-17v-8.5c0-12.958-10.542-23.5-23.5-23.5h-2.343l-23.814-83.352
		c-4.82-16.868-20.438-28.648-37.98-28.648H71.5C54.131,112,40,126.131,40,143.5v81.734c-9.29,3.138-16,11.93-16,22.266v70.747
		C9.679,326.437,0,341.854,0,359.5C0,385.691,21.309,407,47.5,407c14.114,0,26.803-6.195,35.511-16h152.979
		c8.708,9.805,21.396,16,35.511,16c26.191,0,47.5-21.309,47.5-47.5c0-2.902-0.276-5.74-0.777-8.5H352v8.5c0,4.142,3.358,7.5,7.5,7.5
		h96c4.142,0,7.5-3.358,7.5-7.5S459.642,352,455.5,352z M351.5,239c0.276,0,0.5,0.224,0.5,0.5V256h-17v-17H351.5z M288,271v43.96
		c-5.142-1.911-10.701-2.96-16.5-2.96c-0.168,0-0.333,0.011-0.5,0.013V271H288z M206.92,144.77L229.557,224H215.5
		c-12.958,0-23.5,10.542-23.5,23.5V336h-23.839c-7.988,0-15.491-3.907-20.072-10.45l-40.661-58.087
		c-2.897-4.139-4.429-8.997-4.429-14.049V127h80.362C194.243,127,203.931,134.307,206.92,144.77z M71.5,127H88v97H55v-80.5
		C55,134.402,62.402,127,71.5,127z M47.5,392C29.58,392,15,377.42,15,359.5S29.58,327,47.5,327S80,341.58,80,359.5
		S65.42,392,47.5,392z M92.04,376c1.911-5.142,2.96-10.701,2.96-16.5c0-26.191-21.309-47.5-47.5-47.5c-2.902,0-5.74,0.276-8.5,0.777
		V247.5c0-4.687,3.813-8.5,8.5-8.5H88v14.413c0,8.146,2.469,15.979,7.141,22.651l40.661,58.087
		c7.385,10.55,19.482,16.849,32.36,16.849H199.5c4.142,0,7.5-3.358,7.5-7.5v-96c0-4.687,3.813-8.5,8.5-8.5h32
		c4.687,0,8.5,3.813,8.5,8.5v67.111c-18.601,6.442-32,24.125-32,44.889c0,5.799,1.049,11.358,2.96,16.5H92.04z M271.5,392
		c-17.92,0-32.5-14.58-32.5-32.5s14.58-32.5,32.5-32.5s32.5,14.58,32.5,32.5S289.42,392,271.5,392z M303,323.989V71h16.5
		c0.276,0,0.5,0.224,0.5,0.5V336h-7.247C310.169,331.481,306.868,327.425,303,323.989z M335,336v-65h17v65H335z"/>
</g>
<g>
</g>
<g>
</g>
<g>
</g>
<g>
</g>
<g>
</g>
<g>
</g>
<g>
</g>
<g>
</g>
<g>
</g>
<g>
</g>
<g>
</g>
<g>
</g>
<g>
</g>
<g>
</g>
<g>
</g>
</svg>
