<svg id="Layer_1" enable-background="new 0 0 500 500" viewBox="0 0 500 500" xmlns="http://www.w3.org/2000/svg"><path clip-rule="evenodd" d="m447.747 379.894c0 1.343-1.141 2.484-2.487 2.484h-221.3c-1.356 0-2.492-1.141-2.492-2.484v-35.491c0-1.353 1.136-2.484 2.492-2.484h221.3c1.346 0 2.487 1.131 2.487 2.484zm-322.481-43.351v-18.115h18.869c10.898 0 19.77-8.87 19.77-19.774v-70.516c0-7.143-3.699-13.549-9.89-17.12l-18.956-10.946v-24.529l30.611 17.674c12.382 7.145 19.473 19.442 19.473 33.73v111.273c0 10.903 8.872 19.774 19.775 19.774h3.791v14.136h-47.864c-2.763-18.303-17.273-32.813-35.579-35.587zm-6.375 71.639c16.362 0 29.68-13.31 29.68-29.675 0-16.373-13.318-29.681-29.68-29.681-16.367 0-29.685 13.308-29.685 29.681-.001 16.365 13.317 29.675 29.685 29.675zm-56.383-275.072c-.425-.246-1.182-.825-1.474-1.904l-8.667-32.346c-.292-1.089.082-1.965.327-2.39.245-.426.818-1.181 1.903-1.471l11.44-3.07c.261-.068.527-.102.788-.102 1.392 0 2.701.943 3.075 2.331l8.667 32.345c.44 1.649-.578 3.418-2.226 3.861l-11.451 3.07c-1.077.288-1.952-.086-2.382-.324zm182.666 114.368c0-3.3 2.676-5.988 5.976-5.988h14.234v16.67c0 8.42 6.84 15.267 15.262 15.267h12.105c8.416 0 15.267-6.847 15.267-15.267v-16.67h20.215v87.672h-83.059zm32.965-5.988v16.67c0 1.361 1.146 2.51 2.507 2.51h12.105c1.361 0 2.507-1.149 2.507-2.51v-16.67zm14.945-89.831c0-3.3 2.676-5.986 5.986-5.986h14.219v16.668c0 8.42 6.856 15.267 15.267 15.267h12.111c8.411 0 15.257-6.847 15.257-15.267v-16.668h14.234c3.3 0 5.986 2.686 5.986 5.986v77.074h-83.06zm32.965-5.986v16.668c0 1.361 1.146 2.51 2.507 2.51h12.111c1.351 0 2.502-1.149 2.502-2.51v-16.668zm47.91 95.817h17.12v16.67c0 1.361-1.146 2.51-2.502 2.51h-12.11c-1.361 0-2.507-1.149-2.507-2.51v-16.67zm50.094 5.988c0-3.3-2.691-5.988-5.991-5.988h-14.224v16.67c0 8.42-6.851 15.267-15.262 15.267h-12.11c-8.411 0-15.267-6.847-15.267-15.267v-16.67h-20.21v87.672h83.065v-81.684zm21.208 81.684h-8.452v-81.684c0-10.333-8.411-18.745-18.746-18.745h-29.164v-77.074c0-10.333-8.411-18.744-18.741-18.744h-71.088c-10.345 0-18.746 8.412-18.746 18.744v77.074h-29.174c-10.33 0-18.736 8.412-18.736 18.745v81.684h-8.452c-8.401 0-15.252 6.837-15.252 15.241v.833h-3.791c-3.863 0-7.015-3.148-7.015-7.017v-111.273c0-18.974-9.424-35.295-25.858-44.779l-40.179-23.202c-1.97-1.139-4.405-1.139-6.38 0-1.97 1.139-3.187 3.249-3.187 5.528v39.261c0 2.279 1.218 4.379 3.187 5.52l22.149 12.791c2.297 1.317 3.515 3.427 3.515 6.072v70.516c0 3.869-3.146 7.017-7.014 7.017h-20.348l-43.716-163.118c8.212-2.458 13.047-11.022 10.821-19.351l-8.667-32.345c-2.272-8.47-11.011-13.523-19.489-11.252l-11.44 3.072c-4.098 1.098-7.526 3.734-9.655 7.415-2.128 3.692-2.696 7.979-1.601 12.07l8.672 32.345c1.095 4.091 3.73 7.519 7.419 9.653 2.456 1.421 5.183 2.143 7.935 2.143 1.233 0 2.466-.152 3.684-.442l44.758 167.033v23.652c-20.384 3.088-36.06 20.728-36.06 41.964 0 23.398 19.038 42.432 42.441 42.432 21.233 0 38.874-15.675 41.954-36.053h48.724c2.077 5.954 7.731 10.249 14.392 10.249h221.3c8.406 0 15.242-6.839 15.242-15.241v-35.491c0-8.406-6.836-15.243-15.242-15.243z" fill="rgb(0,0,0)" fill-rule="evenodd"/></svg>