<?xml version="1.0" encoding="UTF-8"?>
<svg id="Layer_1" xmlns="http://www.w3.org/2000/svg" version="1.1" viewBox="0 0 559.5 448">
  <!-- Generator: Adobe Illustrator 30.4.0, SVG Export Plug-In . SVG Version: 2.1.4 Build 226)  -->
  <path d="M145.9,351.5c-4.9,0-8.4,4.6-7.3,9.3.3,1.1.4,2.4.4,3.5,0,8.3-6.7,15-15,15-8.3,0-15-6.7-15-15,0-8.3,6.7-15,15-15,4.1,0,7.5-3.4,7.5-7.5s-3.4-7.5-7.5-7.5c-16.6,0-30,13.4-30,30s13.4,30,30,30,30-13.4,30-30-.3-4.8-.8-7.1c-.8-3.4-3.8-5.7-7.3-5.7Z"/>
  <path d="M371.1,351.7c-4,1-6.5,5-5.5,9.1.3,1.1.4,2.3.4,3.5,0,8.3-6.8,15-15,15-8.3,0-15-6.7-15-15,0-8.3,6.7-15,15-15,4.1,0,7.5-3.4,7.5-7.5s-3.4-7.5-7.5-7.5c-8,0-15.6,3.1-21.2,8.8-5.7,5.7-8.8,13.2-8.8,21.2,0,16.6,13.4,30,30,30s30-13.4,30-30c0-2.4-.3-4.8-.8-7.1-1-4.1-5.1-6.5-9.1-5.5Z"/>
  <path d="M476.1,351.7c-4,1-6.5,5-5.5,9.1.3,1.1.4,2.3.4,3.5,0,8.3-6.8,15-15,15-8.3,0-15-6.7-15-15,0-8.3,6.7-15,15-15,4.1,0,7.5-3.4,7.5-7.5s-3.4-7.5-7.5-7.5c-16.6,0-30,13.4-30,30s13.4,30,30,30,30-13.4,30-30c0-2.4-.3-4.8-.8-7.1-1-4.1-5.1-6.5-9.1-5.5Z"/>
  <path d="M260,326.8h-27.5v-150.9c0-4.1-3.4-7.5-7.5-7.5h-71.8c-3.5,0-6.5,2.4-7.3,5.9l-14.3,63.4c-.5,2.2,0,4.6,1.5,6.3,1.4,1.8,3.6,2.8,5.9,2.8h78.6v80h-11.8c-11.1-24.1-32.3-42.1-57.5-49.2v-8.3c0-4.1-3.4-7.5-7.5-7.5s-7.5,3.4-7.5,7.5h0v14.2c0,3.5,2.5,6.6,6,7.4,24.5,5.1,45.4,22.8,54.6,46.2,1.1,2.9,3.9,4.8,7,4.8h59.2c4.1,0,7.5-3.4,7.5-7.5s-3.4-7.5-7.5-7.5ZM217.5,231.8h-69.2l10.9-48.4h58.3v48.4Z"/>
  <path d="M513.5,304.3h-226c0-8.2,0-207.4,0-218.4,0,0,0,0,0,0h-15s0,0,0,0h-15s0,0,0,0h-15s0,0,0,0h-20c-30.5,0-55.8,22.9-59.5,52.5h-8c-17.7,0-32.7,12-36.6,29.3l-14.4,64.1h-44c-15.2,0-27.5,12.3-27.5,27.5v69c-5,2.4-8.5,7.6-8.5,13.5v15c0,8.3,6.7,15,15,15h25.5c3.7,29.6,29,52.5,59.5,52.5s55.8-22.9,59.5-52.5h108c3.7,29.6,29,52.5,59.5,52.5s42.3-12.5,52.5-31c10.2,18.5,29.9,31,52.5,31s55.9-23,59.5-52.6c11.5-1,20.5-10.7,20.5-22.4v-22.5c0-12.4-10.1-22.5-22.5-22.5ZM64.5,356.8h-25.5v-15h29.4c-2,4.8-3.3,9.8-3.9,15ZM124,409.3c-24.8,0-45-20.2-45-45s20.5-45,45-45,45,20.2,45,45-20.2,45-45,45ZM183.5,356.8c-3.7-29.6-29-52.5-59.5-52.5s-35.4,8.3-46.8,22.5h-29.7v-67.5c0-6.9,5.6-12.5,12.5-12.5h50c3.5,0,6.6-2.4,7.3-5.9l15.7-70c2.3-10.3,11.4-17.6,22-17.6h14.9s0,0,.1,0c4.2,0,7.5-3.4,7.5-7.5,0-24.8,20.2-45,45-45h50v37.5h-72.5c-4.1,0-7.5,3.4-7.5,7.5s3.4,7.5,7.5,7.5h72.5v158.4c0,4.1,3.4,7.5,7.5,7.5h31.4c-10.7,9.4-18,22.6-19.9,37.5h-108ZM351,409.3c-24.8,0-45-20.2-45-45s20.2-45,45-45h0c24.8,0,45,20.2,45,45s-20.2,45-45,45ZM390.6,319.3h25.8c-5.2,4.5-9.5,9.9-12.9,16-3.4-6-7.7-11.5-12.9-16ZM456,409.3c-24.8,0-45-20.2-45-45s20.2-45,45-45h0c24.8,0,45,20.2,45,45s-20.2,45-45,45ZM521,349.3c0,3.4-2.3,6.4-5.5,7.2-1.9-14.8-9.2-27.8-19.9-37.2h17.9c4.1,0,7.5,3.4,7.5,7.5v22.5Z"/>
</svg>