<svg id="Layer_1" height="512" viewBox="0 0 80 80" width="512" xmlns="http://www.w3.org/2000/svg" data-name="Layer 1"><path d="m64.637 66.877h-49.274a3.583 3.583 0 0 1 -3.574-3.584v-52.71a3.583 3.583 0 0 1 3.574-3.583h49.274a3.583 3.583 0 0 1 3.574 3.583v52.71a3.583 3.583 0 0 1 -3.574 3.584zm-49.274-57.877a1.58 1.58 0 0 0 -1.574 1.583v52.71a1.58 1.58 0 0 0 1.574 1.584h49.274a1.58 1.58 0 0 0 1.574-1.584v-52.71a1.58 1.58 0 0 0 -1.574-1.583z"/><path d="m61.329 73h-7.129a2.5 2.5 0 0 1 -2.249-2.737v-4.386a1 1 0 0 1 1-1h9.622a1 1 0 0 1 1 1v4.386a2.5 2.5 0 0 1 -2.244 2.737zm-7.374-6.123v3.386a.913.913 0 0 0 .274.741h7.1a1 1 0 0 0 .248-.737v-3.39z"/><path d="m25.8 73h-7.129a2.5 2.5 0 0 1 -2.248-2.737v-4.386a1 1 0 0 1 1-1h9.622a1 1 0 0 1 1 1v4.386a2.5 2.5 0 0 1 -2.245 2.737zm-7.373-6.123v3.386a.9.9 0 0 0 .273.737h7.1a1.013 1.013 0 0 0 .249-.737v-3.386z"/><path d="m67.211 49.324h-54.422a1 1 0 0 1 0-2h54.422a1 1 0 0 1 0 2z"/><path d="m12.79 23.216a1 1 0 0 1 -.4-1.917c28.464-12.408 54.986-.112 55.25.013a1 1 0 0 1 -.858 1.807c-.257-.119-25.982-12.019-53.594.013a.985.985 0 0 1 -.398.084z"/><path d="m67.211 61.5h-6.927a4.4 4.4 0 1 1 0-8.8h6.927a1 1 0 0 1 0 2h-6.927a2.4 2.4 0 1 0 0 4.8h6.927a1 1 0 0 1 0 2z"/><path d="m19.716 61.5h-6.927a1 1 0 1 1 0-2h6.927a2.4 2.4 0 1 0 0-4.8h-6.927a1 1 0 1 1 0-2h6.927a4.4 4.4 0 1 1 0 8.8z"/><path d="m49.48 55.491h-18.841a1 1 0 1 1 0-2h18.841a1 1 0 1 1 0 2z"/><path d="m49.48 60.71h-18.841a1 1 0 0 1 0-2h18.841a1 1 0 0 1 0 2z"/><path d="m72 32.985h-4.789a1 1 0 0 1 -1-1v-8a1 1 0 0 1 1-1h4.789a1 1 0 0 1 1 1v8a1 1 0 0 1 -1 1zm-3.789-2h2.789v-6h-2.789z"/><path d="m12.789 32.985h-4.789a1 1 0 0 1 -1-1v-8a1 1 0 0 1 1-1h4.789a1 1 0 0 1 1 1v8a1 1 0 0 1 -1 1zm-3.789-2h2.789v-6h-2.789z"/></svg>