<svg id="Layer_1" height="512" viewBox="0 0 80 80" width="512" xmlns="http://www.w3.org/2000/svg" data-name="Layer 1"><path d="m52.132 50.326h-24.619a1 1 0 1 1 0-2h24.619a1 1 0 0 1 0 2z"/><path d="m17.2 50.326h-4.74a5.5 5.5 0 0 1 -4.383-1.671 5.017 5.017 0 0 1 -1.056-3.717l1.4-8.485a1 1 0 0 1 1.079-.833c.012 0 2.995.155 9.215-3.365.284-.144 6.033-2.973 15.769-3.488.64-.03 1.293-.059 1.966-.071a23.048 23.048 0 0 1 19.017 7.987 1 1 0 1 1 -1.5 1.325 21.392 21.392 0 0 0 -17.327-7.32 1.015 1.015 0 0 1 -.11.007c-.669.01-1.317.04-1.948.07-9.28.49-14.875 3.228-14.931 3.255-4.887 2.767-7.952 3.426-9.392 3.567l-1.259 7.662a3 3 0 0 0 .6 2.112 3.654 3.654 0 0 0 2.858.965h4.742a1 1 0 1 1 0 2z"/><path d="m72.013 50.326h-9.561a1 1 0 0 1 0-2h8.517c-.195-2.2-1.2-7.439-6.4-9.4a9.685 9.685 0 0 0 -3.621-.568l-37.969.366a1.034 1.034 0 0 1 -.9-.55l-2.56-5.07a1 1 0 1 1 1.785-.9l2.28 4.515 37.347-.36a11.974 11.974 0 0 1 4.346.7c7.84 2.958 7.743 11.91 7.735 12.29a1 1 0 0 1 -.999.977z"/><path d="m37.479 38.583a1 1 0 0 1 -.936-.649l-2.943-7.819a1 1 0 0 1 1.873-.7l2.938 7.819a1 1 0 0 1 -.584 1.288.983.983 0 0 1 -.348.061z"/><path d="m57.293 55.479a6.156 6.156 0 1 1 6.155-6.156 6.163 6.163 0 0 1 -6.155 6.156zm0-10.312a4.156 4.156 0 1 0 4.155 4.156 4.16 4.16 0 0 0 -4.155-4.156z"/><path d="m57.293 52.332a3.009 3.009 0 1 1 3.007-3.009 3.013 3.013 0 0 1 -3.007 3.009zm0-4.018a1.009 1.009 0 1 0 1.007 1.009 1.011 1.011 0 0 0 -1.007-1.009z"/><path d="m22.356 55.479a6.156 6.156 0 1 1 6.157-6.156 6.163 6.163 0 0 1 -6.157 6.156zm0-10.312a4.156 4.156 0 1 0 4.157 4.156 4.16 4.16 0 0 0 -4.157-4.156z"/><path d="m22.356 52.332a3.009 3.009 0 1 1 3.009-3.009 3.012 3.012 0 0 1 -3.009 3.009zm0-4.018a1.009 1.009 0 1 0 1.009 1.009 1.01 1.01 0 0 0 -1.009-1.009z"/><path d="m16.274 35.643a1 1 0 0 1 -1-1v-4.667a1 1 0 0 1 2 0v4.667a1 1 0 0 1 -1 1z"/><path d="m12.234 37.173a1 1 0 0 1 -1-1v-5.837a1 1 0 0 1 2 0v5.837a1 1 0 0 1 -1 1z"/><path d="m8.922 31.628a1 1 0 0 1 -.962-1.274l1.215-4.273a1 1 0 0 1 .874-.723l9.45-.833a1 1 0 0 1 1.05 1.27l-1.215 4.273a1 1 0 0 1 -.874.723l-9.45.833c-.03.002-.059.004-.088.004zm1.988-4.338-.629 2.21 7.318-.645.629-2.214z"/><path d="m71.564 46.943h-5.477a1 1 0 0 1 -1-1v-4.26a1 1 0 0 1 1-1h3.607a1 1 0 0 1 0 2h-2.607v2.26h4.477a1 1 0 0 1 0 2z"/></svg>