<svg id="Layer_1" height="512" viewBox="0 0 80 80" width="512" xmlns="http://www.w3.org/2000/svg" data-name="Layer 1"><path d="m72 42.187h-64a1 1 0 0 1 -1-1v-22.825a1 1 0 0 1 1-1h64a1 1 0 0 1 1 1v22.825a1 1 0 0 1 -1 1zm-63-2h62v-20.825h-62z"/><path d="m54.922 42.187a1 1 0 0 1 -.626-1.781l17.08-13.679a1 1 0 0 1 1.25 1.562l-17.08 13.679a1 1 0 0 1 -.624.219z"/><path d="m35.472 42.187a1 1 0 0 1 -.626-1.781l28.5-22.825a1 1 0 0 1 1.25 1.562l-28.496 22.825a1 1 0 0 1 -.628.219z"/><path d="m16.022 42.187a1 1 0 0 1 -.626-1.781l28.504-22.825a1 1 0 1 1 1.25 1.562l-28.5 22.825a1 1 0 0 1 -.628.219z"/><path d="m8 33.041a1 1 0 0 1 -.626-1.781l17.08-13.679a1 1 0 0 1 1.25 1.562l-17.078 13.679a1 1 0 0 1 -.626.219z"/><path d="m61.852 69.363h-7.5a1 1 0 0 1 -1-1v-27.18a1 1 0 0 1 2 0v26.18h5.5v-26.18a1 1 0 0 1 2 0v27.18a1 1 0 0 1 -1 1z"/><path d="m61.852 19.363a1 1 0 0 1 -1-1v-2.976a2.75 2.75 0 0 0 -5.5 0v2.976a1 1 0 1 1 -2 0v-2.976a4.75 4.75 0 0 1 9.5 0v2.976a1 1 0 0 1 -1 1z"/><path d="m25.651 19.363a1 1 0 0 1 -1-1v-2.976a2.75 2.75 0 1 0 -5.5 0v2.976a1 1 0 0 1 -2 0v-2.976a4.75 4.75 0 1 1 9.5 0v2.976a1 1 0 0 1 -1 1z"/><path d="m25.651 69.363h-7.5a1 1 0 0 1 -1-1v-27.18a1 1 0 0 1 2 0v26.18h5.5v-26.18a1 1 0 0 1 2 0v27.18a1 1 0 0 1 -1 1z"/><path d="m54.352 61.345h-28.7a1 1 0 1 1 0-2h28.7a1 1 0 1 1 0 2z"/><path d="m54.352 57.22h-28.7a1 1 0 1 1 0-2h28.7a1 1 0 1 1 0 2z"/></svg>