<svg id="Layer_1" height="512" viewBox="0 0 80 80" width="512" xmlns="http://www.w3.org/2000/svg" data-name="Layer 1"><path d="m69.488 58.333h-8.27a1 1 0 0 1 0-2h8.27a1.512 1.512 0 0 0 1.512-1.51v-36.23a1.513 1.513 0 0 0 -1.511-1.51h-55.1a5.4 5.4 0 0 0 -5.389 5.39v32.35a1.511 1.511 0 0 0 1.509 1.51h8.27a1 1 0 0 1 0 2h-8.27a3.513 3.513 0 0 1 -3.509-3.51v-32.35a7.4 7.4 0 0 1 7.389-7.39h55.1a3.515 3.515 0 0 1 3.511 3.51v36.23a3.514 3.514 0 0 1 -3.512 3.51z"/><path d="m48.059 58.333h-16.111a1 1 0 0 1 0-2h16.111a1 1 0 0 1 0 2z"/><path d="m72 27h-64a1 1 0 1 1 0-2h64a1 1 0 0 1 0 2z"/><path d="m18.211 46.646h-10.211a1 1 0 1 1 0-2h9.8l3.769-3.77a1 1 0 0 1 .707-.293h49.724a1 1 0 0 1 0 2h-49.312l-3.77 3.77a1 1 0 0 1 -.707.293z"/><path d="m22.273 42.583a1 1 0 0 1 -1-1v-15.583a1 1 0 0 1 2 0v15.583a1 1 0 0 1 -1 1z"/><path d="m38.023 42.583a1 1 0 0 1 -1-1v-15.583a1 1 0 1 1 2 0v15.583a1 1 0 0 1 -1 1z"/><path d="m54.639 42.583a1 1 0 0 1 -1-1v-15.583a1 1 0 0 1 2 0v15.583a1 1 0 0 1 -1 1z"/><path d="m54.639 61.042a3.709 3.709 0 1 1 3.708-3.709 3.713 3.713 0 0 1 -3.708 3.709zm0-5.417a1.709 1.709 0 1 0 1.708 1.708 1.711 1.711 0 0 0 -1.708-1.708z"/><path d="m25.365 61.042a3.709 3.709 0 1 1 3.708-3.709 3.713 3.713 0 0 1 -3.708 3.709zm0-5.417a1.709 1.709 0 1 0 1.708 1.708 1.711 1.711 0 0 0 -1.708-1.708z"/><path d="m54.639 64.917a7.584 7.584 0 1 1 7.583-7.584 7.592 7.592 0 0 1 -7.583 7.584zm0-13.167a5.584 5.584 0 1 0 5.583 5.583 5.59 5.59 0 0 0 -5.583-5.583z"/><path d="m25.365 64.917a7.584 7.584 0 1 1 7.583-7.584 7.592 7.592 0 0 1 -7.583 7.584zm0-13.167a5.584 5.584 0 1 0 5.583 5.583 5.59 5.59 0 0 0 -5.583-5.583z"/><path d="m29.305 37.99a1 1 0 0 1 -.707-1.707l4.375-4.375a1 1 0 0 1 1.414 1.414l-4.375 4.378a1 1 0 0 1 -.707.29z"/><path d="m26.867 35.552a1 1 0 0 1 -.707-1.707l4.375-4.375a1 1 0 0 1 1.414 1.414l-4.375 4.375a.993.993 0 0 1 -.707.293z"/><path d="m45.362 37.99a1 1 0 0 1 -.707-1.707l4.375-4.375a1 1 0 0 1 1.414 1.414l-4.375 4.378a1 1 0 0 1 -.707.29z"/><path d="m42.925 35.552a1 1 0 0 1 -.707-1.707l4.375-4.375a1 1 0 0 1 1.414 1.414l-4.375 4.375a.993.993 0 0 1 -.707.293z"/><path d="m61.42 37.99a1 1 0 0 1 -.707-1.707l4.375-4.375a1 1 0 0 1 1.412 1.414l-4.373 4.378a1 1 0 0 1 -.707.29z"/><path d="m58.982 35.552a1 1 0 0 1 -.707-1.707l4.375-4.375a1 1 0 1 1 1.414 1.414l-4.375 4.375a.993.993 0 0 1 -.707.293z"/></svg>