<svg id="Layer_1" height="512" viewBox="0 0 80 80" width="512" xmlns="http://www.w3.org/2000/svg" data-name="Layer 1"><path d="m59.872 61.439a13.128 13.128 0 1 1 13.128-13.128 13.143 13.143 0 0 1 -13.128 13.128zm0-24.256a11.128 11.128 0 1 0 11.128 11.128 11.141 11.141 0 0 0 -11.128-11.128z"/><path d="m20.128 61.439a13.128 13.128 0 1 1 13.129-13.128 13.143 13.143 0 0 1 -13.129 13.128zm0-24.256a11.128 11.128 0 1 0 11.129 11.128 11.141 11.141 0 0 0 -11.129-11.128z"/><path d="m59.872 49.311a1 1 0 0 1 -.943-.667l-8.568-24.283a1 1 0 0 1 .944-1.333h8.095a3.9 3.9 0 0 1 0 7.806h-1.129a1 1 0 0 1 0-2h1.129a1.9 1.9 0 0 0 0-3.806h-6.682l8.1 22.95a1 1 0 0 1 -.61 1.276 1.023 1.023 0 0 1 -.336.057z"/><path d="m35.051 49.313h-14.92a1 1 0 0 1 -.86-1.509l10.5-17.73a1 1 0 0 1 .86-.491l22.991.03a1 1 0 0 1 .737 1.675l-14.559 15.93a1 1 0 0 1 -1.477-1.35l13.032-14.258-20.155-.026-9.314 15.729h13.165a1 1 0 0 1 0 2z"/><path d="m37.447 51.711a3.4 3.4 0 1 1 3.4-3.4 3.4 3.4 0 0 1 -3.4 3.4zm0-4.8a1.4 1.4 0 1 0 1.4 1.4 1.4 1.4 0 0 0 -1.4-1.4z"/><path d="m35.771 56.562a.951.951 0 0 1 -.224-.026 1 1 0 0 1 -.752-1.2l1.105-4.848a1 1 0 1 1 1.95.446l-1.108 4.85a1 1 0 0 1 -.971.778z"/><path d="m37.215 56.562h-3.149a1 1 0 0 1 0-2h3.149a1 1 0 0 1 0 2z"/><path d="m38 46.978a1.016 1.016 0 0 1 -.217-.024 1 1 0 0 1 -.761-1.192l1.178-5.331a1 1 0 1 1 1.953.431l-1.176 5.331a1 1 0 0 1 -.977.785z"/><path d="m40.725 41.646h-3.278a1 1 0 0 1 0-2h3.278a1 1 0 1 1 0 2z"/><path d="m36.877 46.986a1 1 0 0 1 -.93-.631l-9.27-23.348a1 1 0 1 1 1.859-.738l9.271 23.348a1 1 0 0 1 -.93 1.369z"/><path d="m33.467 23.638h-8.067a1 1 0 0 1 -.838-.455l-2-3.078a1 1 0 1 1 1.677-1.089l1.7 2.622h7.524a1 1 0 0 1 0 2z"/></svg>