<svg id="Layer_1" height="512" viewBox="0 0 80 80" width="512" xmlns="http://www.w3.org/2000/svg" data-name="Layer 1"><path d="m63.216 69.863h-46.432a1 1 0 0 1 -.914-.594l-8.784-19.769a1 1 0 0 1 .914-1.4h64a1 1 0 0 1 .914 1.406l-8.784 19.763a1 1 0 0 1 -.914.594zm-45.782-2h45.132l7.895-17.763h-60.922z"/><path d="m10.822 50.1a1 1 0 0 1 -.771-1.634l31.164-37.966a1 1 0 0 1 1.772.634v37.966a1 1 0 0 1 -2 0v-35.169l-29.387 35.801a1 1 0 0 1 -.778.368z"/><path d="m59.138 50.1h-17.151a1 1 0 0 1 -1-1v-31.688a1 1 0 0 1 1-1 19.062 19.062 0 0 1 13.536 6.551c4.918 5.766 6.466 14.612 4.6 26.293a1 1 0 0 1 -.985.844zm-16.151-2h15.292c1.566-10.656.128-18.672-4.277-23.837a17.252 17.252 0 0 0 -11.015-5.775z"/><path d="m53.972 63.147a4.167 4.167 0 1 1 4.166-4.167 4.171 4.171 0 0 1 -4.166 4.167zm0-6.333a2.167 2.167 0 1 0 2.166 2.166 2.168 2.168 0 0 0 -2.166-2.166z"/><path d="m40 63.147a4.167 4.167 0 1 1 4.167-4.167 4.171 4.171 0 0 1 -4.167 4.167zm0-6.333a2.167 2.167 0 1 0 2.167 2.166 2.169 2.169 0 0 0 -2.167-2.166z"/><path d="m26.028 63.147a4.167 4.167 0 1 1 4.172-4.167 4.171 4.171 0 0 1 -4.172 4.167zm0-6.333a2.167 2.167 0 1 0 2.172 2.166 2.169 2.169 0 0 0 -2.172-2.166z"/><path d="m41.985 26.778a1 1 0 0 1 -.707-1.707l6.722-6.719a1 1 0 1 1 1.414 1.414l-6.721 6.719a.993.993 0 0 1 -.708.293z"/><path d="m41.985 37.729a1 1 0 0 1 -.707-1.708l12.931-12.93a1 1 0 0 1 1.414 1.414l-12.931 12.931a1 1 0 0 1 -.707.293z"/><path d="m41.985 48.679a1 1 0 0 1 -.707-1.707l16.681-16.68a1 1 0 0 1 1.414 1.414l-16.681 16.68a1 1 0 0 1 -.707.293z"/><path d="m51.516 50.1a1 1 0 0 1 -.707-1.707l8.37-8.371a1 1 0 1 1 1.414 1.415l-8.37 8.37a1 1 0 0 1 -.707.293z"/></svg>