<svg id="Layer_1" height="512" viewBox="0 0 80 80" width="512" xmlns="http://www.w3.org/2000/svg" data-name="Layer 1"><path d="m47.968 57.419h-16.168a1 1 0 0 1 0-2h16.17a1 1 0 0 1 0 2z"/><path d="m71.883 57.419h-8.92a1 1 0 0 1 0-2h7.92v-11.11h-35.714a1 1 0 0 1 0-2h36.714a1 1 0 0 1 1 1v13.11a1 1 0 0 1 -1 1z"/><path d="m16.8 57.419h-8.8a1 1 0 0 1 -1-1v-15.3a5.131 5.131 0 0 1 5.126-5.119h4.437v-9.407a4.933 4.933 0 0 1 4.927-4.926h13.679a1 1 0 0 1 0 2h-13.677a2.931 2.931 0 0 0 -2.927 2.926v10.407a1 1 0 0 1 -1 1h-5.439a3.129 3.129 0 0 0 -3.126 3.122v14.3h7.8a1 1 0 1 1 0 2z"/><path d="m35.169 44.309a1 1 0 0 1 -1-1v-17.92a1 1 0 1 1 2 0v17.92a1 1 0 0 1 -1 1z"/><path d="m72 44.306h-36.833a1 1 0 0 1 -1-1v-27.225a1 1 0 0 1 1-1h36.833a1 1 0 0 1 1 1v27.225a1 1 0 0 1 -1 1zm-35.832-2h34.832v-25.225h-34.833z"/><path d="m55.472 64.919a8.5 8.5 0 1 1 8.5-8.5 8.51 8.51 0 0 1 -8.5 8.5zm0-15a6.5 6.5 0 1 0 6.5 6.5 6.508 6.508 0 0 0 -6.5-6.5z"/><path d="m55.472 60.669a4.25 4.25 0 1 1 4.25-4.25 4.255 4.255 0 0 1 -4.25 4.25zm0-6.5a2.25 2.25 0 1 0 2.25 2.25 2.253 2.253 0 0 0 -2.25-2.25z"/><path d="m24.3 60.669a4.25 4.25 0 1 1 4.25-4.25 4.255 4.255 0 0 1 -4.25 4.25zm0-6.5a2.25 2.25 0 1 0 2.25 2.25 2.253 2.253 0 0 0 -2.25-2.25z"/><path d="m24.3 64.919a8.5 8.5 0 1 1 8.5-8.5 8.51 8.51 0 0 1 -8.5 8.5zm0-15a6.5 6.5 0 1 0 6.5 6.5 6.508 6.508 0 0 0 -6.5-6.5z"/><path d="m25.506 44.309h-2.313a1 1 0 1 1 0-2h2.313a1 1 0 0 1 0 2z"/><path d="m65.835 24.7h-24.5a1 1 0 0 1 0-2h24.5a1 1 0 0 1 0 2z"/><path d="m65.835 30.693h-24.5a1 1 0 0 1 0-2h24.5a1 1 0 0 1 0 2z"/><path d="m65.835 36.683h-24.5a1 1 0 0 1 0-2h24.5a1 1 0 0 1 0 2z"/><path d="m31.081 35.127h-9.91a1 1 0 0 1 -1-1v-5.8a3.29 3.29 0 0 1 3.286-3.286h7.624a1 1 0 0 1 1 1v8.09a1 1 0 0 1 -1 .996zm-8.91-2h7.91v-6.09h-6.624a1.288 1.288 0 0 0 -1.286 1.286z"/></svg>