<svg id="Layer_1" height="512" viewBox="0 0 80 80" width="512" xmlns="http://www.w3.org/2000/svg" data-name="Layer 1"><path d="m48.2 53.436h-16.168a1 1 0 1 1 0-2h16.168a1 1 0 0 1 0 2z"/><path d="m17.037 53.435h-8.92a1 1 0 0 1 -1-1v-13.11a1 1 0 0 1 2 0v12.11h7.92a1 1 0 1 1 0 2z"/><path d="m72 53.435h-8.8a1 1 0 0 1 0-2h7.8v-12.11a1 1 0 0 1 2 0v13.11a1 1 0 0 1 -1 1z"/><path d="m72 40.325h-24.332a1 1 0 0 1 -1-1v-19.261a1 1 0 0 1 1-1h14.59a.994.994 0 0 1 .691.279l7.993 7.646a6.69 6.69 0 0 1 2.058 4.811v7.528a1 1 0 0 1 -1 .997zm-23.329-2h22.329v-6.525a4.684 4.684 0 0 0 -1.437-3.363l-7.7-7.37h-13.195z"/><path d="m47.669 53.436a1 1 0 0 1 -1-1v-31.372h-34.762a2.908 2.908 0 0 0 -2.907 2.905v15.352a1 1 0 0 1 -2 0v-15.352a4.911 4.911 0 0 1 4.9-4.905h35.769a1 1 0 0 1 1 1v32.372a1 1 0 0 1 -1 1z"/><path d="m24.528 60.936a8.5 8.5 0 1 1 8.5-8.5 8.511 8.511 0 0 1 -8.5 8.5zm0-15a6.5 6.5 0 1 0 6.5 6.5 6.508 6.508 0 0 0 -6.5-6.5z"/><path d="m24.528 56.686a4.25 4.25 0 1 1 4.25-4.25 4.255 4.255 0 0 1 -4.25 4.25zm0-6.5a2.25 2.25 0 1 0 2.25 2.25 2.253 2.253 0 0 0 -2.25-2.25z"/><path d="m55.7 56.686a4.25 4.25 0 1 1 4.25-4.25 4.255 4.255 0 0 1 -4.25 4.25zm0-6.5a2.25 2.25 0 1 0 2.25 2.25 2.253 2.253 0 0 0 -2.25-2.25z"/><path d="m55.7 60.936a8.5 8.5 0 1 1 8.5-8.5 8.511 8.511 0 0 1 -8.5 8.5zm0-15a6.5 6.5 0 1 0 6.5 6.5 6.508 6.508 0 0 0 -6.5-6.5z"/><path d="m65.433 35.879h-12.326a1 1 0 0 1 -1-1v-10.188a1 1 0 0 1 1-1h6.781a1 1 0 0 1 .692.279l5.545 5.319a1 1 0 0 1 .308.722v4.868a1 1 0 0 1 -1 1zm-11.326-2h10.326v-3.441l-4.948-4.747h-5.378z"/><path d="m38.941 34.521h-22.211a1 1 0 0 1 -1-1v-7.333a1 1 0 0 1 1-1h22.211a1 1 0 0 1 1 1v7.333a1 1 0 0 1 -1 1zm-21.211-2h20.211v-5.333h-20.211z"/></svg>