<svg id="Layer_1" height="512" viewBox="0 0 80 80" width="512" xmlns="http://www.w3.org/2000/svg" data-name="Layer 1"><path d="m42.406 62.212a1 1 0 0 1 -.707-.293l-23.758-23.758a37.536 37.536 0 0 1 -10.779-30.095 1 1 0 0 1 .9-.9 37.538 37.538 0 0 1 30.1 10.779l23.757 23.755a1 1 0 0 1 0 1.414l-18.806 18.805a1 1 0 0 1 -.707.293zm-33.319-53.125a35.51 35.51 0 0 0 10.268 27.66l23.051 23.053 17.394-17.394-23.053-23.051a35.512 35.512 0 0 0 -27.66-10.268z"/><path d="m13.822 32.454a1 1 0 0 1 -.516-1.857 50.061 50.061 0 0 0 17.294-17.289 1 1 0 0 1 1.715 1.031 52.059 52.059 0 0 1 -17.978 17.973 1.006 1.006 0 0 1 -.515.142z"/><path d="m59.168 41.362a1 1 0 0 1 -.707-.293l-14.885-14.885a1 1 0 0 1 .365-1.647c.017-.007.067-.022.084-.028 8.141-2.818 16.543-1.871 22.44 2.545a71.315 71.315 0 0 1 6.222 5.276 1 1 0 0 1 -.192 1.6l-12.832 7.301a1 1 0 0 1 -.495.131zm-13.013-15.427 13.181 13.181 10.986-6.255c-1.687-1.543-3.384-2.954-5.056-4.206-5.006-3.755-12.057-4.73-19.111-2.72z"/><path d="m33.057 73a1 1 0 0 1 -.727-.312 71.472 71.472 0 0 1 -5.276-6.223c-4.416-5.9-5.364-14.3-2.533-22.476a1.03 1.03 0 0 1 .726-.664 1 1 0 0 1 .937.251l14.885 14.885a1 1 0 0 1 .162 1.2l-7.305 12.839a1 1 0 0 1 -.749.5.966.966 0 0 1 -.12 0zm-7.121-26.844c-2.009 7.076-1.026 14.112 2.719 19.11 1.252 1.672 2.663 3.369 4.206 5.056l6.255-10.986z"/><path d="m65.337 66.339a1 1 0 0 1 -.939-1.345c3.015-8.221-3-15.343-6.846-18.857a1 1 0 0 1 1.348-1.477c4.222 3.852 10.793 11.705 7.376 21.024a1 1 0 0 1 -.939.655z"/><path d="m60.432 67.229c-6.971 0-12.671-4.926-15.774-8.328a1 1 0 1 1 1.477-1.347c3.514 3.85 10.641 9.86 18.857 6.846a1 1 0 0 1 .69 1.877 15.164 15.164 0 0 1 -5.25.952z"/><path d="m31.649 38a6.348 6.348 0 0 1 -4.489-10.838 6.349 6.349 0 1 1 4.489 10.838zm0-10.7a4.32 4.32 0 0 0 -3.075 1.274 4.349 4.349 0 1 0 3.075-1.274z"/><path d="m43.894 50.242a6.346 6.346 0 1 1 4.49-1.856 6.333 6.333 0 0 1 -4.49 1.856zm0-10.693a4.347 4.347 0 1 0 3.076 1.271 4.34 4.34 0 0 0 -3.076-1.271z"/></svg>