<svg id="Layer_1" height="512" viewBox="0 0 80 80" width="512" xmlns="http://www.w3.org/2000/svg" data-name="Layer 1"><path d="m71.955 51.744h-7.821a1 1 0 0 1 0-2h6.821v-6.417a4.03 4.03 0 0 0 -4.026-4.027h-57.078a.808.808 0 0 0 -.808.807v8.828a.808.808 0 0 0 .808.807h5.7a1 1 0 0 1 0 2h-5.7a2.811 2.811 0 0 1 -2.808-2.807v-8.826a2.811 2.811 0 0 1 2.808-2.809h57.078a6.032 6.032 0 0 1 6.026 6.025v7.417a1 1 0 0 1 -1 1.002z"/><path d="m52.442 51.744h-25.193a1 1 0 1 1 0-2h25.193a1 1 0 1 1 0 2z"/><path d="m9.851 39.3a1 1 0 0 1 -.8-1.595l11.005-14.889a1 1 0 0 1 .8-.4h26.538a1 1 0 0 1 .76.351l12.7 14.883a1 1 0 0 1 -.76 1.649zm11.514-14.889-9.531 12.889 46.1-.008-11-12.883z"/><path d="m34.974 39.294a1 1 0 0 1 -1-1v-14.883a1 1 0 0 1 2 0v14.883a1 1 0 0 1 -1 1z"/><path d="m58.287 57.589a6.848 6.848 0 1 1 6.848-6.848 6.856 6.856 0 0 1 -6.848 6.848zm0-11.7a4.848 4.848 0 1 0 4.848 4.848 4.853 4.853 0 0 0 -4.848-4.844z"/><path d="m21.4 57.589a6.848 6.848 0 1 1 6.849-6.848 6.856 6.856 0 0 1 -6.849 6.848zm0-11.7a4.848 4.848 0 1 0 4.849 4.848 4.853 4.853 0 0 0 -4.849-4.844z"/><path d="m45.409 43.515h-4.5a1 1 0 0 1 0-2h4.5a1 1 0 1 1 0 2z"/><path d="m71.957 47.117h-2.009a2.984 2.984 0 0 1 -2.981-2.98v-5.73a1 1 0 0 1 2 0v5.73a.981.981 0 0 0 .981.98h1.009v-1.79a1 1 0 0 1 2 0v2.79a1 1 0 0 1 -1 1z"/><path d="m11.472 47.244h-3.429a1 1 0 0 1 -1-1v-4.292a1 1 0 0 1 1-1h3.429a1 1 0 0 1 1 1v4.292a1 1 0 0 1 -1 1zm-2.429-2h1.429v-2.292h-1.429z"/></svg>