<svg id="Layer_1" height="512" viewBox="0 0 80 80" width="512" xmlns="http://www.w3.org/2000/svg" data-name="Layer 1"><path d="m48.2 57.419h-16.169a1 1 0 1 1 0-2h16.169a1 1 0 1 1 0 2z"/><path d="m17.036 57.419h-8.92a1 1 0 0 1 -1-1v-13.11a1 1 0 0 1 1-1h36.715a1 1 0 0 1 0 2h-35.715v11.11h7.92a1 1 0 0 1 0 2z"/><path d="m72 57.419h-8.8a1 1 0 0 1 0-2h7.8v-13.3c0-1.638-1.117-2.695-3.323-3.145l-5.419-1a1 1 0 0 1 -.815-.887l-1-10.407a2.958 2.958 0 0 0 -2.93-3.022h-12.682a1 1 0 0 1 0-2h12.678a4.932 4.932 0 0 1 4.926 4.926l.924 9.56 4.7.864c3.191.657 4.941 2.47 4.941 5.114v14.3a1 1 0 0 1 -1 .997z"/><path d="m44.831 44.309a1 1 0 0 1 -1-1v-17.92a1 1 0 1 1 2 0v17.92a1 1 0 0 1 -1 1z"/><path d="m44.832 44.306h-36.832a1 1 0 0 1 -1-1v-27.225a1 1 0 0 1 1-1h36.83a1 1 0 0 1 1 1v27.225a1 1 0 0 1 -.998 1zm-35.832-2h34.83v-25.225h-34.83z"/><path d="m24.527 64.919a8.5 8.5 0 1 1 8.5-8.5 8.511 8.511 0 0 1 -8.5 8.5zm0-15a6.5 6.5 0 1 0 6.5 6.5 6.508 6.508 0 0 0 -6.5-6.5z"/><path d="m24.527 60.669a4.25 4.25 0 1 1 4.25-4.25 4.255 4.255 0 0 1 -4.25 4.25zm0-6.5a2.25 2.25 0 1 0 2.25 2.25 2.253 2.253 0 0 0 -2.25-2.25z"/><path d="m55.7 60.669a4.25 4.25 0 1 1 4.25-4.25 4.254 4.254 0 0 1 -4.25 4.25zm0-6.5a2.25 2.25 0 1 0 2.25 2.25 2.253 2.253 0 0 0 -2.25-2.25z"/><path d="m55.7 64.919a8.5 8.5 0 1 1 8.5-8.5 8.511 8.511 0 0 1 -8.5 8.5zm0-15a6.5 6.5 0 1 0 6.5 6.5 6.508 6.508 0 0 0 -6.5-6.5z"/><path d="m58.415 36.1h-9.807a1 1 0 0 1 -1-1v-7.871a1 1 0 0 1 1-1h8.2a1 1 0 0 1 .979.8l1.613 7.871a1 1 0 0 1 -.98 1.2zm-8.807-2h7.582l-1.2-5.875h-6.382z"/><path d="m72 51.771h-3.668a1 1 0 0 1 -1-1v-5.671a1 1 0 0 1 1-1h3.668a1 1 0 0 1 1 1v5.667a1 1 0 0 1 -1 1.004zm-2.666-2h1.666v-3.671h-1.668z"/><path d="m56.456 44.916h-4.956a2.958 2.958 0 1 1 0-5.916h4.952a2.958 2.958 0 1 1 0 5.916zm-4.956-3.916a.958.958 0 1 0 0 1.916h4.952a.958.958 0 1 0 0-1.916z"/></svg>