<svg id="Layer_1" height="512" viewBox="0 0 80 80" width="512" xmlns="http://www.w3.org/2000/svg" data-name="Layer 1"><path d="m12.755 40.97a1 1 0 0 1 -.965-1.264l6.41-23.46a3.2 3.2 0 0 1 3.085-2.307h37.43a3.173 3.173 0 0 1 3.075 2.308l6.42 23.459a1 1 0 0 1 -1.136 1.249 158.244 158.244 0 0 0 -54.148 0 1 1 0 0 1 -.171.015zm8.53-25.031a1.193 1.193 0 0 0 -1.158.842l-5.995 21.943a160.14 160.14 0 0 1 51.735 0l-6.007-21.951a1.185 1.185 0 0 0 -1.145-.834z"/><path d="m71.915 57.74h-63.83a1 1 0 0 1 -1-1v-12.671a5.1 5.1 0 0 1 5.011-5.1 166.859 166.859 0 0 1 55.808 0 5.1 5.1 0 0 1 5.011 5.1v12.671a1 1 0 0 1 -1 1zm-62.83-2h61.83v-11.671a3.1 3.1 0 0 0 -3.1-3.1 1.046 1.046 0 0 1 -.167-.014 164.871 164.871 0 0 0 -55.3 0 1.046 1.046 0 0 1 -.167.014 3.1 3.1 0 0 0 -3.1 3.1z"/><path d="m65.5 66.061h-9.991a2.755 2.755 0 0 1 -2.751-2.751v-6.576a1 1 0 0 1 1-1h13.494a1 1 0 0 1 1 1v6.576a2.755 2.755 0 0 1 -2.752 2.751zm-10.742-8.327v5.576a.752.752 0 0 0 .751.751h9.991a.752.752 0 0 0 .751-.751v-5.576z"/><path d="m24.489 66.061h-9.989a2.755 2.755 0 0 1 -2.751-2.751v-6.576a1 1 0 0 1 1-1h13.491a1 1 0 0 1 1 1v6.576a2.755 2.755 0 0 1 -2.751 2.751zm-10.742-8.327v5.576a.752.752 0 0 0 .751.751h9.991a.752.752 0 0 0 .751-.751v-5.576z"/><path d="m57.15 53.615a5.262 5.262 0 1 1 5.262-5.261 5.267 5.267 0 0 1 -5.262 5.261zm0-8.524a3.262 3.262 0 1 0 3.262 3.263 3.267 3.267 0 0 0 -3.262-3.263z"/><path d="m22.849 53.615a5.262 5.262 0 1 1 5.261-5.261 5.267 5.267 0 0 1 -5.261 5.261zm0-8.524a3.262 3.262 0 1 0 3.261 3.263 3.267 3.267 0 0 0 -3.261-3.263z"/><path d="m45.133 51.635h-10.267a1 1 0 0 1 0-2h10.267a1 1 0 0 1 0 2z"/><path d="m47.758 47.072h-15.517a1 1 0 0 1 0-2h15.517a1 1 0 1 1 0 2z"/><path d="m68.19 32.6h-3.176a1 1 0 0 1 0-2h3.176a1 1 0 0 1 0 2z"/><path d="m70.258 32.6h-2.068a1 1 0 0 1 -1-1v-3.779a1 1 0 0 1 1-1h2.068a2.892 2.892 0 0 1 0 5.783zm-1.068-2h1.068a.892.892 0 0 0 0-1.783h-1.068z"/><path d="m14.986 32.6h-3.176a1 1 0 0 1 0-2h3.176a1 1 0 1 1 0 2z"/><path d="m11.81 32.6h-2.068a2.892 2.892 0 0 1 0-5.783h2.068a1 1 0 0 1 1 1v3.783a1 1 0 0 1 -1 1zm-2.068-3.779a.892.892 0 0 0 0 1.783h1.068v-1.783z"/><path d="m25.445 31.976a1 1 0 0 1 -.707-1.707l9.719-9.719a1 1 0 1 1 1.414 1.414l-9.719 9.719a1 1 0 0 1 -.707.293z"/><path d="m23.983 26.985a1 1 0 0 1 -.707-1.707l6.191-6.19a1 1 0 0 1 1.414 1.412l-6.191 6.19a.993.993 0 0 1 -.707.295z"/></svg>