<svg id="Layer_1" height="512" viewBox="0 0 80 80" width="512" xmlns="http://www.w3.org/2000/svg" data-name="Layer 1"><path d="m43.64 64.119a1 1 0 0 1 -.707-.293l-24.61-24.609a38.844 38.844 0 0 1 -11.156-31.145 1 1 0 0 1 .9-.9 38.844 38.844 0 0 1 31.15 11.151l24.609 24.61a1 1 0 0 1 0 1.414l-19.479 19.479a1 1 0 0 1 -.707.293zm-34.549-55.027a36.826 36.826 0 0 0 10.646 28.708l23.9 23.9 18.068-18.06-23.9-23.9a36.8 36.8 0 0 0 -28.714-10.648z"/><path d="m13.578 32.58a1 1 0 0 1 -.35-1.937 29.88 29.88 0 0 0 10.519-6.9 29.91 29.91 0 0 0 6.9-10.519 1 1 0 1 1 1.873.7 31.907 31.907 0 0 1 -7.358 11.233 31.9 31.9 0 0 1 -11.232 7.357.992.992 0 0 1 -.352.066z"/><path d="m62.163 69a19.7 19.7 0 0 1 -14.036-5.756l-2.307-2.306a1 1 0 0 1 0-1.414l13.7-13.7a1 1 0 0 1 1.414 0l2.307 2.307a20.061 20.061 0 0 1 5.059 19.452 1 1 0 0 1 -.717.717 21.545 21.545 0 0 1 -5.42.7zm-14.222-8.769 1.6 1.6a18.035 18.035 0 0 0 16.965 4.675 18.035 18.035 0 0 0 -4.675-16.964l-1.6-1.6z"/><path d="m32.932 39.091a6.163 6.163 0 0 1 -4.361-10.523 6.166 6.166 0 1 1 4.361 10.523zm-2.947-9.109a4.167 4.167 0 1 0 5.893 0 4.172 4.172 0 0 0 -5.893 0z"/><path d="m44.9 51.063a6.162 6.162 0 1 1 4.361-1.8 6.149 6.149 0 0 1 -4.361 1.8zm0-10.327a4.165 4.165 0 1 0 2.946 1.219 4.154 4.154 0 0 0 -2.941-1.219z"/><path d="m60.211 41.732a1 1 0 0 1 -.831-1.554 20.353 20.353 0 0 1 10.82-8.06c-10.615-11.047-23.271-4.464-23.4-4.394a1 1 0 1 1 -.945-1.763c.149-.08 15.065-7.842 26.91 6.008a1 1 0 0 1 -.5 1.615 18.828 18.828 0 0 0 -11.216 7.7 1 1 0 0 1 -.838.448z"/><path d="m32.619 73a1 1 0 0 1 -.65-.24c-13.851-11.845-6.087-26.76-6.007-26.91a1 1 0 0 1 1.763.944 19.755 19.755 0 0 0 4.392 23.4 20.361 20.361 0 0 1 8.062-10.819 1 1 0 0 1 1.107 1.665 18.819 18.819 0 0 0 -7.7 11.216 1 1 0 0 1 -.966.74z"/></svg>