<svg id="Layer_1" height="512" viewBox="0 0 80 80" width="512" xmlns="http://www.w3.org/2000/svg" data-name="Layer 1"><path d="m37.671 56.3h-29.671a1 1 0 0 1 -1-1.035c.006-.17.762-17 14.655-21.539a20.62 20.62 0 0 1 6.477-.929h13.7a3.779 3.779 0 0 1 3.762 3.7l.193 11.673a8.126 8.126 0 0 1 -8.116 8.13zm-28.581-2h28.581a6.121 6.121 0 0 0 6.114-6.114l-.193-11.657a1.77 1.77 0 0 0 -1.762-1.729h-13.7a18.675 18.675 0 0 0 -5.856.829c-10.644 3.48-12.774 15.121-13.184 18.671z"/><path d="m44.774 48.505a1 1 0 0 1 -1-.984l-.144-8.7a1 1 0 0 1 1-1.016h22.09a1 1 0 0 1 1 1v3.613a1 1 0 0 1 -.775.975l-21.945 5.086a1.011 1.011 0 0 1 -.226.026zm.872-8.705.108 6.451 19.966-4.633v-1.818z"/><path d="m35.725 64.47h-19.4a1 1 0 0 1 -1-1v-8.17a1 1 0 0 1 1-1h19.4a1 1 0 0 1 1 1v8.17a1 1 0 0 1 -1 1zm-18.4-2h17.4v-6.17h-17.4z"/><path d="m41.787 64.47h-25.46a14.638 14.638 0 0 1 -9-3.448 1 1 0 0 1 1.337-1.487 12.812 12.812 0 0 0 7.659 2.935h25.46a1 1 0 1 1 0 2z"/><path d="m21.783 50.718h-12.843a1 1 0 1 1 0-2h12.843a4.625 4.625 0 0 0 0-9.25h-6.352a1 1 0 1 1 0-2h6.352a6.625 6.625 0 0 1 0 13.25z"/><path d="m36.887 34.8h-7.333a1 1 0 0 1 -1-1v-.29a4.667 4.667 0 1 1 9.333 0v.29a1 1 0 0 1 -1 1zm-6.237-2h5.141a2.667 2.667 0 0 0 -5.141 0z"/><path d="m33.221 30.843a1 1 0 0 1 -1-1v-8.25a1 1 0 1 1 2 0v8.25a1 1 0 0 1 -1 1z"/><path d="m47.341 27.656a1 1 0 0 1 -.341-.056l-28.238-10.128a1 1 0 1 1 .675-1.883l28.242 10.126a1 1 0 0 1 -.338 1.941z"/><path d="m19.1 27.656a1 1 0 0 1 -.338-1.941l28.238-10.126a1 1 0 0 1 .676 1.883l-28.239 10.128a1 1 0 0 1 -.337.056z"/><path d="m72 47.652h-5.28a1 1 0 0 1 -1-1v-12.419a1 1 0 0 1 1-1h5.28a1 1 0 0 1 1 1v12.419a1 1 0 0 1 -1 1zm-4.28-2h3.28v-10.419h-3.28z"/><path d="m19.6 50.718a1 1 0 0 1 -1-1v-10.918a1 1 0 0 1 2 0v10.918a1 1 0 0 1 -1 1z"/></svg>