<svg id="Layer_1" height="512" viewBox="0 0 80 80" width="512" xmlns="http://www.w3.org/2000/svg" data-name="Layer 1"><path d="m59.283 61.756h-13.095a1 1 0 0 1 0-2h12.134l.875-22.2h-38.397l.883 22.2h12.129a1 1 0 0 1 0 2h-13.085a1 1 0 0 1 -1-.96l-.964-24.2a1 1 0 0 1 1-1.04h40.474a1 1 0 0 1 1 1.039l-.954 24.2a1 1 0 0 1 -1 .961z"/><path d="m60.237 37.547h-40.471a1 1 0 0 1 -1-1.032l.772-23.824a5.9 5.9 0 0 1 5.911-5.691h29.106a5.9 5.9 0 0 1 5.909 5.685l.772 23.83a1 1 0 0 1 -1 1.032zm-39.438-2h38.401l-.738-22.791a3.9 3.9 0 0 0 -3.907-3.756h-29.106a3.9 3.9 0 0 0 -3.912 3.763z"/><path d="m59.539 16.159h-39.078a1 1 0 0 1 0-2h39.078a1 1 0 1 1 0 2z"/><path d="m46.187 65.377h-3.357a1 1 0 0 1 0-2h2.357v-6.423a5.187 5.187 0 0 0 -10.374 0v6.423h2.368a1 1 0 0 1 0 2h-3.368a1 1 0 0 1 -1-1v-7.423a7.187 7.187 0 0 1 14.374 0v7.423a1 1 0 0 1 -1 1z"/><path d="m40 73a3.831 3.831 0 0 1 -3.827-3.826v-9.586a3.827 3.827 0 0 1 7.653 0v9.586a3.831 3.831 0 0 1 -3.826 3.826zm0-15.238a1.828 1.828 0 0 0 -1.827 1.826v9.586a1.827 1.827 0 0 0 3.653 0v-9.586a1.828 1.828 0 0 0 -1.826-1.826z"/><path d="m56.572 67.963h-3.938a1.777 1.777 0 0 1 -1.775-1.775v-5.432a1 1 0 0 1 1-1h5.489a1 1 0 0 1 1 1v5.432a1.778 1.778 0 0 1 -1.776 1.775zm-3.713-2h3.489v-4.207h-3.489z"/><path d="m27.366 67.963h-3.938a1.778 1.778 0 0 1 -1.776-1.775v-5.432a1 1 0 0 1 1-1h5.489a1 1 0 0 1 1 1v5.432a1.777 1.777 0 0 1 -1.775 1.775zm-3.714-2h3.489v-4.207h-3.489z"/><path d="m40.005 48.39a4.727 4.727 0 1 1 4.727-4.728 4.733 4.733 0 0 1 -4.727 4.728zm0-7.454a2.727 2.727 0 1 0 2.727 2.726 2.729 2.729 0 0 0 -2.727-2.726z"/></svg>