<svg id="Layer_1" height="512" viewBox="0 0 80 80" width="512" xmlns="http://www.w3.org/2000/svg" data-name="Layer 1"><path d="m63.678 66.2h-3.657a1 1 0 0 1 0-2h3.657a.583.583 0 0 0 .59-.589v-34.779h-54.882v34.777a.576.576 0 0 0 .589.589h5.087a1 1 0 1 1 0 2h-5.087a2.591 2.591 0 0 1 -2.589-2.589v-35.777a1 1 0 0 1 1-1h56.882a1 1 0 0 1 1 1v35.777a2.592 2.592 0 0 1 -2.59 2.591z"/><path d="m46.424 66.2h-17.766a1 1 0 0 1 0-2h17.766a1 1 0 0 1 0 2z"/><path d="m71.614 49.788h-6.344a1 1 0 0 1 -1-1v-4.543a1 1 0 0 1 1-1h6.344a1 1 0 0 1 1 1v4.543a1 1 0 0 1 -1 1zm-5.344-2h4.344v-2.543h-4.344z"/><path d="m71.614 54.134a1 1 0 0 1 -1-1v-13.234a1 1 0 0 1 2 0v13.234a1 1 0 0 1 -1 1z"/><path d="m21.859 68.837a3.634 3.634 0 1 1 3.634-3.637 3.637 3.637 0 0 1 -3.634 3.637zm0-5.267a1.634 1.634 0 1 0 1.634 1.63 1.635 1.635 0 0 0 -1.634-1.63z"/><path d="m53.221 68.837a3.634 3.634 0 1 1 3.633-3.637 3.638 3.638 0 0 1 -3.633 3.637zm0-5.267a1.634 1.634 0 1 0 1.633 1.63 1.635 1.635 0 0 0 -1.633-1.63z"/><path d="m21.859 73a7.8 7.8 0 1 1 7.8-7.8 7.808 7.808 0 0 1 -7.8 7.8zm0-13.6a5.8 5.8 0 1 0 5.8 5.8 5.806 5.806 0 0 0 -5.8-5.8z"/><path d="m53.221 73a7.8 7.8 0 1 1 7.8-7.8 7.808 7.808 0 0 1 -7.8 7.8zm0-13.6a5.8 5.8 0 1 0 5.8 5.8 5.806 5.806 0 0 0 -5.8-5.8z"/><path d="m57.4 28.833a1 1 0 0 1 -.852-.474l-9.518-15.388-4.546 7.347a1 1 0 1 1 -1.7-1.052l5.4-8.723a1 1 0 0 1 .851-.474 1 1 0 0 1 .85.474l10.361 16.764a1 1 0 0 1 -.85 1.526z"/><path d="m45.836 28.833a1 1 0 0 1 -.887-.537l-9.479-18.14-4.841 9.257a1 1 0 0 1 -1.772-.928l5.726-10.951a1 1 0 0 1 .887-.534 1 1 0 0 1 .886.537l10.366 19.833a1 1 0 0 1 -.886 1.463z"/><path d="m34.382 28.832a1 1 0 0 1 -.887-.537l-7.462-14.271-7.461 14.276a1 1 0 0 1 -1.773-.926l8.348-15.974a1.04 1.04 0 0 1 1.772 0l8.349 15.966a1 1 0 0 1 -.423 1.349.99.99 0 0 1 -.463.117z"/><path d="m48.822 54.953a.99.99 0 0 1 -.421-.093 1 1 0 0 1 -.485-1.329l6.917-14.875a1 1 0 1 1 1.813.844l-6.917 14.875a1 1 0 0 1 -.907.578z"/><path d="m38.519 54.953a1 1 0 0 1 -.906-1.422l6.917-14.875a1 1 0 1 1 1.813.844l-6.917 14.875a1 1 0 0 1 -.907.578z"/><path d="m28.216 54.953a.99.99 0 0 1 -.421-.093 1 1 0 0 1 -.485-1.329l6.917-14.875a1 1 0 1 1 1.813.844l-6.916 14.875a1 1 0 0 1 -.908.578z"/><path d="m17.913 54.953a1 1 0 0 1 -.906-1.422l6.917-14.875a1 1 0 1 1 1.813.844l-6.917 14.875a1 1 0 0 1 -.907.578z"/></svg>