<svg id="Layer_1" height="512" viewBox="0 0 80 80" width="512" xmlns="http://www.w3.org/2000/svg" data-name="Layer 1"><path d="m45.051 43.938a1 1 0 0 1 -1-1v-16.3a1 1 0 1 1 2 0v16.3a1 1 0 0 1 -1 1z"/><path d="m45.051 43.938h-33.331a1 1 0 0 1 -1-1v-8.149a1 1 0 0 1 1-1h33.331a1 1 0 0 1 1 1v8.149a1 1 0 0 1 -1 1zm-32.331-2h31.331v-6.149h-31.331z"/><path d="m21.329 60.023a7.3 7.3 0 1 1 7.3-7.3 7.313 7.313 0 0 1 -7.3 7.3zm0-12.609a5.3 5.3 0 1 0 5.3 5.305 5.311 5.311 0 0 0 -5.3-5.305z"/><path d="m21.329 56.055a3.336 3.336 0 1 1 3.336-3.336 3.34 3.34 0 0 1 -3.336 3.336zm0-4.672a1.336 1.336 0 1 0 1.336 1.336 1.337 1.337 0 0 0 -1.336-1.336z"/><path d="m58.926 60.455a7.3 7.3 0 1 1 7.3-7.3 7.312 7.312 0 0 1 -7.3 7.3zm0-12.609a5.3 5.3 0 1 0 5.3 5.3 5.31 5.31 0 0 0 -5.3-5.3z"/><path d="m58.926 56.486a3.336 3.336 0 1 1 3.336-3.336 3.339 3.339 0 0 1 -3.336 3.336zm0-4.672a1.336 1.336 0 1 0 1.336 1.336 1.338 1.338 0 0 0 -1.336-1.336z"/><path d="m72 43.938h-26.949a1 1 0 0 1 -1-1v-22.393a1 1 0 0 1 1-1h21.3a1 1 0 0 1 .912.589l5.646 12.513a1.008 1.008 0 0 1 .089.412v9.879a1 1 0 0 1 -.998 1zm-25.949-2h24.949v-8.665l-5.293-11.728h-19.656z"/><path d="m53.541 50.89h-26.581a1 1 0 1 1 0-2h26.581a1 1 0 0 1 0 2z"/><path d="m72 50.89h-7.679a1 1 0 0 1 0-2h6.679v-4.951h-62v4.951h6.69a1 1 0 1 1 0 2h-7.69a1 1 0 0 1 -1-1v-6.951a1 1 0 0 1 1-1h64a1 1 0 0 1 1 1v6.951a1 1 0 0 1 -1 1z"/><path d="m65.426 33.571h-11.885a1 1 0 0 1 -1-1v-8.062a1 1 0 0 1 1-1h8.68a1 1 0 0 1 .929.631l3.205 8.06a1 1 0 0 1 -.929 1.369zm-10.885-2h9.412l-2.411-6.062h-7z"/><path d="m58.14 37.154h-2.709a1 1 0 0 1 0-2h2.709a1 1 0 0 1 0 2z"/><path d="m72 39.863h-3.4a1 1 0 0 1 -1-1v-4.52a1 1 0 0 1 1-1h3.4a1 1 0 0 1 1 1v4.52a1 1 0 0 1 -1 1zm-2.405-2h1.405v-2.52h-1.4z"/></svg>