<svg id="Layer_1" height="512" viewBox="0 0 80 80" width="512" xmlns="http://www.w3.org/2000/svg" data-name="Layer 1"><path d="m48.115 59.172h-16.171a1 1 0 0 1 0-2h16.171a1 1 0 1 1 0 2z"/><path d="m16.95 59.171h-8.921a1 1 0 0 1 -1-1v-11.337a1 1 0 0 1 1-1h35.265a1 1 0 0 1 0 2h-34.265v9.337h7.921a1 1 0 0 1 0 2z"/><path d="m71.91 59.171h-8.8a1 1 0 0 1 0-2h7.806l.055-11.071a3.129 3.129 0 0 0 -3.125-3.121 1.116 1.116 0 0 1 -.142-.009l-6.981-1a1 1 0 0 1 -.822-.722l-3.43-12.283a1.809 1.809 0 0 0 -1.738-1.319h-11.439a1 1 0 0 1 0-2h11.439a3.816 3.816 0 0 1 3.667 2.786l3.255 11.654 6.269.9a5.131 5.131 0 0 1 5.05 5.124l-.064 12.066a1 1 0 0 1 -1 .995z"/><path d="m43.294 47.834a1 1 0 0 1 -1-1v-20.184a1 1 0 1 1 2 0v20.184a1 1 0 0 1 -1 1z"/><path d="m24.44 66.672a8.5 8.5 0 1 1 8.5-8.5 8.51 8.51 0 0 1 -8.5 8.5zm0-15a6.5 6.5 0 1 0 6.5 6.5 6.508 6.508 0 0 0 -6.5-6.5z"/><path d="m24.44 62.422a4.25 4.25 0 1 1 4.25-4.25 4.255 4.255 0 0 1 -4.25 4.25zm0-6.5a2.25 2.25 0 1 0 2.25 2.25 2.253 2.253 0 0 0 -2.25-2.25z"/><path d="m55.613 62.422a4.25 4.25 0 1 1 4.25-4.25 4.255 4.255 0 0 1 -4.25 4.25zm0-6.5a2.25 2.25 0 1 0 2.25 2.25 2.253 2.253 0 0 0 -2.25-2.25z"/><path d="m55.613 66.672a8.5 8.5 0 1 1 8.5-8.5 8.51 8.51 0 0 1 -8.5 8.5zm0-15a6.5 6.5 0 1 0 6.5 6.5 6.508 6.508 0 0 0 -6.5-6.5z"/><path d="m56.72 46.061h-2.313a1 1 0 0 1 0-2h2.313a1 1 0 0 1 0 2z"/><path d="m56.231 39.376h-9.46a1 1 0 0 1 -1-1v-7.376a1 1 0 0 1 1-1h7.518a1 1 0 0 1 .966.745l1.945 7.376a1 1 0 0 1 -.967 1.255zm-8.46-2h7.163l-1.416-5.376h-5.747z"/><path d="m71.958 54.047h-4.1a1 1 0 0 1 -1-1v-4.747a1 1 0 0 1 1-1h4.1a1 1 0 0 1 1 1v4.751a1 1 0 0 1 -1 .996zm-3.1-2h2.1v-2.747h-2.1z"/><path d="m28.8 31.126a.991.991 0 0 1 -.513-.143l-13.212-7.919a1 1 0 1 1 1.025-1.714l13.215 7.919a1 1 0 0 1 -.515 1.857z"/><path d="m28.8 25.921a1 1 0 0 1 -.513-.142l-10.94-6.55a1 1 0 0 1 1.027-1.716l10.94 6.549a1 1 0 0 1 -.514 1.859z"/><path d="m13.788 23.464a5.067 5.067 0 0 1 -4.339-7.672 5.068 5.068 0 1 1 4.339 7.672zm-2.623-6.645a3.068 3.068 0 1 0 4.208-1.054 3.073 3.073 0 0 0 -4.208 1.054z"/><path d="m12.508 35.728a3.929 3.929 0 0 1 -.878-.1 3.764 3.764 0 0 1 -2.817-2.816 3.818 3.818 0 0 1 2.662-4.538l.037-6.019a1 1 0 1 1 2 0v5.966a2.063 2.063 0 0 1 -1.491 1.979 1.8 1.8 0 0 0 -1.258 2.168 1.779 1.779 0 0 0 1.312 1.313 1.8 1.8 0 0 0 2.236-1.749 1 1 0 0 1 2 0 3.8 3.8 0 0 1 -3.8 3.8z"/><path d="m35.08 47.834h-6.28a1 1 0 0 1 -1-1v-21.917a1 1 0 0 1 1-1h6.28a1 1 0 0 1 1 1v21.917a1 1 0 0 1 -1 1zm-5.279-2h4.279v-19.917h-4.28z"/></svg>