<svg id="Layer_1" height="512" viewBox="0 0 80 80" width="512" xmlns="http://www.w3.org/2000/svg" data-name="Layer 1"><path d="m64.875 66.648h-49.751a1 1 0 1 1 0-2h49.751a1 1 0 0 1 0 2z"/><path d="m62.139 73h-7.4a2.56 2.56 0 0 1 -2.3-2.8v-4.555a1 1 0 0 1 1-1h9.988a1 1 0 0 1 1 1v4.555a2.56 2.56 0 0 1 -2.288 2.8zm-7.692-6.355v3.555a.956.956 0 0 0 .31.806h7.382a1 1 0 0 0 .3-.8v-3.561z"/><path d="m25.256 73h-7.395a2.56 2.56 0 0 1 -2.3-2.8v-4.555a1 1 0 0 1 1-1h9.988a1 1 0 0 1 1 1v4.555a2.56 2.56 0 0 1 -2.293 2.8zm-7.691-6.355v3.555a.96.96 0 0 0 .309.806h7.382a1 1 0 0 0 .3-.8v-3.561z"/><path d="m68.093 66.648h-56.177a2.871 2.871 0 0 1 -2.868-2.868v-17.075a4.16 4.16 0 0 1 4.152-4.156h13.85a1 1 0 1 1 0 2h-13.85a2.159 2.159 0 0 0 -2.155 2.156v17.075a.868.868 0 0 0 .868.868h56.18a.864.864 0 0 0 .858-.868v-17.075a2.159 2.159 0 0 0 -2.151-2.156h-13.851a1 1 0 0 1 0-2h13.851a4.16 4.16 0 0 1 4.156 4.156v17.075a2.866 2.866 0 0 1 -2.863 2.868z"/><path d="m69.955 59.538h-59.91a1 1 0 0 1 0-2h59.91a1 1 0 0 1 0 2z"/><path d="m56.893 59.538h-33.786a1 1 0 0 1 -.967-1.255l4.747-18.041a2.793 2.793 0 0 1 2.7-2.08h20.827a2.793 2.793 0 0 1 2.7 2.081l4.747 18.04a1 1 0 0 1 -.967 1.255zm-32.489-2h31.196l-4.421-16.786a.792.792 0 0 0 -.765-.59h-20.828a.792.792 0 0 0 -.765.589z"/><path d="m48.369 45.07h-16.738a1 1 0 1 1 0-2h16.738a1 1 0 0 1 0 2z"/><path d="m48.369 49.85h-16.738a1 1 0 1 1 0-2h16.738a1 1 0 0 1 0 2z"/><path d="m48.369 54.629h-16.738a1 1 0 1 1 0-2h16.738a1 1 0 0 1 0 2z"/><path d="m62.792 54.725a3.682 3.682 0 1 1 3.681-3.681 3.686 3.686 0 0 1 -3.681 3.681zm0-5.363a1.682 1.682 0 1 0 1.681 1.682 1.684 1.684 0 0 0 -1.681-1.682z"/><path d="m17.208 54.725a3.682 3.682 0 1 1 3.682-3.681 3.686 3.686 0 0 1 -3.682 3.681zm0-5.363a1.682 1.682 0 1 0 1.682 1.682 1.684 1.684 0 0 0 -1.682-1.682z"/><path d="m64.289 44.549a1 1 0 0 1 -1-1v-33.149a1.4 1.4 0 0 0 -1.4-1.4h-43.777a1.4 1.4 0 0 0 -1.4 1.4v33.149a1 1 0 1 1 -2 0v-33.149a3.4 3.4 0 0 1 3.4-3.4h43.776a3.4 3.4 0 0 1 3.4 3.4v33.149a1 1 0 0 1 -.999 1z"/><path d="m64.289 17.022h-48.578a1 1 0 1 1 0-2h48.578a1 1 0 1 1 0 2z"/><path d="m49 13.012h-18a1 1 0 0 1 0-2h18a1 1 0 0 1 0 2z"/><path d="m40 40.162a1 1 0 0 1 -1-1v-23.14a1 1 0 0 1 2 0v23.14a1 1 0 0 1 -1 1z"/></svg>