<svg id="Layer_1" height="512" viewBox="0 0 80 80" width="512" xmlns="http://www.w3.org/2000/svg" data-name="Layer 1"><path d="m60.986 63.659h-41.972a3.232 3.232 0 0 1 -3.194-3.259v-46.16a3.231 3.231 0 0 1 3.194-3.261h41.972a3.231 3.231 0 0 1 3.194 3.261v46.16a3.232 3.232 0 0 1 -3.194 3.259zm-41.972-50.68a1.23 1.23 0 0 0 -1.194 1.261v46.16a1.23 1.23 0 0 0 1.194 1.262h41.972a1.23 1.23 0 0 0 1.194-1.262v-46.16a1.23 1.23 0 0 0 -1.194-1.261z"/><path d="m58.677 69.021h-6.24a2.311 2.311 0 0 1 -2.092-2.521v-3.841a1 1 0 0 1 1-1h8.426a1 1 0 0 1 1 1v3.841a2.312 2.312 0 0 1 -2.094 2.521zm-6.332-5.362v2.841a.739.739 0 0 0 .176.541l6.156-.02a3.659 3.659 0 0 0 .094-.521v-2.841z"/><path d="m27.562 69.021h-6.239a2.312 2.312 0 0 1 -2.094-2.521v-3.841a1 1 0 0 1 1-1h8.426a1 1 0 0 1 1 1v3.841a2.311 2.311 0 0 1 -2.093 2.521zm-6.333-5.362v2.841a.739.739 0 0 0 .176.541l6.157-.02c-.036-.012.093-.2.093-.521v-2.841z"/><path d="m47.623 17.639h-15.246a1 1 0 0 1 0-2h15.246a1 1 0 0 1 0 2z"/><path d="m58.715 47.092h-37.43a1 1 0 0 1 -1-1v-24.519a1 1 0 0 1 1-1h37.43a1 1 0 0 1 1 1v24.519a1 1 0 0 1 -1 1zm-36.43-2h35.43v-22.519h-35.43z"/><path d="m40 47.092a1 1 0 0 1 -1-1v-24.519a1 1 0 0 1 2 0v24.519a1 1 0 0 1 -1 1z"/><path d="m54.8 58.257a4.358 4.358 0 1 1 4.361-4.357 4.363 4.363 0 0 1 -4.361 4.357zm0-6.715a2.358 2.358 0 1 0 2.361 2.358 2.361 2.361 0 0 0 -2.361-2.358z"/><path d="m25.2 58.257a4.358 4.358 0 1 1 4.354-4.357 4.363 4.363 0 0 1 -4.354 4.357zm0-6.715a2.358 2.358 0 1 0 2.354 2.358 2.36 2.36 0 0 0 -2.354-2.358z"/><path d="m46.859 57.453h-13.718a1 1 0 0 1 -1-1v-5.108a1 1 0 0 1 1-1h13.718a1 1 0 0 1 1 1v5.108a1 1 0 0 1 -1 1zm-12.718-2h11.718v-3.108h-11.718z"/><path d="m54.381 34.455a1 1 0 0 1 -.707-.293l-7.057-7.056a1 1 0 0 1 1.414-1.414l7.057 7.056a1 1 0 0 1 -.707 1.707z"/><path d="m55.567 30.482a1 1 0 0 1 -.707-.293l-4.269-4.269a1 1 0 0 1 1.414-1.414l4.269 4.269a1 1 0 0 1 -.707 1.707z"/><path d="m69.706 29.687a1 1 0 0 1 -1-1v-2.76a.7.7 0 0 0 -.7-.7h-4.826a1 1 0 1 1 0-2h4.828a2.7 2.7 0 0 1 2.7 2.7v2.76a1 1 0 0 1 -1.002 1z"/><path d="m72 37.021h-4.589a1 1 0 0 1 -1-1v-7.334a1 1 0 0 1 1-1h4.589a1 1 0 0 1 1 1v7.334a1 1 0 0 1 -1 1zm-3.589-2h2.589v-5.334h-2.589z"/><path d="m10.294 29.687a1 1 0 0 1 -1-1v-2.76a2.7 2.7 0 0 1 2.7-2.7h4.826a1 1 0 0 1 0 2h-4.828a.7.7 0 0 0 -.7.7v2.76a1 1 0 0 1 -.998 1z"/><path d="m12.589 37.021h-4.589a1 1 0 0 1 -1-1v-7.334a1 1 0 0 1 1-1h4.589a1 1 0 0 1 1 1v7.334a1 1 0 0 1 -1 1zm-3.589-2h2.589v-5.334h-2.589z"/></svg>