<svg id="Layer_1" height="512" viewBox="0 0 80 80" width="512" xmlns="http://www.w3.org/2000/svg" data-name="Layer 1"><path d="m40 73a27.177 27.177 0 1 1 27.183-27.185 27.214 27.214 0 0 1 -27.183 27.185zm0-52.355a24.1 24.1 0 0 0 -2.481.123 25.185 25.185 0 1 0 4.969 0 24.047 24.047 0 0 0 -2.488-.125z"/><path d="m40 68.555a22.734 22.734 0 1 1 22.738-22.739 22.764 22.764 0 0 1 -22.738 22.739zm0-43.469a19.431 19.431 0 0 0 -2.042.1 20.734 20.734 0 1 0 4.093 0 19.733 19.733 0 0 0 -2.051-.1z"/><path d="m42.587 20.771a1 1 0 0 1 -1-1v-3.45h-3.174v3.45a1 1 0 0 1 -2 0v-4.45a1 1 0 0 1 1-1h5.174a1 1 0 0 1 1 1v4.45a1 1 0 0 1 -1 1z"/><path d="m47.354 16.321h-14.708a1 1 0 0 1 -1-1v-7.321a1 1 0 0 1 1-1h14.708a1 1 0 0 1 1 1v7.319a1 1 0 0 1 -1 1.002zm-13.708-2h12.708v-5.321h-12.708z"/><path d="m40 31.4a1 1 0 0 1 -1-1v-1.89a1 1 0 0 1 2 0v1.89a1 1 0 0 1 -1 1z"/><path d="m40 64.131a1 1 0 0 1 -1-1v-1.9a1 1 0 1 1 2 0v1.9a1 1 0 0 1 -1 1z"/><path d="m50.9 35.919a1 1 0 0 1 -.707-1.707l1.339-1.339a1 1 0 0 1 1.414 1.414l-1.339 1.339a1 1 0 0 1 -.707.293z"/><path d="m27.76 59.061a1 1 0 0 1 -.707-1.707l1.339-1.339a1 1 0 0 1 1.414 1.414l-1.339 1.339a1 1 0 0 1 -.707.293z"/><path d="m57.311 46.82h-1.9a1 1 0 0 1 0-2h1.9a1 1 0 0 1 0 2z"/><path d="m24.584 46.82h-1.895a1 1 0 0 1 0-2h1.895a1 1 0 0 1 0 2z"/><path d="m52.24 59.061a1 1 0 0 1 -.707-.293l-1.339-1.339a1 1 0 1 1 1.414-1.414l1.339 1.339a1 1 0 0 1 -.707 1.707z"/><path d="m29.1 35.919a1 1 0 0 1 -.707-.293l-1.339-1.339a1 1 0 1 1 1.414-1.414l1.339 1.339a1 1 0 0 1 -.707 1.707z"/><path d="m39.734 48.863a3.6 3.6 0 1 1 3.6-3.6 3.6 3.6 0 0 1 -3.6 3.6zm0-5.193a1.6 1.6 0 1 0 1.6 1.6 1.6 1.6 0 0 0 -1.6-1.6z"/><path d="m39.734 43.67a1 1 0 0 1 -1-1v-7.751a1 1 0 0 1 2 0v7.751a1 1 0 0 1 -1 1z"/><path d="m33.292 52.21a1 1 0 0 1 -.645-1.765l4.738-3.988a1 1 0 1 1 1.287 1.529l-4.737 3.989a1 1 0 0 1 -.643.235z"/><path d="m63.131 26.141a1 1 0 0 1 -.643-.235l-6.523-5.481a1 1 0 0 1 -.12-1.411l2.492-2.952a1 1 0 0 1 1.407-.121l6.525 5.482a1 1 0 0 1 .12 1.411l-2.489 2.952a1 1 0 0 1 -.769.355zm-5.111-6.6 4.992 4.2 1.2-1.423-4.993-4.2z"/><path d="m57.049 26.771a1 1 0 0 1 -.766-1.641l2.817-3.371a1 1 0 1 1 1.533 1.283l-2.821 3.371a1 1 0 0 1 -.763.358z"/></svg>