<svg id="Layer_1" height="512" viewBox="0 0 80 80" width="512" xmlns="http://www.w3.org/2000/svg" data-name="Layer 1"><path d="m72 61.465h-64a1 1 0 0 1 -1-1v-11.75a1 1 0 0 1 1-1 8.075 8.075 0 1 0 0-16.15 1 1 0 0 1 -1-1v-11.03a1 1 0 0 1 1-1h64a1 1 0 0 1 1 1v11.03a1 1 0 0 1 -1 1 8.075 8.075 0 1 0 0 16.15 1 1 0 0 1 1 1v11.75a1 1 0 0 1 -1 1zm-63-2h62v-9.8a10.075 10.075 0 0 1 0-20.052v-9.078h-62v9.079a10.075 10.075 0 0 1 0 20.052z"/><path d="m47.7 50.785h-24.213a1 1 0 0 1 -1-1v-20.625a1 1 0 0 1 1-1h24.213a1 1 0 0 1 1 1v20.625a1 1 0 0 1 -1 1zm-23.208-2h22.208v-18.625h-22.213z"/><path d="m40.945 37.785h-10.708a1 1 0 1 1 0-2h10.708a1 1 0 0 1 0 2z"/><path d="m40.945 43.16h-10.708a1 1 0 1 1 0-2h10.708a1 1 0 0 1 0 2z"/><path d="m55.32 24.843a1 1 0 0 1 -1-1v-4.308a1 1 0 0 1 2 0v4.308a1 1 0 0 1 -1 1z"/><path d="m55.32 34a1 1 0 0 1 -1-1v-4.31a1 1 0 0 1 2 0v4.31a1 1 0 0 1 -1 1z"/><path d="m55.32 43.154a1 1 0 0 1 -1-1v-4.308a1 1 0 0 1 2 0v4.308a1 1 0 0 1 -1 1z"/><path d="m55.32 52.31a1 1 0 0 1 -1-1v-4.31a1 1 0 0 1 2 0v4.31a1 1 0 0 1 -1 1z"/><path d="m55.32 61.465a1 1 0 0 1 -1-1v-4.308a1 1 0 0 1 2 0v4.308a1 1 0 0 1 -1 1z"/></svg>