<svg id="Layer_1" height="512" viewBox="0 0 80 80" width="512" xmlns="http://www.w3.org/2000/svg" data-name="Layer 1"><path d="m57.7 49.831h-18.493a1 1 0 0 1 -.774-.367l-15.411-18.87a1 1 0 0 1 .775-1.633h23.92a1 1 0 0 1 .83.442l11.563 15.653a1 1 0 1 1 -1.61 1.189l-11.3-15.284h-21.3l13.777 16.87h18.023a1 1 0 0 1 0 2z"/><path d="m61.644 60.188a11.357 11.357 0 1 1 11.356-11.357 11.37 11.37 0 0 1 -11.356 11.357zm0-20.713a9.357 9.357 0 1 0 9.356 9.356 9.367 9.367 0 0 0 -9.356-9.356z"/><path d="m18.356 60.188a11.357 11.357 0 1 1 11.357-11.357 11.369 11.369 0 0 1 -11.357 11.357zm0-20.713a9.357 9.357 0 1 0 9.357 9.356 9.366 9.366 0 0 0 -9.357-9.356z"/><path d="m18.357 49.831a1.061 1.061 0 0 1 -.265-.035 1 1 0 0 1 -.7-1.229l6.608-24.134a1 1 0 0 1 .965-.737h6.1a1 1 0 0 1 0 2h-5.34l-6.404 23.404a1 1 0 0 1 -.964.731z"/><path d="m18.356 53.777a4.947 4.947 0 1 1 4.944-4.946 4.951 4.951 0 0 1 -4.944 4.946zm0-7.893a2.947 2.947 0 1 0 2.944 2.947 2.949 2.949 0 0 0 -2.944-2.947z"/><path d="m61.644 53.777a4.947 4.947 0 1 1 4.946-4.946 4.952 4.952 0 0 1 -4.946 4.946zm0-7.893a2.947 2.947 0 1 0 2.946 2.947 2.95 2.95 0 0 0 -2.946-2.947z"/><path d="m39.205 49.831a.982.982 0 0 1 -.414-.09 1 1 0 0 1 -.5-1.324l10.268-22.563a1 1 0 1 1 1.82.829l-10.264 22.562a1 1 0 0 1 -.91.586z"/><path d="m52.1 27.269h-5.035a3.729 3.729 0 0 1 0-7.457h5.035a3.729 3.729 0 0 1 0 7.457zm-5.039-5.457a1.729 1.729 0 0 0 0 3.457h5.039a1.729 1.729 0 0 0 0-3.457z"/></svg>