<svg id="Layer_1" height="512" viewBox="0 0 80 80" width="512" xmlns="http://www.w3.org/2000/svg" data-name="Layer 1"><path d="m63.677 37.735h-47.354a1 1 0 0 1 -.98-1.194l3.8-19.159a.333.333 0 0 1 .011-.053 5.5 5.5 0 0 1 5.336-4.145h31.018a5.5 5.5 0 0 1 5.337 4.145l3.812 19.212a1 1 0 0 1 -.98 1.194zm-46.136-2h44.918l-3.559-17.964a3.5 3.5 0 0 0 -3.388-2.587h-31.021a3.5 3.5 0 0 0 -3.391 2.616z"/><path d="m68.152 53.644h-56.3a1 1 0 0 1 -1-1v-12.293a4.621 4.621 0 0 1 4.615-4.616h49.07a4.621 4.621 0 0 1 4.615 4.616v12.293a1 1 0 0 1 -1 1zm-55.3-2h54.3v-11.293a2.618 2.618 0 0 0 -2.615-2.616h-49.074a2.618 2.618 0 0 0 -2.615 2.616z"/><path d="m57.59 49.348a4.659 4.659 0 1 1 4.658-4.659 4.663 4.663 0 0 1 -4.658 4.659zm0-7.317a2.659 2.659 0 1 0 2.658 2.658 2.661 2.661 0 0 0 -2.658-2.658z"/><path d="m22.41 49.348a4.659 4.659 0 1 1 4.658-4.659 4.664 4.664 0 0 1 -4.658 4.659zm0-7.317a2.659 2.659 0 1 0 2.658 2.658 2.661 2.661 0 0 0 -2.658-2.658z"/><path d="m60.322 20.691h-40.644a1 1 0 0 1 0-2h40.644a1 1 0 0 1 0 2z"/><path d="m62.256 66.816h-7.785a2.527 2.527 0 0 1 -2.365-2.657v-6.053a1 1 0 0 1 1-1h10.513a1 1 0 0 1 1 1v6.053a2.526 2.526 0 0 1 -2.363 2.657zm-8.15-7.71v5.053c0 .4.22.657.365.657h7.785c.144 0 .363-.261.363-.657v-5.053z"/><path d="m25.529 66.816h-7.785a2.526 2.526 0 0 1 -2.363-2.657v-6.053a1 1 0 0 1 1-1h10.513a1 1 0 0 1 1 1v6.053a2.527 2.527 0 0 1 -2.365 2.657zm-8.148-7.71v5.053c0 .4.219.657.363.657h7.785c.145 0 .365-.261.365-.657v-5.053z"/><path d="m69.269 59.106h-58.538a3.731 3.731 0 1 1 0-7.462h58.538a3.731 3.731 0 0 1 0 7.462zm-58.538-5.462a1.731 1.731 0 1 0 0 3.462h58.538a1.731 1.731 0 0 0 0-3.462z"/></svg>