<svg id="Layer_1" height="512" viewBox="0 0 80 80" width="512" xmlns="http://www.w3.org/2000/svg" data-name="Layer 1"><path d="m60 63.54h-52a1 1 0 0 1 -1-1v-18.724a1 1 0 0 1 1-1h64a1 1 0 0 1 .842 1.54l-12 18.724a1 1 0 0 1 -.842.46zm-51-2h50.453l10.718-16.724h-61.171z"/><path d="m51.645 58.746a5.471 5.471 0 1 1 5.47-5.471 5.477 5.477 0 0 1 -5.47 5.471zm0-8.941a3.471 3.471 0 1 0 3.47 3.47 3.474 3.474 0 0 0 -3.47-3.47z"/><path d="m36.731 58.746a5.471 5.471 0 1 1 5.469-5.471 5.477 5.477 0 0 1 -5.469 5.471zm0-8.941a3.471 3.471 0 1 0 3.471 3.47 3.474 3.474 0 0 0 -3.471-3.47z"/><path d="m45.49 44.816h-32.1a1 1 0 0 1 -1-1v-13.946a1 1 0 0 1 1-1h25.71a1 1 0 0 1 1 1v5.974h5.39a1 1 0 0 1 1 1v6.972a1 1 0 0 1 -1 1zm-31.1-2h30.1v-4.972h-5.39a1 1 0 0 1 -1-1v-5.974h-23.714z"/><path d="m31.154 40.222a3.379 3.379 0 1 1 3.378-3.378 3.383 3.383 0 0 1 -3.378 3.378zm0-4.757a1.379 1.379 0 1 0 1.378 1.379 1.38 1.38 0 0 0 -1.378-1.379z"/><path d="m21.712 40.222a3.379 3.379 0 1 1 3.378-3.378 3.383 3.383 0 0 1 -3.378 3.378zm0-4.757a1.379 1.379 0 1 0 1.378 1.379 1.38 1.38 0 0 0 -1.378-1.379z"/><path d="m66.443 44.816h-13.677a1 1 0 0 1 -1-1v-7.785a1 1 0 0 1 1-1h13.677a1 1 0 0 1 1 1v7.785a1 1 0 0 1 -1 1zm-12.677-2h11.677v-5.785h-11.677z"/><path d="m62.826 37.031h-6.443a1 1 0 0 1 -1-1v-18.571a1 1 0 0 1 1-1h6.443a1 1 0 0 1 1 1v18.571a1 1 0 0 1 -1 1zm-5.443-2h4.443v-16.571h-4.443z"/></svg>