<svg id="Layer_1" height="512" viewBox="0 0 80 80" width="512" xmlns="http://www.w3.org/2000/svg" data-name="Layer 1"><path d="m63.807 73h-45.2a6.269 6.269 0 0 1 -6.262-6.262v-42.91a1 1 0 0 1 .293-.707l13.07-13.066a1 1 0 0 1 .707-.293h37.392a6.269 6.269 0 0 1 6.262 6.262v50.714a6.269 6.269 0 0 1 -6.262 6.262zm-49.458-48.758v42.5a4.267 4.267 0 0 0 4.262 4.258h45.2a4.267 4.267 0 0 0 4.262-4.262v-50.714a4.267 4.267 0 0 0 -4.262-4.262h-36.982z"/><path d="m13.274 24.9a1 1 0 0 1 -.707-1.707l.075-.075a1 1 0 1 1 1.414 1.414l-.075.075a1 1 0 0 1 -.707.293z"/><path d="m14.935 23.236a1 1 0 0 1 -.707-.293l-3.4-3.4a3.05 3.05 0 0 1 0-4.307l7.34-7.34a3.049 3.049 0 0 1 4.307 0l3.4 3.4a1 1 0 0 1 0 1.414l-10.233 10.233a1 1 0 0 1 -.707.293zm-2.7-5.111 2.7 2.7 8.818-8.825-2.7-2.7a1.074 1.074 0 0 0 -1.479 0l-7.34 7.34a1.047 1.047 0 0 0 0 1.479z"/><path d="m62.687 34.939a1 1 0 0 1 -.7-.29l-16.673-16.539a1 1 0 0 1 .7-1.71h14.036a3.642 3.642 0 0 1 3.637 3.637v13.9a1 1 0 0 1 -1 1zm-14.24-16.539 13.24 13.138v-11.5a1.639 1.639 0 0 0 -1.637-1.638z"/><path d="m40 58.226a7.842 7.842 0 0 1 -7.833-7.833c0-3.944 6.268-14.2 6.983-15.359a1.039 1.039 0 0 1 1.7 0c.715 1.156 6.983 11.415 6.983 15.359a7.842 7.842 0 0 1 -7.833 7.833zm0-20.726c-2.172 3.681-5.833 10.4-5.833 12.9a5.834 5.834 0 0 0 11.667 0c0-2.5-3.661-9.222-5.834-12.9z"/></svg>