<?xml version="1.0" encoding="UTF-8"?>
<svg xmlns="http://www.w3.org/2000/svg" id="Layer_1" data-name="Layer 1" viewBox="0 0 80 80" width="512" height="512"><path d="M34.116,59.657l-.083,0A12.869,12.869,0,0,1,22.3,46.9V33.137a8.269,8.269,0,0,1,8.26-8.26h19.02a8.269,8.269,0,0,1,8.26,8.26V46.9A12.719,12.719,0,0,1,46.172,59.643,1,1,0,1,1,46,57.651,10.731,10.731,0,0,0,55.835,46.9V33.137a6.267,6.267,0,0,0-6.26-6.26H30.555a6.267,6.267,0,0,0-6.26,6.26V46.9a10.857,10.857,0,0,0,9.9,10.764,1,1,0,0,1-.081,2Z"/><path d="M40.1,73a6.991,6.991,0,0,1-6.983-6.983V51.239a6.983,6.983,0,0,1,13.966,0V66.017A6.991,6.991,0,0,1,40.1,73Zm0-26.744a4.988,4.988,0,0,0-4.983,4.983V66.017a4.983,4.983,0,0,0,9.966,0V51.239A4.988,4.988,0,0,0,40.1,46.256Z"/><path d="M46.417,34.9H33.784a1,1,0,0,1,0-2H46.417a1,1,0,0,1,0,2Z"/><path d="M46.417,39.834H33.784a1,1,0,1,1,0-2H46.417a1,1,0,0,1,0,2Z"/><path d="M40,21.8a4.862,4.862,0,1,1,4.862-4.862A4.867,4.867,0,0,1,40,21.8Zm0-7.723a2.862,2.862,0,1,0,2.862,2.861A2.864,2.864,0,0,0,40,14.077Z"/><path d="M40,26.877a9.939,9.939,0,1,1,9.939-9.939A9.95,9.95,0,0,1,40,26.877ZM40,9a7.939,7.939,0,1,0,7.939,7.938A7.947,7.947,0,0,0,40,9Z"/><path d="M57.725,20.937h-9.31a1,1,0,0,1,0-2h9.31a1.752,1.752,0,0,0,1.75-1.75,1.733,1.733,0,0,0-1.75-1.75h-9.15a1,1,0,0,1,0-2h9.15a3.75,3.75,0,0,1,0,7.5Z"/><path d="M31.585,20.937h-9.31a3.75,3.75,0,1,1,0-7.5h9.15a1,1,0,0,1,0,2h-9.15a1.75,1.75,0,0,0,0,3.5h9.31a1,1,0,0,1,0,2Z"/></svg>
