<svg id="Layer_1" height="512" viewBox="0 0 80 80" width="512" xmlns="http://www.w3.org/2000/svg" data-name="Layer 1"><path d="m37.671 53.771h-29.671a1 1 0 0 1 -1-1.036c.007-.17.762-17 14.656-21.54a20.65 20.65 0 0 1 6.477-.928h13.7a3.779 3.779 0 0 1 3.761 3.7l.2 11.674a8.128 8.128 0 0 1 -8.123 8.13zm-28.583-2h28.583a6.122 6.122 0 0 0 6.115-6.115l-.195-11.656a1.768 1.768 0 0 0 -1.761-1.733h-13.7a18.671 18.671 0 0 0 -5.855.83c-10.667 3.488-12.786 15.124-13.187 18.674z"/><path d="m44.774 45.974a1 1 0 0 1 -1-.984l-.145-8.705a1 1 0 0 1 .288-.718.993.993 0 0 1 .712-.3h22.091a1 1 0 0 1 1 1v3.613a1 1 0 0 1 -.774.974l-21.946 5.094a1.011 1.011 0 0 1 -.226.026zm.872-8.706.108 6.452 19.966-4.633v-1.819z"/><path d="m61.79 37.268a1 1 0 0 1 -.855-1.518l5.137-8.479a1 1 0 0 1 .855-.481h5.073a1 1 0 0 1 .849 1.528l-5.281 8.482a1 1 0 1 1 -1.7-1.058l4.332-6.952h-2.709l-4.845 8a1 1 0 0 1 -.856.478z"/><path d="m66.167 47.39a1 1 0 0 1 -.828-.439l-3.739-5.513a1 1 0 1 1 1.655-1.122l3.4 5.016 2.345-.25-3.108-4.644a1 1 0 1 1 1.662-1.113l4.028 6.019a1 1 0 0 1 -.725 1.55l-4.579.49a.955.955 0 0 1 -.111.006z"/><path d="m35.725 61.938h-19.4a1 1 0 0 1 -1-1v-8.167a1 1 0 0 1 1-1h19.4a1 1 0 0 1 1 1v8.167a1 1 0 0 1 -1 1zm-18.4-2h17.4v-6.167h-17.4z"/><path d="m41.787 61.938h-25.46a14.646 14.646 0 0 1 -9-3.447 1 1 0 0 1 1.341-1.491 12.813 12.813 0 0 0 7.659 2.934h25.46a1 1 0 0 1 0 2z"/><path d="m27.408 48.187h-18.468a1 1 0 1 1 0-2h17.468v-9.25h-10.978a1 1 0 0 1 0-2h11.978a1 1 0 0 1 1 1v11.25a1 1 0 0 1 -1 1z"/><path d="m36.887 32.267h-7.333a1 1 0 0 1 -1-1v-3.955a1 1 0 0 1 1-1h7.333a1 1 0 0 1 1 1v3.955a1 1 0 0 1 -1 1zm-6.333-2h5.333v-1.955h-5.333z"/><path d="m33.22 28.312a1 1 0 0 1 -1-1v-8.25a1 1 0 1 1 2 0v8.25a1 1 0 0 1 -1 1z"/><path d="m47.845 20.062h-29.245a1 1 0 0 1 0-2h29.25a1 1 0 0 1 0 2z"/></svg>