<svg id="Layer_1" height="512" viewBox="0 0 80 80" width="512" xmlns="http://www.w3.org/2000/svg" data-name="Layer 1"><path d="m69.35 50.6h-4.88a1 1 0 0 1 0-2h4.88a1.652 1.652 0 0 0 1.65-1.655v-9.845a1.656 1.656 0 0 0 -1.65-1.66h-52.15a8.209 8.209 0 0 0 -8.2 8.2v1.94a3.028 3.028 0 0 0 3.03 3.02h3.5a1 1 0 1 1 0 2h-3.5a5.031 5.031 0 0 1 -5.03-5.025v-1.94a10.211 10.211 0 0 1 10.2-10.2h52.15a3.66 3.66 0 0 1 3.65 3.665v9.85a3.654 3.654 0 0 1 -3.65 3.65z"/><path d="m50.82 50.6h-21.64a1 1 0 0 1 0-2h21.64a1 1 0 0 1 0 2z"/><path d="m68.527 35.435h-44.759a1 1 0 0 1 -.6-1.8l14.7-10.86a1 1 0 0 1 .6-.2h12.355a1 1 0 0 1 .523.147l17.7 10.861a1 1 0 0 1 -.523 1.853zm-41.723-2h38.181l-14.444-8.861h-11.747z"/><path d="m54.014 35.435a1 1 0 0 1 -1-1v-8.9a1 1 0 0 1 2 0v8.9a1 1 0 0 1 -1 1z"/><path d="m43.141 35.435a1 1 0 0 1 -1-1v-10.861a1 1 0 0 1 2 0v10.861a1 1 0 0 1 -1 1z"/><path d="m57.646 57.426a7.827 7.827 0 1 1 7.827-7.826 7.835 7.835 0 0 1 -7.827 7.826zm0-13.654a5.827 5.827 0 1 0 5.827 5.828 5.834 5.834 0 0 0 -5.827-5.828z"/><path d="m57.646 53.791a4.192 4.192 0 1 1 4.192-4.191 4.2 4.2 0 0 1 -4.192 4.191zm0-6.383a2.192 2.192 0 1 0 2.192 2.192 2.194 2.194 0 0 0 -2.192-2.192z"/><path d="m22.356 57.426a7.827 7.827 0 1 1 7.828-7.826 7.836 7.836 0 0 1 -7.828 7.826zm0-13.654a5.827 5.827 0 1 0 5.828 5.828 5.835 5.835 0 0 0 -5.828-5.828z"/><path d="m22.356 53.791a4.192 4.192 0 1 1 4.192-4.191 4.2 4.2 0 0 1 -4.192 4.191zm0-6.383a2.192 2.192 0 1 0 2.192 2.192 2.194 2.194 0 0 0 -2.192-2.192z"/><path d="m11.634 43.374h-3.545a1 1 0 1 1 0-2h3.545a.915.915 0 0 0 .915-.915v-5.275a1 1 0 0 1 2 0v5.275a2.919 2.919 0 0 1 -2.915 2.915z"/></svg>