<svg id="Layer_1" height="512" viewBox="0 0 80 80" width="512" xmlns="http://www.w3.org/2000/svg" data-name="Layer 1"><path d="m13.654 39.215a1.066 1.066 0 0 1 -.149-.01 1 1 0 0 1 -.842-1.137l3.624-24.424a1 1 0 1 1 1.979.294l-3.624 24.424a1 1 0 0 1 -.988.853z"/><path d="m23.6 66.834a16.6 16.6 0 1 1 16.6-16.6 16.62 16.62 0 0 1 -16.6 16.6zm0-31.2a14.6 14.6 0 1 0 14.6 14.6 14.619 14.619 0 0 0 -14.6-14.603z"/><path d="m41.061 36.843a1 1 0 0 1 -.975-.78l-4.786-21.272h-25.067a1 1 0 0 1 0-2h25.867a1 1 0 0 1 .975.78l4.965 22.053a1 1 0 0 1 -.756 1.2 1.043 1.043 0 0 1 -.223.019z"/><path d="m54.819 59.7h-18.1a1.008 1.008 0 0 1 -1.009-1 .992.992 0 0 1 .991-1h18.118a1 1 0 0 1 0 2z"/><path d="m72 59.7h-3.9a1 1 0 0 1 0-2h2.9v-16.106a4.751 4.751 0 0 0 -4.746-4.746h-36.577a1.017 1.017 0 0 1 -1.019-1 .985.985 0 0 1 .982-1h36.614a6.754 6.754 0 0 1 6.746 6.746v17.106a1 1 0 0 1 -1 1z"/><path d="m61.456 67.209a7.7 7.7 0 1 1 7.7-7.7 7.7 7.7 0 0 1 -7.7 7.7zm0-13.393a5.7 5.7 0 1 0 5.7 5.7 5.7 5.7 0 0 0 -5.7-5.7z"/><path d="m64.461 42.886h-4.811a1 1 0 0 1 0-2h4.811a1 1 0 0 1 0 2z"/><path d="m64.461 49.352h-4.811a1 1 0 0 1 0-2h4.811a1 1 0 0 1 0 2z"/><path d="m60.608 36.848a1 1 0 0 1 -1-1v-9.858a3.713 3.713 0 0 0 -3.708-3.708h-1.14a1 1 0 0 1 0-2h1.14a5.715 5.715 0 0 1 5.709 5.708v9.858a1 1 0 0 1 -1.001 1z"/><path d="m38.662 25.817h-12.138a1 1 0 0 1 -1-1v-11.026a1 1 0 1 1 2 0v10.026h11.138a1 1 0 0 1 0 2z"/></svg>