<svg id="Layer_1" height="512" viewBox="0 0 80 80" width="512" xmlns="http://www.w3.org/2000/svg" data-name="Layer 1"><path d="m62.383 59.127h-44.766a3.347 3.347 0 0 1 -3.34-3.346v-45.5a3.347 3.347 0 0 1 3.34-3.347h44.766a3.347 3.347 0 0 1 3.34 3.347v45.5a3.347 3.347 0 0 1 -3.34 3.346zm-44.766-50.191a1.345 1.345 0 0 0 -1.34 1.347v45.5a1.345 1.345 0 0 0 1.34 1.346h44.766a1.345 1.345 0 0 0 1.34-1.346v-45.5a1.345 1.345 0 0 0 -1.34-1.347z"/><path d="m64.723 44.642h-49.446a1 1 0 0 1 0-2h49.446a1 1 0 0 1 0 2z"/><path d="m64.723 18.522h-49.446a1 1 0 0 1 0-2h49.446a1 1 0 0 1 0 2z"/><path d="m40 44.642a1 1 0 0 1 -1-1v-26.12a1 1 0 0 1 2 0v26.12a1 1 0 0 1 -1 1z"/><path d="m52.334 54.658a4.11 4.11 0 1 1 4.11-4.11 4.114 4.114 0 0 1 -4.11 4.11zm0-6.22a2.11 2.11 0 1 0 2.11 2.11 2.111 2.111 0 0 0 -2.11-2.11z"/><path d="m27.666 54.658a4.11 4.11 0 1 1 4.109-4.11 4.114 4.114 0 0 1 -4.109 4.11zm0-6.22a2.11 2.11 0 1 0 2.109 2.11 2.112 2.112 0 0 0 -2.109-2.11z"/><path d="m19.009 73.064a.99.99 0 0 1 -.437-.1 1 1 0 0 1 -.462-1.337l6.79-13.937a1 1 0 0 1 1.8.875l-6.791 13.935a1 1 0 0 1 -.9.564z"/><path d="m60.991 73.064a1 1 0 0 1 -.9-.563l-6.784-13.936a1 1 0 0 1 1.8-.875l6.783 13.936a1 1 0 0 1 -.462 1.337.99.99 0 0 1 -.437.101z"/><path d="m56.728 64.294h-33.456a1 1 0 0 1 0-2h33.456a1 1 0 0 1 0 2z"/><path d="m59.241 69.461h-38.477a1 1 0 1 1 0-2h38.477a1 1 0 0 1 0 2z"/></svg>