<svg id="Layer_1" height="512" viewBox="0 0 80 80" width="512" xmlns="http://www.w3.org/2000/svg" data-name="Layer 1"><path d="m40 73a1 1 0 0 1 -.771-.364c-.955-1.157-23.374-28.5-23.374-41.492a24.145 24.145 0 0 1 48.29 0c0 12.992-22.419 40.335-23.374 41.492a1 1 0 0 1 -.771.364zm0-64a22.17 22.17 0 0 0 -22.145 22.144c0 10.981 18.145 34.268 22.145 39.265 4-5 22.145-28.284 22.145-39.265a22.17 22.17 0 0 0 -22.145-22.144z"/><path d="m40 49.952c-9.673 0-17.542-8.269-17.542-18.432s7.869-18.432 17.542-18.432 17.542 8.269 17.542 18.432-7.869 18.432-17.542 18.432zm0-34.864c-8.57 0-15.542 7.371-15.542 16.432s6.972 16.432 15.542 16.432 15.542-7.371 15.542-16.432-6.972-16.432-15.542-16.432z"/><path d="m33.324 38.846a1 1 0 0 1 -.736-.324l-4.648-5.058a1 1 0 0 1 .353-1.6l1.5-.622a1 1 0 0 1 .9.064l2.362 1.4 3.845-1.606-3.2-4.218a1 1 0 0 1 .412-1.528l2.6-1.083a1.006 1.006 0 0 1 .927.083l6.061 3.918 4.575-1.9a2.927 2.927 0 1 1 2.25 5.405l-16.817 6.992a.99.99 0 0 1 -.384.077zm-2.359-5.046 2.622 2.853 16.166-6.726a.927.927 0 0 0 -.714-1.712l-5.06 2.106a1 1 0 0 1 -.927-.083l-6.06-3.918-.921.383 3.207 4.216a1 1 0 0 1 -.41 1.529l-5.514 2.3a1.006 1.006 0 0 1 -.9-.063z"/><path d="m38.482 32.525a1 1 0 1 1 .343-.061h-.007a1.007 1.007 0 0 1 -.336.061z"/></svg>