<svg id="Layer_1" height="512" viewBox="0 0 80 80" width="512" xmlns="http://www.w3.org/2000/svg" data-name="Layer 1"><path d="m72 51.458h-6.73a1 1 0 0 1 0-2h5.73v-5.04a4.045 4.045 0 0 0 -4.04-4.04h-57.15a.811.811 0 0 0 -.81.81v7.46a.81.81 0 0 0 .81.81h4.92a1 1 0 1 1 0 2h-4.92a2.813 2.813 0 0 1 -2.81-2.81v-7.46a2.814 2.814 0 0 1 2.81-2.81h57.15a6.047 6.047 0 0 1 6.04 6.04v6.04a1 1 0 0 1 -1 1z"/><path d="m52.77 51.458h-25.54a1 1 0 0 1 0-2h25.54a1 1 0 1 1 0 2z"/><path d="m60.122 40.375h-46a1 1 0 0 1 -.922-1.385l6.712-16.084a1 1 0 0 1 .923-.614h32.575a1 1 0 0 1 .923.614l6.712 16.084a1 1 0 0 1 -.923 1.385zm-44.5-2h43l-5.878-14.083h-31.244z"/><path d="m37.122 40.375a1 1 0 0 1 -1-1v-16.083a1 1 0 0 1 2 0v16.083a1 1 0 0 1 -1 1z"/><path d="m59.024 57.708a7.25 7.25 0 1 1 7.25-7.25 7.258 7.258 0 0 1 -7.25 7.25zm0-12.5a5.25 5.25 0 1 0 5.25 5.25 5.256 5.256 0 0 0 -5.25-5.25z"/><path d="m59.024 54.042a3.584 3.584 0 1 1 3.583-3.584 3.588 3.588 0 0 1 -3.583 3.584zm0-5.167a1.584 1.584 0 1 0 1.583 1.583 1.585 1.585 0 0 0 -1.583-1.583z"/><path d="m20.976 54.042a3.584 3.584 0 1 1 3.583-3.584 3.587 3.587 0 0 1 -3.583 3.584zm0-5.167a1.584 1.584 0 1 0 1.583 1.583 1.585 1.585 0 0 0 -1.583-1.583z"/><path d="m20.976 57.708a7.25 7.25 0 1 1 7.25-7.25 7.258 7.258 0 0 1 -7.25 7.25zm0-12.5a5.25 5.25 0 1 0 5.25 5.25 5.256 5.256 0 0 0 -5.25-5.25z"/></svg>