<svg id="Layer_1" height="512" viewBox="0 0 80 80" width="512" xmlns="http://www.w3.org/2000/svg" data-name="Layer 1"><path d="m59.66 73h-39.32a3.285 3.285 0 0 1 -3.24-3.322v-59.356a3.285 3.285 0 0 1 3.24-3.322h39.32a3.285 3.285 0 0 1 3.24 3.322v59.356a3.285 3.285 0 0 1 -3.24 3.322zm-39.32-64a1.283 1.283 0 0 0 -1.24 1.322v59.356a1.283 1.283 0 0 0 1.24 1.322h39.32a1.283 1.283 0 0 0 1.24-1.322v-59.356a1.283 1.283 0 0 0 -1.24-1.322z"/><path d="m61.9 19.713h-43.8a1 1 0 0 1 0-2h43.8a1 1 0 0 1 0 2z"/><path d="m61.9 61.463h-43.8a1 1 0 1 1 0-2h43.8a1 1 0 0 1 0 2z"/><path d="m48.649 14.357h-17.3a1 1 0 0 1 0-2h17.3a1 1 0 0 1 0 2z"/><path d="m44.732 66.871h-9.464a1 1 0 0 1 0-2h9.464a1 1 0 0 1 0 2z"/><path d="m40 56.343a1 1 0 0 1 -.814-.421c-.432-.606-10.559-14.912-10.559-20.891a11.373 11.373 0 1 1 22.746 0c0 5.979-10.127 20.285-10.559 20.891a1 1 0 0 1 -.814.421zm0-30.686a9.384 9.384 0 0 0 -9.373 9.374c0 4.058 6.155 13.869 9.373 18.569 3.218-4.693 9.373-14.506 9.373-18.564a9.384 9.384 0 0 0 -9.373-9.379z"/><path d="m40 42.2a7 7 0 1 1 6.691-7 6.858 6.858 0 0 1 -6.691 7zm0-12a5.008 5.008 0 1 0 4.691 5 4.856 4.856 0 0 0 -4.691-5z"/></svg>