<svg id="Layer_1" height="512" viewBox="0 0 80 80" width="512" xmlns="http://www.w3.org/2000/svg" data-name="Layer 1"><path d="m9.771 52.023a1 1 0 0 1 -1-1v-25.323a10.593 10.593 0 0 1 10.581-10.58h42.148a3.115 3.115 0 0 1 3.135 2.866 3.024 3.024 0 0 1 -2.487 3.358l-.135.025a.966.966 0 0 1 -.178.016h-35.171a2.09 2.09 0 0 0 -.952.207c-.959.486-2.554 1.859-2.474 5.6v10.84a1 1 0 0 1 -2 0v-10.827c-.1-4.809 2.192-6.7 3.57-7.4a4.067 4.067 0 0 1 1.856-.423h35.1a1.062 1.062 0 0 0 .881-1.2 1.111 1.111 0 0 0 -1.145-1.066h-42.148a8.591 8.591 0 0 0 -8.581 8.58v25.327a1 1 0 0 1 -1 1z"/><path d="m29.85 54.057a1 1 0 0 1 -1-1v-9.547a4.418 4.418 0 0 0 -4.413-4.41h-14.666a1 1 0 0 1 0-2h14.666a6.42 6.42 0 0 1 6.413 6.41v9.547a1 1 0 0 1 -1 1z"/><path d="m38.543 54.057a1 1 0 0 1 -1-1v-32.676a1 1 0 0 1 2 0v32.676a1 1 0 0 1 -1 1z"/><path d="m46.385 44.266h-7.842a1 1 0 0 1 -1-1v-4.626a1 1 0 0 1 1-1h7.842a3.313 3.313 0 0 1 0 6.626zm-6.842-2h6.842a1.313 1.313 0 0 0 0-2.626h-6.842z"/><path d="m46.385 54.057a1 1 0 0 1 -1-1v-9.791a1 1 0 0 1 2 0v9.791a1 1 0 0 1 -1 1z"/><path d="m52.686 54.057h-27.926a1 1 0 0 1 0-2h26.926v-31.672a1 1 0 1 1 2 0v32.672a1 1 0 0 1 -1 1z"/><path d="m25.519 57.6h-17.519a1 1 0 0 1 -1-1 9.672 9.672 0 0 1 9.661-9.662h.2a9.672 9.672 0 0 1 9.658 9.662 1 1 0 0 1 -1 1zm-16.454-2h15.389a7.672 7.672 0 0 0 -7.6-6.662h-.2a7.672 7.672 0 0 0 -7.589 6.662z"/><path d="m71.974 57.6h-12.988a1 1 0 0 1 -.837-1.548 28.558 28.558 0 0 0 3.851-8.846c.166-.671.306-1.368.419-2.072a1.008 1.008 0 0 1 .99-.87.992.992 0 0 1 1 .99 1.175 1.175 0 0 1 -.013.178c-.121.764-.274 1.522-.454 2.252a30.544 30.544 0 0 1 -3.17 7.92h10.228c-.078-3.164-1.753-5.347-4.991-6.5a1 1 0 1 1 .669-1.885c4.368 1.551 6.6 4.907 6.3 9.449a1 1 0 0 1 -1.004.932z"/><path d="m63.545 45.44a.991.991 0 0 1 -1-.989v-.021a.865.865 0 0 1 .011-.144 33.722 33.722 0 0 0 -.043-9.655 42.934 42.934 0 0 0 -4.4-13.752 1 1 0 1 1 1.738-.988 44.1 44.1 0 0 1 4.638 14.46 35.691 35.691 0 0 1 .044 10.208 1.007 1.007 0 0 1 -.988.881z"/><path d="m64.5 48.653a1.048 1.048 0 0 1 -.192-.018 11.651 11.651 0 0 0 -1.384-.192 1 1 0 0 1 .1-2 13.062 13.062 0 0 1 1.664.226 1 1 0 0 1 -.191 1.981z"/><path d="m63.508 35.488h-10.824a1 1 0 0 1 0-2h10.824a1 1 0 1 1 0 2z"/><path d="m58.392 39.491h-2.624a1 1 0 0 1 0-2h2.624a1 1 0 1 1 0 2z"/><path d="m67.447 49.161h-1.491a3.828 3.828 0 0 1 0-7.635h1.491a3.818 3.818 0 1 1 0 7.635zm-1.491-5.635a1.841 1.841 0 0 0 0 3.635h1.491a1.818 1.818 0 1 0 0-3.635z"/><path d="m58.982 57.6h-33.463a1 1 0 0 1 0-2h33.463a1 1 0 0 1 0 2z"/><path d="m63.756 64.884a6.076 6.076 0 0 1 -6.069-6.069v-2.215a1 1 0 0 1 1-1h10.138a1 1 0 0 1 1 1v2.214a6.076 6.076 0 0 1 -6.069 6.07zm-4.069-7.284v1.214a4.069 4.069 0 0 0 8.138 0v-1.214z"/><path d="m16.76 64.884a6.076 6.076 0 0 1 -6.069-6.069v-2.215a1 1 0 0 1 1-1h10.137a1 1 0 0 1 1 1v2.214a6.076 6.076 0 0 1 -6.068 6.07zm-4.069-7.284v1.214a4.069 4.069 0 1 0 8.137 0v-1.214z"/></svg>