<svg id="Layer_1" height="512" viewBox="0 0 80 80" width="512" xmlns="http://www.w3.org/2000/svg" data-name="Layer 1"><path d="m40 73a1 1 0 0 1 -.771-.364c-.955-1.157-23.374-28.5-23.374-41.492a24.145 24.145 0 0 1 48.29 0c0 12.992-22.419 40.335-23.374 41.492a1 1 0 0 1 -.771.364zm0-64a22.17 22.17 0 0 0 -22.145 22.144c0 10.981 18.145 34.268 22.145 39.265 4-5 22.145-28.284 22.145-39.265a22.17 22.17 0 0 0 -22.145-22.144z"/><path d="m40 49.952c-9.673 0-17.542-8.269-17.542-18.432s7.869-18.432 17.542-18.432 17.542 8.269 17.542 18.432-7.869 18.432-17.542 18.432zm0-34.864c-8.57 0-15.542 7.371-15.542 16.432s6.972 16.432 15.542 16.432 15.542-7.371 15.542-16.432-6.972-16.432-15.542-16.432z"/><path d="m47.332 40.251a5.368 5.368 0 1 1 5.368-5.367 5.372 5.372 0 0 1 -5.368 5.367zm0-8.735a3.368 3.368 0 1 0 3.368 3.368 3.372 3.372 0 0 0 -3.368-3.368z"/><path d="m32.668 40.141a5.368 5.368 0 1 1 5.367-5.369 5.375 5.375 0 0 1 -5.367 5.369zm0-8.736a3.368 3.368 0 1 0 3.367 3.367 3.372 3.372 0 0 0 -3.367-3.367z"/><path d="m40.661 35.772h-8.513a1 1 0 0 1 -1-1.084 9.032 9.032 0 0 1 5.418-7.536l-1.54-3.891a1 1 0 0 1 1.86-.737l1.524 3.853a24.917 24.917 0 0 1 7.933-1.252 1 1 0 0 1 -.046 2 23.359 23.359 0 0 0 -7.138 1.145l2.432 6.13a1 1 0 0 1 -.93 1.368zm-7.341-2h5.87l-1.866-4.713a7.312 7.312 0 0 0 -4.004 4.713z"/><path d="m33.477 25.088a1 1 0 0 1 -.816-.42 1.843 1.843 0 0 1 1.5-2.914h3.889a1 1 0 0 1 0 2h-3.632a1 1 0 0 1 -.941 1.334z"/><path d="m47.31 35.388a1 1 0 0 1 -1-.957c-.458-10.721-2.228-11.295-2.3-11.314-.288-.074-.952.566-1.284 1.118a1 1 0 0 1 -1.713-1.035c.157-.258 1.572-2.508 3.492-2.022 1.526.391 3.339 2.24 3.805 13.167a1 1 0 0 1 -.956 1.041z"/></svg>