<svg id="Layer_1" height="512" viewBox="0 0 80 80" width="512" xmlns="http://www.w3.org/2000/svg" data-name="Layer 1"><path d="m40 73a27.177 27.177 0 1 1 27.183-27.185 27.213 27.213 0 0 1 -27.183 27.185zm0-52.355a23.4 23.4 0 0 0 -2.481.124 25.179 25.179 0 1 0 4.97 0 23.666 23.666 0 0 0 -2.489-.126z"/><path d="m42.586 20.772a1 1 0 0 1 -1-1v-3.451h-3.172v3.451a1 1 0 0 1 -2 0v-4.451a1 1 0 0 1 1-1h5.172a1 1 0 0 1 1 1v4.451a1 1 0 0 1 -1 1z"/><path d="m47.354 16.321h-14.708a1 1 0 0 1 -1-1v-7.321a1 1 0 0 1 1-1h14.708a1 1 0 0 1 1 1v7.319a1 1 0 0 1 -1 1.002zm-13.708-2h12.708v-5.321h-12.708z"/><path d="m40 28.508a1 1 0 0 1 -1-1v-2.25a1 1 0 1 1 2 0v2.25a1 1 0 0 1 -1 1z"/><path d="m40 67.383a1 1 0 0 1 -1-1v-2.25a1 1 0 1 1 2 0v2.25a1 1 0 0 1 -1 1z"/><path d="m52.949 33.871a1 1 0 0 1 -.707-1.707l1.591-1.591a1 1 0 0 1 1.414 1.414l-1.591 1.591a1 1 0 0 1 -.707.293z"/><path d="m25.46 61.36a1 1 0 0 1 -.707-1.707l1.591-1.591a1 1 0 1 1 1.414 1.414l-1.591 1.591a1 1 0 0 1 -.707.293z"/><path d="m60.562 46.82h-2.25a1 1 0 0 1 0-2h2.25a1 1 0 0 1 0 2z"/><path d="m21.688 46.82h-2.25a1 1 0 1 1 0-2h2.25a1 1 0 0 1 0 2z"/><path d="m54.54 61.36a1 1 0 0 1 -.707-.293l-1.591-1.591a1 1 0 0 1 1.414-1.414l1.591 1.591a1 1 0 0 1 -.707 1.707z"/><path d="m27.051 33.871a1 1 0 0 1 -.707-.293l-1.591-1.591a1 1 0 0 1 1.414-1.414l1.591 1.591a1 1 0 0 1 -.707 1.707z"/><path d="m40 50.07a4.25 4.25 0 1 1 4.25-4.25 4.255 4.255 0 0 1 -4.25 4.25zm0-6.5a2.25 2.25 0 1 0 2.25 2.25 2.253 2.253 0 0 0 -2.25-2.25z"/><path d="m40 43.57a1 1 0 0 1 -1-1v-9.7a1 1 0 1 1 2 0v9.7a1 1 0 0 1 -1 1z"/><path d="m31.938 54.258a1 1 0 0 1 -.645-1.765l5.929-4.993a1 1 0 0 1 1.288 1.531l-5.929 4.991a.994.994 0 0 1 -.643.236z"/><path d="m63.132 26.141a.994.994 0 0 1 -.643-.235l-6.524-5.481a1 1 0 0 1 -.121-1.411l2.492-2.952a1 1 0 0 1 1.408-.121l6.524 5.482a1 1 0 0 1 .121 1.411l-2.489 2.952a1 1 0 0 1 -.768.355zm-5.113-6.6 4.993 4.194 1.2-1.423-4.993-4.2z"/><path d="m57.049 26.771a1 1 0 0 1 -.766-1.641l2.82-3.372a1 1 0 1 1 1.534 1.284l-2.82 3.371a1 1 0 0 1 -.768.358z"/><path d="m17 26.141a1 1 0 0 1 -.765-.355l-2.493-2.952a1 1 0 0 1 .121-1.411l6.525-5.482a1 1 0 0 1 1.407.121l2.493 2.952a1 1 0 0 1 -.121 1.411l-6.525 5.481a1 1 0 0 1 -.642.235zm-1.086-3.831 1.2 1.423 4.993-4.194-1.2-1.425z"/><path d="m23.079 26.771a1 1 0 0 1 -.767-.358l-2.821-3.371a1 1 0 0 1 1.534-1.284l2.821 3.372a1 1 0 0 1 -.767 1.641z"/></svg>