<svg id="Layer_1" height="512" viewBox="0 0 80 80" width="512" xmlns="http://www.w3.org/2000/svg" data-name="Layer 1"><path d="m53.99 60.485h-27.98a1 1 0 0 1 -1-1v-7.916a1 1 0 0 1 1-1h27.98a1 1 0 0 1 1 1v7.916a1 1 0 0 1 -1 1zm-26.98-2h25.98v-5.916h-25.98z"/><path d="m40 47.782a6.055 6.055 0 1 1 6.055-6.054 6.061 6.061 0 0 1 -6.055 6.054zm0-10.109a4.055 4.055 0 1 0 4.055 4.055 4.06 4.06 0 0 0 -4.055-4.055z"/><path d="m40 37.673a1 1 0 0 1 -1-1v-16.563a1 1 0 0 1 2 0v16.563a1 1 0 0 1 -1 1z"/><path d="m40 13.152a1 1 0 0 1 -1-1v-4.152a1 1 0 0 1 2 0v4.152a1 1 0 0 1 -1 1z"/><path d="m30.958 14.662a1 1 0 0 1 -.945-.676l-1.349-3.927a1 1 0 1 1 1.891-.65l1.345 3.927a1 1 0 0 1 -.945 1.326z"/><path d="m22.9 19.024a1 1 0 0 1 -.79-.385l-2.55-3.277a1 1 0 1 1 1.578-1.229l2.551 3.277a1 1 0 0 1 -.789 1.614z"/><path d="m16.686 25.769a.99.99 0 0 1 -.546-.164l-3.476-2.271a1 1 0 1 1 1.094-1.673l3.475 2.271a1 1 0 0 1 -.547 1.837z"/><path d="m13.006 34.164a.993.993 0 0 1 -.246-.031l-4.026-1.019a1 1 0 1 1 .491-1.939l4.025 1.019a1 1 0 0 1 -.244 1.97z"/><path d="m8.108 43.643a1 1 0 0 1 -.082-2l4.138-.343a1 1 0 1 1 .166 2l-4.138.343a.787.787 0 0 1 -.084 0z"/><path d="m10.7 53.855a1 1 0 0 1 -.4-1.917l3.8-1.667a1 1 0 1 1 .8 1.832l-3.8 1.668a1 1 0 0 1 -.4.084z"/><path d="m69.3 53.855a1 1 0 0 1 -.4-.084l-3.8-1.671a1 1 0 1 1 .8-1.832l3.8 1.667a1 1 0 0 1 -.4 1.917z"/><path d="m71.892 43.643a.787.787 0 0 1 -.084 0l-4.138-.343a1 1 0 0 1 -.914-1.079.989.989 0 0 1 1.08-.914l4.138.343a1 1 0 0 1 -.082 2z"/><path d="m66.994 34.164a1 1 0 0 1 -.244-1.97l4.025-1.019a1 1 0 0 1 .491 1.939l-4.026 1.019a.993.993 0 0 1 -.246.031z"/><path d="m63.314 25.769a1 1 0 0 1 -.547-1.837l3.475-2.271a1 1 0 1 1 1.094 1.673l-3.476 2.271a.99.99 0 0 1 -.546.164z"/><path d="m57.1 19.024a1 1 0 0 1 -.789-1.614l2.551-3.277a1 1 0 1 1 1.578 1.229l-2.55 3.277a1 1 0 0 1 -.79.385z"/><path d="m49.042 14.662a1 1 0 0 1 -.945-1.326l1.348-3.927a1 1 0 1 1 1.891.65l-1.349 3.927a1 1 0 0 1 -.945.676z"/><path d="m40 73a33 33 0 1 1 33-33 33.038 33.038 0 0 1 -33 33zm0-64a31 31 0 1 0 31 31 31.035 31.035 0 0 0 -31-31z"/></svg>