<svg id="Layer_1" height="512" viewBox="0 0 80 80" width="512" xmlns="http://www.w3.org/2000/svg" data-name="Layer 1"><path d="m71.956 53.62h-7.821a1 1 0 0 1 0-2h6.821v-8.99a4.03 4.03 0 0 0 -4.026-4.03h-57.078a.808.808 0 0 0 -.808.808v11.4a.808.808 0 0 0 .808.808h5.7a1 1 0 1 1 0 2h-5.7a2.811 2.811 0 0 1 -2.808-2.808v-11.4a2.811 2.811 0 0 1 2.808-2.808h57.078a6.033 6.033 0 0 1 6.026 6.026v9.99a1 1 0 0 1 -1 1.004z"/><path d="m52.442 53.62h-25.192a1 1 0 0 1 0-2h25.192a1 1 0 0 1 0 2z"/><path d="m60.1 38.6h-45.942a1 1 0 0 1 -.923-1.386l6.7-16.062a1 1 0 0 1 .923-.614h32.542a1 1 0 0 1 .922.614l6.7 16.062a1 1 0 0 1 -.922 1.386zm-44.439-2h42.939l-5.871-14.065h-31.2z"/><path d="m37.128 38.6a1 1 0 0 1 -1-1v-16.065a1 1 0 1 1 2 0v16.065a1 1 0 0 1 -1 1z"/><path d="m58.288 59.465a6.848 6.848 0 1 1 6.848-6.848 6.856 6.856 0 0 1 -6.848 6.848zm0-11.7a4.848 4.848 0 1 0 4.848 4.848 4.854 4.854 0 0 0 -4.848-4.844z"/><path d="m21.4 59.465a6.848 6.848 0 1 1 6.849-6.848 6.856 6.856 0 0 1 -6.849 6.848zm0-11.7a4.848 4.848 0 1 0 4.849 4.848 4.854 4.854 0 0 0 -4.849-4.844z"/><path d="m45.526 46.112h-3.726a2.8 2.8 0 1 1 0-5.607h3.722a2.8 2.8 0 1 1 0 5.607zm-3.726-3.607a.8.8 0 1 0 0 1.607h3.722a.8.8 0 1 0 0-1.607z"/><path d="m71.956 48.463h-3.456a1 1 0 0 1 -1-1v-5.125a1 1 0 0 1 1-1h3.459a1 1 0 0 1 1 1v5.125a1 1 0 0 1 -1.003 1zm-2.459-2h1.459v-3.125h-1.456z"/><path d="m11.5 47.769h-3.456a1 1 0 0 1 -1-1v-5.125a1 1 0 0 1 1-1h3.456a1 1 0 0 1 1 1v5.125a1 1 0 0 1 -1 1zm-2.459-2h1.459v-3.125h-1.456z"/></svg>