<svg id="Layer_1" height="512" viewBox="0 0 80 80" width="512" xmlns="http://www.w3.org/2000/svg" data-name="Layer 1"><path d="m72 67.062h-6.367a1 1 0 0 1 0-2h5.367v-3.915a3.094 3.094 0 0 0 -3.091-3.09h-46.456a.472.472 0 0 0 -.471.471v6.063a.471.471 0 0 0 .471.471h4.64a1 1 0 1 1 0 2h-4.64a2.473 2.473 0 0 1 -2.471-2.471v-6.063a2.474 2.474 0 0 1 2.471-2.471h46.455a5.1 5.1 0 0 1 5.092 5.09v4.915a1 1 0 0 1 -1 1z"/><path d="m56.117 67.062h-20.5a1 1 0 0 1 0-2h20.5a1 1 0 1 1 0 2z"/><path d="m62.347 58.051h-37.389a1 1 0 0 1 -.923-1.385l5.456-13.073a1 1 0 0 1 .923-.614h26.478a1 1 0 0 1 .922.614l5.456 13.073a1 1 0 0 1 -.923 1.385zm-35.888-2h34.387l-4.62-11.072h-25.146z"/><path d="m43.652 58.051a1 1 0 0 1 -1-1v-13.072a1 1 0 0 1 2 0v13.072a1 1 0 0 1 -1 1z"/><path d="m60.875 71.82a5.76 5.76 0 1 1 5.759-5.76 5.767 5.767 0 0 1 -5.759 5.76zm0-9.52a3.76 3.76 0 1 0 3.759 3.76 3.764 3.764 0 0 0 -3.759-3.76z"/><path d="m30.853 71.82a5.76 5.76 0 1 1 5.76-5.76 5.767 5.767 0 0 1 -5.76 5.76zm0-9.52a3.76 3.76 0 1 0 3.76 3.76 3.765 3.765 0 0 0 -3.76-3.76z"/><path d="m19.982 62.56h-.61a12.37 12.37 0 1 1 0-24.74h20.928a3.352 3.352 0 0 0 3.347-3.348 1 1 0 0 1 2 0 5.353 5.353 0 0 1 -5.347 5.348h-20.928a10.37 10.37 0 1 0 0 20.74h.61a1 1 0 0 1 0 2z"/><path d="m44.648 35.472a10.5 10.5 0 0 1 -10.485-10.485v-8.432a1 1 0 0 1 1-1h18.971a1 1 0 0 1 1 1v8.432a10.5 10.5 0 0 1 -10.486 10.485zm-8.485-17.917v7.432a8.486 8.486 0 0 0 16.971 0v-7.432z"/><path d="m49.94 17.555a1 1 0 0 1 -1-1v-7.375a1 1 0 0 1 2 0v7.375a1 1 0 0 1 -1 1z"/><path d="m39.357 17.555a1 1 0 0 1 -1-1v-7.375a1 1 0 0 1 2 0v7.375a1 1 0 0 1 -1 1z"/><path d="m44.648 30a4.49 4.49 0 1 1 4.49-4.489 4.494 4.494 0 0 1 -4.49 4.489zm0-6.979a2.49 2.49 0 1 0 2.49 2.49 2.492 2.492 0 0 0 -2.49-2.487z"/></svg>