<svg id="Layer_1" height="512" viewBox="0 0 80 80" width="512" xmlns="http://www.w3.org/2000/svg" data-name="Layer 1"><path d="m11.9 24.2-4.12-4.123a2.66 2.66 0 0 1 0-3.764l8.472-8.471a2.664 2.664 0 0 1 3.764 0l4.122 4.122-1.414 1.414-4.124-4.122a.663.663 0 0 0 -.936 0l-8.47 8.472a.66.66 0 0 0 0 .935l4.122 4.123z"/><path d="m31.325 42.519a2.654 2.654 0 0 1 -1.882-.778l-8.822-8.822 1.414-1.414 8.822 8.822a.665.665 0 0 0 .936 0l8.472-8.472a.661.661 0 0 0 0-.936l-8.822-8.819 1.414-1.414 8.822 8.822a2.662 2.662 0 0 1 0 3.765l-8.472 8.471a2.652 2.652 0 0 1 -1.882.775z"/><path d="m19.238 34.726a2.354 2.354 0 0 1 -1.674-.693l-6.784-6.785a2.367 2.367 0 0 1 0-3.347l12.926-12.925a2.421 2.421 0 0 1 3.346 0l6.785 6.785a2.367 2.367 0 0 1 0 3.345l-12.926 12.927a2.353 2.353 0 0 1 -1.673.693zm6.141-22.444a.366.366 0 0 0 -.259.107l-12.926 12.926a.368.368 0 0 0 -.107.26.364.364 0 0 0 .107.258l6.785 6.786a.31.31 0 0 0 .518 0l12.926-12.926a.368.368 0 0 0 0-.518l-6.785-6.785a.364.364 0 0 0 -.259-.108z"/><path d="m31.605 38.126a1 1 0 0 1 -.707-.293l-2.6-2.6a1 1 0 0 1 0-1.414l5.454-5.454a1 1 0 0 1 1.414 0l2.6 2.6a1 1 0 0 1 0 1.414l-5.455 5.454a1 1 0 0 1 -.706.293zm-1.183-3.6 1.183 1.183 4.041-4.04-1.184-1.183z"/><path d="m54.334 68.874a4.056 4.056 0 0 1 -2.68-1l-17.573-15.429a3.516 3.516 0 0 1 -.168-5.128l13.466-13.465a3.517 3.517 0 0 1 5.129.168l15.423 17.572a4.075 4.075 0 0 1 -.182 5.556l-10.539 10.54a4.059 4.059 0 0 1 -2.876 1.186zm-5.541-33.608-13.466 13.465a1.518 1.518 0 0 0 .072 2.211l17.574 15.423a2.072 2.072 0 0 0 2.823-.092l10.539-10.539a2.068 2.068 0 0 0 .092-2.822l-15.427-17.574a1.516 1.516 0 0 0 -2.211-.072z"/><path d="m61.83 72.938a2.551 2.551 0 0 1 -1.818-.753l-4.37-4.37a1 1 0 0 1 1.414-1.415l4.37 4.37a.575.575 0 0 0 .81 0l8.6-8.595a.577.577 0 0 0 0-.812l-4.37-4.37a1 1 0 1 1 1.414-1.414l4.37 4.37a2.576 2.576 0 0 1 0 3.64l-8.6 8.595a2.553 2.553 0 0 1 -1.82.753z"/><path d="m45.132 55.775a.993.993 0 0 1 -.623-.217l-5.5-4.381a1 1 0 0 1 -.084-1.489l10.997-10.988a1.014 1.014 0 0 1 .764-.292 1 1 0 0 1 .725.376l4.38 5.5a1 1 0 0 1 -.075 1.33l-9.877 9.877a.994.994 0 0 1 -.707.284zm-4-5.464 3.922 3.126 8.613-8.614-3.122-3.923z"/></svg>