<svg id="Layer_1" height="512" viewBox="0 0 80 80" width="512" xmlns="http://www.w3.org/2000/svg" data-name="Layer 1"><path d="m48.541 53.492h-20.348a1 1 0 0 1 0-2h20.348a1 1 0 0 1 0 2z"/><path d="m13.332 53.555a6.561 6.561 0 0 1 -4.476-1.467 5.038 5.038 0 0 1 -1.656-3.406c-1.016-8.769 2.1-23.258 2.23-23.87a5.24 5.24 0 0 1 5.07-4.064l41.715.094c2.509-.073 3.515 1.144 3.757 1.511l10.74 14.111c1.968 1.736 1.922 4.655 1.858 5.536a12.424 12.424 0 0 1 -.036 6.471 5.617 5.617 0 0 1 -4.733 5.02h-7.862a1 1 0 0 1 0-2h7.71c.393-.055 2.478-.483 2.917-3.387a.961.961 0 0 1 .029-.129 10.424 10.424 0 0 0 .022-5.507 1 1 0 0 1 -.055-.468c0-.025.319-2.788-1.219-4.075a1.035 1.035 0 0 1 -.155-.162l-10.83-14.232a1.04 1.04 0 0 1 -.077-.118s-.459-.637-2.03-.571l-41.733-.094a3.305 3.305 0 0 0 -3.135 2.481c-.033.154-3.176 14.786-2.192 23.317a3.022 3.022 0 0 0 1.015 2.065c.9.778 2.313 1.075 4.214.886l2.374-.005a1 1 0 1 1 0 2h-2.274a11.664 11.664 0 0 1 -1.188.063z"/><path d="m71.514 49.471h-4.643a2.641 2.641 0 0 1 -2.639-2.638v-2.815a2.642 2.642 0 0 1 2.639-2.639h4.765a1 1 0 0 1 0 2h-4.765a.64.64 0 0 0 -.639.639v2.815a.639.639 0 0 0 .639.638h4.643a1 1 0 0 1 0 2z"/><path d="m48.9 40.1h-3.356a1 1 0 0 1 0-2h3.356a1 1 0 1 1 0 2z"/><path d="m54.245 55.853a3.3 3.3 0 1 1 3.3-3.3 3.3 3.3 0 0 1 -3.3 3.3zm0-4.6a1.3 1.3 0 1 0 1.3 1.3 1.3 1.3 0 0 0 -1.3-1.302z"/><path d="m22.5 55.853a3.3 3.3 0 1 1 3.3-3.3 3.3 3.3 0 0 1 -3.3 3.3zm0-4.6a1.3 1.3 0 1 0 1.3 1.3 1.3 1.3 0 0 0 -1.3-1.302z"/><path d="m54.245 59.252a6.7 6.7 0 1 1 6.7-6.7 6.708 6.708 0 0 1 -6.7 6.7zm0-11.4a4.7 4.7 0 1 0 4.7 4.7 4.707 4.707 0 0 0 -4.7-4.701z"/><path d="m22.5 59.252a6.7 6.7 0 1 1 6.7-6.7 6.708 6.708 0 0 1 -6.7 6.7zm0-11.4a4.7 4.7 0 1 0 4.7 4.7 4.707 4.707 0 0 0 -4.7-4.701z"/><path d="m68.318 35.964h-50.355a2.861 2.861 0 0 1 -2.83-3.291l1.676-11.073a1 1 0 1 1 1.977.3l-1.676 11.072a.864.864 0 0 0 .853.992h50.355a1 1 0 0 1 0 2z"/><path d="m50.416 35.965a1 1 0 0 1 -.955-.7l-4.083-13.148a1 1 0 0 1 1.911-.594l4.083 13.144a1 1 0 0 1 -.659 1.252.988.988 0 0 1 -.297.046z"/><path d="m32.833 35.964a1 1 0 0 1 -1-1v-13.211a1 1 0 0 1 2 0v13.211a1 1 0 0 1 -1 1z"/><path d="m12.79 46.9h-4.78a1 1 0 1 1 0-2h3.78v-6.75h-3.33a1 1 0 0 1 0-2h4.33a1 1 0 0 1 1 1v8.75a1 1 0 0 1 -1 1z"/><path d="m12.79 42.524h-4.69a1 1 0 0 1 0-2h4.69a1 1 0 0 1 0 2z"/></svg>