<svg id="Layer_1" height="512" viewBox="0 0 80 80" width="512" xmlns="http://www.w3.org/2000/svg" data-name="Layer 1"><path d="m66.087 73.183h-10.221a2.792 2.792 0 0 1 -2.791-2.783v-6.533a1 1 0 0 1 1-1h13.8a1 1 0 0 1 1 1v6.533a2.792 2.792 0 0 1 -2.788 2.783zm-11.012-8.316v5.533a.79.79 0 0 0 .791.787h10.221a.79.79 0 0 0 .791-.787v-5.533z"/><path d="m24.134 73.183h-10.221a2.792 2.792 0 0 1 -2.791-2.783v-6.533a1 1 0 0 1 1-1h13.8a1 1 0 0 1 1 1v6.533a2.792 2.792 0 0 1 -2.788 2.783zm-11.012-8.316v5.533a.79.79 0 0 0 .791.787h10.221a.79.79 0 0 0 .791-.787v-5.533z"/><path d="m71.75 64.867h-63.5a1 1 0 0 1 -1-1v-10.256a1 1 0 0 1 1-1h63.5a1 1 0 0 1 1 1v10.256a1 1 0 0 1 -1 1zm-62.5-2h61.5v-8.256h-61.5z"/><path d="m67.878 54.611h-55.756a1 1 0 0 1 -.995-1.1l1.553-15.526v-.007a3.408 3.408 0 0 1 3.4-3.048h47.841a3.408 3.408 0 0 1 3.4 3.048l1.554 15.533a1 1 0 0 1 -1 1.1zm-54.651-2h53.546l-1.443-14.427a1.41 1.41 0 0 0 -1.409-1.254h-47.842a1.414 1.414 0 0 0 -1.41 1.258z"/><path d="m57.07 50.056a5.286 5.286 0 1 1 5.3-5.286 5.3 5.3 0 0 1 -5.3 5.286zm0-8.572a3.286 3.286 0 1 0 3.3 3.286 3.294 3.294 0 0 0 -3.3-3.286z"/><path d="m22.93 50.056a5.286 5.286 0 1 1 5.3-5.286 5.3 5.3 0 0 1 -5.3 5.286zm0-8.572a3.286 3.286 0 1 0 3.3 3.286 3.294 3.294 0 0 0 -3.3-3.286z"/><path d="m48.027 43.209h-16.054a1 1 0 0 1 0-2h16.054a1 1 0 0 1 0 2z"/><path d="m48.027 48.331h-16.054a1 1 0 0 1 0-2h16.054a1 1 0 0 1 0 2z"/><path d="m63.158 36.93h-46.316a1 1 0 0 1 -1-1.074l1.91-25.927v-.006a3.423 3.423 0 0 1 3.417-3.106h37.658a3.423 3.423 0 0 1 3.417 3.106l1.911 25.933a1 1 0 0 1 -1 1.074zm-45.24-2h44.164l-1.832-24.853a1.412 1.412 0 0 0 -1.423-1.26h-37.654a1.412 1.412 0 0 0 -1.423 1.263z"/><path d="m69.32 25.683h-6.953a1 1 0 0 1 0-2h5.953v-4.09a1 1 0 0 1 2 0v5.09a1 1 0 0 1 -1 1z"/><path d="m72 20.593h-5.359a1 1 0 0 1 -1-1v-6.959a1 1 0 0 1 1-1h5.359a1 1 0 0 1 1 1v6.959a1 1 0 0 1 -1 1zm-4.359-2h3.359v-4.959h-3.359z"/><path d="m17.633 25.683h-6.953a1 1 0 0 1 -1-1v-5.09a1 1 0 0 1 2 0v4.09h5.953a1 1 0 1 1 0 2z"/><path d="m13.359 20.593h-5.359a1 1 0 0 1 -1-1v-6.959a1 1 0 0 1 1-1h5.359a1 1 0 0 1 1 1v6.959a1 1 0 0 1 -1 1zm-4.359-2h3.359v-4.959h-3.359z"/><path d="m24.458 28.278a1 1 0 0 1 -.7-1.714l13.042-12.779a1 1 0 0 1 1.4 1.428l-13.042 12.78a1 1 0 0 1 -.7.285z"/><path d="m23.554 22.1a1 1 0 0 1 -.7-1.714l7.646-7.486a1 1 0 1 1 1.4 1.429l-7.647 7.491a.994.994 0 0 1 -.699.28z"/></svg>