<svg id="Layer_1" height="512" viewBox="0 0 80 80" width="512" xmlns="http://www.w3.org/2000/svg" data-name="Layer 1"><path d="m52.132 48.272h-24.619a1 1 0 1 1 0-2h24.619a1 1 0 0 1 0 2z"/><path d="m17.2 48.272h-4.74a5.5 5.5 0 0 1 -4.381-1.672 5.015 5.015 0 0 1 -1.056-3.716l1.4-8.486a1 1 0 0 1 1.079-.833c.012 0 2.995.156 9.215-3.364.284-.144 6.033-2.974 15.769-3.489.641-.029 1.293-.059 1.967-.07a23.049 23.049 0 0 1 19.016 7.986 1 1 0 1 1 -1.5 1.326 21.285 21.285 0 0 0 -17.325-7.321.856.856 0 0 1 -.112.008c-.67.009-1.318.04-1.948.069-9.28.491-14.875 3.228-14.931 3.255-4.887 2.767-7.952 3.426-9.392 3.567l-1.261 7.668a3 3 0 0 0 .6 2.112 3.654 3.654 0 0 0 2.858.965h4.742a1 1 0 1 1 0 2z"/><path d="m72.013 48.272h-9.561a1 1 0 0 1 0-2h8.517c-.195-2.2-1.2-7.439-6.4-9.4a10.1 10.1 0 0 0 -3.621-.569l-32.29.311a10.03 10.03 0 0 1 -9.141-5.564 1 1 0 1 1 1.785-.9 8.031 8.031 0 0 0 7.337 4.466l32.29-.311a12.08 12.08 0 0 1 4.345.7c7.841 2.958 7.744 11.911 7.736 12.29a1 1 0 0 1 -.997.977z"/><path d="m37.479 36.529a1 1 0 0 1 -.936-.648l-2.943-7.819a1 1 0 1 1 1.873-.705l2.939 7.82a1 1 0 0 1 -.937 1.352z"/><path d="m57.293 53.425a6.156 6.156 0 1 1 6.155-6.155 6.162 6.162 0 0 1 -6.155 6.155zm0-10.311a4.156 4.156 0 1 0 4.155 4.156 4.16 4.16 0 0 0 -4.155-4.156z"/><path d="m57.293 50.278a3.009 3.009 0 1 1 3.007-3.008 3.013 3.013 0 0 1 -3.007 3.008zm0-4.018a1.009 1.009 0 1 0 1.007 1.01 1.011 1.011 0 0 0 -1.007-1.01z"/><path d="m22.356 53.425a6.156 6.156 0 1 1 6.157-6.155 6.162 6.162 0 0 1 -6.157 6.155zm0-10.311a4.156 4.156 0 1 0 4.157 4.156 4.16 4.16 0 0 0 -4.157-4.156z"/><path d="m22.356 50.278a3.009 3.009 0 1 1 3.009-3.008 3.011 3.011 0 0 1 -3.009 3.008zm0-4.018a1.009 1.009 0 1 0 1.009 1.01 1.01 1.01 0 0 0 -1.009-1.01z"/><path d="m71.564 44.889h-4.464a1 1 0 0 1 -.984-.817l-.791-4.26a1 1 0 0 1 .984-1.183h3.387a1 1 0 0 1 0 2h-2.186l.419 2.26h3.635a1 1 0 0 1 0 2z"/><path d="m11.668 43.714h-3.61a1 1 0 0 1 0-2h2.749l.469-3.12h-2.368a1 1 0 1 1 0-2h3.529a1 1 0 0 1 .99 1.149l-.77 5.12a1 1 0 0 1 -.989.851z"/><path d="m45.021 43.277h-6.185a2.67 2.67 0 0 1 0-5.34h6.185a2.67 2.67 0 0 1 0 5.34zm-6.185-3.34a.67.67 0 0 0 0 1.34h6.185a.67.67 0 0 0 0-1.34z"/></svg>