<svg id="Layer_1" height="512" viewBox="0 0 80 80" width="512" xmlns="http://www.w3.org/2000/svg" data-name="Layer 1"><path d="m48.2 57.419h-16.169a1 1 0 1 1 0-2h16.169a1 1 0 1 1 0 2z"/><path d="m17.036 57.419h-8.92a1 1 0 0 1 -1-1v-13.11a1 1 0 0 1 1-1h34.755a1 1 0 1 1 0 2h-33.755v11.11h7.92a1 1 0 0 1 0 2z"/><path d="m72 57.419h-8.8a1 1 0 0 1 0-2h7.8v-12.113a3.122 3.122 0 0 0 -3.124-3.125h-6.439a1 1 0 0 1 -.973-.768l-3-12.592c-.837-2.71-1.558-3.157-2.953-3.157h-11.64a1 1 0 1 1 0-2h11.638c2.878 0 4 1.772 4.882 4.631l2.835 11.886h5.648a5.123 5.123 0 0 1 5.126 5.126v13.112a1 1 0 0 1 -1 1z"/><path d="m42.871 44.309a1 1 0 0 1 -1-1v-17.92a1 1 0 0 1 2 0v17.92a1 1 0 0 1 -1 1z"/><path d="m42.872 44.306h-34.872a1 1 0 0 1 -1-1v-27.225a1 1 0 0 1 1-1h34.87a1 1 0 0 1 1 1v27.225a1 1 0 0 1 -.998 1zm-33.872-2h32.87v-25.225h-32.87z"/><path d="m24.527 64.919a8.5 8.5 0 1 1 8.5-8.5 8.51 8.51 0 0 1 -8.5 8.5zm0-15a6.5 6.5 0 1 0 6.5 6.5 6.508 6.508 0 0 0 -6.5-6.5z"/><path d="m24.527 60.669a4.25 4.25 0 1 1 4.25-4.25 4.255 4.255 0 0 1 -4.25 4.25zm0-6.5a2.25 2.25 0 1 0 2.25 2.25 2.253 2.253 0 0 0 -2.25-2.25z"/><path d="m55.7 60.669a4.25 4.25 0 1 1 4.25-4.25 4.254 4.254 0 0 1 -4.25 4.25zm0-6.5a2.25 2.25 0 1 0 2.25 2.25 2.253 2.253 0 0 0 -2.25-2.25z"/><path d="m55.7 64.919a8.5 8.5 0 1 1 8.5-8.5 8.51 8.51 0 0 1 -8.5 8.5zm0-15a6.5 6.5 0 1 0 6.5 6.5 6.508 6.508 0 0 0 -6.5-6.5z"/><path d="m59.962 34.022h-11.01a1 1 0 0 1 -1-1v-10.359a1 1 0 1 1 2 0v9.359h10.01a1 1 0 0 1 0 2z"/><path d="m61.437 40.181h-18.565a1 1 0 0 1 0-2h18.565a1 1 0 0 1 0 2z"/><path d="m72 52.567h-3.961a1 1 0 0 1 -1-1v-5.208a1 1 0 0 1 1-1h3.961a1 1 0 0 1 1 1v5.208a1 1 0 0 1 -1 1zm-2.958-2h1.958v-3.208h-1.961z"/></svg>