<svg id="Layer_1" height="512" viewBox="0 0 80 80" width="512" xmlns="http://www.w3.org/2000/svg" data-name="Layer 1"><path d="m48.2 59.638h-16.169a1 1 0 0 1 0-2h16.169a1 1 0 0 1 0 2z"/><path d="m24.527 67.138a8.5 8.5 0 1 1 8.5-8.5 8.51 8.51 0 0 1 -8.5 8.5zm0-15a6.5 6.5 0 1 0 6.5 6.5 6.508 6.508 0 0 0 -6.5-6.5z"/><path d="m24.527 62.888a4.25 4.25 0 1 1 4.25-4.25 4.255 4.255 0 0 1 -4.25 4.25zm0-6.5a2.25 2.25 0 1 0 2.25 2.25 2.253 2.253 0 0 0 -2.25-2.25z"/><path d="m55.7 62.888a4.25 4.25 0 1 1 4.25-4.25 4.255 4.255 0 0 1 -4.25 4.25zm0-6.5a2.25 2.25 0 1 0 2.25 2.25 2.253 2.253 0 0 0 -2.25-2.25z"/><path d="m55.7 67.138a8.5 8.5 0 1 1 8.5-8.5 8.51 8.51 0 0 1 -8.5 8.5zm0-15a6.5 6.5 0 1 0 6.5 6.5 6.508 6.508 0 0 0 -6.5-6.5z"/><path d="m17.036 59.637-9.036-.008a1 1 0 0 1 -1-1v-11.6a1 1 0 0 1 1-1l37.1.008a1 1 0 0 1 0 2l-36.1-.009v9.6l8.039.007a1 1 0 0 1 0 2z"/><path d="m56.806 48.036h-2.313a1 1 0 1 1 0-2h2.313a1 1 0 0 1 0 2z"/><path d="m72 59.636h-8.8a1 1 0 0 1 0-2h7.8v-12.719l-4.773-2.717a1 1 0 0 1 -.458-.567l-.09-.283-4.415-11.519h-15.164v27.805h2.1a1 1 0 0 1 0 2h-3.1a1 1 0 0 1 -1-1v-29.805a1 1 0 0 1 1-1h16.851a1 1 0 0 1 .934.642l4.667 12.176 4.948 2.818a1 1 0 0 1 .5.869v14.3a1 1 0 0 1 -1 1z"/><path d="m66.722 42.327-14.273-.012a1 1 0 0 1 -1-1v-12.482a1 1 0 0 1 2 0v11.483l13.274.011a1 1 0 0 1 0 2z"/><path d="m72 54.206h-3.825a1 1 0 0 1 -1-1v-5.75a1 1 0 0 1 1-1h3.825a1 1 0 0 1 1 1v5.75a1 1 0 0 1 -1 1zm-2.827-2h1.827v-3.75h-1.825z"/><path d="m45.1 48.033h-37.1a1 1 0 0 1 -1-1v-33.171a1 1 0 0 1 1-1h52.946a1 1 0 0 1 1 1v6.907a1 1 0 0 1 -1 1h-14.846v25.264a1 1 0 0 1 -1 1zm-36.1-2h35.1v-25.264a1 1 0 0 1 1-1h14.846v-4.907h-50.946z"/><path d="m39.342 36.08h-7.75a1 1 0 0 1 -1-1v-7.75a1 1 0 0 1 1-1h7.75a1 1 0 0 1 1 1v7.75a1 1 0 0 1 -1 1zm-6.75-2h5.75v-5.75h-5.75z"/><path d="m21.509 36.08h-7.75a1 1 0 0 1 -1-1v-7.75a1 1 0 0 1 1-1h7.75a1 1 0 0 1 1 1v7.75a1 1 0 0 1 -1 1zm-6.75-2h5.75v-5.75h-5.75z"/></svg>