<svg id="Layer_1" height="512" viewBox="0 0 80 80" width="512" xmlns="http://www.w3.org/2000/svg" data-name="Layer 1"><path d="m67.943 34a.968.968 0 0 1 -.256-.034l-10.796-2.866a1 1 0 0 1 -.5-.309l-5-5.731a1 1 0 0 1 .112-1.424l6.136-5.136a1 1 0 0 1 1.286 0c.286.241 7.036 6 9.96 14.155a1 1 0 0 1 -.942 1.345zm-10.243-4.755 8.566 2.273a36.824 36.824 0 0 0 -8.011-10.918l-4.681 3.918z"/><path d="m53.278 54.319h-24.46a1 1 0 1 1 0-2h23.4a7.644 7.644 0 0 1 4.729-7.584l.363-.146c.552-.224 1.106-.447 1.65-.691l4.513-2.02 6.346-2.692a22.757 22.757 0 0 0 -2.7-5.639 1 1 0 0 1 1.67-1.1c.117.176 2.836 4.333 3.157 7.237a1 1 0 0 1 -.6 1.03l-7.065 3-4.5 2.013c-.566.253-1.141.486-1.716.719l-.36.145c-1.484.6-3.9 2.264-3.423 6.622a1 1 0 0 1 -.994 1.109z"/><path d="m34.99 49.646h-6.975a1 1 0 0 1 0-2h4.771l-4.286-4.882c-6.974-.743-20.534-11.388-21.119-11.849a1 1 0 0 1 .619-1.786h13.893a1 1 0 0 1 .68.267l4.485 4.163 19.378 3.283 10.116-7.515a1 1 0 1 1 1.193 1.6l-10.459 7.773a1 1 0 0 1 -.764.183l-20.093-3.4a1 1 0 0 1 -.514-.253l-4.415-4.1h-10.518c4.3 3.166 13.4 9.454 18.052 9.671a.994.994 0 0 1 .7.339l6.005 6.848a1 1 0 0 1 -.753 1.659z"/><path d="m20.768 61.394a9.111 9.111 0 1 1 9.11-9.11 9.121 9.121 0 0 1 -9.11 9.11zm0-16.221a7.111 7.111 0 1 0 7.11 7.111 7.119 7.119 0 0 0 -7.11-7.111z"/><path d="m64.82 61.729a8.179 8.179 0 1 1 8.18-8.179 8.187 8.187 0 0 1 -8.18 8.179zm0-14.358a6.179 6.179 0 1 0 6.18 6.179 6.185 6.185 0 0 0 -6.18-6.179z"/><path d="m21.559 51.971a1 1 0 0 1 -.566-1.825l9.674-6.619a1 1 0 1 1 1.129 1.65l-9.674 6.623a1 1 0 0 1 -.563.171z"/><path d="m34.95 41.383c-2.991 0-6.226-1.926-6.813-2.291a3.85 3.85 0 0 1 -2.478-4.951 1 1 0 0 1 1.871.7c-.137.389-.434 1.7 1.422 2.418a.942.942 0 0 1 .182.092c1.109.714 4.472 2.456 6.7 1.934a2.5 2.5 0 0 0 1.649-1.208l1-1.891a1 1 0 1 1 1.769.934l-1.023 1.938a4.5 4.5 0 0 1 -2.942 2.176 5.882 5.882 0 0 1 -1.337.149z"/><path d="m35.238 36.96a.893.893 0 0 1 -.145-.011 1 1 0 0 1 -.845-1.134c.808-5.523 5.648-6.645 8.183-6.469 8.433-.717 10.082 4.379 10.148 4.6a1 1 0 0 1 -1.911.589c-.062-.181-1.365-3.8-8.142-3.187a.988.988 0 0 1 -.172 0c-.214-.017-5.379-.352-6.127 4.758a1 1 0 0 1 -.989.854z"/><path d="m64.711 53.261a1 1 0 0 1 -.811-.413l-5.38-7.431a1 1 0 1 1 1.619-1.173l5.381 7.431a1 1 0 0 1 -.809 1.586z"/></svg>