<svg id="Layer_1" height="512" viewBox="0 0 80 80" width="512" xmlns="http://www.w3.org/2000/svg" data-name="Layer 1"><path d="m64.941 73.02h-49.882a1 1 0 0 1 -1-1v-7.22a1 1 0 0 1 1-1h49.882a1 1 0 0 1 1 1v7.22a1 1 0 0 1 -1 1zm-48.882-2h47.882v-5.22h-47.882z"/><path d="m64.941 16.2h-49.882a1 1 0 0 1 -1-1v-7.22a1 1 0 0 1 1-1h49.882a1 1 0 0 1 1 1v7.22a1 1 0 0 1 -1 1zm-48.882-2h47.882v-5.22h-47.882z"/><path d="m26.445 65.8a1 1 0 0 1 -.412-1.911l30.74-13.875-17.091-7.335c-.029-.01-.056-.02-.082-.031l-19.24-8.27a1 1 0 0 1 -.081-1.8l33.749-18.258a1 1 0 1 1 .953 1.759l-31.933 17.277 17.269 7.424c.029.009.056.019.082.03l19.25 8.26a1 1 0 0 1 .017 1.831l-32.811 14.81a.993.993 0 0 1 -.41.089z"/><path d="m53.563 65.8a1 1 0 0 1 -.41-.089l-32.809-14.811a1 1 0 0 1 .016-1.831l19.24-8.259a.8.8 0 0 1 .086-.032l17.276-7.422-31.934-17.277a1 1 0 0 1 .953-1.759l33.749 18.26a1 1 0 0 1 -.081 1.8l-19.249 8.268a.8.8 0 0 1 -.086.032l-17.078 7.332 30.74 13.876a1 1 0 0 1 -.413 1.912z"/></svg>