<svg id="Layer_1" height="512" viewBox="0 0 80 80" width="512" xmlns="http://www.w3.org/2000/svg" data-name="Layer 1"><path d="m60.636 30.17a1 1 0 0 1 -1-1v-5.476a1 1 0 1 1 2 0v5.476a1 1 0 0 1 -1 1z"/><path d="m63.375 27.432h-5.475a1 1 0 0 1 0-2h5.477a1 1 0 0 1 0 2z"/><path d="m20.972 27.161h-4.347a1 1 0 0 1 0-2h4.347a1 1 0 0 1 0 2z"/><path d="m66.653 69.238h-53.306a1 1 0 0 1 -1-1v-35.426a1 1 0 0 1 1-1h53.306a1 1 0 0 1 1 1v35.426a1 1 0 0 1 -1 1zm-52.306-2h51.306v-33.426h-51.306z"/><path d="m72 33.812h-64a1 1 0 0 1 -1-1v-12.76a1 1 0 0 1 1-1h64a1 1 0 0 1 1 1v12.76a1 1 0 0 1 -1 1zm-63-2h62v-10.76h-62z"/><path d="m65.364 21.052h-10.433a1 1 0 0 1 -1-1v-4.335a1 1 0 0 1 1-1h10.433a1 1 0 0 1 1 1v4.335a1 1 0 0 1 -1 1zm-9.433-2h8.433v-2.335h-8.433z"/><path d="m62.864 16.717h-5.433a1 1 0 0 1 -1-1v-3.956a1 1 0 0 1 1-1h5.433a1 1 0 0 1 1 1v3.956a1 1 0 0 1 -1 1zm-4.433-2h3.433v-1.956h-3.433z"/><path d="m25.069 21.052h-10.433a1 1 0 0 1 -1-1v-4.335a1 1 0 0 1 1-1h10.433a1 1 0 0 1 1 1v4.335a1 1 0 0 1 -1 1zm-9.433-2h8.433v-2.335h-8.433z"/><path d="m22.569 16.717h-5.433a1 1 0 0 1 -1-1v-3.956a1 1 0 0 1 1-1h5.433a1 1 0 0 1 1 1v3.956a1 1 0 0 1 -1 1zm-4.433-2h3.433v-1.956h-3.433z"/><path d="m34.4 63.188a1 1 0 0 1 -.94-1.34l3.724-10.323h-4.929a1 1 0 0 1 -.908-1.418l5.372-11.662a1 1 0 0 1 .908-.581h8.059a1 1 0 0 1 .913 1.407l-2.684 6.007h3.83a1 1 0 0 1 .766 1.643l-13.341 15.909a1 1 0 0 1 -.77.358zm-.587-13.663h4.8a1 1 0 0 1 .941 1.34l-2.3 6.365 8.346-9.952h-3.227a1 1 0 0 1 -.914-1.408l2.685-6.006h-5.876z"/></svg>