<svg id="Layer_1" height="512" viewBox="0 0 80 80" width="512" xmlns="http://www.w3.org/2000/svg" data-name="Layer 1"><path d="m65.85 62.635h-4.771a1 1 0 0 1 0-2h4.771a.479.479 0 0 0 .489-.49v-32.545h-51.339v32.55a.485.485 0 0 0 .49.49h3.43a1 1 0 1 1 0 2h-3.43a2.493 2.493 0 0 1 -2.49-2.495v-33.545a1 1 0 0 1 1-1h53.34a1 1 0 0 1 1 1v33.55a2.492 2.492 0 0 1 -2.49 2.485z"/><path d="m48.329 62.635h-16.66a1 1 0 0 1 0-2h16.66a1 1 0 0 1 0 2z"/><path d="m71.952 49.284h-4.608a1 1 0 0 1 -1-1v-8.336a1 1 0 0 1 1-1h4.608a1 1 0 0 1 1 1v8.336a1 1 0 0 1 -1 1zm-3.608-2h2.608v-6.336h-2.608z"/><path d="m14 47.246h-5.952a1 1 0 0 1 -1-1v-4.26a1 1 0 0 1 1-1h5.952a1 1 0 0 1 1 1v4.26a1 1 0 0 1 -1 1zm-4.949-2h3.949v-2.26h-3.952z"/><path d="m8.048 51.321a1 1 0 0 1 -1-1v-12.41a1 1 0 0 1 2 0v12.41a1 1 0 0 1 -1 1z"/><path d="m62.689 27.6a1 1 0 0 1 -1-.964c-.118-3.2-3.131-5.708-6.861-5.708a8.086 8.086 0 0 0 -1.154.091 1.011 1.011 0 0 1 -.863-.3 1 1 0 0 1 -.261-.873 5.248 5.248 0 0 0 .1-.947c0-3.26-3.087-5.913-6.883-5.913a6.951 6.951 0 0 0 -6.332 3.625 1 1 0 0 1 -1.376.44 7.707 7.707 0 0 0 -3.67-.925 6.829 6.829 0 0 0 -6.567 4.153 1 1 0 0 1 -.939.657l-.367-.01c-3.736 0-6.754 2.508-6.873 5.709a1 1 0 1 1 -2-.074c.155-4.195 3.9-7.5 8.578-7.631a8.944 8.944 0 0 1 8.166-4.8 9.746 9.746 0 0 1 3.742.746 9.121 9.121 0 0 1 7.636-3.886c4.9 0 8.883 3.55 8.883 7.913v.029h.181c4.811 0 8.7 3.353 8.859 7.635a1 1 0 0 1 -.961 1.036z"/><path d="m54.705 65.108a3.469 3.469 0 1 1 3.469-3.468 3.473 3.473 0 0 1 -3.469 3.468zm0-4.938a1.469 1.469 0 1 0 1.469 1.47 1.472 1.472 0 0 0 -1.469-1.47z"/><path d="m25.3 65.108a3.469 3.469 0 1 1 3.47-3.468 3.472 3.472 0 0 1 -3.47 3.468zm0-4.938a1.469 1.469 0 1 0 1.47 1.47 1.471 1.471 0 0 0 -1.47-1.47z"/><path d="m54.705 69.015a7.376 7.376 0 1 1 7.375-7.375 7.384 7.384 0 0 1 -7.375 7.375zm0-12.751a5.376 5.376 0 1 0 5.375 5.376 5.383 5.383 0 0 0 -5.375-5.376z"/><path d="m25.3 69.015a7.376 7.376 0 1 1 7.376-7.375 7.384 7.384 0 0 1 -7.376 7.375zm0-12.751a5.376 5.376 0 1 0 5.376 5.376 5.382 5.382 0 0 0 -5.376-5.376z"/><path d="m55.167 50.7a1 1 0 0 1 -1-1v-15.5a1 1 0 0 1 2 0v15.5a1 1 0 0 1 -1 1z"/><path d="m45.056 50.7a1 1 0 0 1 -1-1v-15.5a1 1 0 0 1 2 0v15.5a1 1 0 0 1 -1 1z"/><path d="m34.944 50.7a1 1 0 0 1 -1-1v-15.5a1 1 0 0 1 2 0v15.5a1 1 0 0 1 -1 1z"/><path d="m24.833 50.7a1 1 0 0 1 -1-1v-15.5a1 1 0 0 1 2 0v15.5a1 1 0 0 1 -1 1z"/></svg>