<svg id="Layer_1" height="512" viewBox="0 0 80 80" width="512" xmlns="http://www.w3.org/2000/svg" data-name="Layer 1"><path d="m40 73a1 1 0 0 1 -.771-.364c-.955-1.157-23.374-28.5-23.374-41.492a24.145 24.145 0 0 1 48.29 0c0 12.993-22.419 40.335-23.374 41.492a1 1 0 0 1 -.771.364zm0-64a22.17 22.17 0 0 0 -22.145 22.144c0 10.984 18.145 34.269 22.145 39.265 4-5 22.145-28.284 22.145-39.265a22.17 22.17 0 0 0 -22.145-22.144z"/><path d="m40 49.951c-9.673 0-17.542-8.268-17.542-18.431s7.869-18.432 17.542-18.432 17.542 8.269 17.542 18.432-7.869 18.431-17.542 18.431zm0-34.863c-8.57 0-15.542 7.371-15.542 16.432s6.972 16.431 15.542 16.431 15.542-7.371 15.542-16.431-6.972-16.432-15.542-16.432z"/><path d="m39.995 43.923a8.73 8.73 0 0 1 -8.72-8.72 1 1 0 0 1 2 0 6.721 6.721 0 0 0 13.441 0 1 1 0 0 1 2 0 8.73 8.73 0 0 1 -8.721 8.72z"/><path d="m49.957 39.569a1 1 0 0 1 -.834-.446l-1.684-2.534-2.533 1.683a1 1 0 0 1 -1.106-1.666l3.366-2.236a1 1 0 0 1 1.387.279l2.237 3.366a1 1 0 0 1 -.832 1.554z"/><path d="m30.043 39.569a1 1 0 0 1 -.832-1.554l2.237-3.366a1 1 0 0 1 1.387-.279l3.365 2.236a1 1 0 0 1 -1.107 1.666l-2.533-1.683-1.684 2.534a1 1 0 0 1 -.833.446z"/><path d="m39.995 43.923a1 1 0 0 1 -1-1v-17.432a1 1 0 1 1 2 0v17.432a1 1 0 0 1 -1 1z"/><path d="m39.995 26.491a3.687 3.687 0 1 1 3.688-3.686 3.69 3.69 0 0 1 -3.688 3.686zm0-5.373a1.687 1.687 0 1 0 1.688 1.687 1.688 1.688 0 0 0 -1.688-1.687z"/><path d="m43.064 29.274h-6.137a1 1 0 1 1 0-2h6.137a1 1 0 0 1 0 2z"/></svg>