<svg id="Layer_1" height="512" viewBox="0 0 80 80" width="512" xmlns="http://www.w3.org/2000/svg" data-name="Layer 1"><path d="m46.562 58.712a1 1 0 0 1 -1-1v-41.781a1 1 0 0 1 1-1h22.617a1 1 0 0 1 1 1v23.7a1 1 0 0 1 -2 0v-22.7h-20.617v40.781a1 1 0 0 1 -1 1z"/><path d="m71.19 16.931h-26.706a1.725 1.725 0 0 1 -1.722-1.723v-3.4a1.724 1.724 0 0 1 1.722-1.723h26.706a1.725 1.725 0 0 1 1.724 1.723v3.4a1.725 1.725 0 0 1 -1.724 1.723zm-26.428-2h26.152v-2.842h-26.152z"/><path d="m24.474 69.911a7.494 7.494 0 1 1 7.494-7.494 7.5 7.5 0 0 1 -7.494 7.494zm0-12.988a5.494 5.494 0 1 0 5.494 5.494 5.5 5.5 0 0 0 -5.494-5.494z"/><path d="m24.3 65.961a3.37 3.37 0 1 1 3.369-3.369 3.374 3.374 0 0 1 -3.369 3.369zm0-4.739a1.37 1.37 0 1 0 1.369 1.37 1.371 1.371 0 0 0 -1.369-1.37z"/><path d="m42.1 69.911a7.494 7.494 0 1 1 7.494-7.494 7.5 7.5 0 0 1 -7.494 7.494zm0-12.988a5.494 5.494 0 1 0 5.494 5.494 5.5 5.5 0 0 0 -5.494-5.494z"/><path d="m41.92 65.961a3.37 3.37 0 1 1 3.37-3.369 3.373 3.373 0 0 1 -3.37 3.369zm0-4.739a1.37 1.37 0 1 0 1.37 1.37 1.371 1.371 0 0 0 -1.37-1.37z"/><path d="m59.165 69.911a7.494 7.494 0 1 1 7.494-7.494 7.5 7.5 0 0 1 -7.494 7.494zm0-12.988a5.494 5.494 0 1 0 5.494 5.494 5.5 5.5 0 0 0 -5.494-5.494z"/><path d="m58.99 65.961a3.37 3.37 0 1 1 3.37-3.369 3.373 3.373 0 0 1 -3.37 3.369zm0-4.739a1.37 1.37 0 1 0 1.37 1.37 1.371 1.371 0 0 0 -1.37-1.37z"/><path d="m35.6 63.417h-4.632a1 1 0 0 1 0-2h4.632a1 1 0 0 1 0 2z"/><path d="m52.67 63.417h-4.081a1 1 0 0 1 0-2h4.081a1 1 0 0 1 0 2z"/><path d="m64.024 27.246h-12.307a1 1 0 0 1 -1-1v-10.315a1 1 0 0 1 1-1h12.307a1 1 0 0 1 1 1v10.315a1 1 0 0 1 -1 1zm-11.307-2h10.307v-8.315h-10.307z"/><path d="m70.133 63.422h-4.475a1 1 0 1 1 0-2h4.475a.869.869 0 0 0 .867-.868v-19.054a.868.868 0 0 0 -.867-.867h-58.159c-3.99 6.99-3.99 13.8 0 20.787h6a1 1 0 0 1 0 2h-6.574a1 1 0 0 1 -.858-.487c-4.714-7.9-4.714-15.91 0-23.813a1 1 0 0 1 .858-.487h58.733a2.87 2.87 0 0 1 2.867 2.867v19.054a2.871 2.871 0 0 1 -2.867 2.868z"/><path d="m41.269 40.63h-8.432a1 1 0 0 1 -1-1v-4.73a1 1 0 0 1 1-1h8.432a1 1 0 0 1 1 1v4.73a1 1 0 0 1 -1 1zm-7.432-2h6.432v-2.73h-6.432z"/><path d="m24.858 40.63h-7.167a1 1 0 0 1 -.993-.878l-2.083-16.884a1 1 0 0 1 .993-1.122h11.333a1 1 0 0 1 .993 1.122l-2.083 16.884a1 1 0 0 1 -.993.878zm-6.283-2h5.4l1.835-14.884h-9.071z"/><path d="m30.212 23.746h-17.875a1 1 0 0 1 -1-1v-5.271a1 1 0 0 1 1-1h17.875a1 1 0 0 1 1 1v5.271a1 1 0 0 1 -1 1zm-16.875-2h15.875v-3.271h-15.875z"/></svg>