<svg id="Layer_1" height="512" viewBox="0 0 80 80" width="512" xmlns="http://www.w3.org/2000/svg" data-name="Layer 1"><path d="m70.253 73a1 1 0 0 1 -.984-.831l-10.978-64a1 1 0 0 1 1.972-.338l10.977 64a1 1 0 0 1 -.817 1.154.985.985 0 0 1 -.17.015z"/><path d="m9.747 73a.976.976 0 0 1 -.17-.015 1 1 0 0 1 -.817-1.154l10.977-64a1 1 0 0 1 1.972.338l-10.978 64a1 1 0 0 1 -.984.831z"/><path d="m40 14.722a1 1 0 0 1 -1-1v-5.722a1 1 0 0 1 2 0v5.722a1 1 0 0 1 -1 1z"/><path d="m40 49.692a1 1 0 0 1 -1-1v-3.592a1 1 0 1 1 2 0v3.589a1 1 0 0 1 -1 1.003z"/><path d="m40 61.345a1 1 0 0 1 -1-1v-5.722a1 1 0 1 1 2 0v5.722a1 1 0 0 1 -1 1z"/><path d="m40 73a1 1 0 0 1 -1-1v-5.722a1 1 0 0 1 2 0v5.722a1 1 0 0 1 -1 1z"/><path d="m40 46.707-.783-.986c-.984-1.24-9.606-12.257-9.606-17.636a10.389 10.389 0 0 1 20.778 0c0 5.379-8.622 16.4-9.606 17.636zm0-27.007a8.4 8.4 0 0 0 -8.389 8.389c0 3.607 5.479 11.556 8.389 15.382 2.91-3.826 8.389-11.775 8.389-15.382a8.4 8.4 0 0 0 -8.389-8.389z"/><path d="m40 34.588a6.511 6.511 0 1 1 6.51-6.511 6.518 6.518 0 0 1 -6.51 6.511zm0-11.021a4.511 4.511 0 1 0 4.51 4.51 4.516 4.516 0 0 0 -4.51-4.51z"/></svg>