<svg id="Layer_1" height="512" viewBox="0 0 80 80" width="512" xmlns="http://www.w3.org/2000/svg" data-name="Layer 1"><path d="m45.051 46.757a1 1 0 0 1 -1-1v-16.3a1 1 0 0 1 2 0v16.3a1 1 0 0 1 -1 1z"/><path d="m45.051 46.757h-37.051a1 1 0 0 1 -1-1v-9.921a1 1 0 0 1 1-1h37.051a1 1 0 0 1 1 1v9.921a1 1 0 0 1 -1 1zm-36.051-2h35.051v-7.921h-35.051z"/><path d="m21.329 62.843a7.3 7.3 0 1 1 7.3-7.305 7.315 7.315 0 0 1 -7.3 7.305zm0-12.609a5.3 5.3 0 1 0 5.3 5.3 5.31 5.31 0 0 0 -5.3-5.3z"/><path d="m21.329 58.874a3.336 3.336 0 1 1 3.335-3.336 3.339 3.339 0 0 1 -3.335 3.336zm0-4.671a1.336 1.336 0 1 0 1.335 1.335 1.338 1.338 0 0 0 -1.335-1.338z"/><path d="m58.926 63.274a7.3 7.3 0 1 1 7.3-7.3 7.312 7.312 0 0 1 -7.3 7.3zm0-12.608a5.3 5.3 0 1 0 5.3 5.3 5.31 5.31 0 0 0 -5.3-5.3z"/><path d="m58.926 59.306a3.336 3.336 0 1 1 3.336-3.336 3.339 3.339 0 0 1 -3.336 3.336zm0-4.671a1.336 1.336 0 1 0 1.336 1.335 1.335 1.335 0 0 0 -1.336-1.335z"/><path d="m72 46.757h-26.949a1 1 0 0 1 -1-1v-22.393a1 1 0 0 1 1-1h21.3a1 1 0 0 1 .911.589l5.648 12.514a.987.987 0 0 1 .089.411v9.879a1 1 0 0 1 -.999 1zm-25.948-2h24.948v-8.664l-5.293-11.729h-19.656z"/><path d="m53.541 53.709h-26.58a1 1 0 0 1 0-2h26.58a1 1 0 0 1 0 2z"/><path d="m72 53.709h-7.68a1 1 0 1 1 0-2h6.68v-4.95h-58.079v4.95h2.769a1 1 0 1 1 0 2h-3.769a1 1 0 0 1 -1-1v-6.95a1 1 0 0 1 1-1h60.079a1 1 0 0 1 1 1v6.95a1 1 0 0 1 -1 1z"/><path d="m72 41.019h-15.659a1 1 0 0 1 -1-1v-11.719a1 1 0 0 1 1-1h12.24a1 1 0 0 1 0 2h-11.24v9.72h14.659a1 1 0 0 1 0 2z"/><path d="m38 36.312h-22.954a1 1 0 0 1 -1-1v-17.586a1 1 0 0 1 1-1h22.954a1 1 0 0 1 1 1v17.586a1 1 0 0 1 -1 1zm-21.958-2h20.958v-15.586h-20.954z"/><path d="m29.671 29.6a1 1 0 0 1 -.491-.129l-3.051-1.723-3.051 1.723a1 1 0 0 1 -1.491-.871v-10.874a1 1 0 0 1 1-1h7.084a1 1 0 0 1 1 1v10.874a1 1 0 0 1 -1 1zm-3.542-4a1 1 0 0 1 .491.128l2.051 1.159v-8.161h-5.084v8.164l2.051-1.159a1 1 0 0 1 .491-.131z"/></svg>