<svg id="Layer_1" height="512" viewBox="0 0 80 80" width="512" xmlns="http://www.w3.org/2000/svg" data-name="Layer 1"><path d="m67.287 37.021h-2.651a2.72 2.72 0 0 1 -2.716-2.716v-7.369a2.719 2.719 0 0 1 2.716-2.716h2.651a2.719 2.719 0 0 1 2.713 2.716v7.369a2.72 2.72 0 0 1 -2.713 2.716zm-2.651-10.8a.717.717 0 0 0 -.716.716v7.369a.717.717 0 0 0 .716.716h2.651a.717.717 0 0 0 .713-.717v-7.369a.717.717 0 0 0 -.716-.716z"/><path d="m20.05 73h-6a3.284 3.284 0 0 1 -3.28-3.28v-5.7h12.56v5.7a3.284 3.284 0 0 1 -3.28 3.28zm-7.28-6.98v3.7a1.281 1.281 0 0 0 1.28 1.28h6a1.281 1.281 0 0 0 1.28-1.28v-3.7z"/><path d="m65.278 73h-6a3.284 3.284 0 0 1 -3.278-3.278v-5.7h12.559v5.7a3.285 3.285 0 0 1 -3.281 3.278zm-7.278-6.98v3.7a1.281 1.281 0 0 0 1.277 1.28h6a1.282 1.282 0 0 0 1.281-1.28v-3.7z"/><path d="m68.559 66.02h-57.789v-18.165a6.842 6.842 0 0 1 6.83-6.834h1.21l2.3-16.512a3.575 3.575 0 0 1 2.545-2.956 59.718 59.718 0 0 1 31.95.019 3.567 3.567 0 0 1 2.618 2.976l2.29 16.473h1.211a6.843 6.843 0 0 1 6.835 6.834zm-55.789-2h53.789v-16.165a4.84 4.84 0 0 0 -4.835-4.834h-2.952l-2.53-18.2a1.572 1.572 0 0 0 -1.142-1.315 57.748 57.748 0 0 0 -30.9-.029 1.569 1.569 0 0 0 -1.111 1.307l-2.532 18.237h-2.957a4.839 4.839 0 0 0 -4.834 4.834z"/><path d="m11.77 57.299h55.789v2h-55.789z"/><path d="m41.23 38.33a132.5 132.5 0 0 1 -20.839-1.679l.355-1.968c.207.038 20.922 3.687 37.8.007l.426 1.954a84.819 84.819 0 0 1 -17.742 1.686z"/><path d="m64.99 25.221-.03-14.891a1.327 1.327 0 0 0 -1.319-1.33h-47.281a1.343 1.343 0 0 0 -1.32 1.33v14.889h-2v-14.891a3.329 3.329 0 0 1 3.32-3.328h47.281a3.328 3.328 0 0 1 3.319 3.33l.03 14.889z"/><path d="m13.04 36.019h2v7.22h-2z"/><path d="m65.02 36.019h2v7.9h-2z" transform="matrix(1 -.003 .003 1 -.104 .172)"/><path d="m15.364 37.021h-2.651a2.72 2.72 0 0 1 -2.713-2.716v-7.369a2.719 2.719 0 0 1 2.716-2.716h2.651a2.719 2.719 0 0 1 2.716 2.716v7.369a2.72 2.72 0 0 1 -2.719 2.716zm-2.651-10.8a.717.717 0 0 0 -.716.716v7.369a.717.717 0 0 0 .716.716h2.651a.717.717 0 0 0 .716-.716v-7.37a.717.717 0 0 0 -.716-.716z"/><path d="m47.516 54.105h-15.416a2.655 2.655 0 0 1 -2.653-2.652v-7.3a2.656 2.656 0 0 1 2.653-2.653h15.416a2.656 2.656 0 0 1 2.653 2.653v7.3a2.655 2.655 0 0 1 -2.653 2.652zm-15.416-10.605a.654.654 0 0 0 -.653.653v7.3a.654.654 0 0 0 .653.652h15.416a.654.654 0 0 0 .653-.652v-7.3a.654.654 0 0 0 -.653-.653z"/><path d="m61.617 54.105h-6.176a1.884 1.884 0 0 1 -1.883-1.883v-3.534a1.884 1.884 0 0 1 1.883-1.888h6.176a1.885 1.885 0 0 1 1.883 1.888v3.534a1.885 1.885 0 0 1 -1.883 1.883zm-6.059-2h5.942v-3.305h-5.942z"/><path d="m24.174 54.105h-6.174a1.885 1.885 0 0 1 -1.884-1.883v-3.534a1.885 1.885 0 0 1 1.884-1.888h6.175a1.885 1.885 0 0 1 1.884 1.884v3.534a1.885 1.885 0 0 1 -1.885 1.887zm-6.059-2h5.943v-3.305h-5.943z"/><path d="m43.762 42.501h2v10.604h-2z"/><path d="m38.808 42.501h2v10.604h-2z"/><path d="m33.854 42.501h2v10.604h-2z"/><path d="m30.447 46.804h18.722v2h-18.722z"/></svg>