<svg id="Layer_1" height="512" viewBox="0 0 80 80" width="512" xmlns="http://www.w3.org/2000/svg" data-name="Layer 1"><path d="m13.174 39.613 3.7-13.953 33.776-1.36 7.55 13.285zm5.257-12.013-2.625 9.892 39.041-1.759-5.333-9.386zm10.05 8a2.815 2.815 0 0 1 -2.808-2.707 2.827 2.827 0 0 1 2.668-2.918l15.018-.775a2.814 2.814 0 1 1 .291 5.621l-15.019.776c-.05-.003-.1.003-.15.003zm15.026-4.4h-.044l-15.019.776a.814.814 0 1 0 .083 1.625l15.02-.776a.814.814 0 0 0 -.04-1.627z"/><path d="m57.656 55.677h-48.323a2.309 2.309 0 0 1 -2.333-2.334v-13.227a2.32 2.32 0 0 1 2.228-2.333l61.33-2.76a2.259 2.259 0 0 1 2.188 1.262l.005.01a2.327 2.327 0 0 1 -.276 2.528l-13.017 16a2.327 2.327 0 0 1 -1.802.854zm13.068-18.66h-.024l-61.388 2.764a.328.328 0 0 0 -.312.335v13.227a.323.323 0 0 0 .333.334h48.323a.329.329 0 0 0 .256-.117l13.009-16a.342.342 0 0 0 .043-.37.291.291 0 0 0 -.24-.173zm-21.234 14.739a5.728 5.728 0 0 1 -.1-11.455 5.744 5.744 0 0 1 5.835 5.619 5.735 5.735 0 0 1 -5.625 5.835zm0-9.456h-.072a3.728 3.728 0 1 0 .141 7.454 3.728 3.728 0 0 0 -.059-7.454zm-15.806 9.456a5.728 5.728 0 0 1 -.1-11.455 5.749 5.749 0 0 1 5.835 5.619 5.735 5.735 0 0 1 -5.62 5.835zm0-9.456h-.071a3.728 3.728 0 1 0 .141 7.454 3.728 3.728 0 0 0 -.07-7.455z"/></svg>