<svg id="Layer_1" height="512" viewBox="0 0 80 80" width="512" xmlns="http://www.w3.org/2000/svg" data-name="Layer 1"><path d="m52.132 48.271h-24.619a1 1 0 0 1 0-2h24.619a1 1 0 0 1 0 2z"/><path d="m17.2 48.271h-4.74a5.5 5.5 0 0 1 -4.381-1.671 5.015 5.015 0 0 1 -1.056-3.716l1.4-8.487a1 1 0 0 1 1.079-.833c.015 0 3 .156 9.215-3.363.284-.144 6.033-2.973 15.769-3.489.64-.03 1.293-.059 1.966-.07a23.049 23.049 0 0 1 19.017 7.986 1 1 0 1 1 -1.5 1.326 21.381 21.381 0 0 0 -17.327-7.321 1 1 0 0 1 -.109.008c-.67.01-1.318.039-1.949.069-9.28.49-14.875 3.228-14.93 3.256-4.888 2.766-7.953 3.425-9.393 3.566l-1.261 7.668a3 3 0 0 0 .6 2.112 3.654 3.654 0 0 0 2.858.964h4.742a1 1 0 0 1 0 2z"/><path d="m72.013 48.271h-9.561a1 1 0 0 1 0-2h8.517c-.195-2.2-1.2-7.437-6.4-9.4a9.32 9.32 0 0 0 -3.621-.568l-37.969.365h-.009a1 1 0 0 1 -.893-.549l-2.56-5.07a1 1 0 0 1 1.785-.9l2.28 4.516 37.347-.359a12 12 0 0 1 4.346.7c7.84 2.958 7.743 11.909 7.735 12.289a1 1 0 0 1 -.997.976z"/><path d="m37.479 36.528a1 1 0 0 1 -.935-.648l-2.944-7.818a1 1 0 0 1 1.872-.7l2.939 7.819a1 1 0 0 1 -.584 1.287.982.982 0 0 1 -.348.06z"/><path d="m57.293 53.425a6.156 6.156 0 1 1 6.155-6.155 6.163 6.163 0 0 1 -6.155 6.155zm0-10.312a4.156 4.156 0 1 0 4.155 4.157 4.161 4.161 0 0 0 -4.155-4.157z"/><path d="m57.293 50.278a3.009 3.009 0 1 1 3.007-3.008 3.013 3.013 0 0 1 -3.007 3.008zm0-4.017a1.009 1.009 0 1 0 1.007 1.009 1.01 1.01 0 0 0 -1.007-1.009z"/><path d="m22.356 53.425a6.156 6.156 0 1 1 6.157-6.155 6.163 6.163 0 0 1 -6.157 6.155zm0-10.312a4.156 4.156 0 1 0 4.157 4.157 4.161 4.161 0 0 0 -4.157-4.157z"/><path d="m22.356 50.278a3.009 3.009 0 1 1 3.009-3.008 3.011 3.011 0 0 1 -3.009 3.008zm0-4.017a1.009 1.009 0 1 0 1.009 1.009 1.009 1.009 0 0 0 -1.009-1.009z"/></svg>