<svg id="Layer_1" viewBox="3.109 4.125 73.703 71.75" xmlns="http://www.w3.org/2000/svg" data-name="Layer 1"><path d="m61.831 72.05h-43.662a11.169 11.169 0 0 1 0-22.338h43.662a11.169 11.169 0 1 1 0 22.338zm-43.662-20.338a9.169 9.169 0 0 0 0 18.338h43.662a9.169 9.169 0 1 0 0-18.338z"/><path d="m56.667 66.879a6 6 0 1 1 6-6 6.005 6.005 0 0 1 -6 6zm0-10a4 4 0 1 0 4 4 4 4 0 0 0 -4-3.996z"/><path d="m40 66.879a6 6 0 1 1 6-6 6.005 6.005 0 0 1 -6 6zm0-10a4 4 0 1 0 4 4 4 4 0 0 0 -4-3.996z"/><path d="m23.333 66.879a6 6 0 1 1 6-6 6.005 6.005 0 0 1 -6 6zm0-10a4 4 0 1 0 4 4 4 4 0 0 0 -4-3.996z"/><path d="m56.667 51.712h-37.417a1 1 0 0 1 -.968-1.252l3.5-13.442a4.1 4.1 0 0 1 3.967-3.067h20.836a4.085 4.085 0 0 1 3.636 2.207l7.333 14.092a1 1 0 0 1 -.887 1.462zm-36.124-2h34.476l-6.573-12.631a2.09 2.09 0 0 0 -1.861-1.13h-20.839a2.1 2.1 0 0 0 -2.031 1.57z"/><path d="m43.633 35.951h-16.1a1 1 0 0 1 -1-1v-8.551a2.847 2.847 0 0 1 2.844-2.843h12.413a2.846 2.846 0 0 1 2.843 2.843v8.552a1 1 0 0 1 -1 .999zm-15.1-2h14.1v-7.551a.844.844 0 0 0 -.843-.843h-12.417a.845.845 0 0 0 -.844.843z"/><path d="m43.637 29.822a1 1 0 0 1 -.515-1.857l16.319-9.78a1 1 0 1 1 1.029 1.715l-16.32 9.78a1 1 0 0 1 -.513.142z"/><path d="m41.8 25.552a1 1 0 0 1 -.435-1.906l15.571-9.332a1 1 0 1 1 1.028 1.715l-15.65 9.38a.991.991 0 0 1 -.514.143z"/><path d="m62.858 20.876a6.484 6.484 0 0 1 -1.582-.2 6.427 6.427 0 1 1 1.582.2zm-.018-10.924a4.459 4.459 0 1 0 3.834 2.167 4.465 4.465 0 0 0 -3.834-2.167z"/><path d="m52.566 43.832h-31.266a1 1 0 0 1 0-2h31.266a1 1 0 0 1 0 2z"/><path d="m64.577 37.336a4.755 4.755 0 0 1 -4.763-4.756 1 1 0 0 1 2 0 2.76 2.76 0 1 0 3.512-2.654 2.421 2.421 0 0 1 -1.754-2.326v-8.008a1 1 0 0 1 2 0v8.008a.417.417 0 0 0 .3.4 4.783 4.783 0 0 1 3.328 5.688 4.711 4.711 0 0 1 -3.523 3.523 4.959 4.959 0 0 1 -1.1.125z"/></svg>