<svg id="Layer_1" height="512" viewBox="0 0 80 80" width="512" xmlns="http://www.w3.org/2000/svg" data-name="Layer 1"><path d="m46.625 41h-13.25a1 1 0 0 1 0-2h13.25a1 1 0 0 1 0 2z"/><path d="m57.907 68.337a5.875 5.875 0 1 1 5.875-5.875 5.882 5.882 0 0 1 -5.875 5.875zm0-9.75a3.875 3.875 0 1 0 3.875 3.875 3.879 3.879 0 0 0 -3.875-3.875z"/><path d="m22.034 68.337a5.875 5.875 0 1 1 5.875-5.875 5.882 5.882 0 0 1 -5.875 5.875zm0-9.75a3.875 3.875 0 1 0 3.875 3.875 3.879 3.879 0 0 0 -3.875-3.875z"/><path d="m63.754 54.468h-47.54a9.21 9.21 0 0 1 -9.209-9.225l.032-18.1h1-1a9.222 9.222 0 0 1 9.209-9.194h47.54a9.21 9.21 0 0 1 9.214 9.222l-.032 18.1a9.222 9.222 0 0 1 -9.214 9.197zm-47.508-34.523a7.219 7.219 0 0 0 -7.209 7.2l-.032 18.1a7.209 7.209 0 0 0 7.209 7.221h47.54a7.219 7.219 0 0 0 7.209-7.2l.037-18.099a7.211 7.211 0 0 0 -7.209-7.222z"/><path d="m54.625 19.945h-8.5a1 1 0 0 1 -1-1v-6.282a1 1 0 0 1 1-1h8.5a1 1 0 0 1 1 1v6.282a1 1 0 0 1 -1 1zm-7.5-2h6.5v-4.282h-6.5z"/><path d="m39.6 19.945h-5.25a1 1 0 0 1 -1-1v-2.052a3.625 3.625 0 0 1 7.25 0v2.052a1 1 0 0 1 -1 1zm-4.25-2h3.25v-1.052a1.625 1.625 0 0 0 -3.25 0z"/><path d="m30.625 19.945h-5.25a1 1 0 0 1 -1-1v-2.052a3.625 3.625 0 0 1 7.25 0v2.052a1 1 0 0 1 -1 1zm-4.25-2h3.25v-1.052a1.625 1.625 0 0 0 -3.25 0z"/><path d="m39.966 54.468a1 1 0 0 1 -1-1v-34.528a1 1 0 0 1 2 0v34.528a1 1 0 0 1 -1 1z"/><path d="m55.487 54.468a1 1 0 0 1 -1-1v-34.514a1 1 0 0 1 2 0v34.514a1 1 0 0 1 -1 1z"/><path d="m55.487 25.759h-15.521a1 1 0 1 1 0-2h15.521a1 1 0 1 1 0 2z"/><path d="m55.487 33.389h-15.521a1 1 0 0 1 0-2h15.521a1 1 0 0 1 0 2z"/><path d="m55.487 41.02h-15.521a1 1 0 0 1 0-2h15.521a1 1 0 0 1 0 2z"/><path d="m55.487 48.65h-15.521a1 1 0 0 1 0-2h15.521a1 1 0 0 1 0 2z"/><path d="m53.03 63.46h-26.119a1 1 0 0 1 0-2h26.119a1 1 0 0 1 0 2z"/><path d="m17.161 63.46h-5.98a1 1 0 0 1 -1-1v-5.53a1 1 0 0 1 .342-.753l3.789-3.31a1 1 0 1 1 1.316 1.506l-3.447 3.011v4.076h4.98a1 1 0 1 1 0 2z"/><path d="m68.82 63.46h-6.04a1 1 0 0 1 0-2h5.04v-4.185l-3.4-3.062a1 1 0 1 1 1.339-1.486l3.73 3.36a1 1 0 0 1 .33.743v5.63a1 1 0 0 1 -.999 1z"/></svg>