<svg id="Layer_1" height="512" viewBox="0 0 80 80" width="512" xmlns="http://www.w3.org/2000/svg" data-name="Layer 1"><path d="m48.025 58.438h-16.17a1 1 0 0 1 0-2h16.17a1 1 0 0 1 0 2z"/><path d="m71.945 58.438h-8.92a1 1 0 1 1 0-2h7.92v-11.11h-62v11.11h7.91a1 1 0 1 1 0 2h-8.91a1 1 0 0 1 -1-1v-13.11a1 1 0 0 1 1-1h64a1 1 0 0 1 1 1v13.11a1 1 0 0 1 -1 1z"/><path d="m32.388 45.324h-24.333a1 1 0 0 1 -1-1v-9.935a1 1 0 0 1 .309-.723l9.75-9.326a1 1 0 0 1 .691-.278h14.583a1 1 0 0 1 1 1v19.262a1 1 0 0 1 -1 1zm-23.333-2h22.333v-17.262h-13.181l-9.152 8.754z"/><path d="m72.055 45.324h-39.667a1 1 0 0 1 -1-1v-29.262a1 1 0 0 1 1-1h39.667a1 1 0 0 1 1 1v29.262a1 1 0 0 1 -1 1zm-38.667-2h37.667v-27.262h-37.667z"/><path d="m55.529 65.938a8.5 8.5 0 1 1 8.5-8.5 8.51 8.51 0 0 1 -8.5 8.5zm0-15a6.5 6.5 0 1 0 6.5 6.5 6.508 6.508 0 0 0 -6.5-6.5z"/><path d="m55.529 61.688a4.25 4.25 0 1 1 4.25-4.25 4.255 4.255 0 0 1 -4.25 4.25zm0-6.5a2.25 2.25 0 1 0 2.25 2.25 2.252 2.252 0 0 0 -2.25-2.25z"/><path d="m24.356 61.688a4.25 4.25 0 1 1 4.25-4.25 4.255 4.255 0 0 1 -4.25 4.25zm0-6.5a2.25 2.25 0 1 0 2.25 2.25 2.253 2.253 0 0 0 -2.25-2.25z"/><path d="m24.356 65.938a8.5 8.5 0 1 1 8.5-8.5 8.51 8.51 0 0 1 -8.5 8.5zm0-15a6.5 6.5 0 1 0 6.5 6.5 6.508 6.508 0 0 0 -6.5-6.5z"/><path d="m64.821 29.86h-25.2a1 1 0 0 1 -1-1v-6.584a1 1 0 0 1 1-1h25.2a1 1 0 0 1 1 1v6.584a1 1 0 0 1 -1 1zm-24.2-2h23.2v-4.584h-23.2z"/><path d="m61.013 33.943h-17.583a1 1 0 1 1 0-2h17.583a1 1 0 1 1 0 2z"/><path d="m58.93 38.11h-13.417a1 1 0 1 1 0-2h13.417a1 1 0 0 1 0 2z"/><path d="m23.305 39.562h-15.25a1 1 0 0 1 0-2h14.25v-12.5a1 1 0 0 1 2 0v13.5a1 1 0 0 1 -1 1z"/></svg>