<?xml version="1.0" encoding="UTF-8" standalone="no"?>
<!-- Created with Inkscape (http://www.inkscape.org/) -->

<svg
   version="1.1"
   id="svg3330"
   xml:space="preserve"
   width="682.66669"
   height="682.66669"
   viewBox="0 0 682.66669 682.66669"
   xmlns="http://www.w3.org/2000/svg"
   xmlns:svg="http://www.w3.org/2000/svg"><defs
     id="defs3334"><clipPath
       clipPathUnits="userSpaceOnUse"
       id="clipPath3344"><path
         d="M 0,512 H 512 V 0 H 0 Z"
         id="path3342" /></clipPath></defs><g
     id="g3336"
     transform="matrix(1.3333333,0,0,-1.3333333,0,682.66667)"><g
       id="g3338"><g
         id="g3340"
         clip-path="url(#clipPath3344)"><g
           id="g3346"
           transform="translate(34.5498,125.2183)"><path
             d="M 0,0 H -13.464 C -20.967,0 -27.05,6.083 -27.05,13.586 v 26.707 c 0,7.504 6.083,13.587 13.586,13.587 H 54.351 163.08 247.44 V 0 h -30"
             style="fill:none;stroke:#000000;stroke-width:15;stroke-linecap:round;stroke-linejoin:round;stroke-miterlimit:10;stroke-dasharray:none;stroke-opacity:1"
             id="path3348" /></g><g
           id="g3350"
           transform="translate(143.2803,125.2183)"><path
             d="M 0,0 H -0.021"
             style="fill:none;stroke:#000000;stroke-width:15;stroke-linecap:round;stroke-linejoin:round;stroke-miterlimit:10;stroke-dasharray:none;stroke-opacity:1"
             id="path3352" /></g><g
           id="g3354"
           transform="translate(281.9902,125.2202)"><path
             d="m 0,0 v 316.41 h 78.7 c 13.75,0 27.36,-1.59 40.6,-4.68"
             style="fill:none;stroke:#000000;stroke-width:15;stroke-linecap:round;stroke-linejoin:round;stroke-miterlimit:10;stroke-dasharray:none;stroke-opacity:1"
             id="path3356" /></g><g
           id="g3358"
           transform="translate(429.8096,427.7202)"><path
             d="m 0,0 c 12.53,-5.25 24.5,-11.95 35.641,-20.01 l 10.41,-106.31 11.09,-11.08 c 5.95,-5.96 9.299,-14.04 9.299,-22.47 v -112.31"
             style="fill:none;stroke:#000000;stroke-width:15;stroke-linecap:round;stroke-linejoin:round;stroke-miterlimit:10;stroke-dasharray:none;stroke-opacity:1"
             id="path3360" /></g><g
           id="g3362"
           transform="translate(322.5195,380.4668)"><path
             d="m 0,0 h 28.009 c 3.137,0 5.681,-2.543 5.681,-5.682 v -67.696 c 0,-3.138 -2.544,-5.682 -5.681,-5.682 -2.299,0 -4.371,1.386 -5.25,3.51 L -5.25,-7.854 C -6.798,-4.113 -4.048,0 0,0 Z"
             style="fill:none;stroke:#000000;stroke-width:15;stroke-linecap:round;stroke-linejoin:round;stroke-miterlimit:10;stroke-dasharray:none;stroke-opacity:1"
             id="path3364" /></g><g
           id="g3366"
           transform="translate(439.4541,301.4072)"><path
             d="m 0,0 h -55.112 c -3.138,0 -5.682,2.544 -5.682,5.682 v 67.696 c 0,3.138 2.544,5.682 5.682,5.682 h 48.476 c 2.923,0 5.369,-2.218 5.655,-5.128 L 5.654,6.236 C 5.982,2.895 3.356,0 0,0 Z"
             style="fill:none;stroke:#000000;stroke-width:15;stroke-linecap:round;stroke-linejoin:round;stroke-miterlimit:10;stroke-dasharray:none;stroke-opacity:1"
             id="path3368" /></g><g
           id="g3370"
           transform="translate(457.5596,155.5381)"><path
             d="m 0,0 h 12.41 26.28 c 4.56,0 8.25,-3.69 8.25,-8.24 v -38.05 c 0,-4.55 -3.69,-8.24 -8.25,-8.24 H 4.131"
             style="fill:none;stroke:#000000;stroke-width:15;stroke-linecap:round;stroke-linejoin:round;stroke-miterlimit:10;stroke-dasharray:none;stroke-opacity:1"
             id="path3372" /></g><g
           id="g3374"
           transform="translate(143.2676,124.728)"><path
             d="m 0,0 c 0,30.025 -24.34,54.365 -54.365,54.365 -30.025,0 -54.365,-24.34 -54.365,-54.365 0,-30.025 24.34,-54.365 54.365,-54.365 C -24.34,-54.365 0,-30.025 0,0 Z"
             style="fill:none;stroke:#000000;stroke-width:15;stroke-linecap:round;stroke-linejoin:round;stroke-miterlimit:10;stroke-dasharray:none;stroke-opacity:1"
             id="path3376" /></g><g
           id="g3378"
           transform="translate(114.5518,124.728)"><path
             d="m 0,0 c 0,14.166 -11.483,25.649 -25.649,25.649 -14.165,0 -25.649,-11.483 -25.649,-25.649 0,-14.166 11.484,-25.649 25.649,-25.649 C -11.483,-25.649 0,-14.166 0,0 Z"
             style="fill:none;stroke:#000000;stroke-width:15;stroke-linecap:round;stroke-linejoin:round;stroke-miterlimit:10;stroke-dasharray:none;stroke-opacity:1"
             id="path3380" /></g><g
           id="g3382"
           transform="translate(251.998,124.728)"><path
             d="m 0,0 c 0,30.025 -24.34,54.365 -54.365,54.365 -30.025,0 -54.365,-24.34 -54.365,-54.365 0,-30.025 24.34,-54.365 54.365,-54.365 C -24.34,-54.365 0,-30.025 0,0 Z"
             style="fill:none;stroke:#000000;stroke-width:15;stroke-linecap:round;stroke-linejoin:round;stroke-miterlimit:10;stroke-dasharray:none;stroke-opacity:1"
             id="path3384" /></g><g
           id="g3386"
           transform="translate(223.2822,124.728)"><path
             d="m 0,0 c 0,14.166 -11.483,25.649 -25.649,25.649 -14.165,0 -25.649,-11.483 -25.649,-25.649 0,-14.166 11.484,-25.649 25.649,-25.649 C -11.483,-25.649 0,-14.166 0,0 Z"
             style="fill:none;stroke:#000000;stroke-width:15;stroke-linecap:round;stroke-linejoin:round;stroke-miterlimit:10;stroke-dasharray:none;stroke-opacity:1"
             id="path3388" /></g><g
           id="g3390"
           transform="translate(467.125,124.728)"><path
             d="m 0,0 c 0,30.025 -24.34,54.365 -54.365,54.365 -30.026,0 -54.365,-24.34 -54.365,-54.365 0,-30.025 24.339,-54.365 54.365,-54.365 C -24.34,-54.365 0,-30.025 0,0 Z"
             style="fill:none;stroke:#000000;stroke-width:15;stroke-linecap:round;stroke-linejoin:round;stroke-miterlimit:10;stroke-dasharray:none;stroke-opacity:1"
             id="path3392" /></g><g
           id="g3394"
           transform="translate(438.4092,124.728)"><path
             d="m 0,0 c 0,14.166 -11.483,25.649 -25.649,25.649 -14.166,0 -25.65,-11.483 -25.65,-25.649 0,-14.166 11.484,-25.649 25.65,-25.649 C -11.483,-25.649 0,-14.166 0,0 Z"
             style="fill:none;stroke:#000000;stroke-width:15;stroke-linecap:round;stroke-linejoin:round;stroke-miterlimit:10;stroke-dasharray:none;stroke-opacity:1"
             id="path3396" /></g><g
           id="g3398"
           transform="translate(469.9697,155.5381)"><path
             d="M 0,0 V 58.47 C 0,72.99 11.771,84.75 26.28,84.75"
             style="fill:none;stroke:#000000;stroke-width:15;stroke-linecap:round;stroke-linejoin:round;stroke-miterlimit:10;stroke-dasharray:none;stroke-opacity:1"
             id="path3400" /></g><g
           id="g3402"
           transform="translate(131.71,218)"><path
             d="M 0,0 H 54.65 L 74.36,-38.91 H -77.28 L -57.57,0 H -30"
             style="fill:none;stroke:#000000;stroke-width:15;stroke-linecap:round;stroke-linejoin:round;stroke-miterlimit:10;stroke-dasharray:none;stroke-opacity:1"
             id="path3404" /></g><g
           id="g3406"
           transform="translate(264.9277,125.2183)"><path
             d="M 0,0 H 93.467"
             style="fill:none;stroke:#000000;stroke-width:15;stroke-linecap:round;stroke-linejoin:round;stroke-miterlimit:10;stroke-dasharray:none;stroke-opacity:1"
             id="path3408" /></g><g
           id="g3410"
           transform="translate(381.6504,272.8291)"><path
             d="M 0,0 H 21.947"
             style="fill:none;stroke:#000000;stroke-width:15;stroke-linecap:round;stroke-linejoin:round;stroke-miterlimit:10;stroke-dasharray:none;stroke-opacity:1"
             id="path3412" /></g></g></g></g></svg>
