<svg id="Layer_1" viewBox="-26.84 -3.84 565.68 519.68" xmlns="http://www.w3.org/2000/svg"><path d="m294.5 160.8v40.2h-5.1c-8.5 0-15.4 6.9-15.4 15.3 0 8.5 6.9 15.4 15.4 15.4h5.1v121.6h-5.1c-8.5 0-15.4 6.9-15.4 15.4s6.9 15.3 15.4 15.3h5.1v40.2c0 3 2.4 5.5 5.5 5.5h178.2c3 0 5.5-2.4 5.5-5.5v-263.4c0-3-2.4-5.5-5.5-5.5h-178.2c-3 .1-5.5 2.5-5.5 5.5zm-5.1 60c-2.4 0-4.4-2-4.4-4.4s2-4.4 4.4-4.4h21.2c2.4 0 4.4 2 4.4 4.4s-2 4.4-4.4 4.4zm0 152.2c-2.4 0-4.4-2-4.4-4.4s2-4.4 4.4-4.4h21.2c2.4 0 4.4 2 4.4 4.4s-2 4.4-4.4 4.4zm16.1-206.7h167.2v252.4h-167.2v-34.7h5.1c8.5 0 15.3-6.9 15.3-15.3 0-8.5-6.9-15.4-15.3-15.4h-5.1v-121.6h5.1c8.5 0 15.3-6.9 15.3-15.4s-6.9-15.3-15.3-15.3h-5.1zm-44 13h-227.7c-3 0-5.5 2.5-5.5 5.5v94.2c0 3 2.4 5.5 5.5 5.5h227.6c3 0 5.5-2.4 5.5-5.5v-94.2c0-3.1-2.4-5.5-5.4-5.5zm-5.5 94.2h-216.7v-83.3h216.7zm249.5-145.5h-55.5v-30.3c0-3.6 2.9-6.5 6.5-6.5 6.5-.1 21.9 0 28.1.6 2.2 0 4.3-1.4 5.1-3.5l18.4-47.2c1.5-3.4-1.4-7.6-5.1-7.5h-64.7c-25.3 0-45.9 20.6-45.9 45.9v48.5h-204.7v-9.3h25.9c3 0 5.5-2.5 5.5-5.5v-50.5c0-3-2.4-5.5-5.5-5.5h-91.2v-27.7c0-3-2.4-5.5-5.5-5.5h-60c-3 0-5.5 2.5-5.5 5.5v27.8h-13c-3 0-5.5 2.5-5.5 5.5v50.5c0 3 2.4 5.5 5.5 5.5h25.9v9.3h-57.8c-3 0-5.5 2.5-5.5 5.5v318.1c0 3 2.4 5.5 5.5 5.5h24.5v25.5c0 3 2.4 5.5 5.5 5.5h439.1c3 0 5.5-2.4 5.5-5.5v-25.7h24.5c3 0 5.5-2.4 5.5-5.5v-318c-.1-3.1-2.5-5.5-5.6-5.5zm-25.1-83.4h14.7l-14.1 36h-.6zm-77 34.9c0-19.3 15.7-35 35-35h31.1v35.6h-13c-9.6 0-17.4 7.8-17.4 17.4v30.5h-35.6v-48.5zm-341-44.6h49v22.3h-49zm-18.5 72.8v-39.5h164.2v39.5zm132.9 11v9.3h-20.6v-9.3zm-31.6 0v9.3h-38.3v-9.3zm-49.3 0v9.3h-20.6v-9.3zm374.2 358.4h-428.2v-20h428.1v20zm30-31h-488.2v-307.2c77.5 0 417.8.1 488.1 0v307.2zm-238.6-145.6h-227.7c-3 0-5.5 2.4-5.5 5.5v94.2c0 3 2.4 5.5 5.5 5.5h227.6c3 0 5.5-2.4 5.5-5.5v-94.2c0-3-2.4-5.5-5.4-5.5zm-5.5 94.3h-216.7v-83.3h216.7zm-196.6-39.3h173c3 0 5.5-2.4 5.5-5.5v-19.8c0-3-2.4-5.5-5.5-5.5h-173c-3 0-5.5 2.4-5.5 5.5v19.8c0 3 2.4 5.5 5.5 5.5zm5.4-19.8h162v8.9h-162zm339.8 35.5c3.4 4.9 11.5.9 9.7-4.8 0 0-16.7-57.1-16.7-57.1l27.4-13.6c3-1.4 4-5.5 2-8.2l-53.3-72.2c-1.6-2.1-4.5-2.8-6.8-1.7-2.4 1.2-3.6 3.9-2.8 6.4l16.7 57.1-27.4 13.6c-1.4.7-2.5 2-2.9 3.6s0 3.2.9 4.5zm-15-86.2c2.4-1.2 3.6-3.9 2.8-6.4l-9.3-31.9 31.1 42.2-25.7 12.7c-2.4 1.2-3.6 3.9-2.8 6.4l9.3 31.9-31.1-42.2zm-330.2-50.9h42c3 0 5.5-2.5 5.5-5.5v-19.8c0-3-2.4-5.5-5.5-5.5h-42c-3 0-5.5 2.5-5.5 5.5v19.8c0 3.1 2.4 5.5 5.5 5.5zm5.4-19.8h31.1v8.9h-31.1z"/></svg>