<svg clip-rule="evenodd" fill-rule="evenodd" image-rendering="optimizeQuality" shape-rendering="geometricPrecision" text-rendering="geometricPrecision" viewBox="-80.416 101.286 1866.164 1501.093" xmlns="http://www.w3.org/2000/svg"><g id="Layer_x0020_1"><path d="m1616 1360c-40 0-77 7-84-15-28-103-178-105-208 0-2 9-10 15-19 15h-390c-9 0-17-6-20-15-28-103-178-105-208 0-2 9-10 15-19 15h-123c-9 0-17-6-19-15-29-103-178-105-208 0-6 21-36 15-68 15-50 0-90-41-90-91v-148c0-11 8-20 20-20h1036v-383c0-11 9-20 20-20h249c122 0 222 100 222 222v349c-1 50-42 91-91 91zm-50-40c35 0 100 9 100-51v-349c0-100-82-182-181-182h-229v383c0 11-9 20-20 20h-1037v128c0 28 23 51 50 51h35c49-124 225-124 275 0h95c49-124 225-124 275 0h362c49-124 225-124 275 0z"/><path d="m1686 1040h-245c-55 0-101-45-101-101v-220c0-12 9-20 20-20h125c122 0 221 99 221 221v101c0 10-9 19-20 19zm-306-302v201c0 34 27 61 61 61h225v-80c0-100-82-182-181-182z"/><path d="m791 1523c-82 0-148-66-148-148s66-148 148-148 148 66 148 148-66 148-148 148zm0-256c-60 0-108 48-108 108s48 108 108 108 108-48 108-108-48-108-108-108z"/><path d="m421 1523c-81 0-148-66-148-148s67-148 148-148c82 0 149 66 149 148s-67 148-149 148zm0-256c-59 0-108 48-108 108s49 108 108 108c60 0 109-48 109-108s-49-108-109-108z"/><path d="m1428 1523c-82 0-148-66-148-148s66-148 148-148 148 66 148 148-66 148-148 148zm0-256c-60 0-108 48-108 108s48 108 108 108 108-48 108-108-48-108-108-108z"/><path d="m421 1449c-97 0-97-148 0-148 98 0 98 148 0 148zm0-108c-44 0-44 68 0 68 45 0 45-68 0-68z"/><path d="m791 1449c-97 0-97-148 0-148 98 0 98 148 0 148zm0-108c-45 0-45 68 0 68s45-68 0-68z"/><path d="m1428 1449c-97 0-97-148 0-148 98 0 98 148 0 148zm0-108c-45 0-45 68 0 68s45-68 0-68z"/><path d="m1236 1360c-11 0-20-9-20-20v-219c0-26 40-26 40 0v219c0 11-9 20-20 20z"/><path d="m1400 1122c-35 0-75 8-75-20 0-27 40-20 75-20 26 0 26 40 0 40z"/><path d="m1686 1228c-106 0-101 6-101-100 0-48 59-38 101-38 11 0 20 9 20 20v98c0 11-9 20-20 20zm-61-40h41v-58h-41z"/><path d="m328 1141-186-54c-5-1-10-5-12-9l-128-237c-5-10-1-22 9-27l717-386-40-75c-20-37-6-82 30-102l114-61c70-37 126 69 56 106l-47 26 218 406c5 10 2 22-8 27l-714 384c-3 1-6 2-9 2zm-167-90 165 49 689-371-219-406c-22-41 104-47 82-89-5-10-18-14-27-8-166 89-155 56-78 201 5 10 2 22-8 27l-718 385z"/><path d="m345 1024c-7 0-14-4-18-10l-93-175c-13-23 22-42 35-19l94 175c7 13-3 29-18 29z"/><path d="m514 934c-7 0-14-4-18-11l-94-174c-12-23 23-43 36-19l93 174c8 14-2 30-17 30z"/><path d="m682 843c-7 0-14-4-17-10l-94-175c-12-23 23-42 35-19l94 175c7 13-3 29-18 29z"/><path d="m851 752c-7 0-14-3-18-10l-93-175c-13-23 22-42 35-19l93 175c8 13-2 29-17 29z"/><path d="m1026 1141c-40 0-2-70-35-70-110 0-98-11-98 50 0 26-40 26-40 0v-35c0-30 25-55 55-55h83c30 0 55 25 55 55 0 23 6 55-20 55z"/><path d="m984 1071h-69c-11 0-20-9-20-20v-245c0-27 40-27 40 0v225h29v-262c0-27 40-27 40 0v282c0 11-9 20-20 20z"/></g></svg>