<svg height="512pt" viewBox="0 -56 512 512" width="512pt" xmlns="http://www.w3.org/2000/svg"><path d="m121.878906 327.53125c-4.886718 0-8.429687 4.574219-7.300781 9.269531.28125 1.148438.421875 2.351563.421875 3.539063-.011719 8.261718-6.738281 14.992187-15 15-8.261719-.007813-14.980469-6.738282-15-15 .019531-8.257813 6.738281-14.980469 15-15 4.140625 0 7.5-3.359375 7.5-7.5 0-4.128906-3.359375-7.5-7.5-7.5-16.550781 0-30 13.390625-30 30 0 16.597656 13.4375 30 30 30 16.53125 0 30-13.371094 30-30 0-2.378906-.28125-4.757813-.839844-7.070313-.820312-3.378906-3.808594-5.738281-7.28125-5.738281zm0 0"/><path d="m347.109375 327.738281c-4.019531.972657-6.5 5.042969-5.53125 9.0625.28125 1.148438.421875 2.339844.421875 3.539063-.019531 8.261718-6.75 14.992187-15 15-8.261719-.007813-14.988281-6.738282-15-15 .011719-8.257813 6.738281-14.980469 15-15 4.128906 0 7.5-3.359375 7.5-7.5 0-4.128906-3.371094-7.5-7.5-7.5-8.019531 0-15.550781 3.121094-21.210938 8.789062-5.667968 5.660156-8.789062 13.203125-8.789062 21.210938 0 16.566406 13.402344 30 30 30 16.574219 0 29.980469-13.402344 30-30 0-2.378906-.28125-4.757813-.839844-7.058594-.988281-4.089844-5.050781-6.503906-9.050781-5.542969zm0 0"/><path d="m452.109375 327.738281c-4.019531.972657-6.5 5.042969-5.53125 9.0625.28125 1.148438.421875 2.339844.421875 3.539063-.019531 8.261718-6.75 14.992187-15 15-8.261719-.007813-14.988281-6.738282-15-15 .011719-8.257813 6.738281-14.980469 15-15 4.128906 0 7.5-3.359375 7.5-7.5 0-4.128906-3.371094-7.5-7.5-7.5-16.59375 0-30 13.4375-30 30 0 16.566406 13.402344 30 30 30 16.574219 0 29.980469-13.402344 30-30 0-2.378906-.28125-4.757813-.839844-7.058594-.988281-4.089844-5.050781-6.503906-9.050781-5.542969zm0 0"/><path d="m489.5 280.339844c-12.4375 0-219.453125 0-226.003906 0 0-8.25 0-207.445313.003906-218.425782 0-8.132812 5.523438-15.132812 13.433594-17.023437 6.808594-1.628906 11.566406-7.628906 11.566406-14.59375v-15.285156c0-4.398438-1.921875-8.5625-5.269531-11.425781-3.332031-2.847657-7.714844-4.085938-12.042969-3.402344-14.527344 2.300781-27.855469 9.746094-37.527344 20.960937-9.777344 11.335938-15.160156 25.816407-15.160156 40.769531h-20.003906c-30.542969 0-55.832032 22.941407-59.53125 52.5h-7.957032c-17.667968 0-32.710937 12.035157-36.585937 29.273438l-14.425781 64.144531h-43.996094c-15.164062 0-27.5 12.335938-27.5 27.5v69.011719c-5.019531 2.429688-8.5 7.558594-8.5 13.496094v15c0 8.273437 6.730469 15 15 15h25.484375c3.707031 29.554687 28.972656 52.5 59.515625 52.5s55.8125-22.945313 59.515625-52.5h107.96875c3.707031 29.554687 28.972656 52.5 59.515625 52.5 22.566406 0 42.257812-12.527344 52.5-30.992188 10.242188 18.460938 29.933594 30.992188 52.5 30.992188 30.574219 0 55.863281-22.996094 59.527344-52.59375 11.457031-1.03125 20.472656-10.683594 20.472656-22.40625v-22.5c0-12.40625-10.09375-22.5-22.5-22.5zm-216-265.328125-.054688 15.289062c-14.6875 3.511719-24.945312 16.511719-24.945312 31.613281h-15c0-23.128906 17.210938-43.296874 40-46.902343zm-233.023438 317.828125h-25.476562v-15h29.386719c-1.953125 4.800781-3.265625 9.835937-3.910157 15zm59.523438 52.5c-24.8125 0-45-20.1875-45-45 0-25.011719 20.472656-45 45-45 24.8125 0 45 20.1875 45 45s-20.1875 45-45 45zm59.515625-52.5c-3.707031-29.554688-28.972656-52.5-59.515625-52.5-18.214844 0-35.414062 8.347656-46.78125 22.5h-29.71875v-67.507813c0-6.894531 5.605469-12.5 12.5-12.5h49.996094c3.511718 0 6.550781-2.433593 7.320312-5.855469l15.738282-70c2.328124-10.339843 11.355468-17.5625 21.953124-17.5625h14.878907c.039062 0 .074219.007813.113281.007813 4.152344 0 7.5-3.40625 7.5-7.511719 0-24.789062 20.164062-44.996094 44.996094-44.996094h50v37.496094h-72.496094c-4.140625 0-7.5 3.371094-7.5 7.5 0 4.140625 3.359375 7.511719 7.5 7.511719h72.5v158.417969c0 4.144531 3.355469 7.5 7.5 7.5h31.375c-10.710938 9.441406-18.027344 22.632812-19.890625 37.5zm167.484375 52.5c-24.8125 0-45-20.1875-45-45s20.183594-45 44.996094-45h.003906c24.8125 0 45 20.1875 45 45 0 24.816406-20.1875 45-45 45zm52.5-74.003906c-3.355469-6.046876-7.726562-11.453126-12.878906-15.996094h25.753906c-5.152344 4.542968-9.519531 9.949218-12.875 15.996094zm52.5 74.003906c-24.8125 0-45-20.1875-45-45s20.183594-45 44.996094-45h.003906c24.8125 0 45 20.1875 45 45 0 24.816406-20.1875 45-45 45zm65-60c0 3.449218-2.34375 6.355468-5.519531 7.226562-1.921875-14.753906-9.214844-27.839844-19.859375-37.226562h17.878906c4.136719 0 7.5 3.363281 7.5 7.5zm0 0"/><path d="m236 302.839844h-27.460938l.003907-150.925782c0-4.144531-3.359375-7.5-7.5-7.5h-71.824219c-3.507812 0-6.546875 2.429688-7.316406 5.855469l-14.261719 63.417969c-.5 2.222656.039063 4.550781 1.460937 6.328125 1.421876 1.78125 3.578126 2.816406 5.855469 2.816406h78.582031v80.007813h-11.757812c-11.105469-24.140625-32.261719-42.089844-57.53125-49.183594v-8.328125c0-4.128906-3.371094-7.5-7.5-7.5s-7.488281 3.359375-7.5 7.480469v.019531 14.21875c0 3.542969 2.511719 6.632813 5.980469 7.351563 24.519531 5.0625 45.449219 22.761718 54.621093 46.179687 1.109376 2.851563 3.917969 4.761719 6.976563 4.761719h59.171875c4.140625 0 7.5-3.355469 7.5-7.5 0-4.140625-3.359375-7.5-7.5-7.5zm-42.457031-95.007813h-69.210938l10.886719-48.417969h58.324219zm0 0"/></svg>